<svg width="15" height="16" viewBox="0 0 15 16" fill="none" xmlns="http://www.w3.org/2000/svg">
<path d="M10.045 11.8319L10.1742 13.9816L10.649 14.1407L12.03 12.6836L12.7438 9.16118L12.4282 8.4561L11.0728 9.50126L10.045 11.8319Z" fill="#6ACFF6"/>
<path d="M13.4109 11.2266L13.6619 11.0363L13.7055 8.61206L12.7438 9.16118L12.03 12.6836L13.4109 11.2266Z" fill="#00AEEF"/>
<path d="M12.8159 7.58871L11.178 9.32654L12.4282 8.4561L12.8159 7.58871Z" fill="#005DAC"/>
<path d="M12.9421 7.54193L12.8159 7.58871L12.4282 8.4561L12.9421 7.54193Z" fill="#283E95"/>
<path d="M13.7055 7.73536L12.9421 7.54193L12.4282 8.4561L12.7438 9.16118L13.7055 8.61206L14 8.53095L13.7055 7.73536Z" fill="#00AEEF"/>
<path d="M13.9128 10.846L14 8.53095L13.7055 8.61206L13.6619 11.0363L13.9128 10.846Z" fill="#283E95"/>
<path d="M11.0217 13.8879L13.9128 10.846L13.6619 11.0363L13.4109 11.2266L12.03 12.6836L10.649 14.1407L11.0217 13.8879Z" fill="#005DAC"/>
<path d="M10.1982 14.0564L10.649 14.1407L10.1742 13.9816L10.1982 14.0564Z" fill="#283E95"/>
<path d="M4.38235 13.4499L4.83449 11.6975L2.61111 7.52932L1.93237 7.26926L2.1083 8.20003L2.6713 11.1784L4.38235 13.4499Z" fill="#6ACFF6"/>
<path d="M1 9.99508L2.67191 12.9878L2.6713 11.1784L2.1083 8.20003L1 9.99508Z" fill="#283E95"/>
<path d="M1.75642 6.33855C1.46102 7.76653 1.2954 8.56715 1 9.99508L2.1083 8.20003L1.93237 7.26926L1.75642 6.33855Z" fill="#00AEEF"/>
<path d="M3.12789 7.30822L1.75642 6.33855L1.93237 7.26926L2.61111 7.52932L3.12789 7.30822Z" fill="#005DAC"/>
<path d="M6.01743 12.0819L3.49584 7.56837L3.12789 7.30822L2.61111 7.52932L4.83449 11.6975L6.0161 12.1077L6.01743 12.0819Z" fill="#00AEEF"/>
<path d="M5.84336 15.5L6.0161 12.1077L4.83449 11.6975L4.38235 13.4499L5.84336 15.5Z" fill="#283E95"/>
<path d="M2.67191 12.9878L5.84336 15.5L4.38235 13.4499L2.67191 12.9878Z" fill="#6ACFF6"/>
<path d="M2.67191 12.9878L4.38235 13.4499L2.6713 11.1784L2.67191 12.9878Z" fill="#005DAC"/>
<path d="M7.61074 13.6538L8.28534 14.5839L8.47318 13.7778L7.32893 11.3419L7.61074 13.6538Z" fill="#6ACFF6"/>
<path d="M8.28534 14.5839L8.92577 13.7335L8.47318 13.7778L8.28534 14.5839Z" fill="#00AEEF"/>
<path d="M8.92577 13.7335L9.20758 12.2897L9.00263 5.92982L8.13162 5.04404L8.22554 7.16103L8.47318 13.7778L8.92577 13.7335Z" fill="#6ACFF6"/>
<path d="M7.32893 11.3419L8.47318 13.7778L8.22554 7.16103L7.6876 5.47805L6.70556 8.30369L7.32893 11.3419Z" fill="#005DAC"/>
<path d="M7.08982 12.3871L7.61074 13.6538L7.32893 11.3419L6.70556 8.30369L5.85165 6.54099L7.08982 12.3871Z" fill="#00AEEF"/>
<path d="M6.87634 0.5L5.85165 6.54099L6.70556 8.30369L7.6876 5.47805L7.91814 4.37085L7.6876 1.81095C7.65625 1.75485 7.59363 1.63379 7.59363 1.59836C7.36682 1.2411 6.90574 0.521259 6.87634 0.5Z" fill="#6ACFF6"/>
<path d="M8.13162 5.04404L7.91814 4.37085L7.6876 5.47805L8.22554 7.16103L8.13162 5.04404Z" fill="#00AEEF"/>
<path d="M9.23317 3.39649L8.84891 2.13869L7.6876 1.81095L7.91814 4.37085L8.13162 5.04404L9.00263 5.92982L9.18194 5.04404L9.23317 3.39649Z" fill="#005DAC"/>
<path d="M8.45612 1.64265L6.87634 0.5C6.90574 0.521259 7.36682 1.2411 7.59363 1.59836L8.45612 1.64265Z" fill="#005DAC"/>
<path d="M8.84891 2.13869L8.45612 1.64265L7.59363 1.59836C7.59363 1.63379 7.65625 1.75485 7.6876 1.81095L8.84891 2.13869Z" fill="#283E95"/>
<path d="M9.63453 6.54099L9.23317 3.39649L9.18194 5.04404L9.63453 6.54099Z" fill="#6ACFF6"/>
<path d="M9.7114 7.3648L9.63453 6.54099L9.18194 5.04404L9.00263 5.92982L9.20758 12.2897L9.7114 7.3648Z" fill="#283E95"/>
</svg>
