<svg width="365" height="169" viewBox="0 0 365 169" fill="none" xmlns="http://www.w3.org/2000/svg">
<g clip-path="url(#clip0_302_3631)">
<rect x="2" y="2" width="361" height="165" rx="20" fill="url(#paint0_linear_302_3631)"/>
<path d="M134.098 32.5469H130.987C130.93 32.1444 130.814 31.7869 130.639 31.4744C130.464 31.1572 130.239 30.8873 129.964 30.6648C129.69 30.4422 129.373 30.2718 129.013 30.1534C128.658 30.035 128.272 29.9759 127.855 29.9759C127.102 29.9759 126.446 30.1629 125.888 30.5369C125.329 30.9062 124.896 31.446 124.588 32.1562C124.28 32.8617 124.126 33.7187 124.126 34.7273C124.126 35.7642 124.28 36.6354 124.588 37.3409C124.901 38.0464 125.336 38.5791 125.895 38.9389C126.454 39.2988 127.1 39.4787 127.834 39.4787C128.246 39.4787 128.627 39.4242 128.977 39.3153C129.332 39.2064 129.647 39.0478 129.922 38.8395C130.196 38.6264 130.424 38.3684 130.604 38.0653C130.788 37.7623 130.916 37.4167 130.987 37.0284L134.098 37.0426C134.018 37.7102 133.816 38.3542 133.494 38.9744C133.177 39.59 132.749 40.1416 132.209 40.6293C131.674 41.1122 131.035 41.4957 130.291 41.7798C129.553 42.0592 128.717 42.1989 127.784 42.1989C126.487 42.1989 125.327 41.9053 124.304 41.3182C123.286 40.7311 122.481 39.8812 121.889 38.7685C121.302 37.6558 121.009 36.3087 121.009 34.7273C121.009 33.1411 121.307 31.7917 121.903 30.679C122.5 29.5663 123.31 28.7187 124.332 28.1364C125.355 27.5492 126.506 27.2557 127.784 27.2557C128.627 27.2557 129.408 27.3741 130.128 27.6108C130.852 27.8475 131.494 28.1932 132.053 28.6477C132.611 29.0975 133.066 29.6491 133.416 30.3026C133.771 30.956 133.999 31.7041 134.098 32.5469ZM136.246 42V31.0909H145.785V42H142.894V33.4702H139.102V42H136.246ZM149.677 46.0909C149.293 46.0909 148.933 46.0601 148.597 45.9986C148.266 45.9418 147.991 45.8684 147.773 45.7784L148.455 43.5199C148.81 43.6288 149.13 43.688 149.414 43.6974C149.703 43.7069 149.951 43.6406 150.16 43.4986C150.373 43.3565 150.546 43.1151 150.678 42.7741L150.856 42.3125L146.942 31.0909H150.124L152.383 39.1023H152.496L154.776 31.0909H157.979L153.739 43.179C153.536 43.7661 153.259 44.2775 152.908 44.7131C152.563 45.1534 152.125 45.492 151.594 45.7287C151.064 45.9702 150.425 46.0909 149.677 46.0909ZM158.96 33.4702V31.0909H168.846V33.4702H165.33V42H162.447V33.4702H158.96ZM178.272 35.3381V37.7173H172.576V35.3381H178.272ZM173.571 31.0909V42H170.68V31.0909H173.571ZM180.169 31.0909V42H177.299V31.0909H180.169ZM185.407 38.0085L189.334 31.0909H192.317V42H189.434V35.0611L185.52 42H182.516V31.0909H185.407V38.0085ZM194.743 42V31.0909H197.768V35.3239H198.62L201.589 31.0909H205.14L201.284 36.5028L205.183 42H201.589L198.897 38.1293H197.768V42H194.743ZM209.352 38.0085L213.279 31.0909H216.262V42H213.379V35.0611L209.466 42H206.461V31.0909H209.352V38.0085ZM130.916 51.4545V53.9901H124.339V66H121.264V51.4545H130.916ZM134.455 66.206C133.759 66.206 133.139 66.0852 132.594 65.8438C132.05 65.5975 131.619 65.2353 131.301 64.7571C130.989 64.2741 130.833 63.6728 130.833 62.9531C130.833 62.3471 130.944 61.8381 131.167 61.4261C131.389 61.0142 131.692 60.6828 132.076 60.4318C132.459 60.1809 132.895 59.9915 133.382 59.8636C133.875 59.7358 134.391 59.6458 134.931 59.5938C135.565 59.5275 136.077 59.4659 136.465 59.4091C136.853 59.3475 137.135 59.2576 137.31 59.1392C137.485 59.0208 137.573 58.8456 137.573 58.6136V58.571C137.573 58.1212 137.431 57.7732 137.147 57.527C136.867 57.2808 136.47 57.1577 135.953 57.1577C135.409 57.1577 134.976 57.2784 134.654 57.5199C134.332 57.7566 134.119 58.0549 134.015 58.4148L131.216 58.1875C131.358 57.5246 131.638 56.9517 132.054 56.4688C132.471 55.9811 133.008 55.607 133.667 55.3466C134.329 55.0814 135.096 54.9489 135.968 54.9489C136.574 54.9489 137.154 55.0199 137.708 55.1619C138.266 55.304 138.761 55.5241 139.192 55.8224C139.628 56.1207 139.971 56.5043 140.222 56.973C140.473 57.437 140.598 57.9934 140.598 58.642V66H137.729V64.4872H137.644C137.469 64.8281 137.234 65.1288 136.941 65.3892C136.647 65.6449 136.294 65.8461 135.882 65.9929C135.471 66.1349 134.995 66.206 134.455 66.206ZM135.321 64.1179C135.766 64.1179 136.159 64.0303 136.5 63.8551C136.841 63.6752 137.109 63.4337 137.303 63.1307C137.497 62.8277 137.594 62.4844 137.594 62.1009V60.9432C137.499 61.0047 137.369 61.0616 137.203 61.1136C137.042 61.161 136.86 61.206 136.657 61.2486C136.453 61.2865 136.249 61.322 136.046 61.3551C135.842 61.3835 135.658 61.4096 135.492 61.4332C135.137 61.4853 134.827 61.5682 134.561 61.6818C134.296 61.7955 134.09 61.9493 133.944 62.1435C133.797 62.3329 133.723 62.5696 133.723 62.8537C133.723 63.2656 133.873 63.5805 134.171 63.7983C134.474 64.0114 134.857 64.1179 135.321 64.1179ZM150.538 59.3381V61.7173H144.842V59.3381H150.538ZM145.836 55.0909V66H142.946V55.0909H145.836ZM152.434 55.0909V66H149.565V55.0909H152.434ZM157.672 62.0085L161.6 55.0909H164.583V66H161.699V59.0611L157.786 66H154.782V55.0909H157.672V62.0085ZM173.457 62.6548L176.412 55.0909H178.713L174.458 66H172.449L168.294 55.0909H170.588L173.457 62.6548ZM169.899 55.0909V66H167.008V55.0909H169.899ZM177.164 66V55.0909H180.02V66H177.164ZM187.331 66.2131C186.209 66.2131 185.243 65.9858 184.434 65.5312C183.629 65.072 183.008 64.4233 182.573 63.5852C182.137 62.7424 181.919 61.7457 181.919 60.5952C181.919 59.473 182.137 58.4882 182.573 57.6406C183.008 56.7931 183.622 56.1326 184.412 55.6591C185.208 55.1856 186.141 54.9489 187.211 54.9489C187.93 54.9489 188.6 55.0649 189.221 55.2969C189.846 55.5241 190.39 55.8674 190.854 56.3267C191.323 56.786 191.687 57.3636 191.948 58.0597C192.208 58.7509 192.338 59.5606 192.338 60.4886V61.3196H183.127V59.4446H189.49C189.49 59.009 189.396 58.6231 189.206 58.2869C189.017 57.9508 188.754 57.688 188.418 57.4986C188.087 57.3045 187.701 57.2074 187.26 57.2074C186.801 57.2074 186.394 57.3139 186.039 57.527C185.688 57.7353 185.414 58.017 185.215 58.3722C185.016 58.7225 184.914 59.1132 184.909 59.544V61.3267C184.909 61.8665 185.009 62.3329 185.208 62.7259C185.411 63.1188 185.698 63.4219 186.067 63.6349C186.436 63.848 186.874 63.9545 187.381 63.9545C187.717 63.9545 188.025 63.9072 188.304 63.8125C188.584 63.7178 188.823 63.5758 189.022 63.3864C189.221 63.197 189.372 62.965 189.476 62.6903L192.275 62.875C192.132 63.5473 191.841 64.1345 191.401 64.6364C190.965 65.1335 190.402 65.5218 189.711 65.8011C189.024 66.0758 188.231 66.2131 187.331 66.2131ZM193.461 69.196V63.5994H194.299C194.54 63.4479 194.734 63.2064 194.881 62.875C195.033 62.5436 195.156 62.1529 195.25 61.7031C195.35 61.2533 195.426 60.768 195.478 60.2472C195.534 59.7216 195.584 59.1913 195.627 58.6562L195.911 55.0909H204.277V63.5994H205.968V69.196H203.084V66H196.415V69.196H193.461ZM197.31 63.5994H201.422V57.4205H198.482L198.368 58.6562C198.288 59.821 198.172 60.8106 198.02 61.625C197.869 62.4347 197.632 63.0928 197.31 63.5994ZM215.25 62.0085L219.178 55.0909H222.161V66H219.277V59.0611L215.364 66H212.36V55.0909H215.25V62.0085ZM238.072 66L233.398 59.7997H232.347V66H229.272V51.4545H232.347V57.2642H232.965L237.795 51.4545H241.623L235.948 58.2017L241.886 66H238.072ZM246.486 66.206C245.79 66.206 245.17 66.0852 244.625 65.8438C244.081 65.5975 243.65 65.2353 243.333 64.7571C243.02 64.2741 242.864 63.6728 242.864 62.9531C242.864 62.3471 242.975 61.8381 243.198 61.4261C243.42 61.0142 243.723 60.6828 244.107 60.4318C244.49 60.1809 244.926 59.9915 245.414 59.8636C245.906 59.7358 246.422 59.6458 246.962 59.5938C247.596 59.5275 248.108 59.4659 248.496 59.4091C248.884 59.3475 249.166 59.2576 249.341 59.1392C249.516 59.0208 249.604 58.8456 249.604 58.6136V58.571C249.604 58.1212 249.462 57.7732 249.178 57.527C248.899 57.2808 248.501 57.1577 247.985 57.1577C247.44 57.1577 247.007 57.2784 246.685 57.5199C246.363 57.7566 246.15 58.0549 246.046 58.4148L243.248 58.1875C243.39 57.5246 243.669 56.9517 244.086 56.4688C244.502 55.9811 245.04 55.607 245.698 55.3466C246.361 55.0814 247.128 54.9489 247.999 54.9489C248.605 54.9489 249.185 55.0199 249.739 55.1619C250.298 55.304 250.792 55.5241 251.223 55.8224C251.659 56.1207 252.002 56.5043 252.253 56.973C252.504 57.437 252.63 57.9934 252.63 58.642V66H249.76V64.4872H249.675C249.5 64.8281 249.266 65.1288 248.972 65.3892C248.678 65.6449 248.326 65.8461 247.914 65.9929C247.502 66.1349 247.026 66.206 246.486 66.206ZM247.353 64.1179C247.798 64.1179 248.191 64.0303 248.532 63.8551C248.873 63.6752 249.14 63.4337 249.334 63.1307C249.528 62.8277 249.625 62.4844 249.625 62.1009V60.9432C249.531 61.0047 249.4 61.0616 249.235 61.1136C249.074 61.161 248.891 61.206 248.688 61.2486C248.484 61.2865 248.281 61.322 248.077 61.3551C247.873 61.3835 247.689 61.4096 247.523 61.4332C247.168 61.4853 246.858 61.5682 246.593 61.6818C246.328 61.7955 246.122 61.9493 245.975 62.1435C245.828 62.3329 245.755 62.5696 245.755 62.8537C245.755 63.2656 245.904 63.5805 246.202 63.7983C246.505 64.0114 246.889 64.1179 247.353 64.1179ZM254.338 66L254.324 63.5994H254.686C254.941 63.5994 255.162 63.5379 255.346 63.4148C255.536 63.2869 255.692 63.081 255.815 62.7969C255.938 62.5128 256.035 62.1364 256.106 61.6676C256.177 61.1941 256.225 60.6117 256.248 59.9205L256.426 55.0909H264.721V66H261.838V57.4702H259.146L258.975 60.8011C258.933 61.715 258.822 62.5009 258.642 63.1591C258.467 63.8172 258.223 64.357 257.91 64.7784C257.598 65.1951 257.221 65.5028 256.781 65.7017C256.341 65.9006 255.829 66 255.247 66H254.338ZM266.428 66L266.413 63.5994H266.776C267.031 63.5994 267.251 63.5379 267.436 63.4148C267.625 63.2869 267.782 63.081 267.905 62.7969C268.028 62.5128 268.125 62.1364 268.196 61.6676C268.267 61.1941 268.314 60.6117 268.338 59.9205L268.516 55.0909H276.811V66H273.928V57.4702H271.236L271.065 60.8011C271.023 61.715 270.911 62.5009 270.732 63.1591C270.556 63.8172 270.312 64.357 270 64.7784C269.688 65.1951 269.311 65.5028 268.871 65.7017C268.43 65.9006 267.919 66 267.337 66H266.428ZM282.047 62.0085L285.975 55.0909H288.958V66H286.074V59.0611L282.161 66H279.157V55.0909H282.047V62.0085ZM296.312 66.2131C295.195 66.2131 294.234 65.9763 293.429 65.5028C292.628 65.0246 292.013 64.3617 291.582 63.5142C291.156 62.6667 290.943 61.6913 290.943 60.5881C290.943 59.4706 291.158 58.4905 291.589 57.6477C292.025 56.8002 292.643 56.1397 293.443 55.6662C294.243 55.188 295.195 54.9489 296.298 54.9489C297.25 54.9489 298.083 55.1217 298.798 55.4673C299.513 55.813 300.079 56.2983 300.495 56.9233C300.912 57.5483 301.142 58.2822 301.184 59.125H298.329C298.249 58.5805 298.036 58.1425 297.69 57.8111C297.349 57.4749 296.902 57.3068 296.348 57.3068C295.879 57.3068 295.469 57.4347 295.119 57.6903C294.773 57.9413 294.503 58.3082 294.309 58.7912C294.115 59.2741 294.018 59.8589 294.018 60.5455C294.018 61.2415 294.113 61.8333 294.302 62.321C294.496 62.8087 294.769 63.1804 295.119 63.4361C295.469 63.6918 295.879 63.8196 296.348 63.8196C296.693 63.8196 297.003 63.7486 297.278 63.6065C297.557 63.4645 297.787 63.2585 297.967 62.9886C298.152 62.714 298.272 62.3849 298.329 62.0014H301.184C301.137 62.8348 300.91 63.5687 300.502 64.2031C300.1 64.8329 299.544 65.3253 298.833 65.6804C298.123 66.0355 297.283 66.2131 296.312 66.2131ZM302.377 57.4702V55.0909H312.264V57.4702H308.748V66H305.865V57.4702H302.377ZM318.636 66.2131C317.533 66.2131 316.579 65.9787 315.774 65.5099C314.974 65.0365 314.356 64.3783 313.92 63.5355C313.485 62.688 313.267 61.7055 313.267 60.5881C313.267 59.4612 313.485 58.4763 313.92 57.6335C314.356 56.786 314.974 56.1278 315.774 55.6591C316.579 55.1856 317.533 54.9489 318.636 54.9489C319.74 54.9489 320.691 55.1856 321.491 55.6591C322.296 56.1278 322.917 56.786 323.352 57.6335C323.788 58.4763 324.006 59.4612 324.006 60.5881C324.006 61.7055 323.788 62.688 323.352 63.5355C322.917 64.3783 322.296 65.0365 321.491 65.5099C320.691 65.9787 319.74 66.2131 318.636 66.2131ZM318.651 63.8693C319.152 63.8693 319.571 63.7273 319.908 63.4432C320.244 63.1544 320.497 62.7614 320.668 62.2642C320.843 61.767 320.93 61.2012 320.93 60.5668C320.93 59.9323 320.843 59.3665 320.668 58.8693C320.497 58.3722 320.244 57.9792 319.908 57.6903C319.571 57.4015 319.152 57.2571 318.651 57.2571C318.144 57.2571 317.718 57.4015 317.372 57.6903C317.031 57.9792 316.773 58.3722 316.598 58.8693C316.428 59.3665 316.342 59.9323 316.342 60.5668C316.342 61.2012 316.428 61.767 316.598 62.2642C316.773 62.7614 317.031 63.1544 317.372 63.4432C317.718 63.7273 318.144 63.8693 318.651 63.8693Z" fill="#FFA05C"/>
<path d="M129.301 87.3239V89.2955H124.284V87.3239H129.301ZM120.818 90.1875H123.267C123.309 90.8542 123.517 91.3561 123.892 91.6932C124.267 92.0303 124.822 92.1989 125.557 92.1989C126.155 92.1989 126.631 92.0587 126.983 91.7784C127.335 91.4981 127.589 91.0947 127.744 90.5682C127.9 90.0379 127.977 89.4034 127.977 88.6648V87.7216C127.977 86.9602 127.888 86.3182 127.71 85.7955C127.536 85.2689 127.269 84.8712 126.909 84.6023C126.553 84.3333 126.097 84.1989 125.54 84.1989C124.991 84.1989 124.555 84.2822 124.233 84.4489C123.911 84.6155 123.676 84.8542 123.528 85.1648C123.381 85.4716 123.29 85.8428 123.256 86.2784H120.807C120.883 85.5133 121.102 84.8239 121.466 84.2102C121.833 83.5928 122.354 83.1042 123.028 82.7443C123.706 82.3845 124.544 82.2045 125.54 82.2045C126.528 82.2045 127.386 82.4299 128.114 82.8807C128.841 83.3314 129.403 83.9697 129.801 84.7955C130.199 85.6212 130.398 86.5985 130.398 87.7273V88.6705C130.398 89.7992 130.203 90.7746 129.812 91.5966C129.426 92.4148 128.871 93.0473 128.148 93.4943C127.424 93.9375 126.561 94.1591 125.557 94.1591C124.598 94.1591 123.777 93.9924 123.091 93.6591C122.405 93.322 121.869 92.8561 121.483 92.2614C121.097 91.6629 120.875 90.9716 120.818 90.1875ZM131.714 87.1761V85.2727H139.624V87.1761H136.811V94H134.504V87.1761H131.714ZM143.267 94.1648C142.71 94.1648 142.214 94.0682 141.778 93.875C141.343 93.678 140.998 93.3883 140.744 93.0057C140.494 92.6193 140.369 92.1383 140.369 91.5625C140.369 91.0777 140.458 90.6705 140.636 90.3409C140.814 90.0114 141.057 89.7462 141.364 89.5455C141.67 89.3447 142.019 89.1932 142.409 89.0909C142.803 88.9886 143.216 88.9167 143.648 88.875C144.155 88.822 144.564 88.7727 144.875 88.7273C145.186 88.678 145.411 88.6061 145.551 88.5114C145.691 88.4167 145.761 88.2765 145.761 88.0909V88.0568C145.761 87.697 145.648 87.4186 145.42 87.2216C145.197 87.0246 144.879 86.9261 144.466 86.9261C144.03 86.9261 143.684 87.0227 143.426 87.2159C143.169 87.4053 142.998 87.6439 142.915 87.9318L140.676 87.75C140.79 87.2197 141.013 86.7614 141.347 86.375C141.68 85.9848 142.11 85.6856 142.636 85.4773C143.167 85.2652 143.78 85.1591 144.477 85.1591C144.962 85.1591 145.426 85.2159 145.869 85.3295C146.316 85.4432 146.712 85.6193 147.057 85.858C147.405 86.0966 147.68 86.4034 147.881 86.7784C148.081 87.1496 148.182 87.5947 148.182 88.1136V94H145.886V92.7898H145.818C145.678 93.0625 145.491 93.303 145.256 93.5114C145.021 93.7159 144.739 93.8769 144.409 93.9943C144.08 94.108 143.699 94.1648 143.267 94.1648ZM143.96 92.4943C144.316 92.4943 144.631 92.4242 144.903 92.2841C145.176 92.1402 145.39 91.947 145.545 91.7045C145.701 91.4621 145.778 91.1875 145.778 90.8807V89.9545C145.703 90.0038 145.598 90.0492 145.466 90.0909C145.337 90.1288 145.191 90.1648 145.028 90.1989C144.866 90.2292 144.703 90.2576 144.54 90.2841C144.377 90.3068 144.229 90.3277 144.097 90.3466C143.813 90.3883 143.564 90.4545 143.352 90.5455C143.14 90.6364 142.975 90.7595 142.858 90.9148C142.741 91.0663 142.682 91.2557 142.682 91.483C142.682 91.8125 142.801 92.0644 143.04 92.2386C143.282 92.4091 143.589 92.4943 143.96 92.4943ZM150.06 94V85.2727H157.69V94H155.378V87.1761H152.344V94H150.06ZM163.303 94V92.2273L167.445 88.392C167.797 88.0511 168.092 87.7443 168.331 87.4716C168.573 87.1989 168.757 86.9318 168.882 86.6705C169.007 86.4053 169.07 86.1193 169.07 85.8125C169.07 85.4716 168.992 85.178 168.837 84.9318C168.681 84.6818 168.469 84.4905 168.2 84.358C167.931 84.2216 167.626 84.1534 167.286 84.1534C166.929 84.1534 166.619 84.2254 166.354 84.3693C166.089 84.5133 165.884 84.7197 165.74 84.9886C165.596 85.2576 165.524 85.5777 165.524 85.9489H163.189C163.189 85.1875 163.361 84.5265 163.706 83.9659C164.051 83.4053 164.534 82.9716 165.155 82.6648C165.776 82.358 166.492 82.2045 167.303 82.2045C168.136 82.2045 168.861 82.3523 169.479 82.6477C170.1 82.9394 170.583 83.3447 170.928 83.8636C171.272 84.3826 171.445 84.9773 171.445 85.6477C171.445 86.0871 171.357 86.5208 171.183 86.9489C171.013 87.3769 170.708 87.8523 170.268 88.375C169.829 88.8939 169.21 89.517 168.411 90.2443L166.712 91.9091V91.9886H171.598V94H163.303ZM174.818 92.6477C174.443 92.6477 174.121 92.5152 173.852 92.25C173.587 91.9848 173.455 91.6629 173.455 91.2841C173.455 90.9129 173.587 90.5947 173.852 90.3295C174.121 90.0644 174.443 89.9318 174.818 89.9318C175.182 89.9318 175.5 90.0644 175.773 90.3295C176.045 90.5947 176.182 90.9129 176.182 91.2841C176.182 91.5341 176.117 91.7633 175.989 91.9716C175.864 92.1761 175.699 92.3409 175.494 92.4659C175.29 92.5871 175.064 92.6477 174.818 92.6477ZM174.818 86.9375C174.443 86.9375 174.121 86.8049 173.852 86.5398C173.587 86.2746 173.455 85.9527 173.455 85.5739C173.455 85.2027 173.587 84.8864 173.852 84.625C174.121 84.3598 174.443 84.2273 174.818 84.2273C175.182 84.2273 175.5 84.3598 175.773 84.625C176.045 84.8864 176.182 85.2027 176.182 85.5739C176.182 85.8277 176.117 86.0587 175.989 86.267C175.864 86.4716 175.699 86.6345 175.494 86.7557C175.29 86.8769 175.064 86.9375 174.818 86.9375Z" fill="#FFA05C"/>
<path d="M193.278 86.4375H190.79C190.744 86.1155 190.652 85.8295 190.511 85.5795C190.371 85.3258 190.191 85.1098 189.972 84.9318C189.752 84.7538 189.498 84.6174 189.21 84.5227C188.926 84.428 188.617 84.3807 188.284 84.3807C187.682 84.3807 187.157 84.5303 186.71 84.8295C186.263 85.125 185.917 85.5568 185.67 86.125C185.424 86.6894 185.301 87.375 185.301 88.1818C185.301 89.0114 185.424 89.7083 185.67 90.2727C185.92 90.8371 186.269 91.2633 186.716 91.5511C187.163 91.839 187.68 91.983 188.267 91.983C188.597 91.983 188.902 91.9394 189.182 91.8523C189.466 91.7652 189.718 91.6383 189.938 91.4716C190.157 91.3011 190.339 91.0947 190.483 90.8523C190.631 90.6098 190.733 90.3333 190.79 90.0227L193.278 90.0341C193.214 90.5682 193.053 91.0833 192.795 91.5795C192.542 92.072 192.199 92.5133 191.767 92.9034C191.339 93.2898 190.828 93.5966 190.233 93.8239C189.642 94.0473 188.973 94.1591 188.227 94.1591C187.189 94.1591 186.261 93.9242 185.443 93.4545C184.629 92.9848 183.985 92.3049 183.511 91.4148C183.042 90.5246 182.807 89.447 182.807 88.1818C182.807 86.9129 183.045 85.8333 183.523 84.9432C184 84.053 184.648 83.375 185.466 82.9091C186.284 82.4394 187.205 82.2045 188.227 82.2045C188.902 82.2045 189.527 82.2992 190.102 82.4886C190.682 82.678 191.195 82.9545 191.642 83.3182C192.089 83.678 192.453 84.1193 192.733 84.642C193.017 85.1648 193.199 85.7633 193.278 86.4375ZM194.543 87.1761V85.2727H202.452V87.1761H199.639V94H197.332V87.1761H194.543ZM206.095 94.1648C205.538 94.1648 205.042 94.0682 204.607 93.875C204.171 93.678 203.826 93.3883 203.572 93.0057C203.322 92.6193 203.197 92.1383 203.197 91.5625C203.197 91.0777 203.286 90.6705 203.464 90.3409C203.643 90.0114 203.885 89.7462 204.192 89.5455C204.499 89.3447 204.847 89.1932 205.237 89.0909C205.631 88.9886 206.044 88.9167 206.476 88.875C206.983 88.822 207.393 88.7727 207.703 88.7273C208.014 88.678 208.239 88.6061 208.379 88.5114C208.519 88.4167 208.589 88.2765 208.589 88.0909V88.0568C208.589 87.697 208.476 87.4186 208.249 87.2216C208.025 87.0246 207.707 86.9261 207.294 86.9261C206.858 86.9261 206.512 87.0227 206.254 87.2159C205.997 87.4053 205.826 87.6439 205.743 87.9318L203.504 87.75C203.618 87.2197 203.841 86.7614 204.175 86.375C204.508 85.9848 204.938 85.6856 205.464 85.4773C205.995 85.2652 206.608 85.1591 207.305 85.1591C207.79 85.1591 208.254 85.2159 208.697 85.3295C209.144 85.4432 209.54 85.6193 209.885 85.858C210.233 86.0966 210.508 86.4034 210.709 86.7784C210.91 87.1496 211.01 87.5947 211.01 88.1136V94H208.714V92.7898H208.646C208.506 93.0625 208.319 93.303 208.084 93.5114C207.849 93.7159 207.567 93.8769 207.237 93.9943C206.908 94.108 206.527 94.1648 206.095 94.1648ZM206.788 92.4943C207.144 92.4943 207.459 92.4242 207.732 92.2841C208.004 92.1402 208.218 91.947 208.374 91.7045C208.529 91.4621 208.607 91.1875 208.607 90.8807V89.9545C208.531 90.0038 208.427 90.0492 208.294 90.0909C208.165 90.1288 208.019 90.1648 207.857 90.1989C207.694 90.2292 207.531 90.2576 207.368 90.2841C207.205 90.3068 207.057 90.3277 206.925 90.3466C206.641 90.3883 206.393 90.4545 206.18 90.5455C205.968 90.6364 205.804 90.7595 205.686 90.9148C205.569 91.0663 205.51 91.2557 205.51 91.483C205.51 91.8125 205.629 92.0644 205.868 92.2386C206.11 92.4091 206.417 92.4943 206.788 92.4943ZM212.32 94L215.371 89.4602L212.337 85.2727H215.098L217.365 88.6875H217.74V85.2727H220.161V88.6875H220.524L222.791 85.2727H225.553L222.524 89.4602L225.57 94H222.746L220.501 90.5909H220.161V94H217.74V90.5909H217.399L215.143 94H212.32ZM230.599 94.1705C229.702 94.1705 228.929 93.9886 228.281 93.625C227.637 93.2576 227.141 92.7386 226.793 92.0682C226.444 91.3939 226.27 90.5966 226.27 89.6761C226.27 88.7784 226.444 87.9905 226.793 87.3125C227.141 86.6345 227.632 86.1061 228.264 85.7273C228.901 85.3485 229.647 85.1591 230.503 85.1591C231.079 85.1591 231.615 85.2519 232.111 85.4375C232.611 85.6193 233.046 85.8939 233.418 86.2614C233.793 86.6288 234.084 87.0909 234.293 87.6477C234.501 88.2008 234.605 88.8485 234.605 89.5909V90.2557H227.236V88.7557H232.327C232.327 88.4072 232.251 88.0985 232.099 87.8295C231.948 87.5606 231.738 87.3504 231.469 87.1989C231.204 87.0436 230.895 86.9659 230.543 86.9659C230.175 86.9659 229.849 87.0511 229.565 87.2216C229.285 87.3883 229.065 87.6136 228.906 87.8977C228.747 88.178 228.666 88.4905 228.662 88.8352V90.2614C228.662 90.6932 228.741 91.0663 228.901 91.3807C229.063 91.6951 229.293 91.9375 229.588 92.108C229.884 92.2784 230.234 92.3636 230.639 92.3636C230.908 92.3636 231.154 92.3258 231.378 92.25C231.601 92.1742 231.793 92.0606 231.952 91.9091C232.111 91.7576 232.232 91.572 232.315 91.3523L234.554 91.5C234.44 92.0379 234.207 92.5076 233.855 92.9091C233.507 93.3068 233.056 93.6174 232.503 93.8409C231.954 94.0606 231.319 94.1705 230.599 94.1705ZM236.185 97.2727V85.2727H238.571V86.7386H238.679C238.785 86.5038 238.938 86.2652 239.139 86.0227C239.344 85.7765 239.609 85.572 239.935 85.4091C240.264 85.2424 240.673 85.1591 241.162 85.1591C241.798 85.1591 242.385 85.3258 242.923 85.6591C243.461 85.9886 243.891 86.4867 244.213 87.1534C244.535 87.8163 244.696 88.6477 244.696 89.6477C244.696 90.6212 244.539 91.4432 244.224 92.1136C243.914 92.7803 243.49 93.286 242.952 93.6307C242.418 93.9716 241.819 94.142 241.156 94.142C240.687 94.142 240.287 94.0644 239.957 93.9091C239.632 93.7538 239.365 93.5587 239.156 93.3239C238.948 93.0852 238.789 92.8447 238.679 92.6023H238.605V97.2727H236.185ZM238.554 89.6364C238.554 90.1553 238.626 90.608 238.77 90.9943C238.914 91.3807 239.122 91.6818 239.395 91.8977C239.668 92.1098 239.999 92.2159 240.389 92.2159C240.783 92.2159 241.116 92.108 241.389 91.892C241.662 91.6723 241.868 91.3693 242.009 90.983C242.152 90.5928 242.224 90.1439 242.224 89.6364C242.224 89.1326 242.154 88.6894 242.014 88.3068C241.874 87.9242 241.668 87.625 241.395 87.4091C241.122 87.1932 240.787 87.0852 240.389 87.0852C239.995 87.0852 239.662 87.1894 239.389 87.3977C239.12 87.6061 238.914 87.9015 238.77 88.2841C238.626 88.6667 238.554 89.1174 238.554 89.6364Z" fill="white"/>
<path d="M127.781 136.273V145H126.469V137.398H122.361V145H121.048V136.273H127.781ZM132.45 145.132C131.836 145.132 131.3 144.991 130.843 144.71C130.386 144.429 130.031 144.036 129.778 143.53C129.525 143.024 129.398 142.433 129.398 141.757C129.398 141.078 129.525 140.484 129.778 139.976C130.031 139.467 130.386 139.072 130.843 138.791C131.3 138.51 131.836 138.369 132.45 138.369C133.063 138.369 133.599 138.51 134.056 138.791C134.513 139.072 134.869 139.467 135.121 139.976C135.374 140.484 135.501 141.078 135.501 141.757C135.501 142.433 135.374 143.024 135.121 143.53C134.869 144.036 134.513 144.429 134.056 144.71C133.599 144.991 133.063 145.132 132.45 145.132ZM132.454 144.062C132.852 144.062 133.181 143.957 133.442 143.747C133.704 143.537 133.897 143.257 134.022 142.908C134.15 142.558 134.214 142.173 134.214 141.753C134.214 141.335 134.15 140.952 134.022 140.602C133.897 140.25 133.704 139.967 133.442 139.754C133.181 139.541 132.852 139.435 132.454 139.435C132.053 139.435 131.721 139.541 131.457 139.754C131.195 139.967 131.001 140.25 130.873 140.602C130.748 140.952 130.685 141.335 130.685 141.753C130.685 142.173 130.748 142.558 130.873 142.908C131.001 143.257 131.195 143.537 131.457 143.747C131.721 143.957 132.053 144.062 132.454 144.062ZM136.284 146.888V143.896H136.816C136.953 143.771 137.068 143.622 137.162 143.449C137.258 143.276 137.339 143.07 137.404 142.831C137.473 142.592 137.529 142.314 137.575 141.996C137.62 141.675 137.66 141.308 137.694 140.896L137.899 138.455H142.348V143.896H143.353V146.888H142.109V145H137.545V146.888H136.284ZM138.18 143.896H141.103V139.545H139.041L138.904 140.896C138.839 141.584 138.757 142.18 138.657 142.686C138.558 143.189 138.399 143.592 138.18 143.896ZM148.783 138.455V139.554H145.856V145H144.599V138.455H148.783ZM152.582 145.132C151.969 145.132 151.433 144.991 150.976 144.71C150.518 144.429 150.163 144.036 149.911 143.53C149.658 143.024 149.531 142.433 149.531 141.757C149.531 141.078 149.658 140.484 149.911 139.976C150.163 139.467 150.518 139.072 150.976 138.791C151.433 138.51 151.969 138.369 152.582 138.369C153.196 138.369 153.732 138.51 154.189 138.791C154.646 139.072 155.001 139.467 155.254 139.976C155.507 140.484 155.634 141.078 155.634 141.757C155.634 142.433 155.507 143.024 155.254 143.53C155.001 144.036 154.646 144.429 154.189 144.71C153.732 144.991 153.196 145.132 152.582 145.132ZM152.587 144.062C152.984 144.062 153.314 143.957 153.575 143.747C153.837 143.537 154.03 143.257 154.155 142.908C154.283 142.558 154.347 142.173 154.347 141.753C154.347 141.335 154.283 140.952 154.155 140.602C154.03 140.25 153.837 139.967 153.575 139.754C153.314 139.541 152.984 139.435 152.587 139.435C152.186 139.435 151.854 139.541 151.589 139.754C151.328 139.967 151.134 140.25 151.006 140.602C150.881 140.952 150.818 141.335 150.818 141.753C150.818 142.173 150.881 142.558 151.006 142.908C151.134 143.257 151.328 143.537 151.589 143.747C151.854 143.957 152.186 144.062 152.587 144.062ZM156.267 139.554V138.455H161.79V139.554H159.655V145H158.411V139.554H156.267ZM165.59 145.132C164.977 145.132 164.441 144.991 163.984 144.71C163.526 144.429 163.171 144.036 162.918 143.53C162.665 143.024 162.539 142.433 162.539 141.757C162.539 141.078 162.665 140.484 162.918 139.976C163.171 139.467 163.526 139.072 163.984 138.791C164.441 138.51 164.977 138.369 165.59 138.369C166.204 138.369 166.739 138.51 167.197 138.791C167.654 139.072 168.009 139.467 168.262 139.976C168.515 140.484 168.641 141.078 168.641 141.757C168.641 142.433 168.515 143.024 168.262 143.53C168.009 144.036 167.654 144.429 167.197 144.71C166.739 144.991 166.204 145.132 165.59 145.132ZM165.594 144.062C165.992 144.062 166.322 143.957 166.583 143.747C166.844 143.537 167.038 143.257 167.163 142.908C167.29 142.558 167.354 142.173 167.354 141.753C167.354 141.335 167.29 140.952 167.163 140.602C167.038 140.25 166.844 139.967 166.583 139.754C166.322 139.541 165.992 139.435 165.594 139.435C165.194 139.435 164.862 139.541 164.597 139.754C164.336 139.967 164.141 140.25 164.013 140.602C163.888 140.952 163.826 141.335 163.826 141.753C163.826 142.173 163.888 142.558 164.013 142.908C164.141 143.257 164.336 143.537 164.597 143.747C164.862 143.957 165.194 144.062 165.594 144.062ZM170.064 145V138.455H172.778C173.517 138.455 174.102 138.612 174.534 138.928C174.966 139.24 175.181 139.665 175.181 140.202C175.181 140.585 175.059 140.889 174.815 141.114C174.571 141.338 174.247 141.489 173.843 141.565C174.136 141.599 174.404 141.687 174.649 141.83C174.893 141.969 175.089 142.156 175.237 142.392C175.387 142.628 175.463 142.909 175.463 143.236C175.463 143.582 175.373 143.889 175.194 144.156C175.015 144.42 174.755 144.628 174.414 144.778C174.076 144.926 173.669 145 173.191 145H170.064ZM171.261 143.935H173.191C173.507 143.935 173.754 143.859 173.933 143.709C174.112 143.558 174.201 143.354 174.201 143.095C174.201 142.791 174.112 142.553 173.933 142.379C173.754 142.203 173.507 142.115 173.191 142.115H171.261V143.935ZM171.261 141.182H172.791C173.029 141.182 173.234 141.148 173.404 141.08C173.578 141.011 173.71 140.915 173.801 140.79C173.895 140.662 173.941 140.511 173.941 140.338C173.941 140.085 173.838 139.888 173.63 139.746C173.423 139.604 173.139 139.533 172.778 139.533H171.261V141.182ZM176.86 145V138.455H178.135V141.199H178.748L180.909 138.455H182.485L179.95 141.638L182.515 145H180.934L178.961 142.384H178.135V145H176.86ZM185.41 145.145C184.995 145.145 184.62 145.068 184.285 144.915C183.95 144.759 183.684 144.533 183.488 144.237C183.295 143.942 183.198 143.58 183.198 143.151C183.198 142.781 183.269 142.477 183.411 142.239C183.553 142 183.745 141.811 183.987 141.672C184.228 141.533 184.498 141.428 184.796 141.357C185.094 141.286 185.398 141.232 185.708 141.195C186.1 141.149 186.418 141.112 186.663 141.084C186.907 141.053 187.085 141.003 187.195 140.935C187.306 140.866 187.362 140.756 187.362 140.602V140.572C187.362 140.2 187.256 139.912 187.046 139.707C186.839 139.503 186.529 139.401 186.117 139.401C185.688 139.401 185.35 139.496 185.103 139.686C184.859 139.874 184.69 140.082 184.596 140.312L183.398 140.04C183.54 139.642 183.748 139.321 184.021 139.077C184.296 138.83 184.613 138.651 184.971 138.54C185.329 138.426 185.705 138.369 186.1 138.369C186.362 138.369 186.638 138.401 186.931 138.463C187.227 138.523 187.502 138.634 187.758 138.795C188.016 138.957 188.228 139.189 188.393 139.49C188.558 139.788 188.64 140.176 188.64 140.653V145H187.396V144.105H187.344C187.262 144.27 187.138 144.432 186.974 144.591C186.809 144.75 186.597 144.882 186.339 144.987C186.08 145.092 185.771 145.145 185.41 145.145ZM185.687 144.122C186.039 144.122 186.34 144.053 186.59 143.913C186.843 143.774 187.035 143.592 187.165 143.368C187.299 143.141 187.366 142.898 187.366 142.639V141.795C187.32 141.841 187.232 141.884 187.102 141.923C186.974 141.96 186.827 141.993 186.663 142.021C186.498 142.047 186.337 142.071 186.181 142.094C186.025 142.114 185.894 142.131 185.789 142.145C185.542 142.176 185.316 142.229 185.112 142.303C184.91 142.376 184.748 142.483 184.626 142.622C184.506 142.759 184.447 142.94 184.447 143.168C184.447 143.483 184.563 143.722 184.796 143.884C185.029 144.043 185.326 144.122 185.687 144.122ZM193.513 145V138.455H194.787V141.199H195.401L197.561 138.455H199.138L196.602 141.638L199.168 145H197.587L195.614 142.384H194.787V145H193.513ZM203.333 145V138.455H206.048C206.786 138.455 207.371 138.612 207.803 138.928C208.235 139.24 208.451 139.665 208.451 140.202C208.451 140.585 208.329 140.889 208.085 141.114C207.84 141.338 207.516 141.489 207.113 141.565C207.406 141.599 207.674 141.687 207.918 141.83C208.163 141.969 208.359 142.156 208.506 142.392C208.657 142.628 208.732 142.909 208.732 143.236C208.732 143.582 208.643 143.889 208.464 144.156C208.285 144.42 208.025 144.628 207.684 144.778C207.346 144.926 206.938 145 206.461 145H203.333ZM204.531 143.935H206.461C206.776 143.935 207.023 143.859 207.202 143.709C207.381 143.558 207.471 143.354 207.471 143.095C207.471 142.791 207.381 142.553 207.202 142.379C207.023 142.203 206.776 142.115 206.461 142.115H204.531V143.935ZM204.531 141.182H206.06C206.299 141.182 206.504 141.148 206.674 141.08C206.847 141.011 206.979 140.915 207.07 140.79C207.164 140.662 207.211 140.511 207.211 140.338C207.211 140.085 207.107 139.888 206.9 139.746C206.692 139.604 206.408 139.533 206.048 139.533H204.531V141.182ZM211.089 140.705H212.989C213.79 140.705 214.407 140.903 214.839 141.301C215.271 141.699 215.487 142.212 215.487 142.839C215.487 143.249 215.39 143.616 215.197 143.943C215.004 144.27 214.721 144.528 214.349 144.719C213.977 144.906 213.523 145 212.989 145H210.13V138.455H211.379V143.901H212.989C213.356 143.901 213.657 143.805 213.893 143.615C214.129 143.422 214.246 143.176 214.246 142.878C214.246 142.562 214.129 142.305 213.893 142.107C213.657 141.905 213.356 141.804 212.989 141.804H211.089V140.705ZM216.415 145V138.455H217.69V145H216.415ZM222.157 145.132C221.523 145.132 220.978 144.989 220.52 144.702C220.066 144.412 219.716 144.013 219.472 143.504C219.228 142.996 219.105 142.413 219.105 141.757C219.105 141.092 219.23 140.506 219.48 139.997C219.73 139.486 220.083 139.087 220.537 138.8C220.992 138.513 221.527 138.369 222.144 138.369C222.641 138.369 223.084 138.462 223.473 138.646C223.863 138.828 224.176 139.084 224.415 139.413C224.657 139.743 224.8 140.128 224.846 140.568H223.605C223.537 140.261 223.381 139.997 223.137 139.776C222.895 139.554 222.571 139.443 222.165 139.443C221.81 139.443 221.499 139.537 221.232 139.724C220.968 139.909 220.762 140.173 220.614 140.517C220.466 140.858 220.392 141.261 220.392 141.727C220.392 142.205 220.465 142.616 220.61 142.963C220.755 143.31 220.959 143.578 221.223 143.768C221.49 143.959 221.804 144.054 222.165 144.054C222.407 144.054 222.625 144.01 222.821 143.922C223.02 143.831 223.186 143.702 223.32 143.534C223.456 143.366 223.551 143.165 223.605 142.929H224.846C224.8 143.352 224.662 143.73 224.432 144.062C224.202 144.395 223.894 144.656 223.507 144.847C223.124 145.037 222.674 145.132 222.157 145.132ZM228.113 145.145C227.698 145.145 227.323 145.068 226.988 144.915C226.653 144.759 226.387 144.533 226.191 144.237C225.998 143.942 225.901 143.58 225.901 143.151C225.901 142.781 225.972 142.477 226.114 142.239C226.256 142 226.448 141.811 226.69 141.672C226.931 141.533 227.201 141.428 227.499 141.357C227.798 141.286 228.102 141.232 228.411 141.195C228.803 141.149 229.121 141.112 229.366 141.084C229.61 141.053 229.788 141.003 229.898 140.935C230.009 140.866 230.065 140.756 230.065 140.602V140.572C230.065 140.2 229.96 139.912 229.749 139.707C229.542 139.503 229.232 139.401 228.82 139.401C228.391 139.401 228.053 139.496 227.806 139.686C227.562 139.874 227.393 140.082 227.299 140.312L226.102 140.04C226.244 139.642 226.451 139.321 226.724 139.077C226.999 138.83 227.316 138.651 227.674 138.54C228.032 138.426 228.408 138.369 228.803 138.369C229.065 138.369 229.342 138.401 229.634 138.463C229.93 138.523 230.205 138.634 230.461 138.795C230.719 138.957 230.931 139.189 231.096 139.49C231.261 139.788 231.343 140.176 231.343 140.653V145H230.099V144.105H230.048C229.965 144.27 229.842 144.432 229.677 144.591C229.512 144.75 229.3 144.882 229.042 144.987C228.783 145.092 228.474 145.145 228.113 145.145ZM228.39 144.122C228.742 144.122 229.043 144.053 229.293 143.913C229.546 143.774 229.738 143.592 229.869 143.368C230.002 143.141 230.069 142.898 230.069 142.639V141.795C230.023 141.841 229.935 141.884 229.805 141.923C229.677 141.96 229.531 141.993 229.366 142.021C229.201 142.047 229.04 142.071 228.884 142.094C228.728 142.114 228.597 142.131 228.492 142.145C228.245 142.176 228.019 142.229 227.815 142.303C227.613 142.376 227.451 142.483 227.329 142.622C227.21 142.759 227.15 142.94 227.15 143.168C227.15 143.483 227.266 143.722 227.499 143.884C227.732 144.043 228.029 144.122 228.39 144.122ZM232.401 146.888V143.896H232.934C233.07 143.771 233.185 143.622 233.279 143.449C233.375 143.276 233.456 143.07 233.522 142.831C233.59 142.592 233.647 142.314 233.692 141.996C233.738 141.675 233.777 141.308 233.811 140.896L234.016 138.455H238.465V143.896H239.471V146.888H238.226V145H233.662V146.888H232.401ZM234.297 143.896H237.221V139.545H235.158L235.022 140.896C234.956 141.584 234.874 142.18 234.775 142.686C234.675 143.189 234.516 143.592 234.297 143.896ZM240.716 145V138.455H241.99V141.199H242.604L244.764 138.455H246.341L243.805 141.638L246.371 145H244.79L242.817 142.384H241.99V145H240.716ZM249.912 145.132C249.267 145.132 248.712 144.994 248.246 144.719C247.783 144.44 247.425 144.05 247.172 143.547C246.922 143.041 246.797 142.449 246.797 141.77C246.797 141.099 246.922 140.509 247.172 139.997C247.425 139.486 247.777 139.087 248.229 138.8C248.683 138.513 249.214 138.369 249.822 138.369C250.192 138.369 250.55 138.43 250.896 138.553C251.243 138.675 251.554 138.866 251.83 139.128C252.105 139.389 252.322 139.729 252.482 140.146C252.641 140.561 252.72 141.065 252.72 141.659V142.111H247.517V141.156H251.472C251.472 140.821 251.403 140.524 251.267 140.266C251.131 140.004 250.939 139.798 250.692 139.648C250.447 139.497 250.161 139.422 249.831 139.422C249.473 139.422 249.161 139.51 248.893 139.686C248.629 139.859 248.425 140.087 248.28 140.368C248.138 140.646 248.067 140.949 248.067 141.276V142.021C248.067 142.459 248.143 142.831 248.297 143.138C248.453 143.445 248.67 143.679 248.949 143.841C249.227 144 249.553 144.08 249.925 144.08C250.166 144.08 250.386 144.045 250.585 143.977C250.784 143.906 250.956 143.801 251.101 143.662C251.246 143.523 251.357 143.351 251.433 143.146L252.639 143.364C252.543 143.719 252.369 144.03 252.119 144.297C251.872 144.561 251.561 144.767 251.186 144.915C250.814 145.06 250.389 145.132 249.912 145.132Z" fill="white"/>
<mask id="mask0_302_3631" style="mask-type:alpha" maskUnits="userSpaceOnUse" x="-46" y="-33" width="145" height="145">
<circle cx="26.1798" cy="39.1798" r="72.1798" fill="#6191D9"/>
</mask>
<g mask="url(#mask0_302_3631)">
<circle cx="26.1798" cy="39.1798" r="72.1798" fill="#A99B88"/>
<circle cx="3.99509" cy="18.5556" r="48.9131" fill="#A4846A"/>
<rect x="49.7344" y="10.3604" width="9.51822" height="6.87427" rx="3.43713" fill="#A4846A"/>
<rect x="-15.8594" y="13.5332" width="36.4865" height="19.5652" rx="9.78261" fill="#6E7571"/>
<rect x="-2.11133" y="73.2881" width="12.691" height="6.87427" rx="3.43713" fill="#6E7571"/>
<path d="M32.297 78.9288C32.297 78.9288 14.9561 85.1843 7.95829 85.1843C0.96044 85.1843 -5.76356 84.277 -12.0285 82.1189C-15.7688 81.7183 -19.3756 84.0341 -20.4742 87.7708C-21.7097 91.9736 -19.5113 96.904 -15.3085 98.1395L25.9371 157.364L118.475 106.071L126.509 11.4181L77.7586 -11.0555C75.5682 -14.8492 69.914 -15.3607 66.1202 -13.1704C62.3265 -10.9801 61.0267 -6.12904 63.217 -2.3353L63.7648 -1.38652C67.3178 6.37785 68.7691 11.6825 67.9759 23.8447C65.5082 31.6003 58.8279 47.482 46.5599 47.9048H19.063C14.6824 47.9048 11.1312 51.456 11.1312 55.8367C11.1312 60.2173 14.6824 63.7685 19.063 63.7685L30.6964 63.7809C33.9147 63.9492 36.8003 66.1571 37.6795 69.4384C38.7722 73.5165 36.3751 77.8361 32.297 78.9288Z" fill="#6E7571"/>
<rect x="20.627" y="-4.97461" width="12.691" height="7.93185" rx="3.96592" fill="#C1B2AE"/>
<rect x="6.875" y="27.2812" width="17.4501" height="11.6334" rx="5.81669" fill="#C1B2AE"/>
<path d="M-34.1304 44.2008C-34.0705 47.4127 -36.6257 50.065 -39.8376 50.1249C-43.0495 50.1848 -45.7018 47.6296 -45.7617 44.4177V-36.3311H39.5505C42.28 -35.8342 44.09 -27.3468 43.5931 -24.6172C43.1853 -22.3776 41.3512 -20.7571 39.1981 -20.522C38.7271 -20.4706 38.2409 -20.4855 37.7511 -20.5747C37.7511 -20.5747 30.7401 -21.8345 26.2002 -21.8957C12.4003 -22.0818 1.98503 -18.0987 -7.60214 -11.5843C-10.532 -6.0849 -4.9719 -4.53381 -1.82562 -4.44569C0.948784 -4.44569 3.19788 -2.19659 3.19788 0.577816C3.19788 3.35222 0.94878 5.60132 -1.82563 5.60132H-24.3792C-25.9057 7.95958 -27.2763 10.4323 -28.4771 13.0043H-25.3568C-22.1443 13.0043 -19.5401 15.6085 -19.5401 18.8209C-19.5401 22.0334 -22.1443 24.6376 -25.3568 24.6376H-32.556C-33.7268 29.4605 -34.3462 34.5092 -34.3462 39.7083L-34.1304 44.2008Z" fill="#C1B2AE"/>
<rect x="52.9062" y="59.0088" width="17.9789" height="10.5758" rx="5.2879" fill="#417566"/>
<path d="M85.691 38.9146V31.5115C85.691 28.5911 88.0585 26.2236 90.9789 26.2236C93.8993 26.2236 96.2668 28.5911 96.2668 31.5115L99.1753 131.313L12.3832 108.057C9.65664 107.326 8.0386 104.524 8.76917 101.797C9.4977 99.0783 12.2866 97.4617 15.0059 98.1772C18.1361 98.6741 21.3458 98.9322 24.6158 98.9322C51.5027 98.9322 74.4836 81.9913 82.5805 58.0022C83.8587 54.2152 80.8423 50.548 76.8454 50.548H76.4372C73.9548 50.548 71.9425 48.5356 71.9425 46.0532C71.9425 43.5709 73.9548 41.5585 76.4372 41.5585H82.9894C84.4591 41.5585 85.6593 40.3839 85.691 38.9146Z" fill="#417566"/>
<rect x="21.1797" y="88.0928" width="11.6334" height="6.87427" rx="3.43713" fill="#A99B88"/>
</g>
<mask id="mask1_302_3631" style="mask-type:alpha" maskUnits="userSpaceOnUse" x="293" y="78" width="133" height="133">
<circle cx="359.22" cy="144.22" r="66.22" fill="#6191D9"/>
</mask>
<g mask="url(#mask1_302_3631)">
<circle cx="359.22" cy="144.22" r="66.22" fill="#BAB2A2"/>
<circle cx="338.867" cy="125.299" r="44.8744" fill="#A09588"/>
<rect x="320.652" y="120.69" width="33.4738" height="17.9497" rx="8.97487" fill="#564E49"/>
<path d="M364.833 180.688C364.833 180.688 348.924 186.427 342.504 186.427C336.084 186.427 329.915 185.595 324.168 183.615C320.736 183.247 317.427 185.372 316.419 188.8C315.286 192.656 317.303 197.179 321.159 198.313L358.999 252.647L443.896 205.59L451.266 118.752L406.541 98.1336C404.532 94.6531 399.344 94.1839 395.864 96.1933C392.383 98.2028 391.191 102.653 393.2 106.134L393.703 107.004C396.963 114.128 398.294 118.994 397.566 130.152C395.302 137.267 389.174 151.838 377.919 152.226H352.692C348.673 152.226 345.415 155.484 345.415 159.503C345.415 163.521 348.673 166.779 352.692 166.779L363.365 166.791C366.318 166.945 368.965 168.971 369.771 171.981C370.774 175.723 368.575 179.686 364.833 180.688Z" fill="#564E49"/>
<rect x="354.127" y="103.712" width="11.6431" height="7.27692" rx="3.63846" fill="#D9CCBE"/>
<rect x="341.51" y="133.304" width="16.0092" height="10.6728" rx="5.33641" fill="#D9CCBE"/>
<rect x="305.42" y="159.986" width="16.0092" height="10.6728" rx="5.33641" transform="rotate(62.9938 305.42 159.986)" fill="#D9CCBE"/>
<path d="M303.892 148.827C303.947 151.773 301.602 154.207 298.656 154.262C295.709 154.317 293.276 151.972 293.221 149.026V74.9443H371.489C373.993 75.4002 375.653 83.1868 375.198 85.691C374.824 87.7457 373.141 89.2324 371.165 89.448C370.733 89.4952 370.287 89.4815 369.838 89.3997C369.838 89.3997 363.406 88.2439 359.241 88.1877C346.58 88.017 337.025 91.6713 328.229 97.6478C325.542 102.693 330.643 104.116 333.529 104.197C336.074 104.197 338.138 106.26 338.138 108.806C338.138 111.351 336.074 113.414 333.529 113.414H312.838C311.437 115.578 310.18 117.846 309.078 120.206H311.941C314.888 120.206 317.277 122.595 317.277 125.542C317.277 128.49 314.888 130.879 311.941 130.879H305.336C304.262 135.304 303.694 139.935 303.694 144.705L303.892 148.827Z" fill="#D9CCBE"/>
<path d="M413.817 143.977V137.185C413.817 134.506 415.989 132.334 418.669 132.334C421.348 132.334 423.52 134.506 423.52 137.185L426.188 228.746L346.562 207.41C344.061 206.74 342.577 204.169 343.247 201.668C343.915 199.173 346.474 197.69 348.969 198.346C351.84 198.802 354.785 199.039 357.785 199.039C382.452 199.039 403.535 183.497 410.964 161.489C412.136 158.014 409.369 154.65 405.702 154.65H405.328C403.05 154.65 401.204 152.804 401.204 150.526C401.204 148.249 403.05 146.403 405.328 146.403H411.339C412.687 146.403 413.788 145.325 413.817 143.977Z" fill="#857C70"/>
<rect x="312.404" y="143.492" width="16.4944" height="10.6728" rx="5.33641" fill="#BAB2A2"/>
</g>
<g filter="url(#filter0_d_302_3631)">
<path d="M346.403 20.9677C346.253 20.8606 346.111 20.7551 345.972 20.6499C345.819 20.5349 345.674 20.4207 345.534 20.3073C345.043 19.9088 344.632 19.5209 344.299 19.1313C343.784 18.5266 343.455 17.9153 343.297 17.2471C343.223 16.9323 343.186 16.6044 343.187 16.2578C343.187 16.0762 343.198 15.8889 343.218 15.6967C343.359 14.3425 343.986 12.7021 345.024 10.4998C345.067 10.4082 345.025 10.327 344.958 10.2909C344.941 10.2819 344.923 10.2751 344.905 10.2724C344.867 10.2664 344.827 10.2739 344.793 10.2988C344.776 10.3113 344.76 10.3276 344.747 10.3494C341.472 15.6498 339.815 16.7032 335.222 14.9036C334.824 14.7476 334.525 15.2985 334.873 15.5473C338.886 18.4159 338.907 20.3791 336.251 26.0149C336.24 26.0379 336.235 26.0598 336.234 26.0813C336.232 26.1235 336.247 26.1608 336.273 26.1892C336.286 26.2034 336.301 26.2148 336.317 26.2238C336.384 26.2599 336.475 26.2516 336.528 26.1653C339.107 21.9913 340.684 20.4524 343.48 20.8648C343.651 20.8901 343.827 20.9227 344.008 20.9628C344.228 21.0114 344.457 21.0704 344.694 21.14C344.872 21.1926 345.055 21.249 345.244 21.3136C345.504 21.402 345.773 21.5008 346.054 21.611C346.451 21.7671 346.75 21.2161 346.403 20.9673L346.403 20.9677Z" fill="#FFE394"/>
</g>
<g filter="url(#filter1_d_302_3631)">
<path d="M290.542 80.1561C290.443 80.0854 290.348 80.0157 290.256 79.9462C290.155 79.8702 290.06 79.7948 289.968 79.7199C289.643 79.4566 289.371 79.2004 289.152 78.943C288.811 78.5435 288.594 78.1397 288.49 77.6983C288.44 77.4904 288.416 77.2737 288.417 77.0448C288.417 76.9248 288.424 76.801 288.437 76.6741C288.531 75.7795 288.945 74.6959 289.63 73.241C289.659 73.1805 289.631 73.1268 289.587 73.103C289.576 73.0971 289.564 73.0926 289.552 73.0908C289.527 73.0868 289.5 73.0918 289.478 73.1082C289.467 73.1165 289.456 73.1273 289.447 73.1416C287.284 76.6431 286.189 77.339 283.155 76.1502C282.892 76.0471 282.695 76.4111 282.924 76.5754C285.575 78.4704 285.59 79.7673 283.835 83.4903C283.828 83.5055 283.824 83.52 283.824 83.5342C283.822 83.562 283.832 83.5867 283.849 83.6054C283.858 83.6148 283.868 83.6224 283.879 83.6283C283.923 83.6522 283.983 83.6467 284.018 83.5897C285.721 80.8323 286.763 79.8157 288.61 80.0881C288.724 80.1048 288.84 80.1264 288.959 80.1529C289.105 80.185 289.256 80.224 289.412 80.2699C289.53 80.3047 289.651 80.342 289.776 80.3846C289.947 80.443 290.125 80.5083 290.311 80.5811C290.573 80.6842 290.771 80.3202 290.541 80.1559L290.542 80.1561Z" fill="#FFE394"/>
</g>
<g filter="url(#filter2_d_302_3631)">
<path d="M242.836 25.283C242.725 25.2005 242.62 25.1193 242.518 25.0385C242.405 24.9502 242.299 24.8627 242.196 24.7759C241.834 24.471 241.532 24.1764 241.288 23.8832C240.91 23.428 240.67 22.9743 240.557 22.485C240.504 22.2545 240.479 22.0157 240.481 21.7646C240.483 21.6331 240.492 21.4977 240.508 21.3591C240.621 20.3827 241.095 19.2149 241.878 17.6536C241.911 17.5886 241.879 17.5284 241.83 17.5C241.818 17.493 241.804 17.4875 241.791 17.4849C241.763 17.4793 241.733 17.4834 241.708 17.5003C241.695 17.5088 241.683 17.5201 241.673 17.5354C239.214 21.2676 237.98 21.9761 234.587 20.5208C234.294 20.3946 234.069 20.7839 234.325 20.9756C237.281 23.1863 237.285 24.6093 235.282 28.6048C235.274 28.6211 235.27 28.6368 235.269 28.6523C235.267 28.6828 235.278 28.7104 235.297 28.7318C235.307 28.7425 235.318 28.7513 235.33 28.7583C235.379 28.7867 235.447 28.7837 235.487 28.7229C237.423 25.784 238.601 24.721 240.67 25.112C240.797 25.136 240.927 25.1655 241.061 25.2004C241.224 25.2429 241.393 25.2932 241.568 25.3514C241.7 25.3954 241.835 25.4424 241.975 25.4954C242.167 25.568 242.366 25.6485 242.573 25.7375C242.866 25.8637 243.091 25.4744 242.835 25.2827L242.836 25.283Z" fill="#FFE394"/>
</g>
<g opacity="0.5">
<g filter="url(#filter3_df_302_3631)">
<circle cx="281" cy="19" r="1" fill="#D9D9D9"/>
<circle cx="281" cy="19" r="1" fill="#FFE394"/>
</g>
<g filter="url(#filter4_df_302_3631)">
<circle cx="318" cy="39" r="1" fill="#D9D9D9"/>
<circle cx="318" cy="39" r="1" fill="#FFE394"/>
</g>
<g filter="url(#filter5_df_302_3631)">
<circle cx="268" cy="48" r="1" fill="#D9D9D9"/>
<circle cx="268" cy="48" r="1" fill="#FFE394"/>
</g>
<g filter="url(#filter6_df_302_3631)">
<circle cx="342" cy="60" r="1" fill="#D9D9D9"/>
<circle cx="342" cy="60" r="1" fill="#FFE394"/>
</g>
<g filter="url(#filter7_df_302_3631)">
<circle cx="165" cy="21" r="1" fill="#D9D9D9"/>
<circle cx="165" cy="21" r="1" fill="#FFE394"/>
</g>
<g filter="url(#filter8_df_302_3631)">
<circle cx="231" cy="102" r="1" fill="#D9D9D9"/>
<circle cx="231" cy="102" r="1" fill="#FFE394"/>
</g>
<g filter="url(#filter9_df_302_3631)">
<circle cx="161" cy="110" r="1" fill="#D9D9D9"/>
<circle cx="161" cy="110" r="1" fill="#FFE394"/>
</g>
<g filter="url(#filter10_df_302_3631)">
<circle cx="85" cy="160" r="1" fill="#D9D9D9"/>
<circle cx="85" cy="160" r="1" fill="#FFE394"/>
</g>
<g filter="url(#filter11_df_302_3631)">
<circle cx="25" cy="145" r="1" fill="#D9D9D9"/>
<circle cx="25" cy="145" r="1" fill="#FFE394"/>
</g>
<g filter="url(#filter12_df_302_3631)">
<circle cx="105" cy="109" r="1" fill="#D9D9D9"/>
<circle cx="105" cy="109" r="1" fill="#FFE394"/>
</g>
<g filter="url(#filter13_df_302_3631)">
<circle cx="228" cy="158" r="1" fill="#D9D9D9"/>
<circle cx="228" cy="158" r="1" fill="#FFE394"/>
</g>
</g>
</g>
<rect x="1" y="1" width="363" height="167" rx="21" stroke="#005DAC" stroke-width="2"/>
<defs>
<filter id="filter0_d_302_3631" x="320.219" y="-4.22949" width="40.8379" height="44.9736" filterUnits="userSpaceOnUse" color-interpolation-filters="sRGB">
<feFlood flood-opacity="0" result="BackgroundImageFix"/>
<feColorMatrix in="SourceAlpha" type="matrix" values="0 0 0 0 0 0 0 0 0 0 0 0 0 0 0 0 0 0 127 0" result="hardAlpha"/>
<feOffset/>
<feGaussianBlur stdDeviation="7.25"/>
<feComposite in2="hardAlpha" operator="out"/>
<feColorMatrix type="matrix" values="0 0 0 0 1 0 0 0 0 0.890196 0 0 0 0 0.580392 0 0 0 1 0"/>
<feBlend mode="normal" in2="BackgroundImageFix" result="effect1_dropShadow_302_3631"/>
<feBlend mode="normal" in="SourceGraphic" in2="effect1_dropShadow_302_3631" result="shape"/>
</filter>
<filter id="filter1_d_302_3631" x="268.322" y="58.5898" width="36.8203" height="39.5518" filterUnits="userSpaceOnUse" color-interpolation-filters="sRGB">
<feFlood flood-opacity="0" result="BackgroundImageFix"/>
<feColorMatrix in="SourceAlpha" type="matrix" values="0 0 0 0 0 0 0 0 0 0 0 0 0 0 0 0 0 0 127 0" result="hardAlpha"/>
<feOffset/>
<feGaussianBlur stdDeviation="7.25"/>
<feComposite in2="hardAlpha" operator="out"/>
<feColorMatrix type="matrix" values="0 0 0 0 1 0 0 0 0 0.890196 0 0 0 0 0.580392 0 0 0 1 0"/>
<feBlend mode="normal" in2="BackgroundImageFix" result="effect1_dropShadow_302_3631"/>
<feBlend mode="normal" in="SourceGraphic" in2="effect1_dropShadow_302_3631" result="shape"/>
</filter>
<filter id="filter2_d_302_3631" x="219.713" y="2.98242" width="37.7344" height="40.293" filterUnits="userSpaceOnUse" color-interpolation-filters="sRGB">
<feFlood flood-opacity="0" result="BackgroundImageFix"/>
<feColorMatrix in="SourceAlpha" type="matrix" values="0 0 0 0 0 0 0 0 0 0 0 0 0 0 0 0 0 0 127 0" result="hardAlpha"/>
<feOffset/>
<feGaussianBlur stdDeviation="7.25"/>
<feComposite in2="hardAlpha" operator="out"/>
<feColorMatrix type="matrix" values="0 0 0 0 1 0 0 0 0 0.890196 0 0 0 0 0.580392 0 0 0 1 0"/>
<feBlend mode="normal" in2="BackgroundImageFix" result="effect1_dropShadow_302_3631"/>
<feBlend mode="normal" in="SourceGraphic" in2="effect1_dropShadow_302_3631" result="shape"/>
</filter>
<filter id="filter3_df_302_3631" x="265.5" y="3.5" width="31" height="31" filterUnits="userSpaceOnUse" color-interpolation-filters="sRGB">
<feFlood flood-opacity="0" result="BackgroundImageFix"/>
<feColorMatrix in="SourceAlpha" type="matrix" values="0 0 0 0 0 0 0 0 0 0 0 0 0 0 0 0 0 0 127 0" result="hardAlpha"/>
<feOffset/>
<feGaussianBlur stdDeviation="7.25"/>
<feComposite in2="hardAlpha" operator="out"/>
<feColorMatrix type="matrix" values="0 0 0 0 1 0 0 0 0 0.890196 0 0 0 0 0.580392 0 0 0 1 0"/>
<feBlend mode="normal" in2="BackgroundImageFix" result="effect1_dropShadow_302_3631"/>
<feBlend mode="normal" in="SourceGraphic" in2="effect1_dropShadow_302_3631" result="shape"/>
<feGaussianBlur stdDeviation="0.5" result="effect2_foregroundBlur_302_3631"/>
</filter>
<filter id="filter4_df_302_3631" x="302.5" y="23.5" width="31" height="31" filterUnits="userSpaceOnUse" color-interpolation-filters="sRGB">
<feFlood flood-opacity="0" result="BackgroundImageFix"/>
<feColorMatrix in="SourceAlpha" type="matrix" values="0 0 0 0 0 0 0 0 0 0 0 0 0 0 0 0 0 0 127 0" result="hardAlpha"/>
<feOffset/>
<feGaussianBlur stdDeviation="7.25"/>
<feComposite in2="hardAlpha" operator="out"/>
<feColorMatrix type="matrix" values="0 0 0 0 1 0 0 0 0 0.890196 0 0 0 0 0.580392 0 0 0 1 0"/>
<feBlend mode="normal" in2="BackgroundImageFix" result="effect1_dropShadow_302_3631"/>
<feBlend mode="normal" in="SourceGraphic" in2="effect1_dropShadow_302_3631" result="shape"/>
<feGaussianBlur stdDeviation="0.5" result="effect2_foregroundBlur_302_3631"/>
</filter>
<filter id="filter5_df_302_3631" x="252.5" y="32.5" width="31" height="31" filterUnits="userSpaceOnUse" color-interpolation-filters="sRGB">
<feFlood flood-opacity="0" result="BackgroundImageFix"/>
<feColorMatrix in="SourceAlpha" type="matrix" values="0 0 0 0 0 0 0 0 0 0 0 0 0 0 0 0 0 0 127 0" result="hardAlpha"/>
<feOffset/>
<feGaussianBlur stdDeviation="7.25"/>
<feComposite in2="hardAlpha" operator="out"/>
<feColorMatrix type="matrix" values="0 0 0 0 1 0 0 0 0 0.890196 0 0 0 0 0.580392 0 0 0 1 0"/>
<feBlend mode="normal" in2="BackgroundImageFix" result="effect1_dropShadow_302_3631"/>
<feBlend mode="normal" in="SourceGraphic" in2="effect1_dropShadow_302_3631" result="shape"/>
<feGaussianBlur stdDeviation="0.5" result="effect2_foregroundBlur_302_3631"/>
</filter>
<filter id="filter6_df_302_3631" x="326.5" y="44.5" width="31" height="31" filterUnits="userSpaceOnUse" color-interpolation-filters="sRGB">
<feFlood flood-opacity="0" result="BackgroundImageFix"/>
<feColorMatrix in="SourceAlpha" type="matrix" values="0 0 0 0 0 0 0 0 0 0 0 0 0 0 0 0 0 0 127 0" result="hardAlpha"/>
<feOffset/>
<feGaussianBlur stdDeviation="7.25"/>
<feComposite in2="hardAlpha" operator="out"/>
<feColorMatrix type="matrix" values="0 0 0 0 1 0 0 0 0 0.890196 0 0 0 0 0.580392 0 0 0 1 0"/>
<feBlend mode="normal" in2="BackgroundImageFix" result="effect1_dropShadow_302_3631"/>
<feBlend mode="normal" in="SourceGraphic" in2="effect1_dropShadow_302_3631" result="shape"/>
<feGaussianBlur stdDeviation="0.5" result="effect2_foregroundBlur_302_3631"/>
</filter>
<filter id="filter7_df_302_3631" x="149.5" y="5.5" width="31" height="31" filterUnits="userSpaceOnUse" color-interpolation-filters="sRGB">
<feFlood flood-opacity="0" result="BackgroundImageFix"/>
<feColorMatrix in="SourceAlpha" type="matrix" values="0 0 0 0 0 0 0 0 0 0 0 0 0 0 0 0 0 0 127 0" result="hardAlpha"/>
<feOffset/>
<feGaussianBlur stdDeviation="7.25"/>
<feComposite in2="hardAlpha" operator="out"/>
<feColorMatrix type="matrix" values="0 0 0 0 1 0 0 0 0 0.890196 0 0 0 0 0.580392 0 0 0 1 0"/>
<feBlend mode="normal" in2="BackgroundImageFix" result="effect1_dropShadow_302_3631"/>
<feBlend mode="normal" in="SourceGraphic" in2="effect1_dropShadow_302_3631" result="shape"/>
<feGaussianBlur stdDeviation="0.5" result="effect2_foregroundBlur_302_3631"/>
</filter>
<filter id="filter8_df_302_3631" x="215.5" y="86.5" width="31" height="31" filterUnits="userSpaceOnUse" color-interpolation-filters="sRGB">
<feFlood flood-opacity="0" result="BackgroundImageFix"/>
<feColorMatrix in="SourceAlpha" type="matrix" values="0 0 0 0 0 0 0 0 0 0 0 0 0 0 0 0 0 0 127 0" result="hardAlpha"/>
<feOffset/>
<feGaussianBlur stdDeviation="7.25"/>
<feComposite in2="hardAlpha" operator="out"/>
<feColorMatrix type="matrix" values="0 0 0 0 1 0 0 0 0 0.890196 0 0 0 0 0.580392 0 0 0 1 0"/>
<feBlend mode="normal" in2="BackgroundImageFix" result="effect1_dropShadow_302_3631"/>
<feBlend mode="normal" in="SourceGraphic" in2="effect1_dropShadow_302_3631" result="shape"/>
<feGaussianBlur stdDeviation="0.5" result="effect2_foregroundBlur_302_3631"/>
</filter>
<filter id="filter9_df_302_3631" x="145.5" y="94.5" width="31" height="31" filterUnits="userSpaceOnUse" color-interpolation-filters="sRGB">
<feFlood flood-opacity="0" result="BackgroundImageFix"/>
<feColorMatrix in="SourceAlpha" type="matrix" values="0 0 0 0 0 0 0 0 0 0 0 0 0 0 0 0 0 0 127 0" result="hardAlpha"/>
<feOffset/>
<feGaussianBlur stdDeviation="7.25"/>
<feComposite in2="hardAlpha" operator="out"/>
<feColorMatrix type="matrix" values="0 0 0 0 1 0 0 0 0 0.890196 0 0 0 0 0.580392 0 0 0 1 0"/>
<feBlend mode="normal" in2="BackgroundImageFix" result="effect1_dropShadow_302_3631"/>
<feBlend mode="normal" in="SourceGraphic" in2="effect1_dropShadow_302_3631" result="shape"/>
<feGaussianBlur stdDeviation="0.5" result="effect2_foregroundBlur_302_3631"/>
</filter>
<filter id="filter10_df_302_3631" x="69.5" y="144.5" width="31" height="31" filterUnits="userSpaceOnUse" color-interpolation-filters="sRGB">
<feFlood flood-opacity="0" result="BackgroundImageFix"/>
<feColorMatrix in="SourceAlpha" type="matrix" values="0 0 0 0 0 0 0 0 0 0 0 0 0 0 0 0 0 0 127 0" result="hardAlpha"/>
<feOffset/>
<feGaussianBlur stdDeviation="7.25"/>
<feComposite in2="hardAlpha" operator="out"/>
<feColorMatrix type="matrix" values="0 0 0 0 1 0 0 0 0 0.890196 0 0 0 0 0.580392 0 0 0 1 0"/>
<feBlend mode="normal" in2="BackgroundImageFix" result="effect1_dropShadow_302_3631"/>
<feBlend mode="normal" in="SourceGraphic" in2="effect1_dropShadow_302_3631" result="shape"/>
<feGaussianBlur stdDeviation="0.5" result="effect2_foregroundBlur_302_3631"/>
</filter>
<filter id="filter11_df_302_3631" x="9.5" y="129.5" width="31" height="31" filterUnits="userSpaceOnUse" color-interpolation-filters="sRGB">
<feFlood flood-opacity="0" result="BackgroundImageFix"/>
<feColorMatrix in="SourceAlpha" type="matrix" values="0 0 0 0 0 0 0 0 0 0 0 0 0 0 0 0 0 0 127 0" result="hardAlpha"/>
<feOffset/>
<feGaussianBlur stdDeviation="7.25"/>
<feComposite in2="hardAlpha" operator="out"/>
<feColorMatrix type="matrix" values="0 0 0 0 1 0 0 0 0 0.890196 0 0 0 0 0.580392 0 0 0 1 0"/>
<feBlend mode="normal" in2="BackgroundImageFix" result="effect1_dropShadow_302_3631"/>
<feBlend mode="normal" in="SourceGraphic" in2="effect1_dropShadow_302_3631" result="shape"/>
<feGaussianBlur stdDeviation="0.5" result="effect2_foregroundBlur_302_3631"/>
</filter>
<filter id="filter12_df_302_3631" x="89.5" y="93.5" width="31" height="31" filterUnits="userSpaceOnUse" color-interpolation-filters="sRGB">
<feFlood flood-opacity="0" result="BackgroundImageFix"/>
<feColorMatrix in="SourceAlpha" type="matrix" values="0 0 0 0 0 0 0 0 0 0 0 0 0 0 0 0 0 0 127 0" result="hardAlpha"/>
<feOffset/>
<feGaussianBlur stdDeviation="7.25"/>
<feComposite in2="hardAlpha" operator="out"/>
<feColorMatrix type="matrix" values="0 0 0 0 1 0 0 0 0 0.890196 0 0 0 0 0.580392 0 0 0 1 0"/>
<feBlend mode="normal" in2="BackgroundImageFix" result="effect1_dropShadow_302_3631"/>
<feBlend mode="normal" in="SourceGraphic" in2="effect1_dropShadow_302_3631" result="shape"/>
<feGaussianBlur stdDeviation="0.5" result="effect2_foregroundBlur_302_3631"/>
</filter>
<filter id="filter13_df_302_3631" x="212.5" y="142.5" width="31" height="31" filterUnits="userSpaceOnUse" color-interpolation-filters="sRGB">
<feFlood flood-opacity="0" result="BackgroundImageFix"/>
<feColorMatrix in="SourceAlpha" type="matrix" values="0 0 0 0 0 0 0 0 0 0 0 0 0 0 0 0 0 0 127 0" result="hardAlpha"/>
<feOffset/>
<feGaussianBlur stdDeviation="7.25"/>
<feComposite in2="hardAlpha" operator="out"/>
<feColorMatrix type="matrix" values="0 0 0 0 1 0 0 0 0 0.890196 0 0 0 0 0.580392 0 0 0 1 0"/>
<feBlend mode="normal" in2="BackgroundImageFix" result="effect1_dropShadow_302_3631"/>
<feBlend mode="normal" in="SourceGraphic" in2="effect1_dropShadow_302_3631" result="shape"/>
<feGaussianBlur stdDeviation="0.5" result="effect2_foregroundBlur_302_3631"/>
</filter>
<linearGradient id="paint0_linear_302_3631" x1="-59" y1="318.5" x2="263" y2="1.99998" gradientUnits="userSpaceOnUse">
<stop stop-color="#005DAC"/>
<stop offset="1" stop-color="#272155"/>
</linearGradient>
<clipPath id="clip0_302_3631">
<rect x="2" y="2" width="361" height="165" rx="20" fill="white"/>
</clipPath>
</defs>
</svg>
