<svg width="60" height="50" viewBox="0 0 60 50" fill="none" xmlns="http://www.w3.org/2000/svg">
<rect width="60" height="50" rx="10" fill="#2A2C45" fill-opacity="0.3"/>
<path d="M25.2585 9.98551L25.5888 10.3609V10.3609L25.2585 9.98551ZM34.7415 9.98551L34.4112 10.3609V10.3609L34.7415 9.98551ZM35.9558 11.0537L36.286 10.6783V10.6783L35.9558 11.0537ZM24.0442 11.0537L23.714 10.6783L24.0442 11.0537ZM32.5357 27C32.5357 27.2761 32.7596 27.5 33.0357 27.5C33.3119 27.5 33.5357 27.2761 33.5357 27H33.0357H32.5357ZM26.4643 27C26.4643 27.2761 26.6881 27.5 26.9643 27.5C27.2404 27.5 27.4643 27.2761 27.4643 27H26.9643H26.4643ZM38.5 16.7308H38V22.0151H38.5H39V16.7308H38.5ZM33.6429 26.9999V26.4999H26.3571V26.9999V27.4999H33.6429V26.9999ZM21.5 22.0151H22V16.7308H21.5H21V22.0151H21.5ZM24.0442 11.0537L24.3745 11.4291L25.5888 10.3609L25.2585 9.98551L24.9283 9.61009L23.714 10.6783L24.0442 11.0537ZM34.7415 9.98551L34.4112 10.3609L35.6255 11.4291L35.9558 11.0537L36.286 10.6783L35.0717 9.61009L34.7415 9.98551ZM25.2585 9.98551L25.5888 10.3609C26.7299 9.35711 27.5511 8.636 28.2529 8.16026C28.9434 7.69223 29.4649 7.5 30 7.5V7V6.5C29.1875 6.5 28.4696 6.80536 27.6919 7.33249C26.9255 7.85193 26.0497 8.62356 24.9283 9.61009L25.2585 9.98551ZM34.7415 9.98551L35.0717 9.61009C33.9503 8.62356 33.0745 7.85193 32.3081 7.33249C31.5304 6.80536 30.8125 6.5 30 6.5V7V7.5C30.5351 7.5 31.0566 7.69223 31.7471 8.16026C32.4489 8.636 33.2701 9.35711 34.4112 10.3609L34.7415 9.98551ZM26.3571 26.9999V26.4999C25.1978 26.4999 24.3799 26.4988 23.7607 26.4134C23.1572 26.3301 22.8173 26.1753 22.5694 25.921L22.2113 26.2699L21.8532 26.6189C22.3167 27.0945 22.9048 27.3047 23.624 27.404C24.3274 27.501 25.2268 27.4999 26.3571 27.4999V26.9999ZM21.5 22.0151H21C21 23.1763 20.999 24.0962 21.0932 24.8149C21.189 25.5467 21.3915 26.145 21.8532 26.6189L22.2113 26.2699L22.5694 25.921C22.3198 25.6648 22.1666 25.3106 22.0847 24.685C22.001 24.0463 22 23.2038 22 22.0151H21.5ZM38.5 22.0151H38C38 23.2038 37.999 24.0463 37.9153 24.685C37.8334 25.3106 37.6802 25.6648 37.4306 25.921L37.7887 26.2699L38.1468 26.6189C38.6085 26.145 38.811 25.5467 38.9069 24.8149C39.001 24.0962 39 23.1763 39 22.0151H38.5ZM33.6429 26.9999V27.4999C34.7732 27.4999 35.6726 27.501 36.376 27.404C37.0952 27.3047 37.6833 27.0945 38.1468 26.6189L37.7887 26.2699L37.4306 25.921C37.1827 26.1753 36.8428 26.3301 36.2393 26.4134C35.6201 26.4988 34.8022 26.4999 33.6429 26.4999V26.9999ZM38.5 16.7308H39C39 15.0836 39.0103 14.1087 38.623 13.2446L38.1667 13.4491L37.7105 13.6536C37.9897 14.2768 38 14.9938 38 16.7308H38.5ZM35.9558 11.0537L35.6255 11.4291C36.9108 12.5597 37.4319 13.0321 37.7105 13.6536L38.1667 13.4491L38.623 13.2446C38.235 12.3788 37.5043 11.7499 36.286 10.6783L35.9558 11.0537ZM21.5 16.7308H22C22 14.9938 22.0103 14.2768 22.2895 13.6536L21.8333 13.4491L21.377 13.2446C20.9897 14.1087 21 15.0836 21 16.7308H21.5ZM24.0442 11.0537L23.714 10.6783C22.4957 11.7499 21.765 12.3788 21.377 13.2446L21.8333 13.4491L22.2895 13.6536C22.5681 13.0321 23.0892 12.5597 24.3745 11.4291L24.0442 11.0537ZM28.1786 19.5228V20.0228H31.8214V19.5228V19.0228H28.1786V19.5228ZM33.0357 20.769H32.5357V27H33.0357H33.5357V20.769H33.0357ZM26.9643 20.769H26.4643V27H26.9643H27.4643V20.769H26.9643ZM31.8214 19.5228V20.0228C32.2038 20.0228 32.5357 20.3446 32.5357 20.769H33.0357H33.5357C33.5357 19.8169 32.7803 19.0228 31.8214 19.0228V19.5228ZM28.1786 19.5228V19.0228C27.2197 19.0228 26.4643 19.8169 26.4643 20.769H26.9643H27.4643C27.4643 20.3446 27.7962 20.0228 28.1786 20.0228V19.5228Z" fill="#68CEF6"/>
<path d="M15.1873 35.7273V36.6719H11.7498V43H10.6525V35.7273H15.1873ZM15.9091 43L15.9055 42.0803H16.1009C16.2524 42.0803 16.379 42.0483 16.4808 41.9844C16.585 41.9181 16.6702 41.8068 16.7365 41.6506C16.8028 41.4943 16.8537 41.2789 16.8892 41.0043C16.9247 40.7273 16.9508 40.3793 16.9673 39.9602L17.0632 37.5455H20.87V43H19.8295V38.4616H18.0469L17.9616 40.3153C17.9403 40.7652 17.8942 41.1581 17.8232 41.4943C17.7545 41.8305 17.6539 42.111 17.5213 42.3359C17.3887 42.5585 17.2183 42.7254 17.0099 42.8366C16.8016 42.9455 16.5483 43 16.25 43H15.9091ZM23.8734 43.1207C23.5278 43.1207 23.2153 43.0568 22.9359 42.929C22.6565 42.7988 22.4352 42.6106 22.2718 42.3643C22.1109 42.1181 22.0304 41.8163 22.0304 41.4588C22.0304 41.151 22.0895 40.8977 22.2079 40.6989C22.3263 40.5 22.4861 40.3426 22.6873 40.2266C22.8886 40.1106 23.1135 40.023 23.362 39.9638C23.6106 39.9046 23.8639 39.8596 24.122 39.8288C24.4487 39.791 24.7138 39.7602 24.9174 39.7365C25.121 39.7105 25.269 39.669 25.3613 39.6122C25.4537 39.5554 25.4998 39.4631 25.4998 39.3352V39.3104C25.4998 39.0002 25.4122 38.7599 25.237 38.5895C25.0642 38.419 24.8062 38.3338 24.4629 38.3338C24.1054 38.3338 23.8237 38.4131 23.6177 38.5717C23.4141 38.728 23.2733 38.902 23.1951 39.0938L22.1973 38.8665C22.3156 38.535 22.4885 38.2675 22.7157 38.0639C22.9454 37.858 23.2093 37.7088 23.5076 37.6165C23.8059 37.5218 24.1196 37.4744 24.4487 37.4744C24.6665 37.4744 24.8973 37.5005 25.1412 37.5526C25.3874 37.6023 25.617 37.6946 25.8301 37.8295C26.0455 37.9645 26.2219 38.1574 26.3592 38.4084C26.4965 38.657 26.5652 38.9801 26.5652 39.3778V43H25.5282V42.2543H25.4856C25.417 42.3916 25.314 42.5265 25.1767 42.6591C25.0394 42.7917 24.863 42.9018 24.6475 42.9893C24.4321 43.0769 24.1741 43.1207 23.8734 43.1207ZM24.1042 42.2685C24.3978 42.2685 24.6487 42.2105 24.8571 42.0945C25.0678 41.9785 25.2276 41.8269 25.3365 41.6399C25.4477 41.4505 25.5034 41.2481 25.5034 41.0327V40.3295C25.4655 40.3674 25.3921 40.4029 25.2832 40.4361C25.1767 40.4669 25.0547 40.4941 24.9174 40.5178C24.7801 40.5391 24.6464 40.5592 24.5162 40.5781C24.3859 40.5947 24.277 40.6089 24.1895 40.6207C23.9835 40.6468 23.7953 40.6906 23.6248 40.7521C23.4567 40.8137 23.3218 40.9025 23.22 41.0185C23.1206 41.1321 23.0708 41.2836 23.0708 41.473C23.0708 41.7358 23.1679 41.9347 23.362 42.0696C23.5562 42.2022 23.8036 42.2685 24.1042 42.2685ZM27.9794 43V37.5455H30.2415C30.857 37.5455 31.3447 37.6768 31.7045 37.9396C32.0644 38.2 32.2443 38.554 32.2443 39.0014C32.2443 39.321 32.1425 39.5743 31.9389 39.7614C31.7353 39.9484 31.4654 40.0739 31.1293 40.1378C31.3731 40.1662 31.5968 40.2396 31.8004 40.358C32.004 40.474 32.1674 40.6302 32.2905 40.8267C32.416 41.0232 32.4787 41.2576 32.4787 41.5298C32.4787 41.8187 32.4041 42.0743 32.255 42.2969C32.1058 42.517 31.8892 42.6899 31.6051 42.8153C31.3234 42.9384 30.9837 43 30.5859 43H27.9794ZM28.9773 42.1122H30.5859C30.8487 42.1122 31.0547 42.0495 31.2038 41.924C31.353 41.7985 31.4276 41.6281 31.4276 41.4126C31.4276 41.1593 31.353 40.9605 31.2038 40.8161C31.0547 40.6693 30.8487 40.5959 30.5859 40.5959H28.9773V42.1122ZM28.9773 39.8182H30.2521C30.451 39.8182 30.6214 39.7898 30.7635 39.733C30.9079 39.6761 31.018 39.5956 31.0938 39.4915C31.1719 39.3849 31.2109 39.2595 31.2109 39.1151C31.2109 38.9044 31.1245 38.7398 30.9517 38.6214C30.7789 38.5031 30.5421 38.4439 30.2415 38.4439H28.9773V39.8182ZM37.3402 39.8146V40.7344H34.3857V39.8146H37.3402ZM34.6839 37.5455V43H33.6435V37.5455H34.6839ZM38.0824 37.5455V43H37.0455V37.5455H38.0824ZM41.0902 43.1207C40.7446 43.1207 40.4321 43.0568 40.1527 42.929C39.8733 42.7988 39.652 42.6106 39.4886 42.3643C39.3277 42.1181 39.2472 41.8163 39.2472 41.4588C39.2472 41.151 39.3063 40.8977 39.4247 40.6989C39.5431 40.5 39.7029 40.3426 39.9041 40.2266C40.1054 40.1106 40.3303 40.023 40.5788 39.9638C40.8274 39.9046 41.0807 39.8596 41.3388 39.8288C41.6655 39.791 41.9306 39.7602 42.1342 39.7365C42.3378 39.7105 42.4858 39.669 42.5781 39.6122C42.6705 39.5554 42.7166 39.4631 42.7166 39.3352V39.3104C42.7166 39.0002 42.629 38.7599 42.4538 38.5895C42.281 38.419 42.023 38.3338 41.6797 38.3338C41.3222 38.3338 41.0405 38.4131 40.8345 38.5717C40.6309 38.728 40.4901 38.902 40.4119 39.0938L39.4141 38.8665C39.5324 38.535 39.7053 38.2675 39.9325 38.0639C40.1622 37.858 40.4261 37.7088 40.7244 37.6165C41.0227 37.5218 41.3364 37.4744 41.6655 37.4744C41.8833 37.4744 42.1141 37.5005 42.358 37.5526C42.6042 37.6023 42.8338 37.6946 43.0469 37.8295C43.2623 37.9645 43.4387 38.1574 43.576 38.4084C43.7133 38.657 43.782 38.9801 43.782 39.3778V43H42.745V42.2543H42.7024C42.6338 42.3916 42.5308 42.5265 42.3935 42.6591C42.2562 42.7917 42.0798 42.9018 41.8643 42.9893C41.6489 43.0769 41.3909 43.1207 41.0902 43.1207ZM41.321 42.2685C41.6146 42.2685 41.8655 42.2105 42.0739 42.0945C42.2846 41.9785 42.4444 41.8269 42.5533 41.6399C42.6645 41.4505 42.7202 41.2481 42.7202 41.0327V40.3295C42.6823 40.3674 42.6089 40.4029 42.5 40.4361C42.3935 40.4669 42.2715 40.4941 42.1342 40.5178C41.9969 40.5391 41.8632 40.5592 41.733 40.5781C41.6027 40.5947 41.4938 40.6089 41.4062 40.6207C41.2003 40.6468 41.0121 40.6906 40.8416 40.7521C40.6735 40.8137 40.5386 40.9025 40.4368 41.0185C40.3374 41.1321 40.2876 41.2836 40.2876 41.473C40.2876 41.7358 40.3847 41.9347 40.5788 42.0696C40.773 42.2022 41.0204 42.2685 41.321 42.2685ZM48.449 43V38.451H47.1422C46.8321 38.451 46.5906 38.5232 46.4178 38.6676C46.245 38.812 46.1586 39.0014 46.1586 39.2358C46.1586 39.4678 46.2379 39.6548 46.3965 39.7969C46.5575 39.9366 46.7824 40.0064 47.0712 40.0064H48.758V40.8658H47.0712C46.6687 40.8658 46.3207 40.7995 46.0272 40.6669C45.736 40.532 45.5111 40.3414 45.3525 40.0952C45.1962 39.849 45.1181 39.5578 45.1181 39.2216C45.1181 38.8783 45.1986 38.5824 45.3596 38.3338C45.5229 38.0829 45.7561 37.8887 46.0591 37.7514C46.3645 37.6141 46.7256 37.5455 47.1422 37.5455H49.4469V43H48.449ZM44.8695 43L46.4071 40.2443H47.4938L45.9561 43H44.8695Z" fill="#68CEF6"/>
</svg>
