<svg width="365" height="169" viewBox="0 0 365 169" fill="none" xmlns="http://www.w3.org/2000/svg">
<g clip-path="url(#clip0_328_1382)">
<rect x="2" y="2" width="361" height="165" rx="20" fill="url(#paint0_linear_328_1382)"/>
<mask id="mask0_328_1382" style="mask-type:alpha" maskUnits="userSpaceOnUse" x="-35" y="75" width="101" height="101">
<circle cx="15.31" cy="125.31" r="50.31" fill="#6191D9"/>
</mask>
<g mask="url(#mask0_328_1382)">
<circle cx="15.31" cy="125.31" r="50.31" fill="#C39A61"/>
<circle cx="-0.15519" cy="110.935" r="34.0929" fill="#E0E1A3"/>
<rect x="31.7246" y="105.223" width="6.63429" height="4.79143" rx="2.39571" fill="#E0E1A3"/>
<rect x="-13.9922" y="107.434" width="25.4314" height="13.6371" rx="6.81857" fill="#D9BE55"/>
<rect x="-4.4082" y="149.082" width="8.84572" height="4.79143" rx="2.39571" fill="#D9BE55"/>
<path d="M19.5733 153.014C19.5733 153.014 7.48653 157.375 2.60896 157.375C-2.2686 157.375 -6.95529 156.742 -11.322 155.238C-13.929 154.959 -16.443 156.573 -17.2087 159.177C-18.0699 162.107 -16.5376 165.543 -13.6082 166.404L15.1404 207.685L79.6404 171.933L85.2399 105.959L51.2604 90.2945C49.7337 87.6502 45.7927 87.2937 43.1484 88.8204C40.5041 90.3471 39.5981 93.7283 41.1248 96.3726L41.5066 97.0339C43.9831 102.446 44.9947 106.143 44.4418 114.62C42.7218 120.026 38.0655 131.096 29.5147 131.39H10.3491C7.29573 131.39 4.82051 133.866 4.82051 136.919C4.82051 139.972 7.29573 142.448 10.3491 142.448L18.4576 142.456C20.7009 142.574 22.7121 144.112 23.3249 146.4C24.0866 149.242 22.4158 152.253 19.5733 153.014Z" fill="#D9BE55"/>
<rect x="11.4414" y="94.5337" width="8.84572" height="5.52857" rx="2.76429" fill="#E2C433"/>
<rect x="1.85938" y="117.016" width="12.1629" height="8.10857" rx="4.05429" fill="#E2C433"/>
<path d="M-26.7288 128.81C-26.687 131.048 -28.468 132.897 -30.7068 132.939C-32.9455 132.981 -34.7942 131.2 -34.8359 128.961V72.6782H24.6275C26.53 73.0246 27.7915 78.9403 27.4452 80.8429C27.161 82.4039 25.8826 83.5335 24.3818 83.6973C24.0536 83.7331 23.7147 83.7227 23.3733 83.6606C23.3733 83.6606 18.4866 82.7824 15.3222 82.7398C5.70354 82.6101 -1.55601 85.3864 -8.23835 89.9269C-10.2805 93.7601 -6.40505 94.8412 -4.21206 94.9026C-2.27828 94.9026 -0.710636 96.4703 -0.710636 98.4041C-0.710636 100.338 -2.27828 101.905 -4.21207 101.905H-19.9321C-20.9961 103.549 -21.9514 105.273 -22.7884 107.065H-20.6135C-18.3744 107.065 -16.5592 108.881 -16.5592 111.12C-16.5592 113.359 -18.3744 115.174 -20.6135 115.174H-25.6314C-26.4475 118.536 -26.8792 122.055 -26.8792 125.678L-26.7288 128.81Z" fill="#E2C433"/>
<rect x="33.9414" y="139.13" width="12.5314" height="7.37143" rx="3.68571" fill="#B1824B"/>
<path d="M56.7883 125.125V119.965C56.7883 117.93 58.4384 116.28 60.474 116.28C62.5096 116.28 64.1597 117.93 64.1597 119.965L66.187 189.528L5.69204 173.318C3.79163 172.809 2.66384 170.856 3.17305 168.955C3.68084 167.06 5.62475 165.933 7.52014 166.432C9.70189 166.778 11.9391 166.958 14.2183 166.958C32.9587 166.958 48.9766 155.15 54.6203 138.43C55.5112 135.79 53.4087 133.234 50.6228 133.234H50.3383C48.6081 133.234 47.2054 131.831 47.2054 130.101C47.2054 128.371 48.6081 126.968 50.3383 126.968H54.9052C55.9296 126.968 56.7662 126.15 56.7883 125.125Z" fill="#B1824B"/>
<rect x="11.8242" y="159.402" width="8.10857" height="4.79143" rx="2.39571" fill="#C39A61"/>
</g>
<mask id="mask1_328_1382" style="mask-type:alpha" maskUnits="userSpaceOnUse" x="23" y="-24" width="86" height="86">
<circle cx="43" cy="43" r="43" transform="matrix(-1 0 0 1 109 -24)" fill="#6191D9"/>
</mask>
<g mask="url(#mask1_328_1382)">
<circle cx="43" cy="43" r="43" transform="matrix(-1 0 0 1 109 -24)" fill="#A89D85"/>
<circle cx="29.1392" cy="29.1392" r="29.1392" transform="matrix(-1 0 0 1 108.355 -22.4248)" fill="#C0BA8B"/>
<rect width="5.67033" height="4.09524" rx="2.04762" transform="matrix(-1 0 0 1 51.9668 1.83154)" fill="#C0BA8B"/>
<rect width="21.7363" height="11.6557" rx="5.82784" transform="matrix(-1 0 0 1 91.0449 3.72168)" fill="#81502C"/>
<rect width="7.56044" height="4.09524" rx="2.04762" transform="matrix(-1 0 0 1 82.8535 39.3188)" fill="#81502C"/>
<path d="M62.3546 42.6799C62.3546 42.6799 72.6852 46.4065 76.854 46.4065C81.0229 46.4065 85.0286 45.866 88.7608 44.5804C90.9891 44.3417 93.1378 45.7213 93.7922 47.9474C94.5283 50.4511 93.2186 53.3883 90.7149 54.1244L66.1434 89.4065L11.0152 58.8497L6.22925 2.46145L35.2716 -10.9268C36.5764 -13.1869 39.9449 -13.4916 42.2049 -12.1868C44.465 -10.8819 45.2393 -7.99199 43.9345 -5.73193L43.6082 -5.1667C41.4915 -0.541203 40.6269 2.61896 41.0994 9.86438C42.5695 14.4847 46.5493 23.9459 53.8577 24.1978H70.2385C72.8482 24.1978 74.9638 26.3134 74.9638 28.9231C74.9638 31.5328 72.8482 33.6484 70.2385 33.6484L63.3081 33.6558C61.3909 33.7561 59.6719 35.0714 59.1481 37.0262C58.4971 39.4556 59.9251 42.029 62.3546 42.6799Z" fill="#81502C"/>
<rect width="10.3956" height="6.9304" rx="3.4652" transform="matrix(-1 0 0 1 77.498 11.9121)" fill="#74896D"/>
<rect width="10.3956" height="6.9304" rx="3.4652" transform="matrix(-0.454087 0.890958 0.890958 0.454087 100.938 29.2383)" fill="#74896D"/>
<path d="M101.928 21.9912C101.893 23.9047 103.415 25.4847 105.328 25.5204C107.242 25.5561 108.822 24.0339 108.857 22.1204V-25.9844H58.034C56.4079 -25.6884 55.3297 -20.6321 55.6257 -19.0061C55.8686 -17.6718 56.9613 -16.7064 58.2439 -16.5664C58.5245 -16.5358 58.8141 -16.5446 59.106 -16.5978C59.106 -16.5978 63.2826 -17.3483 65.9872 -17.3848C74.2083 -17.4956 80.413 -15.1227 86.1244 -11.2419C87.8699 -7.9657 84.5575 -7.04166 82.6832 -6.98916C81.0304 -6.98916 79.6905 -5.6493 79.6905 -3.99649C79.6905 -2.34368 81.0304 -1.00381 82.6832 -1.00381H96.1191C97.0285 0.401079 97.845 1.87415 98.5604 3.40637H96.7015C94.7877 3.40637 93.2363 4.95779 93.2363 6.87157C93.2363 8.78535 94.7877 10.3368 96.7015 10.3368H100.99C101.688 13.2099 102.057 16.2176 102.057 19.3149L101.928 21.9912Z" fill="#74896D"/>
<rect width="10.7106" height="6.30037" rx="3.15018" transform="matrix(-1 0 0 1 50.0781 30.8135)" fill="#857C70"/>
<path d="M30.5471 18.8427V14.4324C30.5471 12.6926 29.1367 11.2822 27.3969 11.2822C25.6571 11.2822 24.2467 12.6926 24.2467 14.4324L22.514 73.8875L74.2191 60.0331C75.8434 59.5979 76.8073 57.9283 76.3721 56.304C75.938 54.6843 74.2766 53.7212 72.6566 54.1474C70.7919 54.4435 68.8797 54.5972 66.9317 54.5972C50.9142 54.5972 37.2237 44.505 32.4001 30.2138C31.6386 27.9578 33.4356 25.7731 35.8167 25.7731H36.0599C37.5387 25.7731 38.7375 24.5742 38.7375 23.0954C38.7375 21.6166 37.5387 20.4178 36.0599 20.4178H32.1565C31.281 20.4178 30.566 19.718 30.5471 18.8427Z" fill="#857C70"/>
<rect width="10.7106" height="6.9304" rx="3.4652" transform="matrix(-1 0 0 1 96.4023 18.5273)" fill="#A89D85"/>
<rect width="6.9304" height="4.09524" rx="2.04762" transform="matrix(-1 0 0 1 68.9785 48.1396)" fill="#A89D85"/>
</g>
<path d="M134.098 32.5469H130.987C130.93 32.1444 130.814 31.7869 130.639 31.4744C130.464 31.1572 130.239 30.8873 129.964 30.6648C129.69 30.4422 129.373 30.2718 129.013 30.1534C128.658 30.035 128.272 29.9759 127.855 29.9759C127.102 29.9759 126.446 30.1629 125.888 30.5369C125.329 30.9062 124.896 31.446 124.588 32.1562C124.28 32.8617 124.126 33.7187 124.126 34.7273C124.126 35.7642 124.28 36.6354 124.588 37.3409C124.901 38.0464 125.336 38.5791 125.895 38.9389C126.454 39.2988 127.1 39.4787 127.834 39.4787C128.246 39.4787 128.627 39.4242 128.977 39.3153C129.332 39.2064 129.647 39.0478 129.922 38.8395C130.196 38.6264 130.424 38.3684 130.604 38.0653C130.788 37.7623 130.916 37.4167 130.987 37.0284L134.098 37.0426C134.018 37.7102 133.816 38.3542 133.494 38.9744C133.177 39.59 132.749 40.1416 132.209 40.6293C131.674 41.1122 131.035 41.4957 130.291 41.7798C129.553 42.0592 128.717 42.1989 127.784 42.1989C126.487 42.1989 125.327 41.9053 124.304 41.3182C123.286 40.7311 122.481 39.8812 121.889 38.7685C121.302 37.6558 121.009 36.3087 121.009 34.7273C121.009 33.1411 121.307 31.7917 121.903 30.679C122.5 29.5663 123.31 28.7187 124.332 28.1364C125.355 27.5492 126.506 27.2557 127.784 27.2557C128.627 27.2557 129.408 27.3741 130.128 27.6108C130.852 27.8475 131.494 28.1932 132.053 28.6477C132.611 29.0975 133.066 29.6491 133.416 30.3026C133.771 30.956 133.999 31.7041 134.098 32.5469ZM136.246 42V31.0909H145.785V42H142.894V33.4702H139.102V42H136.246ZM149.677 46.0909C149.293 46.0909 148.933 46.0601 148.597 45.9986C148.266 45.9418 147.991 45.8684 147.773 45.7784L148.455 43.5199C148.81 43.6288 149.13 43.688 149.414 43.6974C149.703 43.7069 149.951 43.6406 150.16 43.4986C150.373 43.3565 150.546 43.1151 150.678 42.7741L150.856 42.3125L146.942 31.0909H150.124L152.383 39.1023H152.496L154.776 31.0909H157.979L153.739 43.179C153.536 43.7661 153.259 44.2775 152.908 44.7131C152.563 45.1534 152.125 45.492 151.594 45.7287C151.064 45.9702 150.425 46.0909 149.677 46.0909ZM158.96 33.4702V31.0909H168.846V33.4702H165.33V42H162.447V33.4702H158.96ZM178.272 35.3381V37.7173H172.576V35.3381H178.272ZM173.571 31.0909V42H170.68V31.0909H173.571ZM180.169 31.0909V42H177.299V31.0909H180.169ZM185.407 38.0085L189.334 31.0909H192.317V42H189.434V35.0611L185.52 42H182.516V31.0909H185.407V38.0085ZM194.743 42V31.0909H197.768V35.3239H198.62L201.589 31.0909H205.14L201.284 36.5028L205.183 42H201.589L198.897 38.1293H197.768V42H194.743ZM209.352 38.0085L213.279 31.0909H216.262V42H213.379V35.0611L209.466 42H206.461V31.0909H209.352V38.0085ZM121.264 51.4545H124.332V60.6023H124.453L130.739 51.4545H133.43V66H130.355V56.8452H130.249L123.928 66H121.264V51.4545ZM140.843 66.2131C139.74 66.2131 138.786 65.9787 137.981 65.5099C137.181 65.0365 136.563 64.3783 136.127 63.5355C135.692 62.688 135.474 61.7055 135.474 60.5881C135.474 59.4612 135.692 58.4763 136.127 57.6335C136.563 56.786 137.181 56.1278 137.981 55.6591C138.786 55.1856 139.74 54.9489 140.843 54.9489C141.947 54.9489 142.898 55.1856 143.699 55.6591C144.503 56.1278 145.124 56.786 145.559 57.6335C145.995 58.4763 146.213 59.4612 146.213 60.5881C146.213 61.7055 145.995 62.688 145.559 63.5355C145.124 64.3783 144.503 65.0365 143.699 65.5099C142.898 65.9787 141.947 66.2131 140.843 66.2131ZM140.858 63.8693C141.359 63.8693 141.779 63.7273 142.115 63.4432C142.451 63.1544 142.704 62.7614 142.875 62.2642C143.05 61.767 143.137 61.2012 143.137 60.5668C143.137 59.9323 143.05 59.3665 142.875 58.8693C142.704 58.3722 142.451 57.9792 142.115 57.6903C141.779 57.4015 141.359 57.2571 140.858 57.2571C140.351 57.2571 139.925 57.4015 139.579 57.6903C139.238 57.9792 138.98 58.3722 138.805 58.8693C138.635 59.3665 138.549 59.9323 138.549 60.5668C138.549 61.2012 138.635 61.767 138.805 62.2642C138.98 62.7614 139.238 63.1544 139.579 63.4432C139.925 63.7273 140.351 63.8693 140.858 63.8693ZM155.7 62.0085L159.627 55.0909H162.61V66H159.727V59.0611L155.813 66H152.809V55.0909H155.7V62.0085ZM169.721 66V51.4545H179.522V53.9901H172.797V57.456H179.018V59.9915H172.797V63.4645H179.551V66H169.721ZM181.911 66V55.0909H186.562C187.907 55.0909 188.97 55.3466 189.751 55.858C190.533 56.3693 190.923 57.0961 190.923 58.0384C190.923 58.6302 190.703 59.1226 190.263 59.5156C189.822 59.9086 189.212 60.1738 188.43 60.3111C189.084 60.3584 189.64 60.5076 190.099 60.7585C190.563 61.0047 190.916 61.3243 191.158 61.7173C191.404 62.1103 191.527 62.5459 191.527 63.0241C191.527 63.6444 191.361 64.1771 191.03 64.6222C190.703 65.0672 190.223 65.4081 189.588 65.6449C188.958 65.8816 188.189 66 187.28 66H181.911ZM184.73 63.7344H187.28C187.701 63.7344 188.03 63.6349 188.267 63.4361C188.509 63.2325 188.629 62.9555 188.629 62.6051C188.629 62.2169 188.509 61.9115 188.267 61.6889C188.03 61.4664 187.701 61.3551 187.28 61.3551H184.73V63.7344ZM184.73 59.5795H186.626C186.929 59.5795 187.188 59.5369 187.401 59.4517C187.618 59.3617 187.784 59.2339 187.898 59.0682C188.016 58.9025 188.075 58.706 188.075 58.4787C188.075 58.1425 187.94 57.8797 187.67 57.6903C187.401 57.5009 187.031 57.4062 186.562 57.4062H184.73V59.5795ZM193.434 70.0909V55.0909H196.417V56.9233H196.552C196.684 56.6297 196.876 56.3314 197.127 56.0284C197.383 55.7206 197.714 55.465 198.121 55.2614C198.533 55.053 199.045 54.9489 199.656 54.9489C200.451 54.9489 201.185 55.1572 201.857 55.5739C202.53 55.9858 203.067 56.6084 203.469 57.4418C203.872 58.2704 204.073 59.3097 204.073 60.5597C204.073 61.7765 203.877 62.804 203.484 63.642C203.095 64.4754 202.565 65.1075 201.893 65.5384C201.225 65.9645 200.477 66.1776 199.648 66.1776C199.061 66.1776 198.562 66.0805 198.15 65.8864C197.743 65.6922 197.409 65.4484 197.148 65.1548C196.888 64.8565 196.689 64.5559 196.552 64.2528H196.46V70.0909H193.434ZM196.396 60.5455C196.396 61.1941 196.486 61.7599 196.665 62.2429C196.845 62.7259 197.106 63.1023 197.447 63.3722C197.788 63.6373 198.202 63.7699 198.69 63.7699C199.182 63.7699 199.599 63.6349 199.94 63.3651C200.281 63.0904 200.539 62.7116 200.714 62.2287C200.894 61.741 200.984 61.1799 200.984 60.5455C200.984 59.9157 200.896 59.3617 200.721 58.8835C200.546 58.4053 200.288 58.0312 199.947 57.7614C199.606 57.4915 199.187 57.3565 198.69 57.3565C198.197 57.3565 197.781 57.4867 197.44 57.7472C197.103 58.0076 196.845 58.3769 196.665 58.8551C196.486 59.3333 196.396 59.8968 196.396 60.5455ZM211.019 66.2131C209.916 66.2131 208.962 65.9787 208.157 65.5099C207.357 65.0365 206.739 64.3783 206.303 63.5355C205.868 62.688 205.65 61.7055 205.65 60.5881C205.65 59.4612 205.868 58.4763 206.303 57.6335C206.739 56.786 207.357 56.1278 208.157 55.6591C208.962 55.1856 209.916 54.9489 211.019 54.9489C212.122 54.9489 213.074 55.1856 213.874 55.6591C214.679 56.1278 215.299 56.786 215.735 57.6335C216.171 58.4763 216.388 59.4612 216.388 60.5881C216.388 61.7055 216.171 62.688 215.735 63.5355C215.299 64.3783 214.679 65.0365 213.874 65.5099C213.074 65.9787 212.122 66.2131 211.019 66.2131ZM211.033 63.8693C211.535 63.8693 211.954 63.7273 212.29 63.4432C212.627 63.1544 212.88 62.7614 213.05 62.2642C213.226 61.767 213.313 61.2012 213.313 60.5668C213.313 59.9323 213.226 59.3665 213.05 58.8693C212.88 58.3722 212.627 57.9792 212.29 57.6903C211.954 57.4015 211.535 57.2571 211.033 57.2571C210.527 57.2571 210.101 57.4015 209.755 57.6903C209.414 57.9792 209.156 58.3722 208.981 58.8693C208.81 59.3665 208.725 59.9323 208.725 60.5668C208.725 61.2012 208.81 61.767 208.981 62.2642C209.156 62.7614 209.414 63.1544 209.755 63.4432C210.101 63.7273 210.527 63.8693 211.033 63.8693ZM218.356 66V55.0909H227.894V66H225.004V57.4702H221.211V66H218.356ZM233.42 66.206C232.724 66.206 232.103 66.0852 231.559 65.8438C231.014 65.5975 230.584 65.2353 230.266 64.7571C229.954 64.2741 229.798 63.6728 229.798 62.9531C229.798 62.3471 229.909 61.8381 230.131 61.4261C230.354 61.0142 230.657 60.6828 231.04 60.4318C231.424 60.1809 231.86 59.9915 232.347 59.8636C232.84 59.7358 233.356 59.6458 233.896 59.5938C234.53 59.5275 235.041 59.4659 235.43 59.4091C235.818 59.3475 236.1 59.2576 236.275 59.1392C236.45 59.0208 236.538 58.8456 236.538 58.6136V58.571C236.538 58.1212 236.396 57.7732 236.112 57.527C235.832 57.2808 235.434 57.1577 234.918 57.1577C234.374 57.1577 233.941 57.2784 233.619 57.5199C233.297 57.7566 233.084 58.0549 232.979 58.4148L230.181 58.1875C230.323 57.5246 230.603 56.9517 231.019 56.4688C231.436 55.9811 231.973 55.607 232.631 55.3466C233.294 55.0814 234.061 54.9489 234.933 54.9489C235.539 54.9489 236.119 55.0199 236.673 55.1619C237.231 55.304 237.726 55.5241 238.157 55.8224C238.593 56.1207 238.936 56.5043 239.187 56.973C239.438 57.437 239.563 57.9934 239.563 58.642V66H236.694V64.4872H236.609C236.433 64.8281 236.199 65.1288 235.906 65.3892C235.612 65.6449 235.259 65.8461 234.847 65.9929C234.435 66.1349 233.96 66.206 233.42 66.206ZM234.286 64.1179C234.731 64.1179 235.124 64.0303 235.465 63.8551C235.806 63.6752 236.074 63.4337 236.268 63.1307C236.462 62.8277 236.559 62.4844 236.559 62.1009V60.9432C236.464 61.0047 236.334 61.0616 236.168 61.1136C236.007 61.161 235.825 61.206 235.621 61.2486C235.418 61.2865 235.214 61.322 235.011 61.3551C234.807 61.3835 234.622 61.4096 234.457 61.4332C234.102 61.4853 233.791 61.5682 233.526 61.6818C233.261 61.7955 233.055 61.9493 232.908 62.1435C232.762 62.3329 232.688 62.5696 232.688 62.8537C232.688 63.2656 232.837 63.5805 233.136 63.7983C233.439 64.0114 233.822 64.1179 234.286 64.1179Z" fill="#FFBF7E"/>
<path d="M129.301 87.3239V89.2955H124.284V87.3239H129.301ZM120.818 90.1875H123.267C123.309 90.8542 123.517 91.3561 123.892 91.6932C124.267 92.0303 124.822 92.1989 125.557 92.1989C126.155 92.1989 126.631 92.0587 126.983 91.7784C127.335 91.4981 127.589 91.0947 127.744 90.5682C127.9 90.0379 127.977 89.4034 127.977 88.6648V87.7216C127.977 86.9602 127.888 86.3182 127.71 85.7955C127.536 85.2689 127.269 84.8712 126.909 84.6023C126.553 84.3333 126.097 84.1989 125.54 84.1989C124.991 84.1989 124.555 84.2822 124.233 84.4489C123.911 84.6155 123.676 84.8542 123.528 85.1648C123.381 85.4716 123.29 85.8428 123.256 86.2784H120.807C120.883 85.5133 121.102 84.8239 121.466 84.2102C121.833 83.5928 122.354 83.1042 123.028 82.7443C123.706 82.3845 124.544 82.2045 125.54 82.2045C126.528 82.2045 127.386 82.4299 128.114 82.8807C128.841 83.3314 129.403 83.9697 129.801 84.7955C130.199 85.6212 130.398 86.5985 130.398 87.7273V88.6705C130.398 89.7992 130.203 90.7746 129.812 91.5966C129.426 92.4148 128.871 93.0473 128.148 93.4943C127.424 93.9375 126.561 94.1591 125.557 94.1591C124.598 94.1591 123.777 93.9924 123.091 93.6591C122.405 93.322 121.869 92.8561 121.483 92.2614C121.097 91.6629 120.875 90.9716 120.818 90.1875ZM131.714 87.1761V85.2727H139.624V87.1761H136.811V94H134.504V87.1761H131.714ZM143.267 94.1648C142.71 94.1648 142.214 94.0682 141.778 93.875C141.343 93.678 140.998 93.3883 140.744 93.0057C140.494 92.6193 140.369 92.1383 140.369 91.5625C140.369 91.0777 140.458 90.6705 140.636 90.3409C140.814 90.0114 141.057 89.7462 141.364 89.5455C141.67 89.3447 142.019 89.1932 142.409 89.0909C142.803 88.9886 143.216 88.9167 143.648 88.875C144.155 88.822 144.564 88.7727 144.875 88.7273C145.186 88.678 145.411 88.6061 145.551 88.5114C145.691 88.4167 145.761 88.2765 145.761 88.0909V88.0568C145.761 87.697 145.648 87.4186 145.42 87.2216C145.197 87.0246 144.879 86.9261 144.466 86.9261C144.03 86.9261 143.684 87.0227 143.426 87.2159C143.169 87.4053 142.998 87.6439 142.915 87.9318L140.676 87.75C140.79 87.2197 141.013 86.7614 141.347 86.375C141.68 85.9848 142.11 85.6856 142.636 85.4773C143.167 85.2652 143.78 85.1591 144.477 85.1591C144.962 85.1591 145.426 85.2159 145.869 85.3295C146.316 85.4432 146.712 85.6193 147.057 85.858C147.405 86.0966 147.68 86.4034 147.881 86.7784C148.081 87.1496 148.182 87.5947 148.182 88.1136V94H145.886V92.7898H145.818C145.678 93.0625 145.491 93.303 145.256 93.5114C145.021 93.7159 144.739 93.8769 144.409 93.9943C144.08 94.108 143.699 94.1648 143.267 94.1648ZM143.96 92.4943C144.316 92.4943 144.631 92.4242 144.903 92.2841C145.176 92.1402 145.39 91.947 145.545 91.7045C145.701 91.4621 145.778 91.1875 145.778 90.8807V89.9545C145.703 90.0038 145.598 90.0492 145.466 90.0909C145.337 90.1288 145.191 90.1648 145.028 90.1989C144.866 90.2292 144.703 90.2576 144.54 90.2841C144.377 90.3068 144.229 90.3277 144.097 90.3466C143.813 90.3883 143.564 90.4545 143.352 90.5455C143.14 90.6364 142.975 90.7595 142.858 90.9148C142.741 91.0663 142.682 91.2557 142.682 91.483C142.682 91.8125 142.801 92.0644 143.04 92.2386C143.282 92.4091 143.589 92.4943 143.96 92.4943ZM150.06 94V85.2727H157.69V94H155.378V87.1761H152.344V94H150.06ZM167.604 94.1591C166.755 94.1591 166 94.0133 165.337 93.7216C164.678 93.4261 164.157 93.0208 163.774 92.5057C163.395 91.9867 163.2 91.3883 163.189 90.7102H165.666C165.681 90.9943 165.774 91.2443 165.945 91.4602C166.119 91.6723 166.35 91.8371 166.638 91.9545C166.926 92.072 167.25 92.1307 167.609 92.1307C167.984 92.1307 168.316 92.0644 168.604 91.9318C168.892 91.7992 169.117 91.6155 169.28 91.3807C169.443 91.1458 169.524 90.875 169.524 90.5682C169.524 90.2576 169.437 89.983 169.263 89.7443C169.092 89.5019 168.846 89.3125 168.524 89.1761C168.206 89.0398 167.827 88.9716 167.388 88.9716H166.303V87.1648H167.388C167.759 87.1648 168.087 87.1004 168.371 86.9716C168.659 86.8428 168.882 86.6648 169.041 86.4375C169.2 86.2064 169.28 85.9375 169.28 85.6307C169.28 85.339 169.21 85.0833 169.07 84.8636C168.933 84.6402 168.74 84.4659 168.49 84.3409C168.244 84.2159 167.956 84.1534 167.626 84.1534C167.293 84.1534 166.988 84.214 166.712 84.3352C166.435 84.4527 166.214 84.6212 166.047 84.8409C165.88 85.0606 165.791 85.3182 165.78 85.6136H163.422C163.433 84.9432 163.625 84.3523 163.996 83.8409C164.367 83.3295 164.867 82.9299 165.496 82.642C166.128 82.3504 166.842 82.2045 167.638 82.2045C168.441 82.2045 169.143 82.3504 169.746 82.642C170.348 82.9337 170.816 83.3277 171.149 83.8239C171.486 84.3163 171.653 84.8693 171.649 85.483C171.653 86.1345 171.45 86.678 171.041 87.1136C170.636 87.5492 170.107 87.8258 169.456 87.9432V88.0341C170.312 88.1439 170.964 88.4413 171.411 88.9261C171.861 89.4072 172.085 90.0095 172.081 90.733C172.085 91.3958 171.893 91.9848 171.507 92.5C171.125 93.0152 170.596 93.4205 169.922 93.7159C169.248 94.0114 168.475 94.1591 167.604 94.1591ZM175.287 92.6477C174.912 92.6477 174.59 92.5152 174.321 92.25C174.056 91.9848 173.923 91.6629 173.923 91.2841C173.923 90.9129 174.056 90.5947 174.321 90.3295C174.59 90.0644 174.912 89.9318 175.287 89.9318C175.651 89.9318 175.969 90.0644 176.241 90.3295C176.514 90.5947 176.651 90.9129 176.651 91.2841C176.651 91.5341 176.586 91.7633 176.457 91.9716C176.332 92.1761 176.168 92.3409 175.963 92.4659C175.759 92.5871 175.533 92.6477 175.287 92.6477ZM175.287 86.9375C174.912 86.9375 174.59 86.8049 174.321 86.5398C174.056 86.2746 173.923 85.9527 173.923 85.5739C173.923 85.2027 174.056 84.8864 174.321 84.625C174.59 84.3598 174.912 84.2273 175.287 84.2273C175.651 84.2273 175.969 84.3598 176.241 84.625C176.514 84.8864 176.651 85.2027 176.651 85.5739C176.651 85.8277 176.586 86.0587 176.457 86.267C176.332 86.4716 176.168 86.6345 175.963 86.7557C175.759 86.8769 175.533 86.9375 175.287 86.9375Z" fill="#FFBF7E"/>
<path d="M193.278 86.4375H190.79C190.744 86.1155 190.652 85.8295 190.511 85.5795C190.371 85.3258 190.191 85.1098 189.972 84.9318C189.752 84.7538 189.498 84.6174 189.21 84.5227C188.926 84.428 188.617 84.3807 188.284 84.3807C187.682 84.3807 187.157 84.5303 186.71 84.8295C186.263 85.125 185.917 85.5568 185.67 86.125C185.424 86.6894 185.301 87.375 185.301 88.1818C185.301 89.0114 185.424 89.7083 185.67 90.2727C185.92 90.8371 186.269 91.2633 186.716 91.5511C187.163 91.839 187.68 91.983 188.267 91.983C188.597 91.983 188.902 91.9394 189.182 91.8523C189.466 91.7652 189.718 91.6383 189.938 91.4716C190.157 91.3011 190.339 91.0947 190.483 90.8523C190.631 90.6098 190.733 90.3333 190.79 90.0227L193.278 90.0341C193.214 90.5682 193.053 91.0833 192.795 91.5795C192.542 92.072 192.199 92.5133 191.767 92.9034C191.339 93.2898 190.828 93.5966 190.233 93.8239C189.642 94.0473 188.973 94.1591 188.227 94.1591C187.189 94.1591 186.261 93.9242 185.443 93.4545C184.629 92.9848 183.985 92.3049 183.511 91.4148C183.042 90.5246 182.807 89.447 182.807 88.1818C182.807 86.9129 183.045 85.8333 183.523 84.9432C184 84.053 184.648 83.375 185.466 82.9091C186.284 82.4394 187.205 82.2045 188.227 82.2045C188.902 82.2045 189.527 82.2992 190.102 82.4886C190.682 82.678 191.195 82.9545 191.642 83.3182C192.089 83.678 192.453 84.1193 192.733 84.642C193.017 85.1648 193.199 85.7633 193.278 86.4375ZM198.94 94.1705C198.058 94.1705 197.295 93.983 196.651 93.608C196.01 93.2292 195.516 92.7027 195.168 92.0284C194.819 91.3504 194.645 90.5644 194.645 89.6705C194.645 88.7689 194.819 87.9811 195.168 87.3068C195.516 86.6288 196.01 86.1023 196.651 85.7273C197.295 85.3485 198.058 85.1591 198.94 85.1591C199.823 85.1591 200.584 85.3485 201.224 85.7273C201.868 86.1023 202.365 86.6288 202.713 87.3068C203.062 87.9811 203.236 88.7689 203.236 89.6705C203.236 90.5644 203.062 91.3504 202.713 92.0284C202.365 92.7027 201.868 93.2292 201.224 93.608C200.584 93.983 199.823 94.1705 198.94 94.1705ZM198.952 92.2955C199.353 92.2955 199.688 92.1818 199.957 91.9545C200.226 91.7235 200.429 91.4091 200.565 91.0114C200.705 90.6136 200.776 90.161 200.776 89.6534C200.776 89.1458 200.705 88.6932 200.565 88.2955C200.429 87.8977 200.226 87.5833 199.957 87.3523C199.688 87.1212 199.353 87.0057 198.952 87.0057C198.546 87.0057 198.205 87.1212 197.929 87.3523C197.656 87.5833 197.45 87.8977 197.31 88.2955C197.173 88.6932 197.105 89.1458 197.105 89.6534C197.105 90.161 197.173 90.6136 197.31 91.0114C197.45 91.4091 197.656 91.7235 197.929 91.9545C198.205 92.1818 198.546 92.2955 198.952 92.2955ZM203.964 87.1761V85.2727H211.874V87.1761H209.061V94H206.754V87.1761H203.964ZM213.341 97.2727V85.2727H215.727V86.7386H215.835C215.941 86.5038 216.095 86.2652 216.295 86.0227C216.5 85.7765 216.765 85.572 217.091 85.4091C217.42 85.2424 217.83 85.1591 218.318 85.1591C218.955 85.1591 219.542 85.3258 220.08 85.6591C220.617 85.9886 221.047 86.4867 221.369 87.1534C221.691 87.8163 221.852 88.6477 221.852 89.6477C221.852 90.6212 221.695 91.4432 221.381 92.1136C221.07 92.7803 220.646 93.286 220.108 93.6307C219.574 93.9716 218.975 94.142 218.312 94.142C217.843 94.142 217.443 94.0644 217.114 93.9091C216.788 93.7538 216.521 93.5587 216.312 93.3239C216.104 93.0852 215.945 92.8447 215.835 92.6023H215.761V97.2727H213.341ZM215.71 89.6364C215.71 90.1553 215.782 90.608 215.926 90.9943C216.07 91.3807 216.278 91.6818 216.551 91.8977C216.824 92.1098 217.155 92.2159 217.545 92.2159C217.939 92.2159 218.273 92.108 218.545 91.892C218.818 91.6723 219.025 91.3693 219.165 90.983C219.309 90.5928 219.381 90.1439 219.381 89.6364C219.381 89.1326 219.311 88.6894 219.17 88.3068C219.03 87.9242 218.824 87.625 218.551 87.4091C218.278 87.1932 217.943 87.0852 217.545 87.0852C217.152 87.0852 216.818 87.1894 216.545 87.3977C216.277 87.6061 216.07 87.9015 215.926 88.2841C215.782 88.6667 215.71 89.1174 215.71 89.6364ZM224.679 97.2727C224.372 97.2727 224.084 97.2481 223.815 97.1989C223.55 97.1534 223.33 97.0947 223.156 97.0227L223.702 95.2159C223.986 95.303 224.241 95.3504 224.469 95.358C224.7 95.3655 224.899 95.3125 225.065 95.1989C225.236 95.0852 225.374 94.892 225.48 94.6193L225.622 94.25L222.491 85.2727H225.037L226.844 91.6818H226.935L228.759 85.2727H231.321L227.929 94.9432C227.766 95.4129 227.545 95.822 227.264 96.1705C226.988 96.5227 226.637 96.7936 226.213 96.983C225.789 97.1761 225.277 97.2727 224.679 97.2727ZM231.175 96.5568V92.0795H231.845C232.038 91.9583 232.194 91.7652 232.311 91.5C232.432 91.2348 232.531 90.9223 232.607 90.5625C232.686 90.2027 232.747 89.8144 232.788 89.3977C232.834 88.9773 232.874 88.553 232.908 88.125L233.135 85.2727H239.828V92.0795H241.18V96.5568H238.874V94H233.538V96.5568H231.175ZM234.254 92.0795H237.544V87.1364H235.192L235.101 88.125C235.036 89.0568 234.944 89.8485 234.822 90.5C234.701 91.1477 234.512 91.6742 234.254 92.0795ZM248.665 88.6705V90.5739H244.108V88.6705H248.665ZM244.903 85.2727V94H242.591V85.2727H244.903ZM250.182 85.2727V94H247.886V85.2727H250.182ZM254.372 90.8068L257.514 85.2727H259.901V94H257.594V88.4489L254.463 94H252.06V85.2727H254.372V90.8068ZM261.841 94V85.2727H264.261V88.6591H264.943L267.318 85.2727H270.159L267.074 89.6023L270.193 94H267.318L265.165 90.9034H264.261V94H261.841Z" fill="white"/>
<path d="M128.54 140.636C128.54 141.568 128.369 142.369 128.028 143.04C127.688 143.707 127.22 144.222 126.626 144.582C126.036 144.94 125.364 145.119 124.611 145.119C123.855 145.119 123.18 144.94 122.587 144.582C121.996 144.222 121.53 143.706 121.189 143.036C120.848 142.365 120.678 141.565 120.678 140.636C120.678 139.705 120.848 138.905 121.189 138.237C121.53 137.567 121.996 137.053 122.587 136.695C123.18 136.334 123.855 136.153 124.611 136.153C125.364 136.153 126.036 136.334 126.626 136.695C127.22 137.053 127.688 137.567 128.028 138.237C128.369 138.905 128.54 139.705 128.54 140.636ZM127.236 140.636C127.236 139.926 127.121 139.328 126.891 138.842C126.663 138.354 126.351 137.984 125.953 137.734C125.558 137.482 125.111 137.355 124.611 137.355C124.108 137.355 123.659 137.482 123.264 137.734C122.869 137.984 122.557 138.354 122.327 138.842C122.099 139.328 121.986 139.926 121.986 140.636C121.986 141.347 122.099 141.946 122.327 142.435C122.557 142.92 122.869 143.29 123.264 143.543C123.659 143.793 124.108 143.918 124.611 143.918C125.111 143.918 125.558 143.793 125.953 143.543C126.351 143.29 126.663 142.92 126.891 142.435C127.121 141.946 127.236 141.347 127.236 140.636ZM135.129 136.017L135.657 136.822C135.461 137.001 135.238 137.129 134.988 137.206C134.741 137.28 134.456 137.327 134.132 137.347C133.808 137.364 133.437 137.379 133.02 137.393C132.548 137.408 132.16 137.51 131.856 137.7C131.552 137.888 131.318 138.166 131.153 138.536C130.991 138.902 130.886 139.362 130.838 139.916H130.919C131.132 139.51 131.427 139.206 131.805 139.004C132.186 138.803 132.613 138.702 133.088 138.702C133.616 138.702 134.086 138.822 134.498 139.064C134.91 139.305 135.234 139.659 135.47 140.125C135.708 140.588 135.828 141.155 135.828 141.825C135.828 142.504 135.703 143.091 135.453 143.585C135.206 144.08 134.856 144.462 134.404 144.732C133.956 144.999 133.426 145.132 132.815 145.132C132.204 145.132 131.672 144.994 131.217 144.719C130.765 144.44 130.414 144.028 130.164 143.483C129.917 142.937 129.794 142.264 129.794 141.463V140.815C129.794 139.318 130.061 138.192 130.595 137.436C131.129 136.68 131.927 136.293 132.99 136.273C133.333 136.264 133.64 136.263 133.91 136.268C134.18 136.271 134.416 136.259 134.618 136.23C134.822 136.199 134.993 136.128 135.129 136.017ZM132.819 144.062C133.174 144.062 133.48 143.973 133.735 143.794C133.994 143.612 134.193 143.355 134.332 143.023C134.471 142.69 134.541 142.298 134.541 141.847C134.541 141.403 134.471 141.027 134.332 140.717C134.193 140.408 133.994 140.172 133.735 140.01C133.477 139.845 133.167 139.763 132.806 139.763C132.539 139.763 132.301 139.81 132.091 139.903C131.88 139.994 131.7 140.129 131.549 140.308C131.402 140.487 131.287 140.706 131.204 140.964C131.125 141.22 131.082 141.514 131.076 141.847C131.076 142.523 131.231 143.061 131.541 143.462C131.853 143.862 132.279 144.062 132.819 144.062ZM140.008 145.132C139.375 145.132 138.829 144.989 138.372 144.702C137.917 144.412 137.568 144.013 137.324 143.504C137.079 142.996 136.957 142.413 136.957 141.757C136.957 141.092 137.082 140.506 137.332 139.997C137.582 139.486 137.934 139.087 138.389 138.8C138.843 138.513 139.379 138.369 139.995 138.369C140.493 138.369 140.936 138.462 141.325 138.646C141.714 138.828 142.028 139.084 142.267 139.413C142.508 139.743 142.652 140.128 142.697 140.568H141.457C141.389 140.261 141.233 139.997 140.988 139.776C140.747 139.554 140.423 139.443 140.017 139.443C139.662 139.443 139.35 139.537 139.083 139.724C138.819 139.909 138.613 140.173 138.466 140.517C138.318 140.858 138.244 141.261 138.244 141.727C138.244 142.205 138.316 142.616 138.461 142.963C138.606 143.31 138.811 143.578 139.075 143.768C139.342 143.959 139.656 144.054 140.017 144.054C140.258 144.054 140.477 144.01 140.673 143.922C140.872 143.831 141.038 143.702 141.172 143.534C141.308 143.366 141.403 143.165 141.457 142.929H142.697C142.652 143.352 142.514 143.73 142.284 144.062C142.054 144.395 141.745 144.656 141.359 144.847C140.975 145.037 140.525 145.132 140.008 145.132ZM143.544 145L143.54 143.896H143.774C143.956 143.896 144.108 143.858 144.23 143.781C144.355 143.702 144.457 143.568 144.537 143.381C144.616 143.193 144.678 142.935 144.72 142.605C144.763 142.273 144.794 141.855 144.814 141.352L144.929 138.455H149.497V145H148.249V139.554H146.109L146.007 141.778C145.982 142.318 145.926 142.79 145.841 143.193C145.759 143.597 145.638 143.933 145.479 144.203C145.32 144.47 145.115 144.67 144.865 144.804C144.615 144.935 144.311 145 143.953 145H143.544ZM151.767 147.455C151.577 147.455 151.404 147.439 151.248 147.408C151.091 147.379 150.975 147.348 150.898 147.314L151.205 146.27C151.438 146.332 151.645 146.359 151.827 146.351C152.009 146.342 152.169 146.274 152.309 146.146C152.451 146.018 152.576 145.81 152.684 145.52L152.841 145.085L150.446 138.455H151.81L153.468 143.534H153.536L155.194 138.455H156.561L153.864 145.874C153.739 146.214 153.58 146.503 153.387 146.739C153.194 146.977 152.963 147.156 152.696 147.276C152.429 147.395 152.12 147.455 151.767 147.455ZM157.341 145L159.877 141.651L157.371 138.455H158.854L160.878 141.173H161.334V138.455H162.608V141.173H163.051L165.076 138.455H166.559L164.066 141.651L166.588 145H165.076L163.034 142.273H162.608V145H161.334V142.273H160.908L158.854 145H157.341ZM169.132 143.214L172.017 138.455H173.39V145H172.141V140.236L169.269 145H167.884V138.455H169.132V143.214ZM175.103 145V138.455H177.817C178.556 138.455 179.141 138.612 179.573 138.928C180.005 139.24 180.221 139.665 180.221 140.202C180.221 140.585 180.098 140.889 179.854 141.114C179.61 141.338 179.286 141.489 178.882 141.565C179.175 141.599 179.444 141.687 179.688 141.83C179.932 141.969 180.128 142.156 180.276 142.392C180.426 142.628 180.502 142.909 180.502 143.236C180.502 143.582 180.412 143.889 180.233 144.156C180.054 144.42 179.794 144.628 179.453 144.778C179.115 144.926 178.708 145 178.23 145H175.103ZM176.3 143.935H178.23C178.546 143.935 178.793 143.859 178.972 143.709C179.151 143.558 179.24 143.354 179.24 143.095C179.24 142.791 179.151 142.553 178.972 142.379C178.793 142.203 178.546 142.115 178.23 142.115H176.3V143.935ZM176.3 141.182H177.83C178.069 141.182 178.273 141.148 178.444 141.08C178.617 141.011 178.749 140.915 178.84 140.79C178.934 140.662 178.98 140.511 178.98 140.338C178.98 140.085 178.877 139.888 178.669 139.746C178.462 139.604 178.178 139.533 177.817 139.533H176.3V141.182ZM183.804 145.145C183.39 145.145 183.015 145.068 182.679 144.915C182.344 144.759 182.078 144.533 181.882 144.237C181.689 143.942 181.593 143.58 181.593 143.151C181.593 142.781 181.664 142.477 181.806 142.239C181.948 142 182.14 141.811 182.381 141.672C182.623 141.533 182.892 141.428 183.191 141.357C183.489 141.286 183.793 141.232 184.103 141.195C184.495 141.149 184.813 141.112 185.057 141.084C185.301 141.053 185.479 141.003 185.59 140.935C185.701 140.866 185.756 140.756 185.756 140.602V140.572C185.756 140.2 185.651 139.912 185.441 139.707C185.233 139.503 184.924 139.401 184.512 139.401C184.083 139.401 183.745 139.496 183.498 139.686C183.253 139.874 183.084 140.082 182.99 140.312L181.793 140.04C181.935 139.642 182.142 139.321 182.415 139.077C182.691 138.83 183.007 138.651 183.365 138.54C183.723 138.426 184.1 138.369 184.495 138.369C184.756 138.369 185.033 138.401 185.326 138.463C185.621 138.523 185.897 138.634 186.152 138.795C186.411 138.957 186.623 139.189 186.787 139.49C186.952 139.788 187.034 140.176 187.034 140.653V145H185.79V144.105H185.739C185.657 144.27 185.533 144.432 185.368 144.591C185.203 144.75 184.992 144.882 184.733 144.987C184.475 145.092 184.165 145.145 183.804 145.145ZM184.081 144.122C184.434 144.122 184.735 144.053 184.985 143.913C185.238 143.774 185.429 143.592 185.56 143.368C185.694 143.141 185.76 142.898 185.76 142.639V141.795C185.715 141.841 185.627 141.884 185.496 141.923C185.368 141.96 185.222 141.993 185.057 142.021C184.892 142.047 184.732 142.071 184.576 142.094C184.419 142.114 184.289 142.131 184.184 142.145C183.936 142.176 183.711 142.229 183.506 142.303C183.304 142.376 183.142 142.483 183.02 142.622C182.901 142.759 182.841 142.94 182.841 143.168C182.841 143.483 182.958 143.722 183.191 143.884C183.424 144.043 183.721 144.122 184.081 144.122ZM193.168 141.178V142.281H189.622V141.178H193.168ZM189.98 138.455V145H188.732V138.455H189.98ZM194.058 138.455V145H192.814V138.455H194.058ZM197.011 143.214L199.896 138.455H201.268V145H200.02V140.236L197.148 145H195.763V138.455H197.011V143.214ZM205.803 145.132C205.158 145.132 204.602 144.994 204.136 144.719C203.673 144.44 203.315 144.05 203.062 143.547C202.812 143.041 202.688 142.449 202.688 141.77C202.688 141.099 202.812 140.509 203.062 139.997C203.315 139.486 203.668 139.087 204.119 138.8C204.574 138.513 205.105 138.369 205.713 138.369C206.082 138.369 206.44 138.43 206.787 138.553C207.134 138.675 207.445 138.866 207.72 139.128C207.996 139.389 208.213 139.729 208.372 140.146C208.531 140.561 208.611 141.065 208.611 141.659V142.111H203.408V141.156H207.362C207.362 140.821 207.294 140.524 207.158 140.266C207.021 140.004 206.83 139.798 206.582 139.648C206.338 139.497 206.051 139.422 205.722 139.422C205.364 139.422 205.051 139.51 204.784 139.686C204.52 139.859 204.315 140.087 204.17 140.368C204.028 140.646 203.957 140.949 203.957 141.276V142.021C203.957 142.459 204.034 142.831 204.188 143.138C204.344 143.445 204.561 143.679 204.839 143.841C205.118 144 205.443 144.08 205.815 144.08C206.057 144.08 206.277 144.045 206.476 143.977C206.675 143.906 206.847 143.801 206.991 143.662C207.136 143.523 207.247 143.351 207.324 143.146L208.53 143.364C208.433 143.719 208.26 144.03 208.01 144.297C207.763 144.561 207.452 144.767 207.077 144.915C206.705 145.06 206.28 145.132 205.803 145.132ZM213.2 145V138.455H214.474V141.199H215.088L217.249 138.455H218.825L216.29 141.638L218.855 145H217.274L215.301 142.384H214.474V145H213.2ZM222.332 145.132C221.719 145.132 221.183 144.991 220.726 144.71C220.268 144.429 219.913 144.036 219.661 143.53C219.408 143.024 219.281 142.433 219.281 141.757C219.281 141.078 219.408 140.484 219.661 139.976C219.913 139.467 220.268 139.072 220.726 138.791C221.183 138.51 221.719 138.369 222.332 138.369C222.946 138.369 223.482 138.51 223.939 138.791C224.396 139.072 224.751 139.467 225.004 139.976C225.257 140.484 225.384 141.078 225.384 141.757C225.384 142.433 225.257 143.024 225.004 143.53C224.751 144.036 224.396 144.429 223.939 144.71C223.482 144.991 222.946 145.132 222.332 145.132ZM222.337 144.062C222.734 144.062 223.064 143.957 223.325 143.747C223.587 143.537 223.78 143.257 223.905 142.908C224.033 142.558 224.097 142.173 224.097 141.753C224.097 141.335 224.033 140.952 223.905 140.602C223.78 140.25 223.587 139.967 223.325 139.754C223.064 139.541 222.734 139.435 222.337 139.435C221.936 139.435 221.604 139.541 221.339 139.754C221.078 139.967 220.884 140.25 220.756 140.602C220.631 140.952 220.568 141.335 220.568 141.753C220.568 142.173 220.631 142.558 220.756 142.908C220.884 143.257 221.078 143.537 221.339 143.747C221.604 143.957 221.936 144.062 222.337 144.062ZM226.29 145L226.286 143.896H226.52C226.702 143.896 226.854 143.858 226.976 143.781C227.101 143.702 227.203 143.568 227.283 143.381C227.363 143.193 227.424 142.935 227.466 142.605C227.509 142.273 227.54 141.855 227.56 141.352L227.675 138.455H232.243V145H230.995V139.554H228.855L228.753 141.778C228.728 142.318 228.672 142.79 228.587 143.193C228.505 143.597 228.384 143.933 228.225 144.203C228.066 144.47 227.861 144.67 227.611 144.804C227.361 144.935 227.057 145 226.699 145H226.29ZM236.7 145.132C236.086 145.132 235.55 144.991 235.093 144.71C234.636 144.429 234.281 144.036 234.028 143.53C233.775 143.024 233.648 142.433 233.648 141.757C233.648 141.078 233.775 140.484 234.028 139.976C234.281 139.467 234.636 139.072 235.093 138.791C235.55 138.51 236.086 138.369 236.7 138.369C237.313 138.369 237.849 138.51 238.306 138.791C238.763 139.072 239.119 139.467 239.371 139.976C239.624 140.484 239.751 141.078 239.751 141.757C239.751 142.433 239.624 143.024 239.371 143.53C239.119 144.036 238.763 144.429 238.306 144.71C237.849 144.991 237.313 145.132 236.7 145.132ZM236.704 144.062C237.102 144.062 237.431 143.957 237.692 143.747C237.954 143.537 238.147 143.257 238.272 142.908C238.4 142.558 238.464 142.173 238.464 141.753C238.464 141.335 238.4 140.952 238.272 140.602C238.147 140.25 237.954 139.967 237.692 139.754C237.431 139.541 237.102 139.435 236.704 139.435C236.303 139.435 235.971 139.541 235.707 139.754C235.445 139.967 235.251 140.25 235.123 140.602C234.998 140.952 234.935 141.335 234.935 141.753C234.935 142.173 234.998 142.558 235.123 142.908C235.251 143.257 235.445 143.537 235.707 143.747C235.971 143.957 236.303 144.062 236.704 144.062ZM245.609 141.178V142.281H242.064V141.178H245.609ZM242.422 138.455V145H241.173V138.455H242.422ZM246.5 138.455V145H245.255V138.455H246.5ZM249.453 143.214L252.338 138.455H253.71V145H252.461V140.236L249.589 145H248.204V138.455H249.453V143.214ZM256.672 143.214L259.556 138.455H260.929V145H259.68V140.236L256.808 145H255.423V138.455H256.672V143.214ZM259.011 136.239H260.059C260.059 136.719 259.889 137.109 259.548 137.411C259.21 137.709 258.752 137.858 258.176 137.858C257.602 137.858 257.146 137.709 256.808 137.411C256.47 137.109 256.301 136.719 256.301 136.239H257.345C257.345 136.452 257.407 136.641 257.532 136.805C257.657 136.967 257.872 137.048 258.176 137.048C258.474 137.048 258.687 136.967 258.815 136.805C258.946 136.643 259.011 136.455 259.011 136.239Z" fill="white"/>
<g filter="url(#filter0_d_328_1382)">
<path d="M358.762 15.7172C358.626 15.6997 358.494 15.6806 358.365 15.6604C358.223 15.6385 358.087 15.6145 357.955 15.5888C357.489 15.4992 357.08 15.3872 356.722 15.2451C356.167 15.0244 355.732 14.7304 355.39 14.3348C355.229 14.1484 355.088 13.9392 354.964 13.7036C354.9 13.5802 354.84 13.449 354.784 13.3113C354.394 12.3398 354.221 10.995 354.118 9.11749C354.114 9.03935 354.057 9 354 9C353.986 9 353.971 9.00219 353.958 9.00711C353.931 9.01695 353.908 9.03661 353.894 9.06612C353.888 9.08087 353.883 9.09782 353.882 9.11749C353.619 13.9222 352.904 15.2478 349.238 15.7172C348.921 15.7577 348.921 16.2418 349.238 16.2828C352.904 16.7527 353.619 18.0778 353.882 22.8825C353.883 22.9022 353.887 22.9191 353.894 22.9339C353.908 22.9634 353.931 22.9831 353.958 22.9929C353.972 22.9978 353.986 23 354 23C354.057 23 354.114 22.9607 354.118 22.8825C354.325 19.0991 354.814 17.4734 356.802 16.7237C356.923 16.6778 357.051 16.6352 357.184 16.5959C357.347 16.5478 357.518 16.5035 357.699 16.4636C357.835 16.4336 357.976 16.4046 358.123 16.379C358.325 16.3434 358.538 16.3112 358.762 16.2828C359.079 16.2423 359.079 15.7582 358.762 15.7172H358.762Z" fill="#FFE394"/>
</g>
<g filter="url(#filter1_d_328_1382)">
<path d="M356.62 73.5556C356.401 73.5282 356.19 73.4981 355.984 73.4664C355.757 73.432 355.539 73.3942 355.328 73.3539C354.583 73.213 353.928 73.037 353.355 72.8138C352.467 72.4668 351.772 72.0049 351.224 71.3832C350.966 71.0904 350.74 70.7615 350.543 70.3914C350.44 70.1974 350.344 69.9913 350.255 69.7749C349.63 68.2482 349.354 66.135 349.189 63.1846C349.182 63.0618 349.091 63 349 63C348.978 63 348.954 63.0034 348.933 63.0112C348.89 63.0266 348.853 63.0575 348.831 63.1039C348.82 63.1271 348.813 63.1537 348.811 63.1846C348.39 70.7349 347.246 72.818 341.381 73.5556C340.873 73.6192 340.873 74.38 341.381 74.4444C347.246 75.1828 348.39 77.2651 348.811 84.8154C348.813 84.8463 348.819 84.8729 348.831 84.8961C348.853 84.9425 348.89 84.9734 348.933 84.9888C348.955 84.9966 348.978 85 349 85C349.091 85 349.182 84.9382 349.189 84.8154C349.52 78.87 350.302 76.3154 353.483 75.1373C353.678 75.0652 353.882 74.9982 354.095 74.9364C354.354 74.8608 354.629 74.7913 354.918 74.7286C355.136 74.6814 355.361 74.6359 355.597 74.5955C355.921 74.5397 356.261 74.489 356.619 74.4444C357.127 74.3808 357.127 73.62 356.619 73.5556H356.62Z" fill="#FFE394"/>
</g>
<g filter="url(#filter2_d_328_1382)">
<path d="M333.715 153.157C333.551 153.135 333.393 153.112 333.238 153.088C333.068 153.061 332.904 153.032 332.746 153.001C332.187 152.892 331.696 152.756 331.267 152.583C330.6 152.315 330.079 151.958 329.668 151.478C329.474 151.252 329.305 150.998 329.157 150.712C329.08 150.562 329.008 150.402 328.941 150.235C328.473 149.055 328.265 147.423 328.142 145.143C328.137 145.048 328.068 145 328 145C327.983 145 327.966 145.003 327.95 145.009C327.918 145.021 327.889 145.044 327.873 145.08C327.865 145.098 327.86 145.119 327.858 145.143C327.542 150.977 326.684 152.587 322.286 153.157C321.905 153.206 321.905 153.794 322.286 153.843C326.684 154.414 327.542 156.023 327.858 161.857C327.86 161.881 327.864 161.902 327.873 161.92C327.889 161.956 327.918 161.979 327.95 161.991C327.966 161.997 327.983 162 328 162C328.068 162 328.137 161.952 328.142 161.857C328.39 157.263 328.977 155.289 331.362 154.379C331.508 154.323 331.661 154.271 331.821 154.224C332.016 154.165 332.222 154.111 332.439 154.063C332.602 154.027 332.771 153.991 332.948 153.96C333.19 153.917 333.446 153.878 333.714 153.843C334.095 153.794 334.095 153.206 333.714 153.157H333.715Z" fill="#FFE394"/>
</g>
<g filter="url(#filter3_d_328_1382)">
<path d="M369.691 124.157C369.513 124.135 369.342 124.112 369.174 124.088C368.99 124.061 368.813 124.032 368.641 124.001C368.036 123.892 367.504 123.756 367.039 123.583C366.317 123.315 365.752 122.958 365.307 122.478C365.097 122.252 364.914 121.998 364.754 121.712C364.67 121.562 364.592 121.402 364.519 121.235C364.012 120.055 363.788 118.423 363.654 116.143C363.648 116.048 363.574 116 363.5 116C363.482 116 363.463 116.003 363.446 116.009C363.411 116.021 363.38 116.044 363.363 116.08C363.354 116.098 363.348 116.119 363.346 116.143C363.004 121.977 362.075 123.587 357.309 124.157C356.897 124.206 356.897 124.794 357.309 124.843C362.075 125.414 363.004 127.023 363.346 132.857C363.348 132.881 363.353 132.902 363.363 132.92C363.38 132.956 363.411 132.979 363.446 132.991C363.463 132.997 363.482 133 363.5 133C363.574 133 363.648 132.952 363.654 132.857C363.923 128.263 364.558 126.289 367.142 125.379C367.3 125.323 367.466 125.271 367.639 125.224C367.85 125.165 368.074 125.111 368.308 125.063C368.486 125.027 368.668 124.991 368.86 124.96C369.123 124.917 369.4 124.878 369.691 124.843C370.103 124.794 370.103 124.206 369.691 124.157H369.691Z" fill="#FFE394"/>
</g>
<g opacity="0.5">
<g filter="url(#filter4_df_328_1382)">
<circle cx="306" cy="140" r="1" fill="#D9D9D9"/>
<circle cx="306" cy="140" r="1" fill="#FFE394"/>
</g>
<g filter="url(#filter5_df_328_1382)">
<circle cx="325" cy="117" r="1" fill="#D9D9D9"/>
<circle cx="325" cy="117" r="1" fill="#FFE394"/>
</g>
<g filter="url(#filter6_df_328_1382)">
<circle cx="344" cy="105" r="1" fill="#D9D9D9"/>
<circle cx="344" cy="105" r="1" fill="#FFE394"/>
</g>
<g filter="url(#filter7_df_328_1382)">
<circle cx="313" cy="93" r="1" fill="#D9D9D9"/>
<circle cx="313" cy="93" r="1" fill="#FFE394"/>
</g>
<g filter="url(#filter8_df_328_1382)">
<circle cx="328" cy="64" r="1" fill="#D9D9D9"/>
<circle cx="328" cy="64" r="1" fill="#FFE394"/>
</g>
<g filter="url(#filter9_df_328_1382)">
<circle cx="299" cy="20" r="1" fill="#D9D9D9"/>
<circle cx="299" cy="20" r="1" fill="#FFE394"/>
</g>
<g filter="url(#filter10_df_328_1382)">
<circle cx="350" cy="41" r="1" fill="#D9D9D9"/>
<circle cx="350" cy="41" r="1" fill="#FFE394"/>
</g>
<g filter="url(#filter11_df_328_1382)">
<circle cx="282" cy="71" r="1" fill="#D9D9D9"/>
<circle cx="282" cy="71" r="1" fill="#FFE394"/>
</g>
<g filter="url(#filter12_df_328_1382)">
<circle cx="250" cy="98" r="1" fill="#D9D9D9"/>
<circle cx="250" cy="98" r="1" fill="#FFE394"/>
</g>
<g filter="url(#filter13_df_328_1382)">
<circle cx="256" cy="20" r="1" fill="#D9D9D9"/>
<circle cx="256" cy="20" r="1" fill="#FFE394"/>
</g>
<g filter="url(#filter14_df_328_1382)">
<circle cx="229" cy="58" r="1" fill="#D9D9D9"/>
<circle cx="229" cy="58" r="1" fill="#FFE394"/>
</g>
<g filter="url(#filter15_df_328_1382)">
<circle cx="236" cy="133" r="1" fill="#D9D9D9"/>
<circle cx="236" cy="133" r="1" fill="#FFE394"/>
</g>
<g filter="url(#filter16_df_328_1382)">
<circle cx="199" cy="112" r="1" fill="#D9D9D9"/>
<circle cx="199" cy="112" r="1" fill="#FFE394"/>
</g>
<g filter="url(#filter17_df_328_1382)">
<circle cx="146" cy="107" r="1" fill="#D9D9D9"/>
<circle cx="146" cy="107" r="1" fill="#FFE394"/>
</g>
<g filter="url(#filter18_df_328_1382)">
<circle cx="106" cy="81" r="1" fill="#D9D9D9"/>
<circle cx="106" cy="81" r="1" fill="#FFE394"/>
</g>
<g filter="url(#filter19_df_328_1382)">
<circle cx="131" cy="17" r="1" fill="#D9D9D9"/>
<circle cx="131" cy="17" r="1" fill="#FFE394"/>
</g>
<g filter="url(#filter20_df_328_1382)">
<circle cx="121" cy="163" r="1" fill="#D9D9D9"/>
<circle cx="121" cy="163" r="1" fill="#FFE394"/>
</g>
<g filter="url(#filter21_df_328_1382)">
<circle cx="174" cy="52" r="1" fill="#D9D9D9"/>
<circle cx="174" cy="52" r="1" fill="#FFE394"/>
</g>
<g filter="url(#filter22_df_328_1382)">
<circle cx="205" cy="79" r="1" fill="#D9D9D9"/>
<circle cx="205" cy="79" r="1" fill="#FFE394"/>
</g>
<g filter="url(#filter23_df_328_1382)">
<circle cx="180" cy="76" r="1" fill="#D9D9D9"/>
<circle cx="180" cy="76" r="1" fill="#FFE394"/>
</g>
<g filter="url(#filter24_df_328_1382)">
<circle cx="200" cy="14" r="1" fill="#D9D9D9"/>
<circle cx="200" cy="14" r="1" fill="#FFE394"/>
</g>
<g filter="url(#filter25_df_328_1382)">
<circle cx="273" cy="151" r="1" fill="#D9D9D9"/>
<circle cx="273" cy="151" r="1" fill="#FFE394"/>
</g>
</g>
<g style="mix-blend-mode:hue" opacity="0.8">
<rect x="2" y="2" width="361" height="165" rx="20" fill="#B4B4B4"/>
</g>
</g>
<rect x="1" y="1" width="363" height="167" rx="21" stroke="#B4B4B4" stroke-width="2"/>
<defs>
<filter id="filter0_d_328_1382" x="334.5" y="-5.5" width="39" height="43" filterUnits="userSpaceOnUse" color-interpolation-filters="sRGB">
<feFlood flood-opacity="0" result="BackgroundImageFix"/>
<feColorMatrix in="SourceAlpha" type="matrix" values="0 0 0 0 0 0 0 0 0 0 0 0 0 0 0 0 0 0 127 0" result="hardAlpha"/>
<feOffset/>
<feGaussianBlur stdDeviation="7.25"/>
<feComposite in2="hardAlpha" operator="out"/>
<feColorMatrix type="matrix" values="0 0 0 0 1 0 0 0 0 0.890196 0 0 0 0 0.580392 0 0 0 1 0"/>
<feBlend mode="normal" in2="BackgroundImageFix" result="effect1_dropShadow_328_1382"/>
<feBlend mode="normal" in="SourceGraphic" in2="effect1_dropShadow_328_1382" result="shape"/>
</filter>
<filter id="filter1_d_328_1382" x="326.5" y="48.5" width="45" height="51" filterUnits="userSpaceOnUse" color-interpolation-filters="sRGB">
<feFlood flood-opacity="0" result="BackgroundImageFix"/>
<feColorMatrix in="SourceAlpha" type="matrix" values="0 0 0 0 0 0 0 0 0 0 0 0 0 0 0 0 0 0 127 0" result="hardAlpha"/>
<feOffset/>
<feGaussianBlur stdDeviation="7.25"/>
<feComposite in2="hardAlpha" operator="out"/>
<feColorMatrix type="matrix" values="0 0 0 0 1 0 0 0 0 0.890196 0 0 0 0 0.580392 0 0 0 1 0"/>
<feBlend mode="normal" in2="BackgroundImageFix" result="effect1_dropShadow_328_1382"/>
<feBlend mode="normal" in="SourceGraphic" in2="effect1_dropShadow_328_1382" result="shape"/>
</filter>
<filter id="filter2_d_328_1382" x="307.5" y="130.5" width="41" height="46" filterUnits="userSpaceOnUse" color-interpolation-filters="sRGB">
<feFlood flood-opacity="0" result="BackgroundImageFix"/>
<feColorMatrix in="SourceAlpha" type="matrix" values="0 0 0 0 0 0 0 0 0 0 0 0 0 0 0 0 0 0 127 0" result="hardAlpha"/>
<feOffset/>
<feGaussianBlur stdDeviation="7.25"/>
<feComposite in2="hardAlpha" operator="out"/>
<feColorMatrix type="matrix" values="0 0 0 0 1 0 0 0 0 0.890196 0 0 0 0 0.580392 0 0 0 1 0"/>
<feBlend mode="normal" in2="BackgroundImageFix" result="effect1_dropShadow_328_1382"/>
<feBlend mode="normal" in="SourceGraphic" in2="effect1_dropShadow_328_1382" result="shape"/>
</filter>
<filter id="filter3_d_328_1382" x="342.5" y="101.5" width="42" height="46" filterUnits="userSpaceOnUse" color-interpolation-filters="sRGB">
<feFlood flood-opacity="0" result="BackgroundImageFix"/>
<feColorMatrix in="SourceAlpha" type="matrix" values="0 0 0 0 0 0 0 0 0 0 0 0 0 0 0 0 0 0 127 0" result="hardAlpha"/>
<feOffset/>
<feGaussianBlur stdDeviation="7.25"/>
<feComposite in2="hardAlpha" operator="out"/>
<feColorMatrix type="matrix" values="0 0 0 0 1 0 0 0 0 0.890196 0 0 0 0 0.580392 0 0 0 1 0"/>
<feBlend mode="normal" in2="BackgroundImageFix" result="effect1_dropShadow_328_1382"/>
<feBlend mode="normal" in="SourceGraphic" in2="effect1_dropShadow_328_1382" result="shape"/>
</filter>
<filter id="filter4_df_328_1382" x="290.5" y="124.5" width="31" height="31" filterUnits="userSpaceOnUse" color-interpolation-filters="sRGB">
<feFlood flood-opacity="0" result="BackgroundImageFix"/>
<feColorMatrix in="SourceAlpha" type="matrix" values="0 0 0 0 0 0 0 0 0 0 0 0 0 0 0 0 0 0 127 0" result="hardAlpha"/>
<feOffset/>
<feGaussianBlur stdDeviation="7.25"/>
<feComposite in2="hardAlpha" operator="out"/>
<feColorMatrix type="matrix" values="0 0 0 0 1 0 0 0 0 0.890196 0 0 0 0 0.580392 0 0 0 1 0"/>
<feBlend mode="normal" in2="BackgroundImageFix" result="effect1_dropShadow_328_1382"/>
<feBlend mode="normal" in="SourceGraphic" in2="effect1_dropShadow_328_1382" result="shape"/>
<feGaussianBlur stdDeviation="0.5" result="effect2_foregroundBlur_328_1382"/>
</filter>
<filter id="filter5_df_328_1382" x="309.5" y="101.5" width="31" height="31" filterUnits="userSpaceOnUse" color-interpolation-filters="sRGB">
<feFlood flood-opacity="0" result="BackgroundImageFix"/>
<feColorMatrix in="SourceAlpha" type="matrix" values="0 0 0 0 0 0 0 0 0 0 0 0 0 0 0 0 0 0 127 0" result="hardAlpha"/>
<feOffset/>
<feGaussianBlur stdDeviation="7.25"/>
<feComposite in2="hardAlpha" operator="out"/>
<feColorMatrix type="matrix" values="0 0 0 0 1 0 0 0 0 0.890196 0 0 0 0 0.580392 0 0 0 1 0"/>
<feBlend mode="normal" in2="BackgroundImageFix" result="effect1_dropShadow_328_1382"/>
<feBlend mode="normal" in="SourceGraphic" in2="effect1_dropShadow_328_1382" result="shape"/>
<feGaussianBlur stdDeviation="0.5" result="effect2_foregroundBlur_328_1382"/>
</filter>
<filter id="filter6_df_328_1382" x="328.5" y="89.5" width="31" height="31" filterUnits="userSpaceOnUse" color-interpolation-filters="sRGB">
<feFlood flood-opacity="0" result="BackgroundImageFix"/>
<feColorMatrix in="SourceAlpha" type="matrix" values="0 0 0 0 0 0 0 0 0 0 0 0 0 0 0 0 0 0 127 0" result="hardAlpha"/>
<feOffset/>
<feGaussianBlur stdDeviation="7.25"/>
<feComposite in2="hardAlpha" operator="out"/>
<feColorMatrix type="matrix" values="0 0 0 0 1 0 0 0 0 0.890196 0 0 0 0 0.580392 0 0 0 1 0"/>
<feBlend mode="normal" in2="BackgroundImageFix" result="effect1_dropShadow_328_1382"/>
<feBlend mode="normal" in="SourceGraphic" in2="effect1_dropShadow_328_1382" result="shape"/>
<feGaussianBlur stdDeviation="0.5" result="effect2_foregroundBlur_328_1382"/>
</filter>
<filter id="filter7_df_328_1382" x="297.5" y="77.5" width="31" height="31" filterUnits="userSpaceOnUse" color-interpolation-filters="sRGB">
<feFlood flood-opacity="0" result="BackgroundImageFix"/>
<feColorMatrix in="SourceAlpha" type="matrix" values="0 0 0 0 0 0 0 0 0 0 0 0 0 0 0 0 0 0 127 0" result="hardAlpha"/>
<feOffset/>
<feGaussianBlur stdDeviation="7.25"/>
<feComposite in2="hardAlpha" operator="out"/>
<feColorMatrix type="matrix" values="0 0 0 0 1 0 0 0 0 0.890196 0 0 0 0 0.580392 0 0 0 1 0"/>
<feBlend mode="normal" in2="BackgroundImageFix" result="effect1_dropShadow_328_1382"/>
<feBlend mode="normal" in="SourceGraphic" in2="effect1_dropShadow_328_1382" result="shape"/>
<feGaussianBlur stdDeviation="0.5" result="effect2_foregroundBlur_328_1382"/>
</filter>
<filter id="filter8_df_328_1382" x="312.5" y="48.5" width="31" height="31" filterUnits="userSpaceOnUse" color-interpolation-filters="sRGB">
<feFlood flood-opacity="0" result="BackgroundImageFix"/>
<feColorMatrix in="SourceAlpha" type="matrix" values="0 0 0 0 0 0 0 0 0 0 0 0 0 0 0 0 0 0 127 0" result="hardAlpha"/>
<feOffset/>
<feGaussianBlur stdDeviation="7.25"/>
<feComposite in2="hardAlpha" operator="out"/>
<feColorMatrix type="matrix" values="0 0 0 0 1 0 0 0 0 0.890196 0 0 0 0 0.580392 0 0 0 1 0"/>
<feBlend mode="normal" in2="BackgroundImageFix" result="effect1_dropShadow_328_1382"/>
<feBlend mode="normal" in="SourceGraphic" in2="effect1_dropShadow_328_1382" result="shape"/>
<feGaussianBlur stdDeviation="0.5" result="effect2_foregroundBlur_328_1382"/>
</filter>
<filter id="filter9_df_328_1382" x="283.5" y="4.5" width="31" height="31" filterUnits="userSpaceOnUse" color-interpolation-filters="sRGB">
<feFlood flood-opacity="0" result="BackgroundImageFix"/>
<feColorMatrix in="SourceAlpha" type="matrix" values="0 0 0 0 0 0 0 0 0 0 0 0 0 0 0 0 0 0 127 0" result="hardAlpha"/>
<feOffset/>
<feGaussianBlur stdDeviation="7.25"/>
<feComposite in2="hardAlpha" operator="out"/>
<feColorMatrix type="matrix" values="0 0 0 0 1 0 0 0 0 0.890196 0 0 0 0 0.580392 0 0 0 1 0"/>
<feBlend mode="normal" in2="BackgroundImageFix" result="effect1_dropShadow_328_1382"/>
<feBlend mode="normal" in="SourceGraphic" in2="effect1_dropShadow_328_1382" result="shape"/>
<feGaussianBlur stdDeviation="0.5" result="effect2_foregroundBlur_328_1382"/>
</filter>
<filter id="filter10_df_328_1382" x="334.5" y="25.5" width="31" height="31" filterUnits="userSpaceOnUse" color-interpolation-filters="sRGB">
<feFlood flood-opacity="0" result="BackgroundImageFix"/>
<feColorMatrix in="SourceAlpha" type="matrix" values="0 0 0 0 0 0 0 0 0 0 0 0 0 0 0 0 0 0 127 0" result="hardAlpha"/>
<feOffset/>
<feGaussianBlur stdDeviation="7.25"/>
<feComposite in2="hardAlpha" operator="out"/>
<feColorMatrix type="matrix" values="0 0 0 0 1 0 0 0 0 0.890196 0 0 0 0 0.580392 0 0 0 1 0"/>
<feBlend mode="normal" in2="BackgroundImageFix" result="effect1_dropShadow_328_1382"/>
<feBlend mode="normal" in="SourceGraphic" in2="effect1_dropShadow_328_1382" result="shape"/>
<feGaussianBlur stdDeviation="0.5" result="effect2_foregroundBlur_328_1382"/>
</filter>
<filter id="filter11_df_328_1382" x="266.5" y="55.5" width="31" height="31" filterUnits="userSpaceOnUse" color-interpolation-filters="sRGB">
<feFlood flood-opacity="0" result="BackgroundImageFix"/>
<feColorMatrix in="SourceAlpha" type="matrix" values="0 0 0 0 0 0 0 0 0 0 0 0 0 0 0 0 0 0 127 0" result="hardAlpha"/>
<feOffset/>
<feGaussianBlur stdDeviation="7.25"/>
<feComposite in2="hardAlpha" operator="out"/>
<feColorMatrix type="matrix" values="0 0 0 0 1 0 0 0 0 0.890196 0 0 0 0 0.580392 0 0 0 1 0"/>
<feBlend mode="normal" in2="BackgroundImageFix" result="effect1_dropShadow_328_1382"/>
<feBlend mode="normal" in="SourceGraphic" in2="effect1_dropShadow_328_1382" result="shape"/>
<feGaussianBlur stdDeviation="0.5" result="effect2_foregroundBlur_328_1382"/>
</filter>
<filter id="filter12_df_328_1382" x="234.5" y="82.5" width="31" height="31" filterUnits="userSpaceOnUse" color-interpolation-filters="sRGB">
<feFlood flood-opacity="0" result="BackgroundImageFix"/>
<feColorMatrix in="SourceAlpha" type="matrix" values="0 0 0 0 0 0 0 0 0 0 0 0 0 0 0 0 0 0 127 0" result="hardAlpha"/>
<feOffset/>
<feGaussianBlur stdDeviation="7.25"/>
<feComposite in2="hardAlpha" operator="out"/>
<feColorMatrix type="matrix" values="0 0 0 0 1 0 0 0 0 0.890196 0 0 0 0 0.580392 0 0 0 1 0"/>
<feBlend mode="normal" in2="BackgroundImageFix" result="effect1_dropShadow_328_1382"/>
<feBlend mode="normal" in="SourceGraphic" in2="effect1_dropShadow_328_1382" result="shape"/>
<feGaussianBlur stdDeviation="0.5" result="effect2_foregroundBlur_328_1382"/>
</filter>
<filter id="filter13_df_328_1382" x="240.5" y="4.5" width="31" height="31" filterUnits="userSpaceOnUse" color-interpolation-filters="sRGB">
<feFlood flood-opacity="0" result="BackgroundImageFix"/>
<feColorMatrix in="SourceAlpha" type="matrix" values="0 0 0 0 0 0 0 0 0 0 0 0 0 0 0 0 0 0 127 0" result="hardAlpha"/>
<feOffset/>
<feGaussianBlur stdDeviation="7.25"/>
<feComposite in2="hardAlpha" operator="out"/>
<feColorMatrix type="matrix" values="0 0 0 0 1 0 0 0 0 0.890196 0 0 0 0 0.580392 0 0 0 1 0"/>
<feBlend mode="normal" in2="BackgroundImageFix" result="effect1_dropShadow_328_1382"/>
<feBlend mode="normal" in="SourceGraphic" in2="effect1_dropShadow_328_1382" result="shape"/>
<feGaussianBlur stdDeviation="0.5" result="effect2_foregroundBlur_328_1382"/>
</filter>
<filter id="filter14_df_328_1382" x="213.5" y="42.5" width="31" height="31" filterUnits="userSpaceOnUse" color-interpolation-filters="sRGB">
<feFlood flood-opacity="0" result="BackgroundImageFix"/>
<feColorMatrix in="SourceAlpha" type="matrix" values="0 0 0 0 0 0 0 0 0 0 0 0 0 0 0 0 0 0 127 0" result="hardAlpha"/>
<feOffset/>
<feGaussianBlur stdDeviation="7.25"/>
<feComposite in2="hardAlpha" operator="out"/>
<feColorMatrix type="matrix" values="0 0 0 0 1 0 0 0 0 0.890196 0 0 0 0 0.580392 0 0 0 1 0"/>
<feBlend mode="normal" in2="BackgroundImageFix" result="effect1_dropShadow_328_1382"/>
<feBlend mode="normal" in="SourceGraphic" in2="effect1_dropShadow_328_1382" result="shape"/>
<feGaussianBlur stdDeviation="0.5" result="effect2_foregroundBlur_328_1382"/>
</filter>
<filter id="filter15_df_328_1382" x="220.5" y="117.5" width="31" height="31" filterUnits="userSpaceOnUse" color-interpolation-filters="sRGB">
<feFlood flood-opacity="0" result="BackgroundImageFix"/>
<feColorMatrix in="SourceAlpha" type="matrix" values="0 0 0 0 0 0 0 0 0 0 0 0 0 0 0 0 0 0 127 0" result="hardAlpha"/>
<feOffset/>
<feGaussianBlur stdDeviation="7.25"/>
<feComposite in2="hardAlpha" operator="out"/>
<feColorMatrix type="matrix" values="0 0 0 0 1 0 0 0 0 0.890196 0 0 0 0 0.580392 0 0 0 1 0"/>
<feBlend mode="normal" in2="BackgroundImageFix" result="effect1_dropShadow_328_1382"/>
<feBlend mode="normal" in="SourceGraphic" in2="effect1_dropShadow_328_1382" result="shape"/>
<feGaussianBlur stdDeviation="0.5" result="effect2_foregroundBlur_328_1382"/>
</filter>
<filter id="filter16_df_328_1382" x="183.5" y="96.5" width="31" height="31" filterUnits="userSpaceOnUse" color-interpolation-filters="sRGB">
<feFlood flood-opacity="0" result="BackgroundImageFix"/>
<feColorMatrix in="SourceAlpha" type="matrix" values="0 0 0 0 0 0 0 0 0 0 0 0 0 0 0 0 0 0 127 0" result="hardAlpha"/>
<feOffset/>
<feGaussianBlur stdDeviation="7.25"/>
<feComposite in2="hardAlpha" operator="out"/>
<feColorMatrix type="matrix" values="0 0 0 0 1 0 0 0 0 0.890196 0 0 0 0 0.580392 0 0 0 1 0"/>
<feBlend mode="normal" in2="BackgroundImageFix" result="effect1_dropShadow_328_1382"/>
<feBlend mode="normal" in="SourceGraphic" in2="effect1_dropShadow_328_1382" result="shape"/>
<feGaussianBlur stdDeviation="0.5" result="effect2_foregroundBlur_328_1382"/>
</filter>
<filter id="filter17_df_328_1382" x="130.5" y="91.5" width="31" height="31" filterUnits="userSpaceOnUse" color-interpolation-filters="sRGB">
<feFlood flood-opacity="0" result="BackgroundImageFix"/>
<feColorMatrix in="SourceAlpha" type="matrix" values="0 0 0 0 0 0 0 0 0 0 0 0 0 0 0 0 0 0 127 0" result="hardAlpha"/>
<feOffset/>
<feGaussianBlur stdDeviation="7.25"/>
<feComposite in2="hardAlpha" operator="out"/>
<feColorMatrix type="matrix" values="0 0 0 0 1 0 0 0 0 0.890196 0 0 0 0 0.580392 0 0 0 1 0"/>
<feBlend mode="normal" in2="BackgroundImageFix" result="effect1_dropShadow_328_1382"/>
<feBlend mode="normal" in="SourceGraphic" in2="effect1_dropShadow_328_1382" result="shape"/>
<feGaussianBlur stdDeviation="0.5" result="effect2_foregroundBlur_328_1382"/>
</filter>
<filter id="filter18_df_328_1382" x="90.5" y="65.5" width="31" height="31" filterUnits="userSpaceOnUse" color-interpolation-filters="sRGB">
<feFlood flood-opacity="0" result="BackgroundImageFix"/>
<feColorMatrix in="SourceAlpha" type="matrix" values="0 0 0 0 0 0 0 0 0 0 0 0 0 0 0 0 0 0 127 0" result="hardAlpha"/>
<feOffset/>
<feGaussianBlur stdDeviation="7.25"/>
<feComposite in2="hardAlpha" operator="out"/>
<feColorMatrix type="matrix" values="0 0 0 0 1 0 0 0 0 0.890196 0 0 0 0 0.580392 0 0 0 1 0"/>
<feBlend mode="normal" in2="BackgroundImageFix" result="effect1_dropShadow_328_1382"/>
<feBlend mode="normal" in="SourceGraphic" in2="effect1_dropShadow_328_1382" result="shape"/>
<feGaussianBlur stdDeviation="0.5" result="effect2_foregroundBlur_328_1382"/>
</filter>
<filter id="filter19_df_328_1382" x="115.5" y="1.5" width="31" height="31" filterUnits="userSpaceOnUse" color-interpolation-filters="sRGB">
<feFlood flood-opacity="0" result="BackgroundImageFix"/>
<feColorMatrix in="SourceAlpha" type="matrix" values="0 0 0 0 0 0 0 0 0 0 0 0 0 0 0 0 0 0 127 0" result="hardAlpha"/>
<feOffset/>
<feGaussianBlur stdDeviation="7.25"/>
<feComposite in2="hardAlpha" operator="out"/>
<feColorMatrix type="matrix" values="0 0 0 0 1 0 0 0 0 0.890196 0 0 0 0 0.580392 0 0 0 1 0"/>
<feBlend mode="normal" in2="BackgroundImageFix" result="effect1_dropShadow_328_1382"/>
<feBlend mode="normal" in="SourceGraphic" in2="effect1_dropShadow_328_1382" result="shape"/>
<feGaussianBlur stdDeviation="0.5" result="effect2_foregroundBlur_328_1382"/>
</filter>
<filter id="filter20_df_328_1382" x="105.5" y="147.5" width="31" height="31" filterUnits="userSpaceOnUse" color-interpolation-filters="sRGB">
<feFlood flood-opacity="0" result="BackgroundImageFix"/>
<feColorMatrix in="SourceAlpha" type="matrix" values="0 0 0 0 0 0 0 0 0 0 0 0 0 0 0 0 0 0 127 0" result="hardAlpha"/>
<feOffset/>
<feGaussianBlur stdDeviation="7.25"/>
<feComposite in2="hardAlpha" operator="out"/>
<feColorMatrix type="matrix" values="0 0 0 0 1 0 0 0 0 0.890196 0 0 0 0 0.580392 0 0 0 1 0"/>
<feBlend mode="normal" in2="BackgroundImageFix" result="effect1_dropShadow_328_1382"/>
<feBlend mode="normal" in="SourceGraphic" in2="effect1_dropShadow_328_1382" result="shape"/>
<feGaussianBlur stdDeviation="0.5" result="effect2_foregroundBlur_328_1382"/>
</filter>
<filter id="filter21_df_328_1382" x="158.5" y="36.5" width="31" height="31" filterUnits="userSpaceOnUse" color-interpolation-filters="sRGB">
<feFlood flood-opacity="0" result="BackgroundImageFix"/>
<feColorMatrix in="SourceAlpha" type="matrix" values="0 0 0 0 0 0 0 0 0 0 0 0 0 0 0 0 0 0 127 0" result="hardAlpha"/>
<feOffset/>
<feGaussianBlur stdDeviation="7.25"/>
<feComposite in2="hardAlpha" operator="out"/>
<feColorMatrix type="matrix" values="0 0 0 0 1 0 0 0 0 0.890196 0 0 0 0 0.580392 0 0 0 1 0"/>
<feBlend mode="normal" in2="BackgroundImageFix" result="effect1_dropShadow_328_1382"/>
<feBlend mode="normal" in="SourceGraphic" in2="effect1_dropShadow_328_1382" result="shape"/>
<feGaussianBlur stdDeviation="0.5" result="effect2_foregroundBlur_328_1382"/>
</filter>
<filter id="filter22_df_328_1382" x="189.5" y="63.5" width="31" height="31" filterUnits="userSpaceOnUse" color-interpolation-filters="sRGB">
<feFlood flood-opacity="0" result="BackgroundImageFix"/>
<feColorMatrix in="SourceAlpha" type="matrix" values="0 0 0 0 0 0 0 0 0 0 0 0 0 0 0 0 0 0 127 0" result="hardAlpha"/>
<feOffset/>
<feGaussianBlur stdDeviation="7.25"/>
<feComposite in2="hardAlpha" operator="out"/>
<feColorMatrix type="matrix" values="0 0 0 0 1 0 0 0 0 0.890196 0 0 0 0 0.580392 0 0 0 1 0"/>
<feBlend mode="normal" in2="BackgroundImageFix" result="effect1_dropShadow_328_1382"/>
<feBlend mode="normal" in="SourceGraphic" in2="effect1_dropShadow_328_1382" result="shape"/>
<feGaussianBlur stdDeviation="0.5" result="effect2_foregroundBlur_328_1382"/>
</filter>
<filter id="filter23_df_328_1382" x="164.5" y="60.5" width="31" height="31" filterUnits="userSpaceOnUse" color-interpolation-filters="sRGB">
<feFlood flood-opacity="0" result="BackgroundImageFix"/>
<feColorMatrix in="SourceAlpha" type="matrix" values="0 0 0 0 0 0 0 0 0 0 0 0 0 0 0 0 0 0 127 0" result="hardAlpha"/>
<feOffset/>
<feGaussianBlur stdDeviation="7.25"/>
<feComposite in2="hardAlpha" operator="out"/>
<feColorMatrix type="matrix" values="0 0 0 0 1 0 0 0 0 0.890196 0 0 0 0 0.580392 0 0 0 1 0"/>
<feBlend mode="normal" in2="BackgroundImageFix" result="effect1_dropShadow_328_1382"/>
<feBlend mode="normal" in="SourceGraphic" in2="effect1_dropShadow_328_1382" result="shape"/>
<feGaussianBlur stdDeviation="0.5" result="effect2_foregroundBlur_328_1382"/>
</filter>
<filter id="filter24_df_328_1382" x="184.5" y="-1.5" width="31" height="31" filterUnits="userSpaceOnUse" color-interpolation-filters="sRGB">
<feFlood flood-opacity="0" result="BackgroundImageFix"/>
<feColorMatrix in="SourceAlpha" type="matrix" values="0 0 0 0 0 0 0 0 0 0 0 0 0 0 0 0 0 0 127 0" result="hardAlpha"/>
<feOffset/>
<feGaussianBlur stdDeviation="7.25"/>
<feComposite in2="hardAlpha" operator="out"/>
<feColorMatrix type="matrix" values="0 0 0 0 1 0 0 0 0 0.890196 0 0 0 0 0.580392 0 0 0 1 0"/>
<feBlend mode="normal" in2="BackgroundImageFix" result="effect1_dropShadow_328_1382"/>
<feBlend mode="normal" in="SourceGraphic" in2="effect1_dropShadow_328_1382" result="shape"/>
<feGaussianBlur stdDeviation="0.5" result="effect2_foregroundBlur_328_1382"/>
</filter>
<filter id="filter25_df_328_1382" x="257.5" y="135.5" width="31" height="31" filterUnits="userSpaceOnUse" color-interpolation-filters="sRGB">
<feFlood flood-opacity="0" result="BackgroundImageFix"/>
<feColorMatrix in="SourceAlpha" type="matrix" values="0 0 0 0 0 0 0 0 0 0 0 0 0 0 0 0 0 0 127 0" result="hardAlpha"/>
<feOffset/>
<feGaussianBlur stdDeviation="7.25"/>
<feComposite in2="hardAlpha" operator="out"/>
<feColorMatrix type="matrix" values="0 0 0 0 1 0 0 0 0 0.890196 0 0 0 0 0.580392 0 0 0 1 0"/>
<feBlend mode="normal" in2="BackgroundImageFix" result="effect1_dropShadow_328_1382"/>
<feBlend mode="normal" in="SourceGraphic" in2="effect1_dropShadow_328_1382" result="shape"/>
<feGaussianBlur stdDeviation="0.5" result="effect2_foregroundBlur_328_1382"/>
</filter>
<linearGradient id="paint0_linear_328_1382" x1="2" y1="2" x2="363" y2="167" gradientUnits="userSpaceOnUse">
<stop stop-color="#005DAC"/>
<stop offset="1" stop-color="#272155"/>
</linearGradient>
<clipPath id="clip0_328_1382">
<rect x="2" y="2" width="361" height="165" rx="20" fill="white"/>
</clipPath>
</defs>
</svg>
