<svg width="365" height="169" viewBox="0 0 365 169" fill="none" xmlns="http://www.w3.org/2000/svg">
<g clip-path="url(#clip0_355_1516)">
<rect x="2" y="2" width="361" height="165" rx="20" fill="url(#paint0_linear_355_1516)"/>
<circle cx="323.505" cy="65.4956" r="67.4956" fill="#FFF7BD"/>
<mask id="mask0_355_1516" style="mask-type:alpha" maskUnits="userSpaceOnUse" x="256" y="-2" width="135" height="135">
<circle cx="323.496" cy="65.4957" r="67.4956" transform="rotate(-90 323.496 65.4957)" fill="#91BCC4"/>
</mask>
<g mask="url(#mask0_355_1516)">
<path d="M331.107 7.69507C329.724 7.69507 328.603 6.5742 328.603 5.19153C328.603 3.87812 329.615 2.80094 330.901 2.69632L259.917 5.57075L257.367 129.915L330.682 129.915C329.299 129.915 328.178 128.794 328.178 127.411C328.178 126.029 329.299 124.908 330.682 124.908L345.127 125.383C346.51 125.383 347.631 124.262 347.631 122.879C347.631 121.497 346.51 120.376 345.127 120.376L338.896 120.001C337.513 120.001 336.392 118.88 336.392 117.498C336.392 116.115 337.513 114.994 338.896 114.994L357.59 115.186C358.973 115.186 360.094 114.065 360.094 112.682C360.094 111.308 358.986 110.193 357.616 110.179L367.645 110.229C369.028 110.229 370.149 109.108 370.149 107.726C370.149 106.343 369.028 105.222 367.645 105.222L391.529 104.61L400.213 84.5957L367.787 84.5957C369.169 84.5957 370.29 83.4748 370.29 82.0922C370.29 80.7095 369.169 79.5886 367.787 79.5886L376.567 78.9309C377.95 78.9309 379.071 77.81 379.071 76.4273C379.071 75.0446 377.95 73.9238 376.567 73.9238L351.379 74.0906L351.925 69.0173C353.308 69.0173 354.429 67.8964 354.429 66.5138C354.429 65.1311 353.308 64.0102 351.925 64.0102L404.608 64.0102L402.247 42.6757L378.267 42.6757C379.649 42.6757 380.77 41.5548 380.77 40.1721C380.77 38.7894 379.649 37.6686 378.267 37.6686L389.45 37.527L389.45 33.4702L365.662 33.4702C367.045 33.4702 368.166 32.3494 368.166 30.9667C368.166 29.584 367.045 28.4632 365.662 28.4632L342.72 28.0886C341.337 28.0886 340.216 26.9677 340.216 25.5851C340.216 24.2024 341.337 23.0815 342.72 23.0815L358.581 22.9902C359.964 22.9902 361.085 21.8693 361.085 20.4867C361.085 19.104 359.964 17.9831 358.581 17.9831L338.613 18.0335C337.23 18.0335 336.109 16.9126 336.109 15.5299C336.109 14.1473 337.23 13.0264 338.613 13.0264L347.11 12.6518C348.493 12.6518 349.614 11.531 349.614 10.1483C349.614 8.76562 348.493 7.64474 347.11 7.64474L331.107 7.69507Z" fill="#D39A79"/>
<path d="M328.653 20.9115C328.653 22.2942 327.533 23.4151 326.15 23.4151L310.288 23.2231C308.906 23.2231 307.785 24.344 307.785 25.7267C307.785 27.1093 308.906 28.2302 310.288 28.2302L332.948 28.0383C334.33 28.0383 335.451 29.1591 335.451 30.5418C335.451 31.9245 334.33 33.0454 332.948 33.0454L344.844 33.4199C343.461 33.4199 342.34 34.5408 342.34 35.9235C342.34 37.3061 343.461 38.427 344.844 38.427L359.856 38.5183C361.239 38.5183 362.359 39.6392 362.359 41.0218C362.359 42.4045 361.239 43.5254 359.856 43.5254L348.526 43.6167C347.143 43.6167 346.023 44.7376 346.023 46.1202C346.023 47.5029 347.143 48.6238 348.526 48.6238L371.044 48.2902C372.427 48.2902 373.548 49.4111 373.548 50.7937C373.548 52.1764 372.427 53.2973 371.044 53.2973L378.55 53.5302C379.933 53.5302 381.054 54.6511 381.054 56.0337C381.054 57.4164 379.933 58.5373 378.55 58.5373L402.009 58.5373L397.982 64.1676L322.452 64.1676C321.069 64.1676 319.948 65.2885 319.948 66.6712C319.948 68.0538 321.069 69.1747 322.452 69.1747L373.436 68.9827C374.818 68.9827 375.939 70.1036 375.939 71.4863C375.939 72.869 374.818 73.9898 373.436 73.9898L347.519 74.2228C346.136 74.2228 345.015 75.3436 345.015 76.7263C345.015 78.109 346.136 79.2298 347.519 79.2298L335.056 79.6044C336.439 79.6044 337.56 80.7253 337.56 82.1079C337.56 83.4849 336.448 84.6022 335.073 84.6114L376.072 84.4746C377.454 84.4746 378.575 85.5955 378.575 86.9781C378.575 88.3608 377.454 89.4817 376.072 89.4817L369.274 89.573C370.656 89.573 371.777 90.6938 371.777 92.0765C371.777 93.4592 370.656 94.5801 369.274 94.5801L345.765 94.9546C344.382 94.9546 343.261 96.0755 343.261 97.4581C343.261 98.8408 344.382 99.9617 345.765 99.9617L363.522 99.8563C364.905 99.8563 366.026 100.977 366.026 102.36C366.026 103.743 364.905 104.863 363.522 104.863L335.285 104.868C336.667 104.868 337.788 105.989 337.788 107.372C337.788 108.754 336.667 109.875 335.285 109.875L324.946 110.108C326.329 110.108 327.45 111.229 327.45 112.612C327.45 113.994 326.329 115.115 324.946 115.115L307.015 115.01C305.633 115.01 304.512 116.131 304.512 117.513C304.512 118.896 305.633 120.017 307.015 120.017L312.822 120.25C314.204 120.25 315.325 121.371 315.325 122.753C315.325 124.136 314.204 125.257 312.822 125.257L258.941 125.257L251.629 59.1265L262.557 8.0696L314.679 8.06959C316.061 8.06959 317.182 9.19047 317.182 10.5731C317.182 11.9558 316.061 13.0767 314.679 13.0767L306.323 13.0264C304.94 13.0264 303.819 14.1472 303.819 15.5299C303.819 16.9126 304.94 18.0335 306.323 18.0335L326.15 18.408C327.533 18.408 328.653 19.5289 328.653 20.9115Z" fill="#EDCB9B"/>
<path d="M276.178 125.342C276.119 123.96 274.952 122.888 273.57 122.947L257.731 123.813C256.35 123.871 255.182 122.799 255.123 121.418C255.065 120.036 256.137 118.869 257.518 118.81L280.166 118.039C281.547 117.98 282.619 116.813 282.56 115.431C282.502 114.05 281.334 112.978 279.953 113.036L291.822 112.157C290.441 112.215 289.273 111.143 289.215 109.762C289.156 108.38 290.228 107.213 291.61 107.154L306.604 106.425C307.985 106.366 309.058 105.199 308.999 103.817C308.94 102.436 307.773 101.364 306.391 101.422L295.068 101.813C293.686 101.871 292.519 100.799 292.46 99.4177C292.401 98.0363 293.474 96.8688 294.855 96.8101L317.367 96.1864C318.748 96.1277 319.82 94.9602 319.762 93.5788C319.703 92.1973 318.535 91.1251 317.154 91.1839L324.643 90.6322C326.025 90.5734 327.097 89.4059 327.038 88.0245C326.979 86.6431 325.812 85.5709 324.431 85.6296L347.868 84.6327L343.606 79.1786L268.144 82.3883C266.763 82.447 265.595 81.3748 265.536 79.9934C265.478 78.612 266.55 77.4445 267.931 77.3857L318.877 75.4109C320.259 75.3522 321.331 74.1847 321.272 72.8033C321.213 71.4218 320.046 70.3496 318.664 70.4083L292.761 71.277C291.38 71.3357 290.212 70.2635 290.153 68.8821C290.095 67.5007 291.167 66.3332 292.548 66.2744L280.081 66.4298C281.462 66.3711 282.535 65.2036 282.476 63.8222C282.417 62.4464 281.259 61.3773 279.885 61.4266L320.852 59.8211C322.234 59.7623 323.306 58.5948 323.247 57.2134C323.188 55.832 322.021 54.7597 320.639 54.8185L313.844 55.0162C315.225 54.9574 316.297 53.7899 316.239 52.4085C316.18 51.0271 315.012 49.9548 313.631 50.0136L290.127 50.6384C288.746 50.6972 287.578 49.625 287.519 48.2436C287.461 46.8621 288.533 45.6946 289.914 45.6359L307.661 44.9865C309.042 44.9278 310.114 43.7602 310.055 42.3788C309.997 40.9974 308.829 39.9252 307.448 39.9839L279.235 41.1792C280.617 41.1205 281.689 39.953 281.63 38.5716C281.571 37.1901 280.404 36.1179 279.023 36.1767L268.684 36.3833C270.065 36.3245 271.137 35.157 271.078 33.7756C271.02 32.3942 269.852 31.322 268.471 31.3807L250.561 32.248C249.179 32.3067 248.012 31.2345 247.953 29.8531C247.894 28.4717 248.966 27.3042 250.348 27.2454L256.139 26.766C257.521 26.7072 258.593 25.5397 258.534 24.1583C258.475 22.7769 257.308 21.7046 255.926 21.7634L202.094 24.0531L197.6 90.4345L210.687 140.981L262.761 138.766C264.143 138.707 265.215 137.54 265.156 136.158C265.098 134.777 263.93 133.705 262.549 133.763L254.203 134.169C252.821 134.228 251.654 133.155 251.595 131.774C251.536 130.392 252.608 129.225 253.99 129.166L273.783 127.949C275.165 127.891 276.237 126.723 276.178 125.342Z" fill="#D39A79"/>
</g>
<path d="M339.866 96.9694C339.871 98.3943 342.605 99.7133 341.803 100.876C340.113 103.322 333.694 105.004 329.982 105.018C327.33 105.028 321.185 103.397 319.401 102.034C317.501 100.582 320.046 99.3253 320.038 97.0433C320.021 92.6188 324.447 89.0155 329.922 88.9951C335.397 88.9746 339.849 92.5448 339.866 96.9694Z" fill="#D39A79"/>
<path d="M341.803 100.876C340.113 103.322 333.694 105.004 329.982 105.018C327.33 105.028 321.185 103.397 319.401 102.034C318.558 105.285 319.108 107.203 325.845 107.203C327.828 107.203 339.157 108.053 338.449 106.07C338.11 105.121 341.189 103.092 341.803 100.876Z" fill="#D39A79"/>
<ellipse cx="329.952" cy="97.0071" rx="5.70808" ry="4.60652" transform="rotate(-0.213788 329.952 97.0071)" fill="#EDCB9B"/>
<path d="M333.352 97.4312C333.357 98.7585 332.406 99.9744 330.803 99.9803C329.199 99.9863 327.054 98.3444 327.049 97.017C327.046 96.2689 326.829 95.5374 327.475 95.0942C327.975 94.7511 329.244 94.6054 329.944 94.6028C331.548 94.5968 333.347 96.1038 333.352 97.4312Z" fill="#D39A79"/>
<g filter="url(#filter0_df_355_1516)">
<circle cx="230" cy="154" r="1" fill="#D9D9D9"/>
<circle cx="230" cy="154" r="1" fill="#FFE394"/>
</g>
<g filter="url(#filter1_df_355_1516)">
<circle cx="196" cy="23" r="1" fill="#D9D9D9"/>
<circle cx="196" cy="23" r="1" fill="#FFE394"/>
</g>
<g filter="url(#filter2_df_355_1516)">
<circle cx="59" cy="161" r="1" fill="#D9D9D9"/>
<circle cx="59" cy="161" r="1" fill="#FFE394"/>
</g>
<g filter="url(#filter3_df_355_1516)">
<circle cx="247" cy="11" r="1" fill="#D9D9D9"/>
<circle cx="247" cy="11" r="1" fill="#FFE394"/>
</g>
<g filter="url(#filter4_df_355_1516)">
<circle cx="133" cy="93" r="1" fill="#D9D9D9"/>
<circle cx="133" cy="93" r="1" fill="#FFE394"/>
</g>
<g filter="url(#filter5_df_355_1516)">
<circle cx="127" cy="17" r="1" fill="#D9D9D9"/>
<circle cx="127" cy="17" r="1" fill="#FFE394"/>
</g>
<g filter="url(#filter6_df_355_1516)">
<circle cx="287" cy="161" r="1" fill="#D9D9D9"/>
<circle cx="287" cy="161" r="1" fill="#FFE394"/>
</g>
<g filter="url(#filter7_df_355_1516)">
<circle cx="47" cy="91" r="1" fill="#D9D9D9"/>
<circle cx="47" cy="91" r="1" fill="#FFE394"/>
</g>
<g filter="url(#filter8_df_355_1516)">
<circle cx="21" cy="46" r="1" fill="#D9D9D9"/>
<circle cx="21" cy="46" r="1" fill="#FFE394"/>
</g>
<g filter="url(#filter9_df_355_1516)">
<circle cx="25" cy="134" r="1" fill="#D9D9D9"/>
<circle cx="25" cy="134" r="1" fill="#FFE394"/>
</g>
<g filter="url(#filter10_df_355_1516)">
<circle cx="167" cy="155" r="1" fill="#D9D9D9"/>
<circle cx="167" cy="155" r="1" fill="#FFE394"/>
</g>
<g filter="url(#filter11_df_355_1516)">
<circle cx="83" cy="30" r="1" fill="#D9D9D9"/>
<circle cx="83" cy="30" r="1" fill="#FFE394"/>
</g>
<mask id="mask1_355_1516" style="mask-type:alpha" maskUnits="userSpaceOnUse" x="212" y="66" width="8" height="8">
<circle cx="4" cy="4" r="4" transform="matrix(-1 0 0 1 220 66)" fill="#6191D9"/>
</mask>
<g mask="url(#mask1_355_1516)">
<circle cx="4" cy="4" r="4" transform="matrix(-1 0 0 1 220 66.0005)" fill="#A89D85"/>
<path d="M214.52 68.8581C214.52 70.3551 215.733 71.5687 217.23 71.5687C218.727 71.5687 219.941 70.3551 219.941 68.8581C219.941 67.361 218.727 66.1475 217.23 66.1475C215.733 66.1475 214.52 67.361 214.52 68.8581Z" fill="#C0BA8B"/>
<path d="M214.695 68.5943C214.695 68.4891 214.61 68.4038 214.505 68.4038H214.358C214.253 68.4038 214.168 68.4891 214.168 68.5943C214.168 68.6995 214.253 68.7848 214.358 68.7848H214.505C214.61 68.7848 214.695 68.6995 214.695 68.5943Z" fill="#C0BA8B"/>
<path d="M217.569 72.0813C217.569 71.9761 217.484 71.8908 217.379 71.8908H217.056C216.951 71.8908 216.866 71.9761 216.866 72.0813C216.866 72.1865 216.951 72.2718 217.056 72.2718H217.379C217.484 72.2718 217.569 72.1865 217.569 72.0813Z" fill="#81502C"/>
<path d="M218.331 69.1216C218.331 68.8222 218.088 68.5795 217.789 68.5795H216.851C216.552 68.5795 216.309 68.8222 216.309 69.1216C216.309 69.4211 216.552 69.6638 216.851 69.6638H217.789C218.088 69.6638 218.331 69.4211 218.331 69.1216Z" fill="#81502C"/>
<path d="M215.662 72.2035C215.662 72.2035 216.623 72.5502 217.011 72.5502C217.399 72.5502 217.772 72.4999 218.119 72.3803C218.326 72.3581 218.526 72.4864 218.587 72.6935C218.655 72.9264 218.533 73.1996 218.301 73.2681L216.015 76.5502L210.887 73.7077L210.441 68.4622L213.143 67.2168C213.264 67.0066 213.578 66.9782 213.788 67.0996C213.998 67.221 214.07 67.4898 213.949 67.7001L213.919 67.7527C213.722 68.1829 213.641 68.4769 213.685 69.1509C213.822 69.5807 214.192 70.4608 214.872 70.4842H216.396C216.639 70.4842 216.835 70.681 216.835 70.9238C216.835 71.1666 216.639 71.3634 216.396 71.3634L215.751 71.364C215.573 71.3734 215.413 71.4957 215.364 71.6776C215.304 71.9036 215.436 72.1429 215.662 72.2035Z" fill="#81502C"/>
<path d="M216.307 67.7739C216.307 67.6525 216.208 67.5541 216.087 67.5541H215.823C215.702 67.5541 215.603 67.6525 215.603 67.7739C215.603 67.8953 215.702 67.9937 215.823 67.9937H216.087C216.208 67.9937 216.307 67.8953 216.307 67.7739Z" fill="#74896D"/>
<path d="M217.069 69.664C217.069 69.4859 216.924 69.3416 216.746 69.3416H216.424C216.246 69.3416 216.102 69.4859 216.102 69.664C216.102 69.842 216.246 69.9863 216.424 69.9863H216.746C216.924 69.9863 217.069 69.842 217.069 69.664Z" fill="#74896D"/>
<path d="M219.536 71.0997C219.378 71.0189 219.183 71.0819 219.103 71.2406L218.956 71.5277C218.875 71.6864 218.938 71.8805 219.097 71.9613C219.256 72.0422 219.45 71.9791 219.531 71.8205L219.677 71.5333C219.758 71.3747 219.695 71.1806 219.536 71.0997Z" fill="#74896D"/>
<path d="M219.341 70.2793C219.338 70.4572 219.479 70.6042 219.657 70.6075C219.835 70.6109 219.982 70.4693 219.986 70.2913V65.8164H215.258C215.107 65.8439 215.006 66.3143 215.034 66.4656C215.056 66.5897 215.158 66.6795 215.277 66.6925C215.304 66.6953 215.33 66.6945 215.358 66.6896C215.358 66.6896 215.746 66.6198 215.998 66.6164C216.762 66.6061 217.34 66.8268 217.871 67.1878C218.033 67.4926 217.725 67.5785 217.551 67.5834C217.397 67.5834 217.272 67.708 217.272 67.8618C217.272 68.0155 217.397 68.1402 217.551 68.1402H218.801C218.885 68.2709 218.961 68.4079 219.028 68.5504H218.855C218.677 68.5504 218.533 68.6947 218.533 68.8728C218.533 69.0508 218.677 69.1951 218.855 69.1951H219.254C219.319 69.4624 219.353 69.7422 219.353 70.0303L219.341 70.2793Z" fill="#74896D"/>
<path d="M214.519 71.3921C214.519 71.2303 214.388 71.0991 214.226 71.0991H213.816C213.654 71.0991 213.523 71.2303 213.523 71.3921C213.523 71.554 213.654 71.6852 213.816 71.6852H214.226C214.388 71.6852 214.519 71.554 214.519 71.3921Z" fill="#857C70"/>
<path d="M212.702 69.9855V69.5753C212.702 69.4134 212.571 69.2822 212.409 69.2822C212.247 69.2822 212.116 69.4134 212.116 69.5753L211.955 75.106L216.765 73.8172C216.916 73.7767 217.006 73.6214 216.965 73.4703C216.925 73.3196 216.77 73.23 216.62 73.2697C216.446 73.2972 216.268 73.3115 216.087 73.3115C214.597 73.3115 213.323 72.3727 212.875 71.0433C212.804 70.8334 212.971 70.6302 213.193 70.6302H213.215C213.353 70.6302 213.464 70.5187 213.464 70.3811C213.464 70.2436 213.353 70.132 213.215 70.132H212.852C212.771 70.132 212.704 70.067 212.702 69.9855Z" fill="#857C70"/>
<path d="M218.829 70.2794C218.829 70.1013 218.684 69.957 218.506 69.957H218.155C217.976 69.957 217.832 70.1013 217.832 70.2794C217.832 70.4574 217.976 70.6017 218.155 70.6017H218.506C218.684 70.6017 218.829 70.4574 218.829 70.2794Z" fill="#A89D85"/>
<path d="M216.278 72.9021C216.278 72.7969 216.192 72.7116 216.087 72.7116H215.823C215.718 72.7116 215.633 72.7969 215.633 72.9021C215.633 73.0073 215.718 73.0926 215.823 73.0926H216.087C216.192 73.0926 216.278 73.0073 216.278 72.9021Z" fill="#A89D85"/>
</g>
<mask id="mask2_355_1516" style="mask-type:alpha" maskUnits="userSpaceOnUse" x="231" y="26" width="9" height="9">
<circle cx="235.5" cy="30.5" r="4.5" fill="#6191D9"/>
</mask>
<g mask="url(#mask2_355_1516)">
<circle cx="235.5" cy="30.5" r="4.5" fill="#C39A61"/>
<circle cx="234.116" cy="29.2145" r="3.04945" fill="#E0E1A3"/>
<rect x="236.969" y="28.7031" width="0.593407" height="0.428571" rx="0.214286" fill="#E0E1A3"/>
<rect x="232.879" y="28.9014" width="2.27473" height="1.21978" rx="0.60989" fill="#D9BE55"/>
<rect x="233.736" y="32.626" width="0.791209" height="0.428571" rx="0.214286" fill="#D9BE55"/>
<path d="M235.882 32.9779C235.882 32.9779 234.801 33.3679 234.364 33.3679C233.928 33.3679 233.509 33.3113 233.118 33.1768C232.885 33.1518 232.66 33.2962 232.592 33.5291C232.515 33.7912 232.652 34.0985 232.914 34.1756L235.485 37.8679L241.254 34.6701L241.755 28.769L238.716 27.3679C238.579 27.1314 238.227 27.0995 237.99 27.236C237.754 27.3726 237.673 27.675 237.809 27.9115L237.843 27.9707C238.065 28.4548 238.155 28.7855 238.106 29.5437C237.952 30.0272 237.536 31.0174 236.771 31.0437H235.057C234.783 31.0437 234.562 31.2651 234.562 31.5382C234.562 31.8113 234.783 32.0327 235.057 32.0327L235.782 32.0335C235.982 32.044 236.162 32.1817 236.217 32.3862C236.285 32.6405 236.136 32.9098 235.882 32.9779Z" fill="#D9BE55"/>
<rect x="235.154" y="27.7476" width="0.791209" height="0.494506" rx="0.247253" fill="#E2C433"/>
<rect x="234.297" y="29.7578" width="1.08791" height="0.725275" rx="0.362637" fill="#E2C433"/>
<rect x="231.844" y="31.5713" width="1.08791" height="0.725275" rx="0.362637" transform="rotate(62.9938 231.844 31.5713)" fill="#E2C433"/>
<path d="M231.741 30.8137C231.745 31.0139 231.585 31.1793 231.385 31.183C231.185 31.1867 231.019 31.0274 231.016 30.8272V25.793H236.334C236.505 25.8239 236.617 26.3531 236.586 26.5233C236.561 26.6629 236.447 26.7639 236.312 26.7786C236.283 26.7818 236.253 26.7808 236.222 26.7753C236.222 26.7753 235.785 26.6967 235.502 26.6929C234.642 26.6813 233.992 26.9297 233.395 27.3358C233.212 27.6786 233.559 27.7753 233.755 27.7808C233.928 27.7808 234.068 27.9211 234.068 28.094C234.068 28.267 233.928 28.4072 233.755 28.4072H232.349C232.254 28.5542 232.168 28.7084 232.093 28.8687H232.288C232.488 28.8687 232.65 29.0311 232.65 29.2314C232.65 29.4317 232.488 29.594 232.288 29.594H231.839C231.766 29.8947 231.727 30.2095 231.727 30.5336L231.741 30.8137Z" fill="#E2C433"/>
<rect x="237.168" y="31.7363" width="1.12088" height="0.659341" rx="0.32967" fill="#B1824B"/>
<path d="M239.209 30.4836V30.0221C239.209 29.84 239.357 29.6924 239.539 29.6924C239.721 29.6924 239.868 29.84 239.868 30.0221L240.05 36.2441L234.639 34.7942C234.469 34.7487 234.368 34.574 234.413 34.404C234.459 34.2345 234.633 34.1337 234.802 34.1783C234.997 34.2093 235.197 34.2253 235.401 34.2253C237.077 34.2253 238.51 33.1692 239.015 31.6736C239.095 31.4375 238.907 31.2089 238.657 31.2089H238.632C238.477 31.2089 238.352 31.0834 238.352 30.9286C238.352 30.7739 238.477 30.6484 238.632 30.6484H239.04C239.132 30.6484 239.207 30.5752 239.209 30.4836Z" fill="#B1824B"/>
<rect x="232.318" y="30.4512" width="1.12088" height="0.725275" rx="0.362637" fill="#C39A61"/>
<rect x="235.188" y="33.5488" width="0.725275" height="0.428571" rx="0.214286" fill="#C39A61"/>
</g>
<mask id="mask3_355_1516" style="mask-type:alpha" maskUnits="userSpaceOnUse" x="207" y="109" width="13" height="13">
<circle cx="213.5" cy="115.5" r="6.5" fill="#6191D9"/>
</mask>
<g mask="url(#mask3_355_1516)">
<circle cx="213.5" cy="115.5" r="6.5" fill="#A99B88"/>
<circle cx="211.502" cy="113.643" r="4.40476" fill="#A4846A"/>
<rect x="215.621" y="112.905" width="0.857143" height="0.619048" rx="0.309524" fill="#A4846A"/>
<rect x="209.713" y="113.191" width="3.28571" height="1.76191" rx="0.880953" fill="#6E7571"/>
<rect x="210.951" y="118.572" width="1.14286" height="0.619048" rx="0.309524" fill="#6E7571"/>
<path d="M214.053 119.08C214.053 119.08 212.491 119.643 211.861 119.643C211.231 119.643 210.625 119.562 210.061 119.367C209.724 119.331 209.399 119.54 209.3 119.876C209.189 120.255 209.387 120.699 209.766 120.81L213.48 126.143L221.813 121.524L222.537 113L218.146 110.977C217.949 110.635 217.44 110.589 217.098 110.786C216.757 110.983 216.64 111.42 216.837 111.762L216.886 111.847C217.206 112.546 217.337 113.024 217.266 114.119C217.043 114.818 216.442 116.248 215.337 116.286H212.861C212.466 116.286 212.147 116.606 212.147 117C212.147 117.395 212.466 117.715 212.861 117.715L213.908 117.716C214.198 117.731 214.458 117.93 214.537 118.225C214.636 118.592 214.42 118.981 214.053 119.08Z" fill="#6E7571"/>
<rect x="213.002" y="111.524" width="1.14286" height="0.714286" rx="0.357143" fill="#C1B2AE"/>
<rect x="211.762" y="114.429" width="1.57143" height="1.04762" rx="0.52381" fill="#C1B2AE"/>
<rect x="208.219" y="117.048" width="1.57143" height="1.04762" rx="0.52381" transform="rotate(62.9938 208.219 117.048)" fill="#C1B2AE"/>
<path d="M208.069 115.954C208.074 116.243 207.844 116.482 207.555 116.487C207.266 116.493 207.027 116.263 207.021 115.973V108.702H214.704C214.95 108.746 215.113 109.511 215.068 109.757C215.031 109.958 214.866 110.104 214.672 110.125C214.63 110.13 214.586 110.129 214.542 110.121C214.542 110.121 213.911 110.007 213.502 110.002C212.259 109.985 211.321 110.344 210.458 110.93C210.194 111.425 210.695 111.565 210.978 111.573C211.228 111.573 211.43 111.776 211.43 112.025C211.43 112.275 211.228 112.478 210.978 112.478H208.947C208.81 112.69 208.686 112.913 208.578 113.144H208.859C209.148 113.144 209.383 113.379 209.383 113.668C209.383 113.958 209.148 114.192 208.859 114.192H208.211C208.105 114.626 208.049 115.081 208.049 115.549L208.069 115.954Z" fill="#C1B2AE"/>
<rect x="215.906" y="117.286" width="1.61905" height="0.952381" rx="0.476191" fill="#417566"/>
<path d="M218.859 115.476V114.81C218.859 114.547 219.072 114.333 219.335 114.333C219.598 114.333 219.811 114.547 219.811 114.81L220.073 123.797L212.257 121.703C212.012 121.637 211.866 121.385 211.932 121.139C211.997 120.894 212.249 120.749 212.493 120.813C212.775 120.858 213.064 120.881 213.359 120.881C215.78 120.881 217.85 119.356 218.579 117.195C218.694 116.854 218.422 116.524 218.062 116.524H218.026C217.802 116.524 217.621 116.343 217.621 116.119C217.621 115.896 217.802 115.714 218.026 115.714H218.616C218.748 115.714 218.856 115.609 218.859 115.476Z" fill="#417566"/>
<rect x="208.904" y="115.43" width="1.61905" height="1.04762" rx="0.52381" fill="#A99B88"/>
<rect x="213.051" y="119.905" width="1.04762" height="0.619048" rx="0.309524" fill="#A99B88"/>
</g>
<mask id="mask4_355_1516" style="mask-type:alpha" maskUnits="userSpaceOnUse" x="252" y="143" width="11" height="11">
<circle cx="257.5" cy="148.5" r="5.5" fill="#6191D9"/>
</mask>
<g mask="url(#mask4_355_1516)">
<circle cx="257.5" cy="148.5" r="5.5" fill="#BAB2A2"/>
<circle cx="255.809" cy="146.928" r="3.72711" fill="#A09588"/>
<rect x="259.295" y="146.304" width="0.725275" height="0.52381" rx="0.261905" fill="#A09588"/>
<rect x="254.297" y="146.545" width="2.78022" height="1.49084" rx="0.745421" fill="#564E49"/>
<rect x="255.346" y="151.099" width="0.967033" height="0.52381" rx="0.261905" fill="#564E49"/>
<path d="M257.965 151.529C257.965 151.529 256.644 152.005 256.111 152.005C255.577 152.005 255.065 151.936 254.588 151.772C254.303 151.741 254.028 151.918 253.944 152.202C253.85 152.523 254.017 152.898 254.338 152.992L257.481 157.505L264.532 153.597L265.144 146.384L261.429 144.672C261.262 144.383 260.831 144.344 260.542 144.511C260.253 144.678 260.154 145.047 260.321 145.336L260.363 145.409C260.634 146 260.744 146.405 260.684 147.331C260.496 147.922 259.987 149.132 259.052 149.165H256.957C256.623 149.165 256.352 149.435 256.352 149.769C256.352 150.103 256.623 150.373 256.957 150.373L257.843 150.374C258.088 150.387 258.308 150.555 258.375 150.805C258.459 151.116 258.276 151.445 257.965 151.529Z" fill="#564E49"/>
<rect x="257.076" y="145.135" width="0.967033" height="0.604396" rx="0.302198" fill="#D9CCBE"/>
<rect x="256.029" y="147.593" width="1.32967" height="0.886447" rx="0.443223" fill="#D9CCBE"/>
<rect x="253.031" y="149.81" width="1.32967" height="0.886447" rx="0.443223" transform="rotate(62.9938 253.031 149.81)" fill="#D9CCBE"/>
<path d="M252.904 148.883C252.908 149.127 252.714 149.329 252.469 149.334C252.224 149.338 252.022 149.144 252.018 148.899V142.746H258.518C258.726 142.784 258.864 143.431 258.826 143.639C258.795 143.809 258.655 143.933 258.491 143.951C258.456 143.955 258.418 143.954 258.381 143.947C258.381 143.947 257.847 143.851 257.501 143.846C256.449 143.832 255.656 144.135 254.925 144.632C254.702 145.051 255.126 145.169 255.365 145.176C255.577 145.176 255.748 145.347 255.748 145.558C255.748 145.77 255.577 145.941 255.365 145.941H253.647C253.531 146.121 253.426 146.309 253.335 146.505H253.572C253.817 146.505 254.016 146.704 254.016 146.949C254.016 147.193 253.817 147.392 253.572 147.392H253.024C252.935 147.759 252.887 148.144 252.887 148.54L252.904 148.883Z" fill="#D9CCBE"/>
<rect x="259.537" y="150.011" width="1.36996" height="0.805861" rx="0.40293" fill="#857C70"/>
<path d="M262.035 148.48V147.916C262.035 147.693 262.215 147.513 262.438 147.513C262.66 147.513 262.841 147.693 262.841 147.916L263.062 155.52L256.449 153.748C256.241 153.693 256.118 153.479 256.174 153.271C256.229 153.064 256.442 152.941 256.649 152.995C256.887 153.033 257.132 153.053 257.381 153.053C259.43 153.053 261.181 151.762 261.798 149.934C261.895 149.646 261.665 149.366 261.361 149.366H261.33C261.141 149.366 260.987 149.213 260.987 149.024C260.987 148.835 261.141 148.681 261.33 148.681H261.829C261.941 148.681 262.032 148.592 262.035 148.48Z" fill="#857C70"/>
<rect x="253.611" y="148.439" width="1.36996" height="0.886447" rx="0.443223" fill="#BAB2A2"/>
<rect x="257.119" y="152.227" width="0.886447" height="0.52381" rx="0.261905" fill="#BAB2A2"/>
</g>
<g style="mix-blend-mode:soft-light" opacity="0.5">
<rect x="2" y="2" width="361" height="165" rx="20" fill="#00CE5D"/>
</g>
<path d="M36.3395 27.4545V42H33.2642V27.4545H36.3395ZM39.4645 33.7827V36.1832H34.8196V33.7827H39.4645ZM52.1278 34.7273C52.1278 36.3134 51.8272 37.6629 51.2259 38.7756C50.6293 39.8883 49.8149 40.7382 48.7827 41.3253C47.7552 41.9077 46.5999 42.1989 45.3168 42.1989C44.0241 42.1989 42.8641 41.9053 41.8366 41.3182C40.8092 40.7311 39.9972 39.8812 39.4006 38.7685C38.804 37.6558 38.5057 36.3087 38.5057 34.7273C38.5057 33.1411 38.804 31.7917 39.4006 30.679C39.9972 29.5663 40.8092 28.7187 41.8366 28.1364C42.8641 27.5492 44.0241 27.2557 45.3168 27.2557C46.5999 27.2557 47.7552 27.5492 48.7827 28.1364C49.8149 28.7187 50.6293 29.5663 51.2259 30.679C51.8272 31.7917 52.1278 33.1411 52.1278 34.7273ZM49.0099 34.7273C49.0099 33.6998 48.8561 32.8333 48.5483 32.1278C48.2453 31.4223 47.8168 30.8873 47.2628 30.5227C46.7088 30.1581 46.0601 29.9759 45.3168 29.9759C44.5734 29.9759 43.9247 30.1581 43.3707 30.5227C42.8168 30.8873 42.3859 31.4223 42.0781 32.1278C41.7751 32.8333 41.6236 33.6998 41.6236 34.7273C41.6236 35.7547 41.7751 36.6212 42.0781 37.3267C42.3859 38.0322 42.8168 38.5672 43.3707 38.9318C43.9247 39.2964 44.5734 39.4787 45.3168 39.4787C46.0601 39.4787 46.7088 39.2964 47.2628 38.9318C47.8168 38.5672 48.2453 38.0322 48.5483 37.3267C48.8561 36.6212 49.0099 35.7547 49.0099 34.7273ZM54.3402 42V31.0909H63.8786V42H60.9879V33.4702H57.1953V42H54.3402ZM69.1839 38.0085L73.1115 31.0909H76.0945V42H73.2109V35.0611L69.2976 42H66.2933V31.0909H69.1839V38.0085ZM77.4244 33.4702V31.0909H87.3107V33.4702H83.7951V42H80.9116V33.4702H77.4244ZM93.7259 42.2131C92.6037 42.2131 91.6378 41.9858 90.8281 41.5312C90.0232 41.072 89.4029 40.4233 88.9673 39.5852C88.5317 38.7424 88.3139 37.7457 88.3139 36.5952C88.3139 35.473 88.5317 34.4882 88.9673 33.6406C89.4029 32.7931 90.0161 32.1326 90.8068 31.6591C91.6023 31.1856 92.535 30.9489 93.6051 30.9489C94.3248 30.9489 94.9948 31.0649 95.6151 31.2969C96.2401 31.5241 96.7846 31.8674 97.2486 32.3267C97.7173 32.786 98.0819 33.3636 98.3423 34.0597C98.6027 34.7509 98.733 35.5606 98.733 36.4886V37.3196H89.5213V35.4446H95.8849C95.8849 35.009 95.7902 34.6231 95.6009 34.2869C95.4115 33.9508 95.1487 33.688 94.8125 33.4986C94.4811 33.3045 94.0952 33.2074 93.6548 33.2074C93.1955 33.2074 92.7884 33.3139 92.4332 33.527C92.0829 33.7353 91.8082 34.017 91.6094 34.3722C91.4105 34.7225 91.3087 35.1132 91.304 35.544V37.3267C91.304 37.8665 91.4034 38.3329 91.6023 38.7259C91.8059 39.1188 92.0923 39.4219 92.4616 39.6349C92.831 39.848 93.2689 39.9545 93.7756 39.9545C94.1117 39.9545 94.4195 39.9072 94.6989 39.8125C94.9782 39.7178 95.2173 39.5758 95.4162 39.3864C95.6151 39.197 95.7666 38.965 95.8707 38.6903L98.669 38.875C98.527 39.5473 98.2358 40.1345 97.7955 40.6364C97.3598 41.1335 96.7964 41.5218 96.1051 41.8011C95.4186 42.0758 94.6255 42.2131 93.7259 42.2131ZM100.707 46.0909V31.0909H103.69V32.9233H103.825C103.958 32.6297 104.15 32.3314 104.401 32.0284C104.656 31.7206 104.988 31.465 105.395 31.2614C105.807 31.053 106.318 30.9489 106.929 30.9489C107.724 30.9489 108.458 31.1572 109.131 31.5739C109.803 31.9858 110.34 32.6084 110.743 33.4418C111.145 34.2704 111.347 35.3097 111.347 36.5597C111.347 37.7765 111.15 38.804 110.757 39.642C110.369 40.4754 109.839 41.1075 109.166 41.5384C108.499 41.9645 107.75 42.1776 106.922 42.1776C106.335 42.1776 105.835 42.0805 105.423 41.8864C105.016 41.6922 104.682 41.4484 104.422 41.1548C104.161 40.8565 103.963 40.5559 103.825 40.2528H103.733V46.0909H100.707ZM103.669 36.5455C103.669 37.1941 103.759 37.7599 103.939 38.2429C104.119 38.7259 104.379 39.1023 104.72 39.3722C105.061 39.6373 105.475 39.7699 105.963 39.7699C106.455 39.7699 106.872 39.6349 107.213 39.3651C107.554 39.0904 107.812 38.7116 107.987 38.2287C108.167 37.741 108.257 37.1799 108.257 36.5455C108.257 35.9157 108.17 35.3617 107.994 34.8835C107.819 34.4053 107.561 34.0312 107.22 33.7614C106.879 33.4915 106.46 33.3565 105.963 33.3565C105.471 33.3565 105.054 33.4867 104.713 33.7472C104.377 34.0076 104.119 34.3769 103.939 34.8551C103.759 35.3333 103.669 35.8968 103.669 36.5455Z" fill="#00CE5D"/>
<path d="M41.3011 63.3239V65.2955H36.2841V63.3239H41.3011ZM32.8182 66.1875H35.267C35.3087 66.8542 35.517 67.3561 35.892 67.6932C36.267 68.0303 36.822 68.1989 37.5568 68.1989C38.1553 68.1989 38.6307 68.0587 38.983 67.7784C39.3352 67.4981 39.589 67.0947 39.7443 66.5682C39.8996 66.0379 39.9773 65.4034 39.9773 64.6648V63.7216C39.9773 62.9602 39.8883 62.3182 39.7102 61.7955C39.536 61.2689 39.2689 60.8712 38.9091 60.6023C38.553 60.3333 38.0966 60.1989 37.5398 60.1989C36.9905 60.1989 36.5549 60.2822 36.233 60.4489C35.911 60.6155 35.6761 60.8542 35.5284 61.1648C35.3807 61.4716 35.2898 61.8428 35.2557 62.2784H32.8068C32.8826 61.5133 33.1023 60.8239 33.4659 60.2102C33.8333 59.5928 34.3542 59.1042 35.0284 58.7443C35.7064 58.3845 36.5436 58.2045 37.5398 58.2045C38.5284 58.2045 39.3864 58.4299 40.1136 58.8807C40.8409 59.3314 41.4034 59.9697 41.8011 60.7955C42.1989 61.6212 42.3977 62.5985 42.3977 63.7273V64.6705C42.3977 65.7992 42.2027 66.7746 41.8125 67.5966C41.4261 68.4148 40.8712 69.0473 40.1477 69.4943C39.4242 69.9375 38.5606 70.1591 37.5568 70.1591C36.5985 70.1591 35.7765 69.9924 35.0909 69.6591C34.4053 69.322 33.8693 68.8561 33.483 68.2614C33.0966 67.6629 32.875 66.9716 32.8182 66.1875ZM43.7145 63.1761V61.2727H51.6236V63.1761H48.8111V70H46.5043V63.1761H43.7145ZM55.267 70.1648C54.7102 70.1648 54.214 70.0682 53.7784 69.875C53.3428 69.678 52.9981 69.3883 52.7443 69.0057C52.4943 68.6193 52.3693 68.1383 52.3693 67.5625C52.3693 67.0777 52.4583 66.6705 52.6364 66.3409C52.8144 66.0114 53.0568 65.7462 53.3636 65.5455C53.6705 65.3447 54.0189 65.1932 54.4091 65.0909C54.803 64.9886 55.2159 64.9167 55.6477 64.875C56.1553 64.822 56.5644 64.7727 56.875 64.7273C57.1856 64.678 57.411 64.6061 57.5511 64.5114C57.6913 64.4167 57.7614 64.2765 57.7614 64.0909V64.0568C57.7614 63.697 57.6477 63.4186 57.4205 63.2216C57.197 63.0246 56.8788 62.9261 56.4659 62.9261C56.0303 62.9261 55.6837 63.0227 55.4261 63.2159C55.1686 63.4053 54.9981 63.6439 54.9148 63.9318L52.6761 63.75C52.7898 63.2197 53.0133 62.7614 53.3466 62.375C53.6799 61.9848 54.1098 61.6856 54.6364 61.4773C55.1667 61.2652 55.7803 61.1591 56.4773 61.1591C56.9621 61.1591 57.4261 61.2159 57.8693 61.3295C58.3163 61.4432 58.7121 61.6193 59.0568 61.858C59.4053 62.0966 59.6799 62.4034 59.8807 62.7784C60.0814 63.1496 60.1818 63.5947 60.1818 64.1136V70H57.8864V68.7898H57.8182C57.678 69.0625 57.4905 69.303 57.2557 69.5114C57.0208 69.7159 56.7386 69.8769 56.4091 69.9943C56.0795 70.108 55.6989 70.1648 55.267 70.1648ZM55.9602 68.4943C56.3163 68.4943 56.6307 68.4242 56.9034 68.2841C57.1761 68.1402 57.3902 67.947 57.5455 67.7045C57.7008 67.4621 57.7784 67.1875 57.7784 66.8807V65.9545C57.7027 66.0038 57.5985 66.0492 57.4659 66.0909C57.3371 66.1288 57.1913 66.1648 57.0284 66.1989C56.8655 66.2292 56.7027 66.2576 56.5398 66.2841C56.3769 66.3068 56.2292 66.3277 56.0966 66.3466C55.8125 66.3883 55.5644 66.4545 55.3523 66.5455C55.1402 66.6364 54.9754 66.7595 54.858 66.9148C54.7405 67.0663 54.6818 67.2557 54.6818 67.483C54.6818 67.8125 54.8011 68.0644 55.0398 68.2386C55.2822 68.4091 55.589 68.4943 55.9602 68.4943ZM62.0597 70V61.2727H69.6903V70H67.3778V63.1761H64.3438V70H62.0597ZM80.3651 58.3636V70H77.9048V60.6989H77.8366L75.1719 62.3693V60.1875L78.0526 58.3636H80.3651ZM84.5682 68.6477C84.1932 68.6477 83.8712 68.5152 83.6023 68.25C83.3371 67.9848 83.2045 67.6629 83.2045 67.2841C83.2045 66.9129 83.3371 66.5947 83.6023 66.3295C83.8712 66.0644 84.1932 65.9318 84.5682 65.9318C84.9318 65.9318 85.25 66.0644 85.5227 66.3295C85.7955 66.5947 85.9318 66.9129 85.9318 67.2841C85.9318 67.5341 85.8674 67.7633 85.7386 67.9716C85.6136 68.1761 85.4489 68.3409 85.2443 68.4659C85.0398 68.5871 84.8144 68.6477 84.5682 68.6477ZM84.5682 62.9375C84.1932 62.9375 83.8712 62.8049 83.6023 62.5398C83.3371 62.2746 83.2045 61.9527 83.2045 61.5739C83.2045 61.2027 83.3371 60.8864 83.6023 60.625C83.8712 60.3598 84.1932 60.2273 84.5682 60.2273C84.9318 60.2273 85.25 60.3598 85.5227 60.625C85.7955 60.8864 85.9318 61.2027 85.9318 61.5739C85.9318 61.8277 85.8674 62.0587 85.7386 62.267C85.6136 62.4716 85.4489 62.6345 85.2443 62.7557C85.0398 62.8769 84.8144 62.9375 84.5682 62.9375Z" fill="#00CE5D"/>
<path d="M92.0114 58.3636H94.4659V65.6818H94.5625L99.5909 58.3636H101.744V70H99.2841V62.6761H99.1989L94.142 70H92.0114V58.3636ZM107.675 70.1705C106.781 70.1705 106.012 69.9811 105.368 69.6023C104.728 69.2197 104.235 68.6894 103.891 68.0114C103.55 67.3333 103.379 66.553 103.379 65.6705C103.379 64.7765 103.552 63.9924 103.896 63.3182C104.245 62.6402 104.739 62.1117 105.379 61.733C106.019 61.3504 106.781 61.1591 107.663 61.1591C108.425 61.1591 109.091 61.2973 109.663 61.5739C110.235 61.8504 110.688 62.2386 111.021 62.7386C111.355 63.2386 111.538 63.8258 111.572 64.5H109.288C109.224 64.0644 109.054 63.714 108.777 63.4489C108.504 63.1799 108.146 63.0455 107.703 63.0455C107.328 63.0455 107 63.1477 106.72 63.3523C106.444 63.553 106.228 63.8466 106.072 64.233C105.917 64.6193 105.839 65.0871 105.839 65.6364C105.839 66.1932 105.915 66.6667 106.067 67.0568C106.222 67.447 106.44 67.7443 106.72 67.9489C107 68.1534 107.328 68.2557 107.703 68.2557C107.98 68.2557 108.228 68.1989 108.447 68.0852C108.671 67.9716 108.855 67.8068 108.999 67.5909C109.146 67.3712 109.243 67.108 109.288 66.8011H111.572C111.535 67.4678 111.353 68.0549 111.027 68.5625C110.705 69.0663 110.26 69.4602 109.692 69.7443C109.124 70.0284 108.451 70.1705 107.675 70.1705ZM113.122 70V61.2727H115.543V64.6591H116.224L118.599 61.2727H121.44L118.355 65.6023L121.474 70H118.599L116.446 66.9034H115.543V70H113.122ZM124.986 70.1648C124.429 70.1648 123.933 70.0682 123.497 69.875C123.062 69.678 122.717 69.3883 122.463 69.0057C122.213 68.6193 122.088 68.1383 122.088 67.5625C122.088 67.0777 122.177 66.6705 122.355 66.3409C122.533 66.0114 122.776 65.7462 123.082 65.5455C123.389 65.3447 123.738 65.1932 124.128 65.0909C124.522 64.9886 124.935 64.9167 125.366 64.875C125.874 64.822 126.283 64.7727 126.594 64.7273C126.904 64.678 127.13 64.6061 127.27 64.5114C127.41 64.4167 127.48 64.2765 127.48 64.0909V64.0568C127.48 63.697 127.366 63.4186 127.139 63.2216C126.916 63.0246 126.598 62.9261 126.185 62.9261C125.749 62.9261 125.402 63.0227 125.145 63.2159C124.887 63.4053 124.717 63.6439 124.634 63.9318L122.395 63.75C122.509 63.2197 122.732 62.7614 123.065 62.375C123.399 61.9848 123.829 61.6856 124.355 61.4773C124.885 61.2652 125.499 61.1591 126.196 61.1591C126.681 61.1591 127.145 61.2159 127.588 61.3295C128.035 61.4432 128.431 61.6193 128.776 61.858C129.124 62.0966 129.399 62.4034 129.599 62.7784C129.8 63.1496 129.901 63.5947 129.901 64.1136V70H127.605V68.7898H127.537C127.397 69.0625 127.209 69.303 126.974 69.5114C126.74 69.7159 126.457 69.8769 126.128 69.9943C125.798 70.108 125.418 70.1648 124.986 70.1648ZM125.679 68.4943C126.035 68.4943 126.349 68.4242 126.622 68.2841C126.895 68.1402 127.109 67.947 127.264 67.7045C127.42 67.4621 127.497 67.1875 127.497 66.8807V65.9545C127.421 66.0038 127.317 66.0492 127.185 66.0909C127.056 66.1288 126.91 66.1648 126.747 66.1989C126.584 66.2292 126.421 66.2576 126.259 66.2841C126.096 66.3068 125.948 66.3277 125.815 66.3466C125.531 66.3883 125.283 66.4545 125.071 66.5455C124.859 66.6364 124.694 66.7595 124.577 66.9148C124.459 67.0663 124.401 67.2557 124.401 67.483C124.401 67.8125 124.52 68.0644 124.759 68.2386C125.001 68.4091 125.308 68.4943 125.679 68.4943ZM130.902 63.1761V61.2727H138.811V63.1761H135.999V70H133.692V63.1761H130.902ZM143.943 70.1705C143.045 70.1705 142.273 69.9886 141.625 69.625C140.981 69.2576 140.485 68.7386 140.136 68.0682C139.788 67.3939 139.614 66.5966 139.614 65.6761C139.614 64.7784 139.788 63.9905 140.136 63.3125C140.485 62.6345 140.975 62.1061 141.608 61.7273C142.244 61.3485 142.991 61.1591 143.847 61.1591C144.422 61.1591 144.958 61.2519 145.455 61.4375C145.955 61.6193 146.39 61.8939 146.761 62.2614C147.136 62.6288 147.428 63.0909 147.636 63.6477C147.845 64.2008 147.949 64.8485 147.949 65.5909V66.2557H140.58V64.7557H145.67C145.67 64.4072 145.595 64.0985 145.443 63.8295C145.292 63.5606 145.081 63.3504 144.812 63.1989C144.547 63.0436 144.239 62.9659 143.886 62.9659C143.519 62.9659 143.193 63.0511 142.909 63.2216C142.629 63.3883 142.409 63.6136 142.25 63.8977C142.091 64.178 142.009 64.4905 142.006 64.8352V66.2614C142.006 66.6932 142.085 67.0663 142.244 67.3807C142.407 67.6951 142.636 67.9375 142.932 68.108C143.227 68.2784 143.578 68.3636 143.983 68.3636C144.252 68.3636 144.498 68.3258 144.722 68.25C144.945 68.1742 145.136 68.0606 145.295 67.9091C145.455 67.7576 145.576 67.572 145.659 67.3523L147.898 67.5C147.784 68.0379 147.551 68.5076 147.199 68.9091C146.85 69.3068 146.4 69.6174 145.847 69.8409C145.297 70.0606 144.663 70.1705 143.943 70.1705ZM149.017 70L149.006 68.0795H149.295C149.5 68.0795 149.676 68.0303 149.824 67.9318C149.975 67.8295 150.1 67.6648 150.199 67.4375C150.297 67.2102 150.375 66.9091 150.432 66.5341C150.489 66.1553 150.527 65.6894 150.545 65.1364L150.688 61.2727H157.324V70H155.017V63.1761H152.864L152.727 65.8409C152.693 66.572 152.604 67.2008 152.46 67.7273C152.32 68.2538 152.125 68.6856 151.875 69.0227C151.625 69.3561 151.324 69.6023 150.972 69.7614C150.619 69.9205 150.21 70 149.744 70H149.017ZM160.717 63.9545H163.325C164.481 63.9545 165.382 64.2311 166.03 64.7841C166.678 65.3333 167.001 66.0682 167.001 66.9886C167.001 67.5871 166.856 68.1136 166.564 68.5682C166.272 69.0189 165.852 69.3712 165.303 69.625C164.753 69.875 164.094 70 163.325 70H159.2V61.2727H161.513V68.0966H163.325C163.731 68.0966 164.064 67.9943 164.325 67.7898C164.587 67.5852 164.719 67.3239 164.723 67.0057C164.719 66.6686 164.587 66.3939 164.325 66.1818C164.064 65.9659 163.731 65.858 163.325 65.858H160.717V63.9545Z" fill="white"/>
<path d="M39.7812 136.273V145H38.4688V137.398H34.3608V145H33.0483V136.273H39.7812ZM44.4496 145.132C43.8359 145.132 43.3004 144.991 42.843 144.71C42.3857 144.429 42.0305 144.036 41.7777 143.53C41.5249 143.024 41.3984 142.433 41.3984 141.757C41.3984 141.078 41.5249 140.484 41.7777 139.976C42.0305 139.467 42.3857 139.072 42.843 138.791C43.3004 138.51 43.8359 138.369 44.4496 138.369C45.0632 138.369 45.5987 138.51 46.0561 138.791C46.5135 139.072 46.8686 139.467 47.1214 139.976C47.3743 140.484 47.5007 141.078 47.5007 141.757C47.5007 142.433 47.3743 143.024 47.1214 143.53C46.8686 144.036 46.5135 144.429 46.0561 144.71C45.5987 144.991 45.0632 145.132 44.4496 145.132ZM44.4538 144.062C44.8516 144.062 45.1811 143.957 45.4425 143.747C45.7038 143.537 45.897 143.257 46.022 142.908C46.1499 142.558 46.2138 142.173 46.2138 141.753C46.2138 141.335 46.1499 140.952 46.022 140.602C45.897 140.25 45.7038 139.967 45.4425 139.754C45.1811 139.541 44.8516 139.435 44.4538 139.435C44.0533 139.435 43.7209 139.541 43.4567 139.754C43.1953 139.967 43.0007 140.25 42.8729 140.602C42.7479 140.952 42.6854 141.335 42.6854 141.753C42.6854 142.173 42.7479 142.558 42.8729 142.908C43.0007 143.257 43.1953 143.537 43.4567 143.747C43.7209 143.957 44.0533 144.062 44.4538 144.062ZM48.4073 145L48.4031 143.896H48.6374C48.8192 143.896 48.9712 143.858 49.0934 143.781C49.2184 143.702 49.3207 143.568 49.4002 143.381C49.4798 143.193 49.5408 142.935 49.5835 142.605C49.6261 142.273 49.6573 141.855 49.6772 141.352L49.7923 138.455H54.3604V145H53.1119V139.554H50.9727L50.8704 141.778C50.8448 142.318 50.7894 142.79 50.7042 143.193C50.6218 143.597 50.5011 143.933 50.342 144.203C50.1829 144.47 49.9783 144.67 49.7283 144.804C49.4783 144.935 49.1744 145 48.8164 145H48.4073ZM58.8807 145.132C58.2358 145.132 57.6804 144.994 57.2145 144.719C56.7514 144.44 56.3935 144.05 56.1406 143.547C55.8906 143.041 55.7656 142.449 55.7656 141.77C55.7656 141.099 55.8906 140.509 56.1406 139.997C56.3935 139.486 56.7457 139.087 57.1974 138.8C57.652 138.513 58.1832 138.369 58.7912 138.369C59.1605 138.369 59.5185 138.43 59.8651 138.553C60.2116 138.675 60.5227 138.866 60.7983 139.128C61.0739 139.389 61.2912 139.729 61.4503 140.146C61.6094 140.561 61.6889 141.065 61.6889 141.659V142.111H56.4858V141.156H60.4403C60.4403 140.821 60.3722 140.524 60.2358 140.266C60.0994 140.004 59.9077 139.798 59.6605 139.648C59.4162 139.497 59.1293 139.422 58.7997 139.422C58.4418 139.422 58.1293 139.51 57.8622 139.686C57.598 139.859 57.3935 140.087 57.2486 140.368C57.1065 140.646 57.0355 140.949 57.0355 141.276V142.021C57.0355 142.459 57.1122 142.831 57.2656 143.138C57.4219 143.445 57.6392 143.679 57.9176 143.841C58.196 144 58.5213 144.08 58.8935 144.08C59.1349 144.08 59.3551 144.045 59.554 143.977C59.7528 143.906 59.9247 143.801 60.0696 143.662C60.2145 143.523 60.3253 143.351 60.402 143.146L61.608 143.364C61.5114 143.719 61.3381 144.03 61.0881 144.297C60.8409 144.561 60.5298 144.767 60.1548 144.915C59.7827 145.06 59.358 145.132 58.8807 145.132ZM62.5252 139.554V138.455H68.0479V139.554H65.913V145H64.6687V139.554H62.5252ZM77.0075 141.178V142.281H73.462V141.178H77.0075ZM73.82 138.455V145H72.5714V138.455H73.82ZM77.8981 138.455V145H76.6538V138.455H77.8981ZM81.5075 145.145C81.0927 145.145 80.7177 145.068 80.3825 144.915C80.0472 144.759 79.7816 144.533 79.5856 144.237C79.3924 143.942 79.2958 143.58 79.2958 143.151C79.2958 142.781 79.3668 142.477 79.5089 142.239C79.6509 142 79.8427 141.811 80.0842 141.672C80.3256 141.533 80.5955 141.428 80.8938 141.357C81.1921 141.286 81.4961 141.232 81.8058 141.195C82.1978 141.149 82.516 141.112 82.7603 141.084C83.0046 141.053 83.1822 141.003 83.293 140.935C83.4038 140.866 83.4592 140.756 83.4592 140.602V140.572C83.4592 140.2 83.354 139.912 83.1438 139.707C82.9364 139.503 82.6268 139.401 82.2148 139.401C81.7859 139.401 81.4478 139.496 81.2006 139.686C80.9563 139.874 80.7873 140.082 80.6935 140.312L79.4961 140.04C79.6381 139.642 79.8455 139.321 80.1183 139.077C80.3938 138.83 80.7106 138.651 81.0685 138.54C81.4265 138.426 81.8029 138.369 82.1978 138.369C82.4592 138.369 82.7362 138.401 83.0288 138.463C83.3242 138.523 83.5998 138.634 83.8555 138.795C84.114 138.957 84.3256 139.189 84.4904 139.49C84.6552 139.788 84.7376 140.176 84.7376 140.653V145H83.4933V144.105H83.4421C83.3597 144.27 83.2362 144.432 83.0714 144.591C82.9066 144.75 82.695 144.882 82.4364 144.987C82.1779 145.092 81.8683 145.145 81.5075 145.145ZM81.7844 144.122C82.1367 144.122 82.4379 144.053 82.6879 143.913C82.9407 143.774 83.1325 143.592 83.2631 143.368C83.3967 143.141 83.4634 142.898 83.4634 142.639V141.795C83.418 141.841 83.3299 141.884 83.1992 141.923C83.0714 141.96 82.9251 141.993 82.7603 142.021C82.5955 142.047 82.435 142.071 82.2788 142.094C82.1225 142.114 81.9918 142.131 81.8867 142.145C81.6396 142.176 81.4137 142.229 81.2092 142.303C81.0075 142.376 80.8455 142.483 80.7234 142.622C80.604 142.759 80.5444 142.94 80.5444 143.168C80.5444 143.483 80.6609 143.722 80.8938 143.884C81.1268 144.043 81.4237 144.122 81.7844 144.122ZM91.0295 136.273V145H89.7127V136.273H91.0295ZM92.9258 140.189V141.293H90.2198V140.189H92.9258ZM100.392 140.636C100.392 141.568 100.221 142.369 99.8803 143.04C99.5394 143.707 99.0721 144.222 98.4783 144.582C97.8874 144.94 97.2156 145.119 96.4627 145.119C95.707 145.119 95.0323 144.94 94.4386 144.582C93.8477 144.222 93.3817 143.706 93.0408 143.036C92.6999 142.365 92.5295 141.565 92.5295 140.636C92.5295 139.705 92.6999 138.905 93.0408 138.237C93.3817 137.567 93.8477 137.053 94.4386 136.695C95.0323 136.334 95.707 136.153 96.4627 136.153C97.2156 136.153 97.8874 136.334 98.4783 136.695C99.0721 137.053 99.5394 137.567 99.8803 138.237C100.221 138.905 100.392 139.705 100.392 140.636ZM99.0877 140.636C99.0877 139.926 98.9727 139.328 98.7425 138.842C98.5153 138.354 98.2028 137.984 97.805 137.734C97.4102 137.482 96.9627 137.355 96.4627 137.355C95.9599 137.355 95.511 137.482 95.1161 137.734C94.7212 137.984 94.4087 138.354 94.1786 138.842C93.9513 139.328 93.8377 139.926 93.8377 140.636C93.8377 141.347 93.9513 141.946 94.1786 142.435C94.4087 142.92 94.7212 143.29 95.1161 143.543C95.511 143.793 95.9599 143.918 96.4627 143.918C96.9627 143.918 97.4102 143.793 97.805 143.543C98.2028 143.29 98.5153 142.92 98.7425 142.435C98.9727 141.946 99.0877 141.347 99.0877 140.636ZM101.927 145V138.455H107.266V145H106.018V139.554H103.167V145H101.927ZM110.218 143.214L113.103 138.455H114.475V145H113.227V140.236L110.355 145H108.97V138.455H110.218V143.214ZM115.377 139.554V138.455H120.9V139.554H118.765V145H117.52V139.554H115.377ZM124.763 145.132C124.119 145.132 123.563 144.994 123.097 144.719C122.634 144.44 122.276 144.05 122.023 143.547C121.773 143.041 121.648 142.449 121.648 141.77C121.648 141.099 121.773 140.509 122.023 139.997C122.276 139.486 122.629 139.087 123.08 138.8C123.535 138.513 124.066 138.369 124.674 138.369C125.043 138.369 125.401 138.43 125.748 138.553C126.094 138.675 126.406 138.866 126.681 139.128C126.957 139.389 127.174 139.729 127.333 140.146C127.492 140.561 127.572 141.065 127.572 141.659V142.111H122.369V141.156H126.323C126.323 140.821 126.255 140.524 126.119 140.266C125.982 140.004 125.79 139.798 125.543 139.648C125.299 139.497 125.012 139.422 124.683 139.422C124.325 139.422 124.012 139.51 123.745 139.686C123.481 139.859 123.276 140.087 123.131 140.368C122.989 140.646 122.918 140.949 122.918 141.276V142.021C122.918 142.459 122.995 142.831 123.148 143.138C123.305 143.445 123.522 143.679 123.8 143.841C124.079 144 124.404 144.08 124.776 144.08C125.018 144.08 125.238 144.045 125.437 143.977C125.636 143.906 125.808 143.801 125.952 143.662C126.097 143.523 126.208 143.351 126.285 143.146L127.491 143.364C127.394 143.719 127.221 144.03 126.971 144.297C126.724 144.561 126.413 144.767 126.038 144.915C125.665 145.06 125.241 145.132 124.763 145.132ZM128.985 147.455V138.455H130.23V139.516H130.336C130.41 139.379 130.517 139.222 130.656 139.043C130.795 138.864 130.988 138.707 131.235 138.574C131.483 138.438 131.809 138.369 132.216 138.369C132.744 138.369 133.216 138.503 133.63 138.77C134.045 139.037 134.37 139.422 134.606 139.925C134.845 140.428 134.964 141.033 134.964 141.74C134.964 142.447 134.846 143.054 134.61 143.56C134.375 144.062 134.051 144.45 133.639 144.723C133.227 144.993 132.757 145.128 132.228 145.128C131.831 145.128 131.505 145.061 131.252 144.928C131.002 144.794 130.806 144.638 130.664 144.459C130.522 144.28 130.413 144.121 130.336 143.982H130.26V147.455H128.985ZM130.234 141.727C130.234 142.187 130.301 142.591 130.434 142.938C130.568 143.284 130.761 143.555 131.014 143.751C131.267 143.945 131.576 144.041 131.943 144.041C132.324 144.041 132.642 143.94 132.897 143.739C133.153 143.534 133.346 143.257 133.477 142.908C133.61 142.558 133.677 142.165 133.677 141.727C133.677 141.295 133.612 140.908 133.481 140.564C133.353 140.22 133.16 139.949 132.902 139.75C132.646 139.551 132.326 139.452 131.943 139.452C131.574 139.452 131.261 139.547 131.005 139.737C130.752 139.928 130.561 140.193 130.43 140.534C130.299 140.875 130.234 141.273 130.234 141.727Z" fill="white"/>
</g>
<rect x="1" y="1" width="363" height="167" rx="21" stroke="#00CE5D" stroke-width="2"/>
<defs>
<filter id="filter0_df_355_1516" x="214.5" y="138.5" width="31" height="31" filterUnits="userSpaceOnUse" color-interpolation-filters="sRGB">
<feFlood flood-opacity="0" result="BackgroundImageFix"/>
<feColorMatrix in="SourceAlpha" type="matrix" values="0 0 0 0 0 0 0 0 0 0 0 0 0 0 0 0 0 0 127 0" result="hardAlpha"/>
<feOffset/>
<feGaussianBlur stdDeviation="7.25"/>
<feComposite in2="hardAlpha" operator="out"/>
<feColorMatrix type="matrix" values="0 0 0 0 1 0 0 0 0 0.890196 0 0 0 0 0.580392 0 0 0 1 0"/>
<feBlend mode="normal" in2="BackgroundImageFix" result="effect1_dropShadow_355_1516"/>
<feBlend mode="normal" in="SourceGraphic" in2="effect1_dropShadow_355_1516" result="shape"/>
<feGaussianBlur stdDeviation="0.5" result="effect2_foregroundBlur_355_1516"/>
</filter>
<filter id="filter1_df_355_1516" x="180.5" y="7.5" width="31" height="31" filterUnits="userSpaceOnUse" color-interpolation-filters="sRGB">
<feFlood flood-opacity="0" result="BackgroundImageFix"/>
<feColorMatrix in="SourceAlpha" type="matrix" values="0 0 0 0 0 0 0 0 0 0 0 0 0 0 0 0 0 0 127 0" result="hardAlpha"/>
<feOffset/>
<feGaussianBlur stdDeviation="7.25"/>
<feComposite in2="hardAlpha" operator="out"/>
<feColorMatrix type="matrix" values="0 0 0 0 1 0 0 0 0 0.890196 0 0 0 0 0.580392 0 0 0 1 0"/>
<feBlend mode="normal" in2="BackgroundImageFix" result="effect1_dropShadow_355_1516"/>
<feBlend mode="normal" in="SourceGraphic" in2="effect1_dropShadow_355_1516" result="shape"/>
<feGaussianBlur stdDeviation="0.5" result="effect2_foregroundBlur_355_1516"/>
</filter>
<filter id="filter2_df_355_1516" x="43.5" y="145.5" width="31" height="31" filterUnits="userSpaceOnUse" color-interpolation-filters="sRGB">
<feFlood flood-opacity="0" result="BackgroundImageFix"/>
<feColorMatrix in="SourceAlpha" type="matrix" values="0 0 0 0 0 0 0 0 0 0 0 0 0 0 0 0 0 0 127 0" result="hardAlpha"/>
<feOffset/>
<feGaussianBlur stdDeviation="7.25"/>
<feComposite in2="hardAlpha" operator="out"/>
<feColorMatrix type="matrix" values="0 0 0 0 1 0 0 0 0 0.890196 0 0 0 0 0.580392 0 0 0 1 0"/>
<feBlend mode="normal" in2="BackgroundImageFix" result="effect1_dropShadow_355_1516"/>
<feBlend mode="normal" in="SourceGraphic" in2="effect1_dropShadow_355_1516" result="shape"/>
<feGaussianBlur stdDeviation="0.5" result="effect2_foregroundBlur_355_1516"/>
</filter>
<filter id="filter3_df_355_1516" x="231.5" y="-4.5" width="31" height="31" filterUnits="userSpaceOnUse" color-interpolation-filters="sRGB">
<feFlood flood-opacity="0" result="BackgroundImageFix"/>
<feColorMatrix in="SourceAlpha" type="matrix" values="0 0 0 0 0 0 0 0 0 0 0 0 0 0 0 0 0 0 127 0" result="hardAlpha"/>
<feOffset/>
<feGaussianBlur stdDeviation="7.25"/>
<feComposite in2="hardAlpha" operator="out"/>
<feColorMatrix type="matrix" values="0 0 0 0 1 0 0 0 0 0.890196 0 0 0 0 0.580392 0 0 0 1 0"/>
<feBlend mode="normal" in2="BackgroundImageFix" result="effect1_dropShadow_355_1516"/>
<feBlend mode="normal" in="SourceGraphic" in2="effect1_dropShadow_355_1516" result="shape"/>
<feGaussianBlur stdDeviation="0.5" result="effect2_foregroundBlur_355_1516"/>
</filter>
<filter id="filter4_df_355_1516" x="117.5" y="77.5" width="31" height="31" filterUnits="userSpaceOnUse" color-interpolation-filters="sRGB">
<feFlood flood-opacity="0" result="BackgroundImageFix"/>
<feColorMatrix in="SourceAlpha" type="matrix" values="0 0 0 0 0 0 0 0 0 0 0 0 0 0 0 0 0 0 127 0" result="hardAlpha"/>
<feOffset/>
<feGaussianBlur stdDeviation="7.25"/>
<feComposite in2="hardAlpha" operator="out"/>
<feColorMatrix type="matrix" values="0 0 0 0 1 0 0 0 0 0.890196 0 0 0 0 0.580392 0 0 0 1 0"/>
<feBlend mode="normal" in2="BackgroundImageFix" result="effect1_dropShadow_355_1516"/>
<feBlend mode="normal" in="SourceGraphic" in2="effect1_dropShadow_355_1516" result="shape"/>
<feGaussianBlur stdDeviation="0.5" result="effect2_foregroundBlur_355_1516"/>
</filter>
<filter id="filter5_df_355_1516" x="111.5" y="1.5" width="31" height="31" filterUnits="userSpaceOnUse" color-interpolation-filters="sRGB">
<feFlood flood-opacity="0" result="BackgroundImageFix"/>
<feColorMatrix in="SourceAlpha" type="matrix" values="0 0 0 0 0 0 0 0 0 0 0 0 0 0 0 0 0 0 127 0" result="hardAlpha"/>
<feOffset/>
<feGaussianBlur stdDeviation="7.25"/>
<feComposite in2="hardAlpha" operator="out"/>
<feColorMatrix type="matrix" values="0 0 0 0 1 0 0 0 0 0.890196 0 0 0 0 0.580392 0 0 0 1 0"/>
<feBlend mode="normal" in2="BackgroundImageFix" result="effect1_dropShadow_355_1516"/>
<feBlend mode="normal" in="SourceGraphic" in2="effect1_dropShadow_355_1516" result="shape"/>
<feGaussianBlur stdDeviation="0.5" result="effect2_foregroundBlur_355_1516"/>
</filter>
<filter id="filter6_df_355_1516" x="271.5" y="145.5" width="31" height="31" filterUnits="userSpaceOnUse" color-interpolation-filters="sRGB">
<feFlood flood-opacity="0" result="BackgroundImageFix"/>
<feColorMatrix in="SourceAlpha" type="matrix" values="0 0 0 0 0 0 0 0 0 0 0 0 0 0 0 0 0 0 127 0" result="hardAlpha"/>
<feOffset/>
<feGaussianBlur stdDeviation="7.25"/>
<feComposite in2="hardAlpha" operator="out"/>
<feColorMatrix type="matrix" values="0 0 0 0 1 0 0 0 0 0.890196 0 0 0 0 0.580392 0 0 0 1 0"/>
<feBlend mode="normal" in2="BackgroundImageFix" result="effect1_dropShadow_355_1516"/>
<feBlend mode="normal" in="SourceGraphic" in2="effect1_dropShadow_355_1516" result="shape"/>
<feGaussianBlur stdDeviation="0.5" result="effect2_foregroundBlur_355_1516"/>
</filter>
<filter id="filter7_df_355_1516" x="31.5" y="75.5" width="31" height="31" filterUnits="userSpaceOnUse" color-interpolation-filters="sRGB">
<feFlood flood-opacity="0" result="BackgroundImageFix"/>
<feColorMatrix in="SourceAlpha" type="matrix" values="0 0 0 0 0 0 0 0 0 0 0 0 0 0 0 0 0 0 127 0" result="hardAlpha"/>
<feOffset/>
<feGaussianBlur stdDeviation="7.25"/>
<feComposite in2="hardAlpha" operator="out"/>
<feColorMatrix type="matrix" values="0 0 0 0 1 0 0 0 0 0.890196 0 0 0 0 0.580392 0 0 0 1 0"/>
<feBlend mode="normal" in2="BackgroundImageFix" result="effect1_dropShadow_355_1516"/>
<feBlend mode="normal" in="SourceGraphic" in2="effect1_dropShadow_355_1516" result="shape"/>
<feGaussianBlur stdDeviation="0.5" result="effect2_foregroundBlur_355_1516"/>
</filter>
<filter id="filter8_df_355_1516" x="5.5" y="30.5" width="31" height="31" filterUnits="userSpaceOnUse" color-interpolation-filters="sRGB">
<feFlood flood-opacity="0" result="BackgroundImageFix"/>
<feColorMatrix in="SourceAlpha" type="matrix" values="0 0 0 0 0 0 0 0 0 0 0 0 0 0 0 0 0 0 127 0" result="hardAlpha"/>
<feOffset/>
<feGaussianBlur stdDeviation="7.25"/>
<feComposite in2="hardAlpha" operator="out"/>
<feColorMatrix type="matrix" values="0 0 0 0 1 0 0 0 0 0.890196 0 0 0 0 0.580392 0 0 0 1 0"/>
<feBlend mode="normal" in2="BackgroundImageFix" result="effect1_dropShadow_355_1516"/>
<feBlend mode="normal" in="SourceGraphic" in2="effect1_dropShadow_355_1516" result="shape"/>
<feGaussianBlur stdDeviation="0.5" result="effect2_foregroundBlur_355_1516"/>
</filter>
<filter id="filter9_df_355_1516" x="9.5" y="118.5" width="31" height="31" filterUnits="userSpaceOnUse" color-interpolation-filters="sRGB">
<feFlood flood-opacity="0" result="BackgroundImageFix"/>
<feColorMatrix in="SourceAlpha" type="matrix" values="0 0 0 0 0 0 0 0 0 0 0 0 0 0 0 0 0 0 127 0" result="hardAlpha"/>
<feOffset/>
<feGaussianBlur stdDeviation="7.25"/>
<feComposite in2="hardAlpha" operator="out"/>
<feColorMatrix type="matrix" values="0 0 0 0 1 0 0 0 0 0.890196 0 0 0 0 0.580392 0 0 0 1 0"/>
<feBlend mode="normal" in2="BackgroundImageFix" result="effect1_dropShadow_355_1516"/>
<feBlend mode="normal" in="SourceGraphic" in2="effect1_dropShadow_355_1516" result="shape"/>
<feGaussianBlur stdDeviation="0.5" result="effect2_foregroundBlur_355_1516"/>
</filter>
<filter id="filter10_df_355_1516" x="151.5" y="139.5" width="31" height="31" filterUnits="userSpaceOnUse" color-interpolation-filters="sRGB">
<feFlood flood-opacity="0" result="BackgroundImageFix"/>
<feColorMatrix in="SourceAlpha" type="matrix" values="0 0 0 0 0 0 0 0 0 0 0 0 0 0 0 0 0 0 127 0" result="hardAlpha"/>
<feOffset/>
<feGaussianBlur stdDeviation="7.25"/>
<feComposite in2="hardAlpha" operator="out"/>
<feColorMatrix type="matrix" values="0 0 0 0 1 0 0 0 0 0.890196 0 0 0 0 0.580392 0 0 0 1 0"/>
<feBlend mode="normal" in2="BackgroundImageFix" result="effect1_dropShadow_355_1516"/>
<feBlend mode="normal" in="SourceGraphic" in2="effect1_dropShadow_355_1516" result="shape"/>
<feGaussianBlur stdDeviation="0.5" result="effect2_foregroundBlur_355_1516"/>
</filter>
<filter id="filter11_df_355_1516" x="67.5" y="14.5" width="31" height="31" filterUnits="userSpaceOnUse" color-interpolation-filters="sRGB">
<feFlood flood-opacity="0" result="BackgroundImageFix"/>
<feColorMatrix in="SourceAlpha" type="matrix" values="0 0 0 0 0 0 0 0 0 0 0 0 0 0 0 0 0 0 127 0" result="hardAlpha"/>
<feOffset/>
<feGaussianBlur stdDeviation="7.25"/>
<feComposite in2="hardAlpha" operator="out"/>
<feColorMatrix type="matrix" values="0 0 0 0 1 0 0 0 0 0.890196 0 0 0 0 0.580392 0 0 0 1 0"/>
<feBlend mode="normal" in2="BackgroundImageFix" result="effect1_dropShadow_355_1516"/>
<feBlend mode="normal" in="SourceGraphic" in2="effect1_dropShadow_355_1516" result="shape"/>
<feGaussianBlur stdDeviation="0.5" result="effect2_foregroundBlur_355_1516"/>
</filter>
<linearGradient id="paint0_linear_355_1516" x1="-59" y1="318.5" x2="263" y2="1.99998" gradientUnits="userSpaceOnUse">
<stop stop-color="#143B5B"/>
<stop offset="1" stop-color="#272155"/>
</linearGradient>
<clipPath id="clip0_355_1516">
<rect x="2" y="2" width="361" height="165" rx="20" fill="white"/>
</clipPath>
</defs>
</svg>
