<svg width="60" height="50" viewBox="0 0 60 50" fill="none" xmlns="http://www.w3.org/2000/svg">
<rect width="60" height="50" rx="10" fill="#2A2C45" fill-opacity="0.3"/>
<path d="M26.5714 12.3824C26.2953 12.3824 26.0714 12.6062 26.0714 12.8824C26.0714 13.1585 26.2953 13.3824 26.5714 13.3824V12.8824V12.3824ZM33.4286 13.3824C33.7047 13.3824 33.9286 13.1585 33.9286 12.8824C33.9286 12.6062 33.7047 12.3824 33.4286 12.3824V12.8824V13.3824ZM26.5714 17.0882C26.2953 17.0882 26.0714 17.3121 26.0714 17.5882C26.0714 17.8644 26.2953 18.0882 26.5714 18.0882V17.5882V17.0882ZM33.4286 18.0882C33.7047 18.0882 33.9286 17.8644 33.9286 17.5882C33.9286 17.3121 33.7047 17.0882 33.4286 17.0882V17.5882V18.0882ZM26.5714 21.7941C26.2953 21.7941 26.0714 22.018 26.0714 22.2941C26.0714 22.5703 26.2953 22.7941 26.5714 22.7941V22.2941V21.7941ZM31.1429 22.7941C31.419 22.7941 31.6429 22.5703 31.6429 22.2941C31.6429 22.018 31.419 21.7941 31.1429 21.7941V22.2941V22.7941ZM26.5714 7V7.5H33.4286V7V6.5H26.5714V7ZM38 11.7059H37.5V22.2941H38H38.5V11.7059H38ZM33.4286 27V26.5H26.5714V27V27.5H33.4286V27ZM22 22.2941H22.5V11.7059H22H21.5V22.2941H22ZM26.5714 27V26.5C25.4794 26.5 24.7121 26.4989 24.1319 26.4186C23.5676 26.3405 23.2551 26.1961 23.0281 25.9624L22.6695 26.3108L22.3108 26.6592C22.7533 27.1147 23.3143 27.3149 23.9948 27.4091C24.6595 27.5011 25.5085 27.5 26.5714 27.5V27ZM22 22.2941H21.5C21.5 23.3896 21.499 24.26 21.5879 24.9407C21.6785 25.6343 21.8703 26.2058 22.3108 26.6592L22.6695 26.3108L23.0281 25.9624C22.7992 25.7268 22.6563 25.3991 22.5795 24.8112C22.501 24.2104 22.5 23.417 22.5 22.2941H22ZM38 22.2941H37.5C37.5 23.417 37.499 24.2104 37.4205 24.8112C37.3437 25.3991 37.2008 25.7268 36.9719 25.9624L37.3305 26.3108L37.6892 26.6592C38.1297 26.2058 38.3215 25.6343 38.4121 24.9407C38.501 24.26 38.5 23.3896 38.5 22.2941H38ZM33.4286 27V27.5C34.4915 27.5 35.3405 27.5011 36.0052 27.4091C36.6857 27.3149 37.2467 27.1147 37.6892 26.6592L37.3305 26.3108L36.9719 25.9624C36.7449 26.1961 36.4324 26.3405 35.8681 26.4186C35.2879 26.4989 34.5206 26.5 33.4286 26.5V27ZM33.4286 7V7.5C34.5206 7.5 35.2879 7.50112 35.8681 7.58142C36.4324 7.65952 36.7449 7.80389 36.9719 8.03755L37.3305 7.68916L37.6892 7.34077C37.2467 6.88527 36.6857 6.68506 36.0052 6.59087C35.3405 6.49888 34.4915 6.5 33.4286 6.5V7ZM38 11.7059H38.5C38.5 10.6104 38.501 9.73997 38.4121 9.05931C38.3215 8.36572 38.1297 7.79424 37.6892 7.34077L37.3305 7.68916L36.9719 8.03755C37.2008 8.27324 37.3437 8.60093 37.4205 9.18882C37.499 9.78964 37.5 10.583 37.5 11.7059H38ZM26.5714 7V6.5C25.5085 6.5 24.6595 6.49888 23.9948 6.59087C23.3143 6.68506 22.7533 6.88527 22.3108 7.34077L22.6695 7.68916L23.0281 8.03755C23.2551 7.80389 23.5676 7.65952 24.1319 7.58142C24.7121 7.50112 25.4794 7.5 26.5714 7.5V7ZM22 11.7059H22.5C22.5 10.583 22.501 9.78964 22.5795 9.18882C22.6563 8.60093 22.7992 8.27324 23.0281 8.03755L22.6695 7.68916L22.3108 7.34077C21.8703 7.79424 21.6785 8.36572 21.5879 9.05931C21.499 9.73997 21.5 10.6104 21.5 11.7059H22ZM26.5714 12.8824V13.3824H33.4286V12.8824V12.3824H26.5714V12.8824ZM26.5714 17.5882V18.0882H33.4286V17.5882V17.0882H26.5714V17.5882ZM26.5714 22.2941V22.7941H31.1429V22.2941V21.7941H26.5714V22.2941Z" fill="#68CEF6"/>
<path d="M11.6144 35.7273H12.9461L15.2615 41.3807H15.3467L17.662 35.7273H18.9937V43H17.9497V37.7372H17.8822L15.7373 42.9893H14.8708L12.7259 37.7337H12.6585V43H11.6144V35.7273ZM21.5443 41.5121L23.9484 37.5455H25.0919V43H24.0514V39.0298L21.6579 43H20.5038V37.5455H21.5443V41.5121ZM28.817 43.1101C28.2891 43.1101 27.8345 42.9905 27.4534 42.7514C27.0746 42.5099 26.7834 42.1773 26.5798 41.7536C26.3762 41.3298 26.2744 40.8445 26.2744 40.2976C26.2744 39.7436 26.3786 39.2547 26.5869 38.831C26.7952 38.4048 27.0888 38.0722 27.4676 37.8331C27.8464 37.594 28.2926 37.4744 28.8064 37.4744C29.2207 37.4744 29.59 37.5514 29.9143 37.7053C30.2387 37.8568 30.5003 38.0698 30.6991 38.3445C30.9004 38.6191 31.0199 38.9399 31.0578 39.3068H30.0244C29.9676 39.0511 29.8374 38.831 29.6338 38.6463C29.4326 38.4616 29.1627 38.3693 28.8241 38.3693C28.5282 38.3693 28.269 38.4474 28.0464 38.6037C27.8263 38.7576 27.6546 38.9777 27.5315 39.2642C27.4084 39.5483 27.3469 39.8845 27.3469 40.2727C27.3469 40.6705 27.4072 41.0137 27.528 41.3026C27.6487 41.5914 27.8192 41.8151 28.0393 41.9737C28.2619 42.1323 28.5235 42.2116 28.8241 42.2116C29.0254 42.2116 29.2077 42.175 29.371 42.1016C29.5367 42.0258 29.6752 41.9181 29.7865 41.7784C29.9001 41.6387 29.9794 41.4706 30.0244 41.2741H31.0578C31.0199 41.6269 30.9051 41.9418 30.7133 42.2188C30.5216 42.4957 30.2647 42.7135 29.9427 42.8722C29.6231 43.0308 29.2479 43.1101 28.817 43.1101ZM34.4909 43.1101C33.9629 43.1101 33.5084 42.9905 33.1272 42.7514C32.7484 42.5099 32.4572 42.1773 32.2536 41.7536C32.05 41.3298 31.9482 40.8445 31.9482 40.2976C31.9482 39.7436 32.0524 39.2547 32.2607 38.831C32.4691 38.4048 32.7626 38.0722 33.1414 37.8331C33.5202 37.594 33.9665 37.4744 34.4802 37.4744C34.8945 37.4744 35.2638 37.5514 35.5882 37.7053C35.9125 37.8568 36.1741 38.0698 36.373 38.3445C36.5742 38.6191 36.6937 38.9399 36.7316 39.3068H35.6982C35.6414 39.0511 35.5112 38.831 35.3076 38.6463C35.1064 38.4616 34.8365 38.3693 34.498 38.3693C34.202 38.3693 33.9428 38.4474 33.7203 38.6037C33.5001 38.7576 33.3285 38.9777 33.2053 39.2642C33.0822 39.5483 33.0207 39.8845 33.0207 40.2727C33.0207 40.6705 33.0811 41.0137 33.2018 41.3026C33.3225 41.5914 33.493 41.8151 33.7132 41.9737C33.9357 42.1323 34.1973 42.2116 34.498 42.2116C34.6992 42.2116 34.8815 42.175 35.0448 42.1016C35.2106 42.0258 35.349 41.9181 35.4603 41.7784C35.574 41.6387 35.6533 41.4706 35.6982 41.2741H36.7316C36.6937 41.6269 36.5789 41.9418 36.3872 42.2188C36.1954 42.4957 35.9385 42.7135 35.6166 42.8722C35.297 43.0308 34.9217 43.1101 34.4909 43.1101ZM38.9076 41.5121L41.3117 37.5455H42.4552V43H41.4147V39.0298L39.0212 43H37.8671V37.5455H38.9076V41.5121ZM44.9232 41.5121L47.3273 37.5455H48.4708V43H47.4303V39.0298L45.0368 43H43.8827V37.5455H44.9232V41.5121Z" fill="#68CEF6"/>
</svg>
