<svg width="20" height="22" viewBox="0 0 20 22" fill="none" xmlns="http://www.w3.org/2000/svg">
<path d="M3.65238 9.03959L4.14942 9.09395L3.65238 9.03959ZM3.64532 9.10362L4.14216 9.15974L3.64532 9.10362ZM2.43908 12.6914L2.8696 12.9456L2.43908 12.6914ZM2.47166 12.6361L2.04023 12.3834L2.47166 12.6361ZM16.3476 9.03959L16.8447 8.98524L16.3476 9.03959ZM16.3547 9.10362L15.8578 9.15974L16.3547 9.10362ZM17.5609 12.6914L17.9914 12.4371V12.4371L17.5609 12.6914ZM17.5283 12.6361L17.9598 12.3834L17.5283 12.6361ZM1.38662 16.2965L1.71053 15.9156L1.38662 16.2965ZM1.8069 13.7618L1.37637 13.5076H1.37637L1.8069 13.7618ZM1.00829 15.6176L0.514213 15.6944L1.00829 15.6176ZM18.6134 16.2965L18.2895 15.9156L18.6134 16.2965ZM18.1931 13.7618L17.7626 14.0161L18.1931 13.7618ZM18.9917 15.6176L19.4858 15.6944L18.9917 15.6176ZM16.0722 6.52158L15.5752 6.57594L16.0722 6.52158ZM6.12532 16.5556C6.12532 16.2794 5.90146 16.0556 5.62532 16.0556C5.34918 16.0556 5.12532 16.2794 5.12532 16.5556H5.62532H6.12532ZM10 21V20.5V21ZM14.8747 16.5556C14.8747 16.2794 14.6508 16.0556 14.3747 16.0556C14.0985 16.0556 13.8747 16.2794 13.8747 16.5556H14.3747H14.8747ZM16.6361 16.5556V16.0556H3.36386V16.5556V17.0556H16.6361V16.5556ZM16.0722 6.52158L15.5752 6.57594L15.8506 9.09395L16.3476 9.03959L16.8447 8.98524L16.5693 6.46722L16.0722 6.52158ZM3.65238 9.03959L4.14942 9.09395L4.42481 6.57593L3.92777 6.52157L3.43073 6.46722L3.15534 8.98524L3.65238 9.03959ZM1.8069 13.7618L2.23742 14.0161L2.8696 12.9456L2.43908 12.6914L2.00855 12.4371L1.37637 13.5076L1.8069 13.7618ZM17.5609 12.6914L17.1304 12.9456L17.7626 14.0161L18.1931 13.7618L18.6236 13.5076L17.9914 12.4371L17.5609 12.6914ZM3.65238 9.03959L3.15534 8.98524C3.1518 9.01767 3.15015 9.03271 3.14848 9.0475L3.64532 9.10362L4.14216 9.15974C4.14408 9.14278 4.14594 9.12571 4.14942 9.09395L3.65238 9.03959ZM2.43908 12.6914L2.8696 12.9456C2.88578 12.9182 2.89449 12.9035 2.90309 12.8888L2.47166 12.6361L2.04023 12.3834C2.03274 12.3962 2.02508 12.4091 2.00855 12.4371L2.43908 12.6914ZM3.64532 9.10362L3.14848 9.0475C3.01526 10.2269 2.63741 11.3639 2.04023 12.3834L2.47166 12.6361L2.90309 12.8888C3.57114 11.7484 3.99333 10.4774 4.14216 9.15974L3.64532 9.10362ZM16.3476 9.03959L15.8506 9.09395C15.8541 9.12571 15.8559 9.14278 15.8578 9.15974L16.3547 9.10362L16.8515 9.0475C16.8498 9.03271 16.8482 9.01767 16.8447 8.98524L16.3476 9.03959ZM17.5609 12.6914L17.9914 12.4371C17.9749 12.4091 17.9673 12.3962 17.9598 12.3834L17.5283 12.6361L17.0969 12.8888C17.1055 12.9035 17.1142 12.9183 17.1304 12.9456L17.5609 12.6914ZM16.3547 9.10362L15.8578 9.15974C16.0067 10.4774 16.4289 11.7484 17.0969 12.8888L17.5283 12.6361L17.9598 12.3834C17.3626 11.3639 16.9847 10.2269 16.8515 9.0475L16.3547 9.10362ZM3.36386 16.5556V16.0556C2.79525 16.0556 2.40756 16.0549 2.12219 16.0258C1.83443 15.9964 1.74479 15.9447 1.71053 15.9156L1.38662 16.2965L1.06271 16.6774C1.33312 16.9073 1.67457 16.9852 2.02051 17.0206C2.36882 17.0562 2.81742 17.0556 3.36386 17.0556V16.5556ZM1.8069 13.7618L1.37637 13.5076C1.09502 13.984 0.864272 14.3735 0.715612 14.6942C0.568046 15.0125 0.460038 15.3455 0.514213 15.6944L1.00829 15.6176L1.50237 15.5409C1.49462 15.491 1.49907 15.3818 1.62287 15.1148C1.74557 14.8501 1.94509 14.5111 2.23742 14.0161L1.8069 13.7618ZM1.38662 16.2965L1.71053 15.9156C1.60006 15.8216 1.52534 15.6888 1.50237 15.5409L1.00829 15.6176L0.514213 15.6944C0.573643 16.077 0.767727 16.4265 1.06271 16.6774L1.38662 16.2965ZM16.6361 16.5556V17.0556C17.1826 17.0556 17.6312 17.0562 17.9795 17.0206C18.3254 16.9852 18.6669 16.9073 18.9373 16.6774L18.6134 16.2965L18.2895 15.9156C18.2552 15.9447 18.1656 15.9964 17.8778 16.0258C17.5924 16.0549 17.2047 16.0556 16.6361 16.0556V16.5556ZM18.1931 13.7618L17.7626 14.0161C18.0549 14.5111 18.2544 14.8501 18.3771 15.1148C18.5009 15.3818 18.5054 15.491 18.4976 15.5409L18.9917 15.6176L19.4858 15.6944C19.54 15.3455 19.432 15.0125 19.2844 14.6942C19.1357 14.3735 18.905 13.984 18.6236 13.5076L18.1931 13.7618ZM18.6134 16.2965L18.9373 16.6774C19.2323 16.4265 19.4264 16.077 19.4858 15.6944L18.9917 15.6176L18.4976 15.5409C18.4747 15.6888 18.3999 15.8216 18.2895 15.9156L18.6134 16.2965ZM10 1V1.5C12.8518 1.5 15.2585 3.67982 15.5752 6.57594L16.0722 6.52158L16.5693 6.46722C16.1984 3.07644 13.3745 0.5 10 0.5V1ZM10 1V0.5C6.62551 0.5 3.80157 3.07644 3.43073 6.46722L3.92777 6.52157L4.42481 6.57593C4.74154 3.67982 7.14821 1.5 10 1.5V1ZM5.62532 16.5556H5.12532C5.12532 17.2038 5.25098 17.8458 5.49532 18.4451L5.95832 18.2564L6.42132 18.0676C6.22596 17.5885 6.12532 17.0746 6.12532 16.5556H5.62532ZM5.95832 18.2564L5.49532 18.4451C5.73967 19.0445 6.09802 19.5895 6.55029 20.049L6.90663 19.6983L7.26297 19.3475C6.90279 18.9816 6.61667 18.5467 6.42132 18.0676L5.95832 18.2564ZM6.90663 19.6983L6.55029 20.049C7.00258 20.5085 7.53996 20.8734 8.13194 21.1225L8.32588 20.6617L8.51982 20.2008C8.05029 20.0032 7.62314 19.7134 7.26297 19.3475L6.90663 19.6983ZM8.32588 20.6617L8.13194 21.1225C8.72395 21.3717 9.35874 21.5 10 21.5V21V20.5C9.49228 20.5 8.98934 20.3984 8.51982 20.2008L8.32588 20.6617ZM10 21V21.5C10.6413 21.5 11.2761 21.3717 11.8681 21.1225L11.6741 20.6617L11.4802 20.2008C11.0107 20.3984 10.5077 20.5 10 20.5V21ZM11.6741 20.6617L11.8681 21.1225C12.46 20.8734 12.9974 20.5085 13.4497 20.049L13.0934 19.6983L12.737 19.3475C12.3769 19.7134 11.9497 20.0032 11.4802 20.2008L11.6741 20.6617ZM13.0934 19.6983L13.4497 20.049C13.902 19.5895 14.2603 19.0445 14.5047 18.4451L14.0417 18.2564L13.5787 18.0676C13.3833 18.5467 13.0972 18.9816 12.737 19.3475L13.0934 19.6983ZM14.0417 18.2564L14.5047 18.4451C14.749 17.8458 14.8747 17.2038 14.8747 16.5556H14.3747H13.8747C13.8747 17.0746 13.774 17.5885 13.5787 18.0676L14.0417 18.2564Z" fill="white"/>
</svg>
