<svg width="60" height="50" viewBox="0 0 60 50" fill="none" xmlns="http://www.w3.org/2000/svg">
<path d="M36.2915 26.9064C36.3546 27.1753 36.6236 27.3421 36.8925 27.2791C37.1613 27.216 37.3282 26.947 37.2651 26.6781L36.7783 26.7923L36.2915 26.9064ZM22.7781 26.6859C22.715 26.9548 22.8819 27.2238 23.1507 27.2868C23.4196 27.3499 23.6886 27.183 23.7517 26.9142L23.2649 26.8L22.7781 26.6859ZM36.7783 26.7923L37.2651 26.6781C36.8418 24.8726 35.8896 23.3535 34.591 22.2147L34.2613 22.5907L33.9317 22.9666C35.0781 23.972 35.9172 25.3098 36.2915 26.9064L36.7783 26.7923ZM34.2613 22.5907L34.591 22.2147C33.2828 21.0675 31.6693 20.4375 30 20.4375V20.9375V21.4375C31.4125 21.4375 32.7949 21.9697 33.9317 22.9666L34.2613 22.5907ZM30 20.9375V20.4375C28.3307 20.4375 26.7172 21.0675 25.409 22.2147L25.7387 22.5907L26.0683 22.9666C27.2051 21.9697 28.5875 21.4375 30 21.4375V20.9375ZM25.7387 22.5907L25.409 22.2147C24.1039 23.3593 23.1994 24.889 22.7781 26.6859L23.2649 26.8L23.7517 26.9142C24.128 25.309 24.9285 23.9662 26.0683 22.9666L25.7387 22.5907ZM33 15H32.5C32.5 16.3807 31.3807 17.5 30 17.5V18V18.5C31.933 18.5 33.5 16.933 33.5 15H33ZM30 18V17.5C28.6193 17.5 27.5 16.3807 27.5 15H27H26.5C26.5 16.933 28.067 18.5 30 18.5V18ZM27 15H27.5C27.5 13.6193 28.6193 12.5 30 12.5V12V11.5C28.067 11.5 26.5 13.067 26.5 15H27ZM30 12V12.5C31.3807 12.5 32.5 13.6193 32.5 15H33H33.5C33.5 13.067 31.933 11.5 30 11.5V12ZM28 7V7.5H32V7V6.5H28V7ZM40 15H39.5V19H40H40.5V15H40ZM32 27V26.5H28V27V27.5H32V27ZM20 19H20.5V15H20H19.5V19H20ZM28 27V26.5C26.1002 26.5 24.7257 26.4989 23.6775 26.358C22.6437 26.219 22.0025 25.9523 21.5251 25.4749L21.1716 25.8284L20.818 26.182C21.5122 26.8762 22.3996 27.1952 23.5443 27.3491C24.6746 27.5011 26.1285 27.5 28 27.5V27ZM20 19H19.5C19.5 20.8715 19.4989 22.3254 19.6509 23.4557C19.8048 24.6004 20.1238 25.4878 20.818 26.182L21.1716 25.8284L21.5251 25.4749C21.0477 24.9975 20.781 24.3563 20.642 23.3225C20.5011 22.2743 20.5 20.8998 20.5 19H20ZM40 19H39.5C39.5 20.8998 39.4989 22.2743 39.358 23.3225C39.219 24.3563 38.9523 24.9975 38.4749 25.4749L38.8284 25.8284L39.182 26.182C39.8762 25.4878 40.1952 24.6004 40.3491 23.4557C40.5011 22.3254 40.5 20.8715 40.5 19H40ZM32 27V27.5C33.8715 27.5 35.3254 27.5011 36.4557 27.3491C37.6004 27.1952 38.4878 26.8762 39.182 26.182L38.8284 25.8284L38.4749 25.4749C37.9975 25.9523 37.3563 26.219 36.3225 26.358C35.2743 26.4989 33.8998 26.5 32 26.5V27ZM32 7V7.5C33.8998 7.5 35.2743 7.50106 36.3225 7.64199C37.3563 7.78098 37.9975 8.04772 38.4749 8.52513L38.8284 8.17157L39.182 7.81802C38.4878 7.12385 37.6004 6.80481 36.4557 6.65091C35.3254 6.49894 33.8715 6.5 32 6.5V7ZM40 15H40.5C40.5 13.1285 40.5011 11.6746 40.3491 10.5443C40.1952 9.39959 39.8762 8.51219 39.182 7.81802L38.8284 8.17157L38.4749 8.52513C38.9523 9.00253 39.219 9.64373 39.358 10.6775C39.4989 11.7257 39.5 13.1002 39.5 15H40ZM28 7V6.5C26.1285 6.5 24.6746 6.49894 23.5443 6.65091C22.3996 6.80481 21.5122 7.12385 20.818 7.81802L21.1716 8.17157L21.5251 8.52513C22.0025 8.04772 22.6437 7.78098 23.6775 7.64199C24.7257 7.50106 26.1002 7.5 28 7.5V7ZM20 15H20.5C20.5 13.1002 20.5011 11.7257 20.642 10.6775C20.781 9.64373 21.0477 9.00253 21.5251 8.52513L21.1716 8.17157L20.818 7.81802C20.1238 8.51219 19.8048 9.39959 19.6509 10.5443C19.4989 11.6746 19.5 13.1285 19.5 15H20Z" fill="white"/>
<path d="M14.3066 35.7273V43H13.2129V36.6648H9.7896V43H8.69585V35.7273H14.3066ZM15.8993 45.0455V37.5455H16.9363V38.4297H17.025C17.0866 38.3161 17.1754 38.1847 17.2914 38.0355C17.4074 37.8864 17.5684 37.7562 17.7743 37.6449C17.9803 37.5312 18.2525 37.4744 18.5911 37.4744C19.0314 37.4744 19.4244 37.5857 19.7701 37.8082C20.1157 38.0308 20.3868 38.3516 20.5833 38.7706C20.7821 39.1896 20.8816 39.6939 20.8816 40.2834C20.8816 40.8729 20.7833 41.3783 20.5868 41.7997C20.3903 42.2187 20.1204 42.5419 19.7772 42.7692C19.4339 42.9941 19.0421 43.1065 18.6017 43.1065C18.2703 43.1065 17.9992 43.0509 17.7885 42.9396C17.5802 42.8284 17.4168 42.6982 17.2985 42.549C17.1801 42.3999 17.089 42.2673 17.025 42.1513H16.9611V45.0455H15.8993ZM16.9398 40.2727C16.9398 40.6562 16.9954 40.9924 17.1067 41.2812C17.218 41.5701 17.379 41.7962 17.5897 41.9595C17.8004 42.1205 18.0584 42.201 18.3638 42.201C18.681 42.201 18.9462 42.117 19.1593 41.9489C19.3723 41.7784 19.5333 41.5476 19.6422 41.2564C19.7535 40.9652 19.8091 40.6373 19.8091 40.2727C19.8091 39.9129 19.7547 39.5897 19.6458 39.3033C19.5392 39.0168 19.3783 38.7907 19.1628 38.625C18.9498 38.4593 18.6834 38.3764 18.3638 38.3764C18.056 38.3764 17.7956 38.4557 17.5826 38.6143C17.3719 38.773 17.2121 38.9943 17.1032 39.2784C16.9943 39.5625 16.9398 39.8939 16.9398 40.2727ZM24.3688 43.1101C23.8574 43.1101 23.4112 42.9929 23.03 42.7585C22.6489 42.5241 22.3529 42.1963 22.1422 41.7749C21.9315 41.3535 21.8262 40.861 21.8262 40.2976C21.8262 39.7318 21.9315 39.237 22.1422 38.8132C22.3529 38.3894 22.6489 38.0604 23.03 37.826C23.4112 37.5916 23.8574 37.4744 24.3688 37.4744C24.8801 37.4744 25.3264 37.5916 25.7076 37.826C26.0887 38.0604 26.3846 38.3894 26.5953 38.8132C26.806 39.237 26.9114 39.7318 26.9114 40.2976C26.9114 40.861 26.806 41.3535 26.5953 41.7749C26.3846 42.1963 26.0887 42.5241 25.7076 42.7585C25.3264 42.9929 24.8801 43.1101 24.3688 43.1101ZM24.3723 42.2188C24.7038 42.2188 24.9784 42.1312 25.1962 41.956C25.414 41.7808 25.575 41.5476 25.6792 41.2564C25.7857 40.9652 25.839 40.6444 25.839 40.294C25.839 39.946 25.7857 39.6264 25.6792 39.3352C25.575 39.0417 25.414 38.8061 25.1962 38.6286C24.9784 38.451 24.7038 38.3622 24.3723 38.3622C24.0385 38.3622 23.7615 38.451 23.5414 38.6286C23.3236 38.8061 23.1614 39.0417 23.0549 39.3352C22.9507 39.6264 22.8986 39.946 22.8986 40.294C22.8986 40.6444 22.9507 40.9652 23.0549 41.2564C23.1614 41.5476 23.3236 41.7808 23.5414 41.956C23.7615 42.1312 24.0385 42.2188 24.3723 42.2188ZM30.4439 44.8572V35.7273H31.5057V44.8572H30.4439ZM30.4439 43.1101C30.058 43.1101 29.7064 43.0438 29.3892 42.9112C29.072 42.7763 28.7985 42.5845 28.5689 42.3359C28.3393 42.0874 28.1617 41.7902 28.0362 41.4446C27.9131 41.099 27.8516 40.7166 27.8516 40.2976C27.8516 39.8738 27.9131 39.4891 28.0362 39.1435C28.1617 38.7978 28.3393 38.5007 28.5689 38.2521C28.7985 38.0036 29.072 37.8118 29.3892 37.6768C29.7064 37.5419 30.058 37.4744 30.4439 37.4744H30.7067V43.1101H30.4439ZM30.4439 42.2152H30.593V38.3693H30.4439C30.1882 38.3693 29.9657 38.4214 29.7763 38.5256C29.5869 38.6274 29.4295 38.7682 29.304 38.9482C29.1785 39.1257 29.0838 39.3305 29.0199 39.5625C28.9583 39.7945 28.9276 40.0395 28.9276 40.2976C28.9276 40.6432 28.9832 40.9616 29.0945 41.2528C29.2057 41.5417 29.3738 41.7749 29.5987 41.9524C29.8236 42.1276 30.1054 42.2152 30.4439 42.2152ZM31.5057 43.1101H31.2393V37.4744H31.5057C31.8916 37.4744 32.2431 37.5419 32.5604 37.6768C32.8776 37.8118 33.1499 38.0036 33.3771 38.2521C33.6068 38.5007 33.7831 38.7978 33.9062 39.1435C34.0317 39.4891 34.0945 39.8738 34.0945 40.2976C34.0945 40.7166 34.0317 41.099 33.9062 41.4446C33.7831 41.7902 33.6068 42.0874 33.3771 42.3359C33.1499 42.5845 32.8776 42.7763 32.5604 42.9112C32.2431 43.0438 31.8916 43.1101 31.5057 43.1101ZM31.5057 42.2152C31.7614 42.2152 31.9839 42.1655 32.1733 42.0661C32.3627 41.9643 32.5201 41.8246 32.6456 41.647C32.7711 41.4671 32.8646 41.2623 32.9261 41.0327C32.9877 40.8007 33.0185 40.5556 33.0185 40.2976C33.0185 39.9543 32.9628 39.6371 32.8516 39.3459C32.7427 39.0523 32.5758 38.8168 32.3509 38.6392C32.1259 38.4593 31.8442 38.3693 31.5057 38.3693H31.353V42.2152H31.5057ZM36.3148 41.5121L38.7189 37.5455H39.8624V43H38.8219V39.0298L36.4284 43H35.2743V37.5455H36.3148V41.5121ZM40.8603 43L40.8567 42.0803H41.052C41.2035 42.0803 41.3302 42.0483 41.432 41.9844C41.5362 41.9181 41.6214 41.8068 41.6877 41.6506C41.754 41.4943 41.8049 41.2789 41.8404 41.0043C41.8759 40.7273 41.9019 40.3793 41.9185 39.9602L42.0144 37.5455H45.8212V43H44.7807V38.4616H42.998L42.9128 40.3153C42.8915 40.7652 42.8453 41.1581 42.7743 41.4943C42.7057 41.8305 42.6051 42.111 42.4725 42.3359C42.3399 42.5585 42.1694 42.7254 41.9611 42.8366C41.7528 42.9455 41.4995 43 41.2012 43H40.8603ZM48.0362 39.4205H49.62C50.2876 39.4205 50.8014 39.5862 51.1612 39.9176C51.5211 40.2491 51.701 40.6764 51.701 41.1996C51.701 41.5405 51.6205 41.8471 51.4595 42.1193C51.2985 42.3916 51.063 42.607 50.7528 42.7656C50.4427 42.9219 50.0651 43 49.62 43H47.2372V37.5455H48.2777V42.0838H49.62C49.9254 42.0838 50.1764 42.0045 50.3729 41.8459C50.5694 41.6849 50.6676 41.4801 50.6676 41.2315C50.6676 40.9687 50.5694 40.7545 50.3729 40.5888C50.1764 40.4207 49.9254 40.3366 49.62 40.3366H48.0362V39.4205Z" fill="white"/>
</svg>
