<svg width="60" height="50" viewBox="0 0 60 50" fill="none" xmlns="http://www.w3.org/2000/svg">
<path d="M35.8235 27.5C36.0997 27.5 36.3235 27.2761 36.3235 27C36.3235 26.7239 36.0997 26.5 35.8235 26.5V27V27.5ZM24.1765 26.5C23.9003 26.5 23.6765 26.7239 23.6765 27C23.6765 27.2761 23.9003 27.5 24.1765 27.5V27V26.5ZM28.0588 11.8333C27.7827 11.8333 27.5588 12.0572 27.5588 12.3333C27.5588 12.6095 27.7827 12.8333 28.0588 12.8333V12.3333V11.8333ZM31.9412 12.8333C32.2173 12.8333 32.4412 12.6095 32.4412 12.3333C32.4412 12.0572 32.2173 11.8333 31.9412 11.8333V12.3333V12.8333ZM21.2825 19.3956C21.501 19.5645 21.815 19.5242 21.9839 19.3057C22.1527 19.0872 22.1125 18.7732 21.894 18.6044L21.5882 19L21.2825 19.3956ZM23.6765 12.3333C23.6765 12.6095 23.9003 12.8333 24.1765 12.8333C24.4526 12.8333 24.6765 12.6095 24.6765 12.3333H24.1765H23.6765ZM38.106 18.6044C37.8875 18.7732 37.8473 19.0872 38.0161 19.3057C38.185 19.5242 38.499 19.5645 38.7175 19.3956L38.4118 19L38.106 18.6044ZM35.3235 12.3333C35.3235 12.6095 35.5474 12.8333 35.8235 12.8333C36.0997 12.8333 36.3235 12.6095 36.3235 12.3333H35.8235H35.3235ZM33.5184 19.25L33.8015 19.6621L33.5184 19.25ZM30.7178 21.1736L31.0009 21.5857L30.7178 21.1736ZM29.2822 21.1736L29.5652 20.7615H29.5652L29.2822 21.1736ZM26.4816 19.25L26.1985 19.6621L26.4816 19.25ZM28.0588 12.3333V12.8333H31.9412V12.3333V11.8333H28.0588V12.3333ZM19 13.6667H18.5C18.5 15.4669 19.1993 16.8994 19.8856 17.8717C20.2294 18.3586 20.5732 18.7351 20.8325 18.9912C20.9624 19.1194 21.0717 19.218 21.15 19.2858C21.1892 19.3196 21.2206 19.3458 21.2431 19.3642C21.2544 19.3734 21.2634 19.3806 21.27 19.3858C21.2733 19.3885 21.276 19.3906 21.2781 19.3922C21.2792 19.393 21.2801 19.3937 21.2808 19.3943C21.2812 19.3946 21.2815 19.3948 21.2818 19.3951C21.2819 19.3952 21.2821 19.3953 21.2822 19.3954C21.2823 19.3955 21.2825 19.3956 21.5882 19C21.894 18.6044 21.8941 18.6045 21.8942 18.6046C21.8943 18.6046 21.8944 18.6047 21.8945 18.6047C21.8946 18.6049 21.8947 18.6049 21.8947 18.605C21.8948 18.605 21.8948 18.605 21.8946 18.6049C21.8942 18.6045 21.8932 18.6037 21.8916 18.6025C21.8884 18.6 21.8829 18.5956 21.8752 18.5893C21.8598 18.5767 21.8357 18.5567 21.8041 18.5293C21.7408 18.4747 21.6479 18.391 21.5351 18.2796C21.3092 18.0565 21.0059 17.7247 20.7026 17.295C20.0948 16.434 19.5 15.1998 19.5 13.6667H19ZM19 10.9993H18.5V13.6667H19H19.5V10.9993H19ZM24.1765 12.3333H24.6765V11H24.1765H23.6765V12.3333H24.1765ZM24.1765 11H24.6765C24.6765 9.26527 23.3078 7.83333 21.5882 7.83333V8.33333V8.83333C22.7276 8.83333 23.6765 9.78921 23.6765 11H24.1765ZM19 10.9993H19.5C19.5 9.78866 20.4487 8.83333 21.5882 8.83333V8.33333V7.83333C19.8689 7.83333 18.5 9.26436 18.5 10.9993H19ZM41 13.6667H40.5C40.5 15.1998 39.9052 16.434 39.2974 17.295C38.9941 17.7247 38.6908 18.0565 38.4649 18.2796C38.3521 18.391 38.2592 18.4747 38.1959 18.5293C38.1643 18.5567 38.1402 18.5767 38.1248 18.5893C38.1171 18.5956 38.1116 18.6 38.1084 18.6025C38.1068 18.6037 38.1058 18.6045 38.1054 18.6049C38.1052 18.605 38.1052 18.605 38.1053 18.605C38.1053 18.6049 38.1054 18.6049 38.1055 18.6047C38.1056 18.6047 38.1057 18.6046 38.1058 18.6046C38.1059 18.6045 38.106 18.6044 38.4118 19C38.7175 19.3956 38.7177 19.3955 38.7178 19.3954C38.7179 19.3953 38.7181 19.3952 38.7182 19.3951C38.7185 19.3948 38.7188 19.3946 38.7192 19.3943C38.7199 19.3937 38.7208 19.393 38.7219 19.3922C38.724 19.3906 38.7267 19.3885 38.73 19.3858C38.7366 19.3806 38.7456 19.3734 38.7569 19.3642C38.7794 19.3458 38.8109 19.3196 38.85 19.2858C38.9283 19.218 39.0376 19.1194 39.1675 18.9912C39.4268 18.7351 39.7706 18.3586 40.1144 17.8717C40.8007 16.8994 41.5 15.4669 41.5 13.6667H41ZM41 10.9993H40.5V13.6667H41H41.5V10.9993H41ZM35.8235 12.3333H36.3235V11H35.8235H35.3235V12.3333H35.8235ZM35.8235 11H36.3235C36.3235 9.78921 37.2724 8.83333 38.4118 8.83333V8.33333V7.83333C36.6922 7.83333 35.3235 9.26527 35.3235 11H35.8235ZM41 10.9993H41.5C41.5 9.26436 40.1311 7.83333 38.4118 7.83333V8.33333V8.83333C39.5513 8.83333 40.5 9.78866 40.5 10.9993H41ZM35.8235 9.66667H35.3235V14.8124H35.8235H36.3235V9.66667H35.8235ZM24.1765 14.8124H24.6765V9.66667H24.1765H23.6765V14.8124H24.1765ZM33.5184 19.25L33.2354 18.8378L30.4348 20.7615L30.7178 21.1736L31.0009 21.5857L33.8015 19.6621L33.5184 19.25ZM29.2822 21.1736L29.5652 20.7615L26.7646 18.8378L26.4816 19.25L26.1985 19.6621L28.9991 21.5857L29.2822 21.1736ZM33.2353 7V6.5H26.7647V7V7.5H33.2353V7ZM24.1765 14.8124H23.6765C23.6765 16.7562 24.6193 18.5774 26.1985 19.6621L26.4816 19.25L26.7646 18.8378C25.4637 17.9442 24.6765 16.4349 24.6765 14.8124H24.1765ZM35.8235 14.8124H35.3235C35.3235 16.4349 34.5363 17.9442 33.2354 18.8378L33.5184 19.25L33.8015 19.6621C35.3807 18.5774 36.3235 16.7562 36.3235 14.8124H35.8235ZM24.1765 9.66667H24.6765C24.6765 8.45587 25.6254 7.5 26.7647 7.5V7V6.5C25.0452 6.5 23.6765 7.93194 23.6765 9.66667H24.1765ZM35.8235 9.66667H36.3235C36.3235 7.93194 34.9548 6.5 33.2353 6.5V7V7.5C34.3746 7.5 35.3235 8.45587 35.3235 9.66667H35.8235ZM30.7178 21.1736L30.4348 20.7615C30.3017 20.8528 30.1504 20.8975 30 20.8975V21.3975V21.8975C30.3501 21.8975 30.6993 21.793 31.0009 21.5857L30.7178 21.1736ZM30 21.3975V20.8975C29.8496 20.8975 29.6983 20.8528 29.5652 20.7615L29.2822 21.1736L28.9991 21.5857C29.3007 21.793 29.6499 21.8975 30 21.8975V21.3975ZM35.8235 27V26.5H30V27V27.5H35.8235V27ZM30 27V26.5H24.1765V27V27.5H30V27ZM30 21.3975H29.5V27H30H30.5V21.3975H30Z" fill="white"/>
<path d="M10.926 43V35.7273H13.5183C14.0841 35.7273 14.5529 35.8303 14.9245 36.0362C15.2962 36.2422 15.5744 36.5239 15.7591 36.8814C15.9437 37.2365 16.036 37.6366 16.036 38.0817C16.036 38.5291 15.9425 38.9316 15.7555 39.2891C15.5708 39.6442 15.2915 39.9259 14.9174 40.1342C14.5458 40.3402 14.0782 40.4432 13.5147 40.4432H11.7321V39.5128H13.4153C13.7728 39.5128 14.0628 39.4512 14.2853 39.3281C14.5079 39.2027 14.6712 39.0322 14.7754 38.8168C14.8796 38.6013 14.9316 38.3563 14.9316 38.0817C14.9316 37.8071 14.8796 37.5632 14.7754 37.3501C14.6712 37.1371 14.5067 36.9702 14.2818 36.8494C14.0592 36.7287 13.7657 36.6683 13.4011 36.6683H12.0233V43H10.926ZM19.5197 43.1101C18.9823 43.1101 18.5195 42.9953 18.1312 42.7656C17.7453 42.5336 17.447 42.2081 17.2363 41.7891C17.028 41.3677 16.9238 40.8741 16.9238 40.3082C16.9238 39.7495 17.028 39.2571 17.2363 38.831C17.447 38.4048 17.7406 38.0722 18.117 37.8331C18.4958 37.594 18.9385 37.4744 19.4451 37.4744C19.7529 37.4744 20.0512 37.5253 20.34 37.6271C20.6288 37.7289 20.8881 37.8887 21.1177 38.1065C21.3474 38.3243 21.5285 38.6072 21.661 38.9553C21.7936 39.3009 21.8599 39.7211 21.8599 40.2159V40.5923H17.524V39.7969H20.8194C20.8194 39.5175 20.7626 39.2701 20.649 39.0547C20.5353 38.8369 20.3755 38.6652 20.1696 38.5398C19.966 38.4143 19.7269 38.3516 19.4522 38.3516C19.1539 38.3516 18.8935 38.425 18.671 38.5717C18.4508 38.7161 18.2804 38.9055 18.1596 39.1399C18.0413 39.3719 17.9821 39.6241 17.9821 39.8963V40.5178C17.9821 40.8823 18.046 41.1925 18.1738 41.4482C18.304 41.7038 18.4851 41.8991 18.7172 42.0341C18.9492 42.1667 19.2202 42.233 19.5304 42.233C19.7316 42.233 19.9151 42.2045 20.0808 42.1477C20.2465 42.0885 20.3897 42.0009 20.5105 41.8849C20.6312 41.7689 20.7235 41.6257 20.7875 41.4553L21.7924 41.6364C21.7119 41.9323 21.5675 42.1915 21.3592 42.4141C21.1532 42.6342 20.894 42.8059 20.5815 42.929C20.2714 43.0497 19.9174 43.1101 19.5197 43.1101ZM24.0785 41.5121L26.4826 37.5455H27.6261V43H26.5856V39.0298L24.1921 43H23.038V37.5455H24.0785V41.5121ZM26.0281 35.6989H26.9016C26.9016 36.099 26.7596 36.4245 26.4755 36.6754C26.1938 36.924 25.8126 37.0483 25.332 37.0483C24.8538 37.0483 24.4738 36.924 24.1921 36.6754C23.9104 36.4245 23.7695 36.099 23.7695 35.6989H24.6396C24.6396 35.8764 24.6916 36.0339 24.7958 36.1712C24.9 36.3061 25.0787 36.3736 25.332 36.3736C25.5806 36.3736 25.7582 36.3061 25.8647 36.1712C25.9736 36.0362 26.0281 35.8788 26.0281 35.6989ZM28.3771 38.4616V37.5455H32.9794V38.4616H31.2003V43H30.1634V38.4616H28.3771ZM35.1429 41.5121L37.5471 37.5455H38.6905V43H37.65V39.0298L35.2566 43H34.1025V37.5455H35.1429V41.5121ZM43.8148 39.8146V40.7344H40.8603V39.8146H43.8148ZM41.1586 37.5455V43H40.1181V37.5455H41.1586ZM44.557 37.5455V43H43.5201V37.5455H44.557ZM49.4647 37.5455V38.4616H47.025V43H45.9775V37.5455H49.4647Z" fill="white"/>
</svg>
