<svg width="60" height="50" viewBox="0 0 60 50" fill="none" xmlns="http://www.w3.org/2000/svg">
<rect width="60" height="50" rx="10" fill="#2A2C45" fill-opacity="0.3"/>
<path d="M25.5 12.5556L25.5 11.4444C25.5 8.98985 27.5147 7 30 7C32.4853 7 34.5 8.98985 34.5 11.4444V12.5556M25.5 12.5556L34.5 12.5556M25.5 12.5556C23.3787 12.5556 22.318 12.5556 21.659 13.2064C21 13.8573 21 14.9049 21 17V18.1111C21 22.3014 21 24.3965 22.318 25.6983C23.636 27 25.7574 27 30 27C34.2426 27 36.364 27 37.682 25.6983C39 24.3965 39 22.3014 39 18.1111V17C39 14.9049 39 13.8573 38.341 13.2064C37.682 12.5556 36.6213 12.5556 34.5 12.5556M33.375 19.2222V17M26.625 19.2222V17" stroke="#68CEF6" stroke-linecap="round"/>
<path d="M9.97869 36.7273H11.3104L13.6257 42.3807H13.7109L16.0263 36.7273H17.358V44H16.3139V38.7372H16.2464L14.1016 43.9893H13.2351L11.0902 38.7337H11.0227V44H9.97869V36.7273ZM20.4554 44.1207C20.1098 44.1207 19.7973 44.0568 19.5179 43.929C19.2386 43.7988 19.0172 43.6106 18.8539 43.3643C18.6929 43.1181 18.6124 42.8163 18.6124 42.4588C18.6124 42.151 18.6716 41.8977 18.79 41.6989C18.9083 41.5 19.0681 41.3426 19.2694 41.2266C19.4706 41.1106 19.6955 41.023 19.9441 40.9638C20.1926 40.9046 20.446 40.8596 20.704 40.8288C21.0307 40.791 21.2959 40.7602 21.4995 40.7365C21.7031 40.7105 21.851 40.669 21.9434 40.6122C22.0357 40.5554 22.0819 40.4631 22.0819 40.3352V40.3104C22.0819 40.0002 21.9943 39.7599 21.8191 39.5895C21.6462 39.419 21.3882 39.3338 21.0449 39.3338C20.6874 39.3338 20.4057 39.4131 20.1998 39.5717C19.9962 39.728 19.8553 39.902 19.7772 40.0938L18.7793 39.8665C18.8977 39.535 19.0705 39.2675 19.2978 39.0639C19.5274 38.858 19.7914 38.7088 20.0897 38.6165C20.388 38.5218 20.7016 38.4744 21.0307 38.4744C21.2485 38.4744 21.4793 38.5005 21.7232 38.5526C21.9694 38.6023 22.199 38.6946 22.4121 38.8295C22.6275 38.9645 22.8039 39.1574 22.9412 39.4084C23.0785 39.657 23.1472 39.9801 23.1472 40.3778V44H22.1103V43.2543H22.0676C21.999 43.3916 21.896 43.5265 21.7587 43.6591C21.6214 43.7917 21.445 43.9018 21.2296 43.9893C21.0141 44.0769 20.7561 44.1207 20.4554 44.1207ZM20.6863 43.2685C20.9798 43.2685 21.2308 43.2105 21.4391 43.0945C21.6498 42.9785 21.8096 42.8269 21.9185 42.6399C22.0298 42.4505 22.0854 42.2481 22.0854 42.0327V41.3295C22.0475 41.3674 21.9741 41.4029 21.8652 41.4361C21.7587 41.4669 21.6368 41.4941 21.4995 41.5178C21.3622 41.5391 21.2284 41.5592 21.0982 41.5781C20.968 41.5947 20.8591 41.6089 20.7715 41.6207C20.5655 41.6468 20.3773 41.6906 20.2069 41.7521C20.0388 41.8137 19.9038 41.9025 19.802 42.0185C19.7026 42.1321 19.6529 42.2836 19.6529 42.473C19.6529 42.7358 19.7499 42.9347 19.9441 43.0696C20.1382 43.2022 20.3856 43.2685 20.6863 43.2685ZM28.0487 38.5455V39.4616H25.609V44H24.5614V38.5455H28.0487ZM30.5043 44.1207C30.1586 44.1207 29.8461 44.0568 29.5668 43.929C29.2874 43.7988 29.0661 43.6106 28.9027 43.3643C28.7417 43.1181 28.6612 42.8163 28.6612 42.4588C28.6612 42.151 28.7204 41.8977 28.8388 41.6989C28.9571 41.5 29.117 41.3426 29.3182 41.2266C29.5194 41.1106 29.7443 41.023 29.9929 40.9638C30.2415 40.9046 30.4948 40.8596 30.7528 40.8288C31.0795 40.791 31.3447 40.7602 31.5483 40.7365C31.7519 40.7105 31.8999 40.669 31.9922 40.6122C32.0845 40.5554 32.1307 40.4631 32.1307 40.3352V40.3104C32.1307 40.0002 32.0431 39.7599 31.8679 39.5895C31.6951 39.419 31.437 39.3338 31.0938 39.3338C30.7363 39.3338 30.4545 39.4131 30.2486 39.5717C30.045 39.728 29.9041 39.902 29.826 40.0938L28.8281 39.8665C28.9465 39.535 29.1193 39.2675 29.3466 39.0639C29.5762 38.858 29.8402 38.7088 30.1385 38.6165C30.4368 38.5218 30.7505 38.4744 31.0795 38.4744C31.2973 38.4744 31.5282 38.5005 31.772 38.5526C32.0182 38.6023 32.2479 38.6946 32.4609 38.8295C32.6764 38.9645 32.8527 39.1574 32.9901 39.4084C33.1274 39.657 33.196 39.9801 33.196 40.3778V44H32.1591V43.2543H32.1165C32.0478 43.3916 31.9448 43.5265 31.8075 43.6591C31.6702 43.7917 31.4938 43.9018 31.2784 43.9893C31.063 44.0769 30.8049 44.1207 30.5043 44.1207ZM30.7351 43.2685C31.0286 43.2685 31.2796 43.2105 31.4879 43.0945C31.6986 42.9785 31.8584 42.8269 31.9673 42.6399C32.0786 42.4505 32.1342 42.2481 32.1342 42.0327V41.3295C32.0964 41.3674 32.023 41.4029 31.9141 41.4361C31.8075 41.4669 31.6856 41.4941 31.5483 41.5178C31.411 41.5391 31.2772 41.5592 31.147 41.5781C31.0168 41.5947 30.9079 41.6089 30.8203 41.6207C30.6143 41.6468 30.4261 41.6906 30.2557 41.7521C30.0876 41.8137 29.9527 41.9025 29.8509 42.0185C29.7514 42.1321 29.7017 42.2836 29.7017 42.473C29.7017 42.7358 29.7988 42.9347 29.9929 43.0696C30.187 43.2022 30.4344 43.2685 30.7351 43.2685ZM34.2871 42.5582H35.3738C35.388 42.7808 35.4886 42.9524 35.6756 43.0732C35.865 43.1939 36.11 43.2543 36.4107 43.2543C36.7161 43.2543 36.9765 43.1892 37.1919 43.0589C37.4074 42.9264 37.5151 42.7216 37.5151 42.4446C37.5151 42.2789 37.4737 42.1345 37.3908 42.0114C37.3103 41.8859 37.1955 41.7888 37.0463 41.7202C36.8996 41.6515 36.7256 41.6172 36.5243 41.6172H35.6365V40.7827H36.5243C36.825 40.7827 37.0499 40.714 37.199 40.5767C37.3482 40.4394 37.4228 40.2678 37.4228 40.0618C37.4228 39.8393 37.3423 39.6605 37.1813 39.5256C37.0227 39.3883 36.8013 39.3196 36.5172 39.3196C36.2284 39.3196 35.9881 39.3847 35.7963 39.5149C35.6046 39.6428 35.504 39.8085 35.4945 40.0121H34.4221C34.4292 39.7067 34.5215 39.4392 34.699 39.2095C34.879 38.9775 35.1204 38.7976 35.4235 38.6697C35.7289 38.5395 36.0757 38.4744 36.464 38.4744C36.8688 38.4744 37.2192 38.5395 37.5151 38.6697C37.811 38.8 38.0395 38.9799 38.2005 39.2095C38.3638 39.4392 38.4455 39.7031 38.4455 40.0014C38.4455 40.3021 38.3555 40.5483 38.1756 40.7401C37.998 40.9295 37.766 41.0656 37.4796 41.1484V41.2053C37.6903 41.2195 37.8773 41.2834 38.0407 41.397C38.204 41.5107 38.3319 41.661 38.4242 41.848C38.5165 42.035 38.5627 42.2469 38.5627 42.4837C38.5627 42.8175 38.4703 43.1063 38.2857 43.3501C38.1034 43.594 37.8501 43.7822 37.5257 43.9148C37.2038 44.045 36.8356 44.1101 36.4213 44.1101C36.0189 44.1101 35.6578 44.0473 35.3382 43.9219C35.021 43.794 34.7689 43.6141 34.5819 43.3821C34.3972 43.1501 34.2989 42.8755 34.2871 42.5582ZM40.6996 42.5121L43.1037 38.5455H44.2472V44H43.2067V40.0298L40.8132 44H39.6591V38.5455H40.6996V42.5121ZM49.3714 40.8146V41.7344H46.4169V40.8146H49.3714ZM46.7152 38.5455V44H45.6747V38.5455H46.7152ZM50.1136 38.5455V44H49.0767V38.5455H50.1136Z" fill="#68CEF6"/>
</svg>
