<svg width="698" height="662" viewBox="0 0 698 662" fill="none" xmlns="http://www.w3.org/2000/svg">
<path fill-rule="evenodd" clip-rule="evenodd" d="M217.175 106.177C218.942 107.181 220.722 108.193 222.502 109.235C223.54 109.831 224.581 110.452 225.615 111.07C229.213 113.18 232.816 115.35 236.439 117.554C237.194 118.017 237.948 118.484 238.71 118.934C240.397 119.985 242.1 121.058 243.804 122.125C245.054 122.906 246.307 123.682 247.545 124.48C249.197 125.535 250.867 126.59 252.507 127.662C253.847 128.524 255.174 129.381 256.5 130.26C258.119 131.302 259.733 132.365 261.352 133.433C262.818 134.402 264.297 135.406 265.771 136.4C268.246 138.051 270.725 139.754 273.217 141.457C274.946 142.64 276.679 143.832 278.416 145.046C279.916 146.088 281.412 147.151 282.904 148.211C284.455 149.3 285.998 150.393 287.549 151.504C289.053 152.589 290.549 153.665 292.049 154.746C293.66 155.912 295.273 157.104 296.888 158.288C298.316 159.33 299.736 160.372 301.16 161.431C303.3 163.001 305.422 164.617 307.558 166.234C309.262 167.52 310.965 168.811 312.681 170.123C314.77 171.714 316.856 173.322 318.945 174.947C320.284 175.968 321.618 177.031 322.957 178.091C324.741 179.489 326.517 180.903 328.309 182.314C329.669 183.395 331.017 184.48 332.365 185.556C334.263 187.074 336.161 188.614 338.047 190.166C339.268 191.14 340.463 192.117 341.671 193.108C344.112 195.106 346.562 197.143 348.986 199.167C351.414 197.147 353.829 195.145 356.244 193.168C357.515 192.109 358.799 191.075 360.083 190.037C361.905 188.541 363.707 187.079 365.529 185.625C366.944 184.489 368.347 183.369 369.758 182.241C371.474 180.886 373.178 179.536 374.894 178.189C376.289 177.092 377.695 175.98 379.097 174.895C381.042 173.373 382.983 171.907 384.911 170.41C386.919 168.879 388.911 167.366 390.895 165.869C392.852 164.394 394.802 162.923 396.743 161.486C398.243 160.367 399.73 159.278 401.217 158.185C402.764 157.053 404.302 155.929 405.849 154.819C407.4 153.678 408.956 152.567 410.507 151.452C411.986 150.388 413.461 149.346 414.94 148.309C416.495 147.198 418.054 146.105 419.609 145.015C421.152 143.93 422.694 142.871 424.257 141.803C427.02 139.904 429.766 138.043 432.507 136.194C433.872 135.272 435.215 134.368 436.563 133.463C438.245 132.361 439.92 131.272 441.577 130.166C442.852 129.351 444.115 128.527 445.377 127.717C447.094 126.611 448.792 125.517 450.487 124.436C451.678 123.677 452.853 122.953 454.026 122.215C455.794 121.104 457.552 119.994 459.31 118.914C459.776 118.626 460.23 118.36 460.679 118.073C464.65 115.637 468.596 113.274 472.533 110.967C473.499 110.392 474.464 109.827 475.421 109.265C477.248 108.193 479.057 107.159 480.884 106.13C481.744 105.637 482.61 105.14 483.483 104.664C437.848 63.8272 392.45 29.3544 348.986 2C305.521 29.3544 260.131 63.8272 214.488 104.664C215.382 105.144 216.281 105.662 217.175 106.177Z" stroke="#00A0E3" stroke-opacity="0.5" stroke-width="2"/>
<path fill-rule="evenodd" clip-rule="evenodd" d="M593.601 222.13C591.745 223.155 589.868 224.197 588.003 225.256C587.045 225.792 586.071 226.333 585.113 226.877C583.27 227.937 581.414 229 579.571 230.063C578.643 230.599 577.728 231.157 576.808 231.697C572.689 234.112 568.548 236.594 564.395 239.146C564.103 239.33 563.803 239.506 563.498 239.686C561.722 240.779 559.929 241.916 558.136 243.031C556.988 243.756 555.828 244.476 554.675 245.214C552.95 246.294 551.247 247.396 549.522 248.511C548.28 249.313 547.038 250.128 545.779 250.942C544.097 252.049 542.403 253.147 540.721 254.279C539.403 255.137 538.089 256.032 536.771 256.911C533.949 258.824 531.096 260.758 528.24 262.718C526.761 263.734 525.274 264.755 523.795 265.784C522.223 266.882 520.633 268.005 519.061 269.12C517.603 270.154 516.151 271.179 514.684 272.229C513.121 273.34 511.557 274.48 510.002 275.608C508.472 276.71 506.951 277.829 505.421 278.949C503.917 280.055 502.42 281.157 500.907 282.285C498.966 283.721 497.027 285.179 495.077 286.65C493.09 288.155 491.094 289.665 489.098 291.196C487.149 292.675 485.216 294.176 483.267 295.681C481.86 296.77 480.457 297.881 479.059 298.974C477.343 300.321 475.639 301.668 473.936 303.031C472.512 304.155 471.096 305.291 469.685 306.419C468.282 307.547 466.867 308.691 465.469 309.84C468.35 312.915 471.215 316.016 474.096 319.146C474.99 320.128 475.89 321.114 476.779 322.096C479.017 324.545 481.271 327.019 483.5 329.493C484.572 330.677 485.628 331.869 486.691 333.044C488.874 335.484 491.059 337.954 493.25 340.42C494.199 341.5 495.149 342.569 496.099 343.653C499.196 347.178 502.281 350.707 505.353 354.284C508.43 357.847 511.476 361.419 514.511 365C515.451 366.11 516.384 367.226 517.325 368.349C519.439 370.858 521.553 373.379 523.646 375.905C524.684 377.148 525.706 378.4 526.732 379.648C528.855 382.217 530.97 384.802 533.072 387.384C533.936 388.439 534.809 389.502 535.661 390.566C538.572 394.146 541.453 397.744 544.31 401.346C544.721 401.865 545.131 402.384 545.538 402.89C548 406.003 550.424 409.108 552.853 412.217C553.806 413.422 554.729 414.636 555.67 415.849C557.59 418.323 559.497 420.802 561.382 423.285C562.37 424.558 563.344 425.845 564.319 427.127C565.539 428.723 566.756 430.33 567.964 431.938C568.032 431.878 568.091 431.832 568.167 431.776C570.091 430.211 572.018 428.658 573.938 427.106C575.264 426.034 576.604 424.979 577.939 423.916C579.757 422.462 581.566 421.038 583.388 419.606C584.693 418.576 585.999 417.556 587.3 416.539C589.469 414.858 591.627 413.186 593.797 411.539C595.352 410.351 596.902 409.168 598.453 407.993C600.699 406.308 602.927 404.627 605.152 402.972C606.542 401.947 607.911 400.93 609.305 399.918C610.966 398.688 612.628 397.483 614.281 396.287C615.756 395.223 617.222 394.164 618.679 393.122C620.285 391.968 621.87 390.849 623.455 389.717C624.917 388.688 626.365 387.65 627.823 386.629C629.679 385.347 631.523 384.086 633.367 382.813C635.689 381.222 638.006 379.648 640.316 378.096C641.867 377.049 643.423 375.999 644.974 374.978C646.55 373.923 648.122 372.903 649.698 371.873C651.075 370.964 652.457 370.077 653.83 369.193C655.444 368.138 657.055 367.105 658.67 366.084C659.988 365.253 661.284 364.433 662.598 363.619C664.238 362.572 665.886 361.548 667.526 360.536C668.551 359.905 669.564 359.292 670.59 358.671C673.891 356.664 677.179 354.683 680.459 352.762C681.59 352.084 682.709 351.424 683.832 350.768C685.57 349.764 687.294 348.786 689.023 347.8C690.125 347.161 691.231 346.531 692.346 345.909C693.553 345.219 694.783 344.528 695.999 343.859C669.671 306.774 640.766 269.772 609.501 233.506C605.564 228.922 601.602 224.411 597.649 219.926C597.085 220.23 596.533 220.527 595.973 220.831C595.177 221.256 594.39 221.688 593.601 222.13Z" stroke="#00A0E3" stroke-opacity="0.5" stroke-width="2"/>
<path fill-rule="evenodd" clip-rule="evenodd" d="M350.651 200.542C351.515 201.271 352.388 202.022 353.261 202.759C355.52 204.659 357.783 206.58 360.033 208.514C361.253 209.56 362.46 210.597 363.668 211.644C365.656 213.346 367.618 215.066 369.601 216.798C370.813 217.861 372.03 218.925 373.237 220.006C375.416 221.91 377.584 223.831 379.749 225.786C380.724 226.648 381.682 227.502 382.661 228.385C385.729 231.147 388.801 233.93 391.865 236.76C392.708 237.523 393.556 238.316 394.399 239.097C396.708 241.228 399.014 243.381 401.323 245.542C402.467 246.614 403.586 247.682 404.73 248.75C406.823 250.714 408.918 252.699 410.998 254.71C412.121 255.773 413.232 256.837 414.342 257.922C416.783 260.255 419.205 262.622 421.642 264.989C422.341 265.684 423.054 266.378 423.766 267.077C426.885 270.135 429.991 273.223 433.118 276.34C433.962 277.198 434.808 278.055 435.664 278.917C437.969 281.242 440.28 283.578 442.598 285.945C443.67 287.034 444.747 288.141 445.814 289.247C447.993 291.482 450.17 293.733 452.34 295.997C453.353 297.061 454.365 298.106 455.382 299.166C458.098 302.013 460.828 304.895 463.545 307.798C463.956 308.236 464.362 308.651 464.764 309.089C465.002 309.337 465.239 309.586 465.476 309.852C466.879 308.698 468.29 307.562 469.692 306.43C471.108 305.303 472.515 304.166 473.943 303.043C475.647 301.67 477.35 300.332 479.066 298.986C480.469 297.892 481.867 296.786 483.274 295.692C485.223 294.183 487.157 292.695 489.106 291.207C491.102 289.676 493.097 288.166 495.085 286.661C497.034 285.19 498.974 283.732 500.915 282.296C502.428 281.164 503.924 280.066 505.429 278.96C506.959 277.841 508.479 276.73 510.009 275.619C511.564 274.483 513.124 273.355 514.692 272.24C516.158 271.186 517.611 270.169 519.069 269.132C520.645 268.017 522.231 266.893 523.803 265.796C525.282 264.758 526.768 263.746 528.247 262.729C531.103 260.761 533.956 258.835 536.779 256.923C538.097 256.039 539.41 255.148 540.728 254.29C542.411 253.154 544.1 252.06 545.787 250.954C547.05 250.139 548.288 249.333 549.53 248.522C551.254 247.399 552.958 246.31 554.683 245.225C555.839 244.479 556.991 243.767 558.144 243.042C559.936 241.919 561.73 240.791 563.505 239.697C563.81 239.513 564.11 239.341 564.403 239.157C568.568 236.601 572.697 234.127 576.816 231.709C577.735 231.164 578.65 230.615 579.578 230.075C581.422 229.007 583.277 227.948 585.12 226.889C586.082 226.34 587.053 225.812 588.011 225.267C589.879 224.208 591.753 223.171 593.609 222.141C594.397 221.696 595.184 221.267 595.981 220.842C596.544 220.534 597.092 220.229 597.643 219.937C560.089 177.403 521.714 138.835 483.521 104.684C482.661 105.16 481.782 105.648 480.922 106.15C479.1 107.175 477.286 108.213 475.459 109.285C474.502 109.842 473.533 110.412 472.571 110.987C468.638 113.294 464.688 115.657 460.717 118.093C460.268 118.376 459.814 118.655 459.348 118.933C457.594 120.014 455.832 121.129 454.065 122.235C452.891 122.968 451.712 123.701 450.526 124.456C448.835 125.537 447.128 126.63 445.416 127.737C444.153 128.547 442.89 129.371 441.615 130.186C439.958 131.292 438.283 132.385 436.601 133.483C435.253 134.388 433.906 135.297 432.546 136.214C429.808 138.058 427.058 139.928 424.295 141.823C422.732 142.887 421.19 143.95 419.647 145.035C418.092 146.125 416.533 147.226 414.978 148.328C413.503 149.366 412.024 150.413 410.545 151.472C408.994 152.582 407.438 153.702 405.887 154.839C404.344 155.949 402.802 157.073 401.255 158.205C399.772 159.294 398.281 160.391 396.781 161.506C394.844 162.934 392.89 164.414 390.933 165.889C388.95 167.386 386.953 168.899 384.949 170.43C383.021 171.923 381.076 173.402 379.135 174.915C377.733 175.987 376.322 177.112 374.932 178.209C373.22 179.556 371.512 180.906 369.796 182.261C368.385 183.385 366.982 184.509 365.567 185.645C363.745 187.094 361.943 188.573 360.121 190.057C358.837 191.091 357.553 192.129 356.282 193.188C353.867 195.16 351.451 197.184 349.035 199.204C349.561 199.65 350.113 200.088 350.651 200.542Z" stroke="#00A0E3" stroke-opacity="0.5" stroke-width="2"/>
<path fill-rule="evenodd" clip-rule="evenodd" d="M8.97879 347.8C10.7035 348.778 12.4201 349.768 14.1533 350.768C15.2932 351.424 16.4202 352.101 17.5516 352.762C20.8019 354.683 24.0557 356.625 27.3229 358.614C28.3738 359.262 29.4178 359.892 30.473 360.536C32.1045 361.548 33.7436 362.581 35.3793 363.619C36.6972 364.433 38.0152 365.253 39.3289 366.084C40.9392 367.101 42.5538 368.143 44.164 369.181C45.5328 370.077 46.9223 370.969 48.3123 371.873C49.8802 372.903 51.4403 373.932 53.0166 374.97C54.5676 375.999 56.1353 377.049 57.6863 378.096C60.0042 379.652 62.314 381.23 64.6319 382.813C66.4795 384.086 68.3223 385.347 70.1656 386.629C71.6234 387.65 73.0763 388.688 74.534 389.717C76.1189 390.845 77.7264 391.968 79.3112 393.122C80.7817 394.164 82.2423 395.223 83.7127 396.287C85.3738 397.483 87.0352 398.692 88.6836 399.918C90.0778 400.93 91.4553 401.947 92.8368 402.972C95.0827 404.627 97.3239 406.325 99.5656 408.023C101.112 409.168 102.63 410.335 104.172 411.518C106.342 413.178 108.521 414.845 110.686 416.539C111.995 417.551 113.296 418.576 114.601 419.606C116.423 421.038 118.246 422.466 120.06 423.916C121.386 424.979 122.725 426.034 124.051 427.106C125.975 428.654 127.899 430.215 129.831 431.776C129.895 431.827 129.959 431.883 130.027 431.938C131.222 430.347 132.441 428.756 133.648 427.157C134.632 425.857 135.625 424.554 136.625 423.263C138.502 420.776 140.391 418.341 142.297 415.875C143.251 414.649 144.189 413.431 145.146 412.204C147.545 409.13 149.959 406.064 152.383 402.985C152.824 402.44 153.257 401.878 153.689 401.334C156.55 397.727 159.427 394.151 162.33 390.566C163.194 389.502 164.066 388.435 164.939 387.367C167.032 384.786 169.134 382.221 171.249 379.657C172.283 378.4 173.309 377.148 174.356 375.905C176.449 373.379 178.551 370.874 180.661 368.366C181.593 367.229 182.538 366.115 183.491 365C186.513 361.415 189.565 357.838 192.637 354.284C195.714 350.711 198.799 347.178 201.884 343.662C202.854 342.568 203.811 341.479 204.769 340.385C206.938 337.928 209.105 335.502 211.274 333.075C212.355 331.87 213.438 330.677 214.519 329.472C216.735 327.011 218.94 324.571 221.165 322.152C222.08 321.145 222.999 320.128 223.914 319.125C226.787 316.007 229.664 312.911 232.528 309.84C231.1 308.683 229.677 307.526 228.258 306.381C226.885 305.266 225.5 304.176 224.131 303.087C222.364 301.667 220.612 300.296 218.854 298.915C217.498 297.838 216.13 296.774 214.77 295.72C212.732 294.12 210.694 292.564 208.664 291.012C206.854 289.627 205.04 288.25 203.226 286.878C201.167 285.325 199.107 283.773 197.06 282.246C195.581 281.153 194.124 280.089 192.67 279.017C191.094 277.86 189.522 276.718 187.941 275.569C186.415 274.463 184.89 273.365 183.361 272.276C181.852 271.174 180.343 270.124 178.83 269.052C177.3 267.958 175.758 266.881 174.237 265.809C172.626 264.682 171.025 263.588 169.415 262.482C166.745 260.647 164.075 258.824 161.41 257.036C160.024 256.101 158.63 255.166 157.24 254.257C155.579 253.142 153.926 252.071 152.277 250.994C150.993 250.141 149.709 249.304 148.412 248.477C146.73 247.387 145.039 246.303 143.357 245.235C142.162 244.468 140.964 243.729 139.765 242.979C138.019 241.886 136.272 240.78 134.526 239.712C134.03 239.394 133.543 239.116 133.056 238.807C129.119 236.393 125.208 234.052 121.31 231.77C120.344 231.183 119.368 230.608 118.398 230.059C116.58 228.996 114.754 227.954 112.941 226.907C111.953 226.337 110.949 225.775 109.953 225.217C108.114 224.18 106.267 223.159 104.419 222.139C103.593 221.684 102.757 221.238 101.939 220.783C101.414 220.5 100.881 220.217 100.355 219.926C96.3973 224.411 92.4392 228.927 88.4982 233.506C57.2248 269.772 28.3282 306.774 2 343.859C3.20771 344.523 4.42456 345.227 5.64499 345.909C6.75948 346.531 7.86854 347.17 8.97879 347.8Z" stroke="#00A0E3" stroke-opacity="0.5" stroke-width="2"/>
<path fill-rule="evenodd" clip-rule="evenodd" d="M451.552 536.664C450.595 535.425 449.642 534.198 448.672 532.955C446.29 529.893 443.892 526.84 441.476 523.791C441.023 523.225 440.594 522.659 440.149 522.093C437.28 518.495 434.404 514.923 431.51 511.347C430.641 510.266 429.751 509.194 428.891 508.122C426.798 505.553 424.694 502.993 422.593 500.429C421.554 499.168 420.509 497.92 419.487 496.677C417.394 494.151 415.278 491.643 413.172 489.121C412.227 488.006 411.288 486.883 410.352 485.768C407.322 482.187 404.265 478.607 401.201 475.043C398.12 471.467 395.031 467.946 391.946 464.438C390.989 463.345 390.031 462.26 389.069 461.179C386.904 458.714 384.722 456.269 382.536 453.829C381.468 452.624 380.395 451.445 379.339 450.253C377.11 447.787 374.874 445.33 372.645 442.89C371.73 441.887 370.831 440.896 369.916 439.905C366.818 436.535 363.712 433.173 360.606 429.854C360.178 429.403 359.754 428.962 359.322 428.499C356.639 425.626 353.944 422.787 351.232 419.944C350.491 419.168 349.745 418.391 348.991 417.606C348.245 418.404 347.482 419.184 346.723 419.965C344.083 422.761 341.417 425.565 338.764 428.391C338.303 428.885 337.837 429.378 337.362 429.876C334.269 433.19 331.171 436.526 328.078 439.901C327.158 440.896 326.234 441.921 325.302 442.933C323.086 445.351 320.874 447.796 318.662 450.253C317.586 451.445 316.505 452.637 315.446 453.833C313.259 456.269 311.089 458.714 308.911 461.179C307.949 462.26 306.991 463.345 306.042 464.438C302.949 467.946 299.86 471.471 296.787 475.043C293.715 478.607 290.673 482.187 287.63 485.768C286.698 486.878 285.766 488.01 284.829 489.108C282.702 491.642 280.587 494.16 278.485 496.698C277.459 497.925 276.442 499.164 275.434 500.382C273.285 502.976 271.163 505.579 269.044 508.182C268.197 509.224 267.345 510.27 266.489 511.325C263.577 514.923 260.688 518.512 257.831 522.123C257.42 522.624 257.035 523.144 256.62 523.645C254.162 526.759 251.712 529.871 249.288 532.997C248.339 534.198 247.419 535.395 246.483 536.595C245.991 537.239 245.5 537.899 244.996 538.529C245.695 539.258 246.39 539.983 247.077 540.712C249.797 543.563 252.513 546.437 255.242 549.323C255.641 549.76 256.048 550.185 256.459 550.639C259.57 553.954 262.684 557.311 265.79 560.686C266.684 561.664 267.591 562.667 268.485 563.658C270.731 566.106 272.977 568.581 275.205 571.047C276.278 572.222 277.321 573.414 278.389 574.589C280.579 577.037 282.757 579.508 284.944 581.969C285.906 583.05 286.855 584.122 287.804 585.211C290.902 588.723 293.987 592.265 297.059 595.828C300.131 599.388 303.173 602.955 306.203 606.536C307.152 607.663 308.102 608.787 309.038 609.923C311.157 612.432 313.259 614.941 315.348 617.466C316.374 618.693 317.413 619.937 318.434 621.197C320.561 623.758 322.675 626.339 324.764 628.929C325.641 629.979 326.501 631.056 327.366 632.115C330.264 635.7 333.146 639.289 336.007 642.887C336.447 643.436 336.867 643.985 337.299 644.53C339.74 647.6 342.151 650.674 344.545 653.753C345.494 654.971 346.456 656.211 347.405 657.433C347.935 658.11 348.461 658.791 348.991 659.495C349.521 658.791 350.058 658.11 350.597 657.419C351.55 656.193 352.482 654.971 353.435 653.753C355.851 650.662 358.266 647.587 360.715 644.499C361.135 643.959 361.555 643.432 361.978 642.891C364.822 639.289 367.724 635.704 370.614 632.115C371.479 631.051 372.352 629.979 373.216 628.929C375.318 626.339 377.433 623.758 379.556 621.197C380.586 619.937 381.603 618.693 382.642 617.466C384.735 614.941 386.828 612.432 388.939 609.923C389.892 608.787 390.828 607.668 391.786 606.536C394.811 602.955 397.862 599.392 400.935 595.828C404.007 592.265 407.093 588.723 410.178 585.211C411.127 584.118 412.088 583.05 413.033 581.969C415.228 579.499 417.402 577.041 419.593 574.589C420.661 573.409 421.717 572.222 422.785 571.047C425.009 568.572 427.251 566.106 429.497 563.658C430.391 562.654 431.297 561.664 432.2 560.686C435.31 557.307 438.412 553.954 441.531 550.639C441.934 550.18 442.341 549.76 442.748 549.323C445.468 546.432 448.184 543.563 450.905 540.712C451.604 539.983 452.295 539.258 452.986 538.529C452.515 537.916 452.035 537.286 451.552 536.664Z" stroke="#00A0E3" stroke-opacity="0.5" stroke-width="2"/>
<path fill-rule="evenodd" clip-rule="evenodd" d="M104.446 222.15C106.289 223.166 108.133 224.195 109.976 225.229C110.972 225.786 111.973 226.357 112.964 226.919C114.778 227.952 116.6 229.011 118.422 230.07C119.396 230.619 120.367 231.198 121.333 231.782C125.232 234.059 129.143 236.404 133.08 238.819C133.567 239.127 134.049 239.41 134.549 239.723C136.295 240.791 138.043 241.897 139.789 242.99C140.988 243.741 142.181 244.488 143.381 245.247C145.063 246.314 146.754 247.407 148.436 248.488C149.733 249.316 151.017 250.156 152.301 251.006C153.954 252.082 155.602 253.158 157.264 254.269C158.654 255.178 160.043 256.117 161.433 257.048C164.099 258.84 166.765 260.658 169.438 262.493C171.049 263.591 172.65 264.697 174.26 265.821C175.782 266.893 177.324 267.969 178.854 269.063C180.367 270.135 181.876 271.19 183.384 272.287C184.918 273.377 186.439 274.474 187.965 275.581C189.545 276.721 191.117 277.871 192.694 279.029C194.147 280.096 195.605 281.168 197.084 282.257C199.131 283.775 201.19 285.341 203.25 286.889C205.068 288.261 206.878 289.638 208.687 291.023C210.717 292.575 212.751 294.131 214.794 295.731C216.154 296.781 217.522 297.858 218.878 298.926C220.64 300.307 222.388 301.687 224.155 303.098C225.528 304.183 226.904 305.277 228.281 306.392C229.709 307.533 231.132 308.681 232.552 309.852C232.785 309.594 233.011 309.359 233.236 309.111C233.702 308.626 234.163 308.137 234.629 307.644C237.295 304.81 239.943 302.005 242.608 299.213C243.655 298.098 244.71 297.013 245.77 295.915C247.897 293.694 250.008 291.503 252.131 289.325C253.258 288.167 254.363 287.026 255.486 285.886C257.741 283.591 259.988 281.31 262.225 279.045C263.145 278.128 264.051 277.219 264.958 276.297C268.03 273.205 271.128 270.152 274.221 267.107C275.009 266.331 275.785 265.581 276.582 264.822C278.925 262.515 281.272 260.233 283.615 257.96C284.793 256.841 285.947 255.739 287.121 254.607C289.138 252.682 291.163 250.744 293.201 248.835C294.392 247.712 295.575 246.601 296.762 245.486C298.986 243.406 301.206 241.331 303.439 239.282C304.354 238.424 305.282 237.566 306.21 236.704C309.231 233.916 312.27 231.168 315.304 228.441C316.359 227.476 317.427 226.541 318.483 225.589C320.559 223.728 322.627 221.889 324.695 220.066C325.983 218.93 327.262 217.819 328.525 216.713C330.424 215.036 332.335 213.389 334.221 211.755C335.505 210.649 336.776 209.543 338.06 208.454C340.196 206.605 342.344 204.8 344.476 202.999C345.472 202.163 346.442 201.331 347.421 200.503C347.955 200.061 348.481 199.633 348.998 199.204C346.562 197.163 344.124 195.126 341.683 193.128C340.48 192.137 339.28 191.168 338.06 190.186C336.174 188.634 334.276 187.099 332.377 185.576C331.03 184.5 329.678 183.419 328.322 182.334C326.529 180.915 324.75 179.508 322.97 178.11C321.635 177.051 320.297 176.001 318.958 174.967C316.868 173.338 314.783 171.742 312.694 170.143C310.978 168.831 309.274 167.54 307.571 166.253C305.435 164.637 303.313 163.033 301.173 161.451C299.753 160.388 298.329 159.354 296.901 158.308C295.286 157.124 293.668 155.936 292.062 154.766C290.562 153.685 289.061 152.609 287.561 151.524C286.01 150.409 284.467 149.32 282.917 148.231C281.425 147.167 279.925 146.112 278.429 145.065C276.692 143.848 274.954 142.66 273.23 141.477C270.738 139.77 268.255 138.08 265.784 136.42C264.309 135.417 262.831 134.426 261.364 133.453C259.746 132.381 258.131 131.322 256.513 130.28C255.186 129.4 253.859 128.543 252.52 127.682C250.884 126.605 249.206 125.555 247.557 124.5C246.32 123.698 245.067 122.934 243.816 122.145C242.113 121.078 240.41 120.005 238.723 118.954C237.96 118.5 237.206 118.042 236.452 117.574C232.829 115.37 229.221 113.208 225.628 111.09C224.598 110.468 223.552 109.855 222.514 109.255C220.739 108.213 218.955 107.2 217.187 106.197C216.293 105.682 215.395 105.181 214.501 104.684C176.307 138.835 137.945 177.403 100.379 219.937C100.909 220.22 101.433 220.516 101.963 220.795C102.781 221.241 103.615 221.7 104.446 222.15Z" stroke="#00A0E3" stroke-opacity="0.5" stroke-width="2"/>
</svg>
