<svg width="20" height="20" viewBox="0 0 20 20" fill="none" xmlns="http://www.w3.org/2000/svg">
<path d="M10.0023 0C10.867 4.95841e-05 11.6956 0.168737 12.4564 0.474609C11.9724 0.961312 11.589 1.54745 11.3372 2.19922C10.9137 2.07036 10.4655 2.00004 10.0023 2C7.66531 2 5.70175 3.75743 5.44366 6.08008L5.19171 8.3457C5.18858 8.37389 5.18676 8.39076 5.18487 8.40723C5.03981 9.67131 4.62852 10.891 3.97784 11.9844C3.96946 11.9985 3.96098 12.0131 3.94659 12.0371L3.36847 13C3.09503 13.4557 2.92987 13.7334 2.83233 13.9404C2.82755 13.9506 2.82373 13.9606 2.81964 13.9697C2.82995 13.971 2.84111 13.9744 2.85284 13.9756C3.08056 13.9985 3.4036 14 3.93487 14H16.0696C16.601 14 16.924 13.9985 17.1517 13.9756C17.163 13.9744 17.1739 13.9709 17.1839 13.9697C17.1798 13.9608 17.1769 13.9505 17.1722 13.9404C17.0747 13.7334 16.9095 13.4557 16.636 13L16.0579 12.0371C16.0435 12.0131 16.035 11.9984 16.0267 11.9844C15.4562 11.0259 15.0695 9.97045 14.8851 8.87305C15.2443 8.95503 15.6182 9 16.0023 9C16.319 8.99998 16.6286 8.96847 16.929 8.91211C17.0906 9.63234 17.3663 10.3239 17.7454 10.9609C17.7516 10.9713 17.7576 10.9825 17.7728 11.0078L18.3509 11.9707C18.6019 12.3891 18.8312 12.7682 18.9817 13.0879C19.1298 13.4023 19.2874 13.8286 19.2112 14.3115C19.1359 14.7889 18.8903 15.2229 18.5198 15.5332C18.1449 15.847 17.6977 15.931 17.3519 15.9658C17.0003 16.0012 16.5574 16 16.0696 16H3.93487C3.44713 16 3.00425 16.0012 2.65265 15.9658C2.30683 15.931 1.8597 15.847 1.48468 15.5332C1.11411 15.2229 0.868613 14.7889 0.793271 14.3115C0.717094 13.8285 0.874671 13.4024 1.02276 13.0879C1.17336 12.7682 1.40261 12.3891 1.65362 11.9707L2.23175 11.0078C2.24693 10.9825 2.25289 10.9714 2.25909 10.9609C2.7651 10.1106 3.08568 9.16271 3.19854 8.17969C3.19993 8.1676 3.20112 8.15453 3.2044 8.125L3.45636 5.85938C3.82699 2.52387 6.64621 0 10.0023 0ZM14.9847 2.2793C15.8304 3.25673 16.396 4.48959 16.5482 5.85938L16.554 5.91992C16.3785 5.9703 16.1939 5.99996 16.0023 6C15.3153 6 14.709 5.65356 14.3489 5.12598C14.2675 4.88312 14.1668 4.64986 14.0482 4.42773C14.0181 4.2899 14.0023 4.14684 14.0023 4C14.0023 3.26714 14.3968 2.62759 14.9847 2.2793Z" fill="white"/>
<path d="M7.10222 15.6647C7.27315 16.6215 7.64978 17.467 8.17372 18.0701C8.69765 18.6731 9.3396 19 10 19C10.6604 19 11.3024 18.6731 11.8263 18.0701C12.3502 17.467 12.7269 16.6215 12.8978 15.6647" stroke="white" stroke-width="2" stroke-linecap="round"/>
<circle cx="16" cy="4" r="2.5" fill="white" stroke="white"/>
</svg>
