<svg width="16" height="16" viewBox="0 0 16 16" fill="none" xmlns="http://www.w3.org/2000/svg">
<path d="M7.82407 1.05587L1.33911 7.54084C0.779702 8.10024 0.5 8.37994 0.5 8.72751C0.5 9.07508 0.779701 9.35478 1.3391 9.91418L1.33911 9.91419L6.08581 14.6609C6.64521 15.2203 6.92492 15.5 7.27249 15.5C7.62006 15.5 7.89976 15.2203 8.45916 14.6609L14.9441 8.17593C15.255 7.86504 15.4105 7.70959 15.4714 7.5082C15.5324 7.30682 15.4893 7.09125 15.4031 6.66013L14.612 2.70454C14.5056 2.17276 14.4524 1.90687 14.2728 1.72722C14.0931 1.54758 13.8272 1.4944 13.2955 1.38804L9.33987 0.596924C8.90875 0.510699 8.69319 0.467586 8.4918 0.528562C8.29041 0.589538 8.13496 0.744983 7.82407 1.05587Z" stroke="#4A6484"/>
</svg>
