<svg width="30" height="30" viewBox="0 0 30 30" fill="none" xmlns="http://www.w3.org/2000/svg">
<path d="M11.875 6.25H22.5C23.8807 6.25 25 7.36929 25 8.75C25 10.1307 23.8807 11.25 22.5 11.25H11.875M18.125 18.75H7.5C6.11929 18.75 5 19.8693 5 21.25C5 22.6307 6.11929 23.75 7.5 23.75H18.125M8.75 12.5C6.67893 12.5 5 10.8211 5 8.75C5 6.67893 6.67893 5 8.75 5C10.8211 5 12.5 6.67893 12.5 8.75C12.5 10.8211 10.8211 12.5 8.75 12.5ZM21.25 25C23.3211 25 25 23.3211 25 21.25C25 19.1789 23.3211 17.5 21.25 17.5C19.1789 17.5 17.5 19.1789 17.5 21.25C17.5 23.3211 19.1789 25 21.25 25Z" stroke="#4A6484" stroke-linecap="round"/>
</svg>
