<svg width="40" height="40" viewBox="0 0 40 40" fill="none" xmlns="http://www.w3.org/2000/svg">
<path fill-rule="evenodd" clip-rule="evenodd" d="M15.2441 15.2441C15.5695 14.9186 16.0972 14.9186 16.4226 15.2441L20 18.8215L23.5774 15.2441C23.9028 14.9186 24.4305 14.9186 24.7559 15.2441C25.0814 15.5695 25.0814 16.0972 24.7559 16.4226L21.1785 20L24.7559 23.5774C25.0814 23.9028 25.0814 24.4305 24.7559 24.7559C24.4305 25.0814 23.9028 25.0814 23.5774 24.7559L20 21.1785L16.4226 24.7559C16.0972 25.0814 15.5695 25.0814 15.2441 24.7559C14.9186 24.4305 14.9186 23.9028 15.2441 23.5774L18.8215 20L15.2441 16.4226C14.9186 16.0972 14.9186 15.5695 15.2441 15.2441Z" fill="black"/>
</svg>
