<svg width="20" height="20" viewBox="0 0 20 20" fill="none" xmlns="http://www.w3.org/2000/svg">
<path d="M10 17.5L3.1797 8.97463C2.84718 8.55898 2.68092 8.35115 2.63625 8.1007C2.59159 7.85024 2.67575 7.59776 2.84407 7.09278L3.4633 5.23509C3.90332 3.91505 4.12332 3.25503 4.6471 2.87752C5.17087 2.5 5.86659 2.5 7.25804 2.5H12.742C14.1334 2.5 14.8291 2.5 15.3529 2.87752C15.8767 3.25503 16.0967 3.91505 16.5367 5.23509L17.1559 7.09278C17.3243 7.59776 17.4084 7.85024 17.3637 8.1007C17.3191 8.35115 17.1528 8.55898 16.8203 8.97463L10 17.5ZM10 17.5L13.2812 7.1875M10 17.5L6.71875 7.1875M17.0312 8.125L13.2812 7.1875M13.2812 7.1875L11.875 3.4375M13.2812 7.1875H6.71875M8.125 3.4375L6.71875 7.1875M6.71875 7.1875L2.96875 8.125" stroke="#4A6484" stroke-linecap="round"/>
</svg>
