<svg width="30" height="30" viewBox="0 0 30 30" fill="none" xmlns="http://www.w3.org/2000/svg">
<path d="M17.7705 5.65087L18.4903 4.95674L18.4903 4.95674L17.7705 5.65087ZM21.8724 9.90468L21.1525 10.5988L21.8724 9.90468ZM22.4184 10.5906L23.3471 10.2197V10.2197L22.4184 10.5906ZM21.8724 24.3491L21.1525 23.655H21.1525L21.8724 24.3491ZM11.7857 15.1111C11.2334 15.1111 10.7857 15.5588 10.7857 16.1111C10.7857 16.6634 11.2334 17.1111 11.7857 17.1111V16.1111V15.1111ZM18.2143 17.1111C18.7666 17.1111 19.2143 16.6634 19.2143 16.1111C19.2143 15.5588 18.7666 15.1111 18.2143 15.1111L18.2143 16.1111V17.1111ZM11.7857 19.5556C11.2334 19.5556 10.7857 20.0033 10.7857 20.5556C10.7857 21.1078 11.2334 21.5556 11.7857 21.5556V20.5556V19.5556ZM16.0714 21.5556C16.6237 21.5556 17.0714 21.1078 17.0714 20.5556C17.0714 20.0033 16.6237 19.5556 16.0714 19.5556V20.5556V21.5556ZM16.3852 11.3412L17.1051 10.6471L16.3852 11.3412ZM11.7857 5V6H16.2553V5V4H11.7857V5ZM18.2143 25V24H11.7857V25V26H18.2143V25ZM7.5 20.5556H8.5V9.44444H7.5H6.5V20.5556H7.5ZM22.5 11.476H21.5V20.5556H22.5H23.5V11.476H22.5ZM17.7705 5.65087L17.0506 6.34501L21.1525 10.5988L21.8724 9.90468L22.5922 9.21055L18.4903 4.95674L17.7705 5.65087ZM22.5 11.476H23.5C23.5 11.1012 23.5166 10.6441 23.3471 10.2197L22.4184 10.5906L21.4898 10.9615C21.4797 10.9362 21.4867 10.9341 21.4925 11.0127C21.4994 11.1069 21.5 11.2348 21.5 11.476H22.5ZM21.8724 9.90468L21.1525 10.5988C21.3174 10.7698 21.4028 10.8593 21.4607 10.9293C21.5079 10.9862 21.5002 10.9877 21.4898 10.9615L22.4184 10.5906L23.3471 10.2197C23.1761 9.79145 22.8473 9.47508 22.5922 9.21055L21.8724 9.90468ZM11.7857 25V24C10.7463 24 10.071 23.9977 9.57251 23.9282C9.10666 23.8633 8.94616 23.7573 8.84747 23.655L8.12763 24.3491L7.40778 25.0433C7.93672 25.5918 8.59512 25.8113 9.29633 25.9091C9.96493 26.0023 10.8048 26 11.7857 26V25ZM7.5 20.5556H6.5C6.5 21.5758 6.49802 22.4381 6.58675 23.1225C6.67874 23.8321 6.88376 24.4998 7.40778 25.0433L8.12763 24.3491L8.84747 23.655C8.74387 23.5475 8.63507 23.3661 8.57015 22.8654C8.50198 22.3395 8.5 21.6304 8.5 20.5556H7.5ZM18.2143 25V26C19.1952 26 20.0351 26.0023 20.7037 25.9091C21.4049 25.8113 22.0633 25.5918 22.5922 25.0433L21.8724 24.3491L21.1525 23.655C21.0538 23.7573 20.8933 23.8633 20.4275 23.9282C19.929 23.9977 19.2537 24 18.2143 24V25ZM22.5 20.5556H21.5C21.5 21.6304 21.498 22.3395 21.4298 22.8654C21.3649 23.3661 21.2561 23.5475 21.1525 23.655L21.8724 24.3491L22.5922 25.0433C23.1162 24.4998 23.3213 23.8321 23.4132 23.1225C23.502 22.4381 23.5 21.5758 23.5 20.5556H22.5ZM16.2553 5V6C16.4894 6 16.6081 6.00071 16.694 6.00748C16.7624 6.01287 16.7496 6.01853 16.7144 6.0034L17.1091 5.08458L17.5038 4.16576C17.0741 3.98119 16.6093 4 16.2553 4V5ZM17.7705 5.65087L18.4903 4.95674C18.2393 4.69646 17.9294 4.34858 17.5038 4.16576L17.1091 5.08458L16.7144 6.0034C16.6801 5.98866 16.6774 5.97682 16.7325 6.02583C16.7995 6.08557 16.8856 6.17382 17.0506 6.34501L17.7705 5.65087ZM11.7857 5V4C10.8048 4 9.96493 3.99772 9.29633 4.09094C8.59512 4.18871 7.93672 4.40821 7.40778 4.95674L8.12763 5.65087L8.84747 6.34501C8.94616 6.24266 9.10666 6.13673 9.57251 6.07178C10.071 6.00228 10.7463 6 11.7857 6V5ZM7.5 9.44444H8.5C8.5 8.36959 8.50198 7.66051 8.57015 7.13463C8.63507 6.63391 8.74387 6.45245 8.84747 6.34501L8.12763 5.65087L7.40778 4.95674C6.88376 5.50017 6.67874 6.16793 6.58675 6.87749C6.49802 7.5619 6.5 8.42416 6.5 9.44444H7.5ZM11.7857 16.1111V17.1111L18.2143 17.1111V16.1111L18.2143 15.1111L11.7857 15.1111V16.1111ZM11.7857 20.5556V21.5556H16.0714V20.5556V19.5556H11.7857V20.5556ZM16.0714 5H15.0714V9.44445H16.0714H17.0714V5H16.0714ZM18.2143 11.6667V12.6667H22.5V11.6667V10.6667H18.2143V11.6667ZM16.0714 9.44445H15.0714C15.0714 9.94094 15.0695 10.4104 15.119 10.7922C15.1717 11.1992 15.2983 11.6547 15.6654 12.0354L16.3852 11.3412L17.1051 10.6471C17.1584 10.7024 17.128 10.7332 17.1024 10.5351C17.0734 10.3118 17.0714 9.99551 17.0714 9.44445H16.0714ZM18.2143 11.6667V10.6667C17.6799 10.6667 17.3834 10.6644 17.1767 10.6356C17.0026 10.6113 17.0469 10.5867 17.1051 10.6471L16.3852 11.3412L15.6654 12.0354C16.0374 12.4212 16.4911 12.5593 16.9005 12.6164C17.2774 12.6689 17.7385 12.6667 18.2143 12.6667V11.6667Z" fill="#283E95"/>
</svg>
