<svg width="30" height="30" viewBox="0 0 30 30" fill="none" xmlns="http://www.w3.org/2000/svg">
<path d="M17.7705 5.65087L18.1304 5.30381V5.30381L17.7705 5.65087ZM21.8724 9.90468L21.5124 10.2518L21.8724 9.90468ZM22.4184 10.5906L22.8828 10.4051V10.4051L22.4184 10.5906ZM21.8724 24.3491L21.5124 24.0021V24.0021L21.8724 24.3491ZM11.7857 15.6111C11.5096 15.6111 11.2857 15.835 11.2857 16.1111C11.2857 16.3873 11.5096 16.6111 11.7857 16.6111V16.1111V15.6111ZM18.2143 16.6111C18.4904 16.6111 18.7143 16.3873 18.7143 16.1111C18.7143 15.835 18.4904 15.6111 18.2143 15.6111L18.2143 16.1111V16.6111ZM11.7857 20.0556C11.5096 20.0556 11.2857 20.2794 11.2857 20.5556C11.2857 20.8317 11.5096 21.0556 11.7857 21.0556V20.5556V20.0556ZM16.0714 21.0556C16.3476 21.0556 16.5714 20.8317 16.5714 20.5556C16.5714 20.2794 16.3476 20.0556 16.0714 20.0556V20.5556V21.0556ZM16.3852 11.3412L16.7452 10.9942L16.3852 11.3412ZM11.7857 5V5.5H16.2553V5V4.5H11.7857V5ZM18.2143 25V24.5H11.7857V25V25.5H18.2143V25ZM7.5 20.5556H8V9.44444H7.5H7V20.5556H7.5ZM22.5 11.476H22V20.5556H22.5H23V11.476H22.5ZM17.7705 5.65087L17.4106 5.99794L21.5124 10.2518L21.8724 9.90468L22.2323 9.55761L18.1304 5.30381L17.7705 5.65087ZM22.5 11.476H23C23 11.0615 23.0083 10.7195 22.8828 10.4051L22.4184 10.5906L21.9541 10.7761C21.9917 10.8701 22 10.9822 22 11.476H22.5ZM21.8724 9.90468L21.5124 10.2518C21.8494 10.6012 21.9173 10.6839 21.9541 10.7761L22.4184 10.5906L22.8828 10.4051C22.7565 10.0889 22.5147 9.85045 22.2323 9.55761L21.8724 9.90468ZM11.7857 25V24.5C10.7609 24.5 10.0445 24.4989 9.50346 24.4234C8.97877 24.3503 8.6938 24.216 8.48755 24.0021L8.12763 24.3491L7.76771 24.6962C8.18908 25.1332 8.723 25.3243 9.36537 25.4139C9.99144 25.5011 10.7902 25.5 11.7857 25.5V25ZM7.5 20.5556H7C7 21.5895 6.99901 22.4134 7.0826 23.0582C7.16783 23.7156 7.34879 24.2618 7.76771 24.6962L8.12763 24.3491L8.48755 24.0021C8.27884 23.7856 8.14599 23.4826 8.0743 22.9297C8.00099 22.3641 8 21.6168 8 20.5556H7.5ZM18.2143 25V25.5C19.2098 25.5 20.0086 25.5011 20.6346 25.4139C21.277 25.3243 21.8109 25.1332 22.2323 24.6962L21.8724 24.3491L21.5124 24.0021C21.3062 24.216 21.0212 24.3503 20.4965 24.4234C19.9555 24.4989 19.2391 24.5 18.2143 24.5V25ZM22.5 20.5556H22C22 21.6168 21.999 22.3641 21.9257 22.9297C21.854 23.4826 21.7212 23.7856 21.5124 24.0021L21.8724 24.3491L22.2323 24.6962C22.6512 24.2618 22.8322 23.7156 22.9174 23.0582C23.001 22.4134 23 21.5895 23 20.5556H22.5ZM16.2553 5V5.5C16.7351 5.5 16.8312 5.50941 16.9117 5.54399L17.1091 5.08458L17.3064 4.62517C16.9931 4.49059 16.6513 4.5 16.2553 4.5V5ZM17.7705 5.65087L18.1304 5.30381C17.8501 5.01309 17.6177 4.75887 17.3064 4.62517L17.1091 5.08458L16.9117 5.54399C16.9943 5.57945 17.0715 5.64636 17.4106 5.99794L17.7705 5.65087ZM11.7857 5V4.5C10.7902 4.5 9.99144 4.49886 9.36537 4.58615C8.723 4.67571 8.18908 4.86682 7.76771 5.30381L8.12763 5.65087L8.48755 5.99794C8.6938 5.78405 8.97877 5.64972 9.50346 5.57657C10.0445 5.50114 10.7609 5.5 11.7857 5.5V5ZM7.5 9.44444H8C8 8.38324 8.00099 7.63585 8.0743 7.07035C8.14599 6.51741 8.27884 6.21438 8.48755 5.99794L8.12763 5.65087L7.76771 5.30381C7.34879 5.73824 7.16783 6.28443 7.0826 6.94178C6.99901 7.58655 7 8.41052 7 9.44444H7.5ZM11.7857 16.1111V16.6111L18.2143 16.6111V16.1111L18.2143 15.6111L11.7857 15.6111V16.1111ZM11.7857 20.5556V21.0556H16.0714V20.5556V20.0556H11.7857V20.5556ZM16.0714 5H15.5714V9.44445H16.0714H16.5714V5H16.0714ZM18.2143 11.6667V12.1667H22.5V11.6667V11.1667H18.2143V11.6667ZM16.0714 9.44445H15.5714C15.5714 9.95459 15.5704 10.3857 15.6148 10.7279C15.6608 11.0827 15.7633 11.4166 16.0253 11.6883L16.3852 11.3412L16.7452 10.9942C16.6934 10.9404 16.639 10.8497 16.6065 10.5994C16.5724 10.3364 16.5714 9.98187 16.5714 9.44445H16.0714ZM18.2143 11.6667V11.1667C17.6946 11.1667 17.3569 11.1655 17.1077 11.1308C16.8748 11.0983 16.7945 11.0453 16.7452 10.9942L16.3852 11.3412L16.0253 11.6883C16.2898 11.9626 16.619 12.0723 16.9696 12.1212C17.3039 12.1678 17.7239 12.1667 18.2143 12.1667V11.6667Z" fill="#4A6484"/>
</svg>
