<svg width="16" height="19" viewBox="0 0 16 19" fill="none" xmlns="http://www.w3.org/2000/svg">
<path d="M1 9.75955C1 8.40179 1 7.72291 1.27446 7.12617C1.54892 6.52943 2.06437 6.08763 3.09525 5.20401L4.09525 4.34687C5.95857 2.74974 6.89023 1.95117 8 1.95117C9.10977 1.95117 10.0414 2.74974 11.9047 4.34687L12.9047 5.20401C13.9356 6.08763 14.4511 6.52943 14.7255 7.12617C15 7.72291 15 8.40179 15 9.75955V13.9999C15 15.8856 15 16.8284 14.4142 17.4142C13.8284 17.9999 12.8856 17.9999 11 17.9999H5C3.11438 17.9999 2.17157 17.9999 1.58579 17.4142C1 16.8284 1 15.8856 1 13.9999V9.75955Z" stroke="white" stroke-width="2"/>
<path d="M10.5 18V13C10.5 12.4477 10.0523 12 9.5 12H6.5C5.94772 12 5.5 12.4477 5.5 13V18" stroke="white" stroke-width="2" stroke-linecap="round" stroke-linejoin="round"/>
</svg>
