<svg width="23" height="22" viewBox="0 0 23 22" fill="none" xmlns="http://www.w3.org/2000/svg">
<path d="M1.29297 11L0.5121 10.3753L0.0123439 11L0.5121 11.6247L1.29297 11ZM10.293 12C10.8453 12 11.293 11.5523 11.293 11C11.293 10.4477 10.8453 10 10.293 10V11V12ZM5.29297 6L4.5121 5.3753L0.5121 10.3753L1.29297 11L2.07384 11.6247L6.07384 6.6247L5.29297 6ZM1.29297 11L0.5121 11.6247L4.5121 16.6247L5.29297 16L6.07384 15.3753L2.07384 10.3753L1.29297 11ZM1.29297 11V12H10.293V11V10H1.29297V11Z" fill="white"/>
<path d="M9.29297 7.13193V6.38851C9.29297 4.77017 9.29297 3.961 9.76693 3.4015C10.2409 2.84201 11.0391 2.70899 12.6354 2.44293L14.3066 2.1644C17.5497 1.62388 19.1712 1.35363 20.2321 2.25232C21.293 3.15102 21.293 4.79493 21.293 8.08276V13.9172C21.293 17.2051 21.293 18.849 20.2321 19.7477C19.1712 20.6464 17.5497 20.3761 14.3066 19.8356L12.6354 19.5571C11.0391 19.291 10.2409 19.158 9.76693 18.5985C9.29297 18.039 9.29297 17.2298 9.29297 15.6115V15.066" stroke="white" stroke-width="2"/>
</svg>
