<svg width="200" height="44" viewBox="0 0 200 44" fill="none" xmlns="http://www.w3.org/2000/svg">
<path fill-rule="evenodd" clip-rule="evenodd" d="M83.934 30.8342C82.9834 30.8342 81.8811 30.642 80.6641 30.2189L81.1966 25.1963C81.3714 25.2362 81.5358 25.2561 81.6908 25.2561C84.4277 25.2561 84.8083 19.3331 85.1502 11.9466L100.736 11.9463V30.4112H94.2736V16.9472H91.0422C90.5864 24.6407 89.1035 30.8342 83.934 30.8342Z" fill="#2A2929"/>
<path fill-rule="evenodd" clip-rule="evenodd" d="M133.173 25.9859C136.024 25.9859 136.404 23.4481 136.404 22.1395C136.404 20.832 136.024 18.2933 133.173 18.2933C130.322 18.2933 129.941 20.8323 129.941 22.1395C129.941 23.4481 130.322 25.9862 133.173 25.9859ZM133.173 30.9875C127.889 30.9875 123.289 28.1027 123.289 19.6398C123.289 12.831 125.608 9.25329 128.878 7.17671C133.511 4.25342 137.849 5.05458 140.502 3.60938L141.46 8.67616C139.103 10.8303 135.91 9.71488 132.754 11.2922C130.892 12.2157 129.941 14.3701 129.941 15.8698C131.006 14.523 132.716 13.2926 135.453 13.2926C139.787 13.2923 143.056 16.3702 143.056 22.1395C143.056 28.1024 138.647 30.9875 133.173 30.9875Z" fill="#2A2929"/>
<path fill-rule="evenodd" clip-rule="evenodd" d="M156.965 11.9463H163.617L155.977 32.3348C153.886 37.8739 150.73 39.3747 147.614 39.3747C146.473 39.3739 145.333 39.1437 144.268 38.8746L145.49 33.7142C145.903 33.7668 146.321 33.7969 146.74 33.7969C148.335 33.7966 149.666 32.8726 150.541 30.873L141.949 11.9463H148.792L153.24 22.9479L156.965 11.9463Z" fill="#2A2929"/>
<path fill-rule="evenodd" clip-rule="evenodd" d="M165.145 30.4112V11.9463H179.361V17.3321H171.607V30.4112H165.145Z" fill="#2A2929"/>
<path fill-rule="evenodd" clip-rule="evenodd" d="M188.556 26.564C189.621 26.564 190.571 26.3335 191.559 25.6023L191.559 23.1019C190.989 22.9096 190.115 22.7561 189.24 22.7561C187.72 22.7561 186.351 23.2941 186.351 24.7565C186.351 25.7176 187.188 26.564 188.556 26.564ZM199.276 26.2947L199.998 30.2185C199.124 30.5643 197.945 30.7956 196.729 30.7956C194.714 30.7951 193.232 30.065 192.396 28.7573C190.647 30.1415 188.632 30.9879 186.047 30.9879C182.55 30.9879 179.699 28.872 179.699 25.2948C179.699 20.6401 184.07 19.2172 187.606 19.2172C188.975 19.2172 190.343 19.3701 191.559 19.6402L191.559 18.9861C191.559 17.6783 190.343 16.6776 187.758 16.6776C185.832 16.6776 184.03 17.126 182.468 17.6814L181.372 12.6003C182.893 12.1005 185.781 11.3696 188.48 11.3696C194.296 11.3696 198.021 13.408 198.021 19.9866L198.021 25.1405C198.021 26.0251 198.63 26.2947 199.276 26.2947Z" fill="#2A2929"/>
<path fill-rule="evenodd" clip-rule="evenodd" d="M111.52 26.564C112.585 26.564 113.536 26.3335 114.524 25.6023V23.1019C113.953 22.9096 113.079 22.7561 112.205 22.7561C110.685 22.7561 109.317 23.2941 109.317 24.7565C109.317 25.7176 110.153 26.564 111.52 26.564ZM122.241 26.2947L122.964 30.2185C122.089 30.5643 120.91 30.7956 119.694 30.7956C117.679 30.7951 116.197 30.065 115.36 28.7573C113.612 30.1415 111.597 30.9879 109.012 30.9879C105.515 30.9879 102.664 28.872 102.664 25.2948C102.664 20.6401 107.035 19.2172 110.571 19.2172C111.939 19.2172 113.308 19.3701 114.524 19.6402V18.9861C114.524 17.6783 113.308 16.6776 110.723 16.6776C108.798 16.6776 106.995 17.126 105.433 17.6814L104.336 12.6003C105.858 12.1005 108.747 11.3696 111.445 11.3696C117.261 11.3696 120.987 13.408 120.987 19.9866V25.1405C120.987 26.0251 121.594 26.2947 122.241 26.2947Z" fill="#2A2929"/>
<path fill-rule="evenodd" clip-rule="evenodd" d="M68.0598 26.564C69.1249 26.564 70.0746 26.3335 71.0633 25.6023V23.1019C70.4927 22.9096 69.6185 22.7561 68.744 22.7561C67.2242 22.7561 65.8558 23.2941 65.8558 24.7565C65.8558 25.7176 66.6922 26.564 68.0598 26.564ZM78.7802 26.2947L79.5027 30.2185C78.6282 30.5643 77.4493 30.7956 76.2331 30.7956C74.2182 30.7951 72.736 30.065 71.8998 28.7573C70.1514 30.1415 68.1362 30.9879 65.5518 30.9879C62.0541 30.9879 59.2031 28.872 59.2031 25.2948C59.2034 20.6401 63.5748 19.2172 67.11 19.2172C68.4784 19.2172 69.8471 19.3701 71.0633 19.6402V18.9861C71.0633 17.6783 69.8471 16.6776 67.2619 16.6776C65.3362 16.6776 63.5337 17.126 61.9727 17.6814L60.8754 12.6003C62.3961 12.1005 65.2852 11.3696 67.984 11.3696C73.8002 11.3696 77.5248 13.408 77.5248 19.9866V25.1405C77.5248 26.0251 78.1338 26.2947 78.7802 26.2947Z" fill="#2A2929"/>
<path fill-rule="evenodd" clip-rule="evenodd" d="M14.1058 6.82934C14.2216 6.89512 14.3383 6.96148 14.455 7.02979C14.5231 7.06887 14.5913 7.10961 14.6591 7.15009C14.895 7.2884 15.1312 7.43067 15.3687 7.57516C15.4181 7.60552 15.4676 7.63613 15.5176 7.66565C15.6281 7.73452 15.7398 7.80484 15.8515 7.87483C15.9334 7.926 16.0156 7.97689 16.0967 8.02917C16.2051 8.09833 16.3145 8.16748 16.422 8.23776C16.5098 8.29426 16.5968 8.35044 16.6838 8.40807C16.7899 8.47638 16.8957 8.54611 17.0018 8.6161C17.0979 8.67964 17.1949 8.74541 17.2916 8.81063C17.4538 8.91886 17.6163 9.03049 17.7797 9.14209C17.893 9.21968 18.0066 9.29781 18.1205 9.37736C18.2188 9.44567 18.3169 9.51541 18.4147 9.58485C18.5164 9.65625 18.6175 9.72792 18.7192 9.80073C18.8178 9.87185 18.9159 9.94243 19.0142 10.0133C19.1198 10.0897 19.2256 10.1679 19.3314 10.2455C19.425 10.3138 19.5181 10.3821 19.6115 10.4515C19.7518 10.5544 19.8909 10.6604 20.0309 10.7663C20.1426 10.8507 20.2542 10.9353 20.3667 11.0213C20.5037 11.1256 20.6404 11.231 20.7774 11.3376C20.8651 11.4045 20.9526 11.4742 21.0404 11.5436C21.1573 11.6353 21.2737 11.728 21.3912 11.8205C21.4804 11.8914 21.5687 11.9625 21.6571 12.0331C21.7815 12.1326 21.906 12.2335 22.0296 12.3352C22.1096 12.3991 22.188 12.4631 22.2671 12.5281C22.4272 12.6591 22.5878 12.7926 22.7467 12.9253C22.9058 12.7929 23.0642 12.6616 23.2225 12.532C23.3058 12.4626 23.39 12.3948 23.4741 12.3268C23.5936 12.2287 23.7117 12.1329 23.8312 12.0376C23.9239 11.9631 24.0159 11.8897 24.1084 11.8157C24.2209 11.7269 24.3326 11.6384 24.4451 11.5501C24.5365 11.4781 24.6287 11.4053 24.7206 11.3342C24.8482 11.2344 24.9753 11.1383 25.1017 11.0402C25.2334 10.9398 25.364 10.8406 25.494 10.7425C25.6224 10.6458 25.7502 10.5493 25.8774 10.4551C25.9757 10.3818 26.0732 10.3104 26.1707 10.2387C26.2721 10.1645 26.3729 10.0909 26.4743 10.018C26.576 9.94327 26.678 9.87042 26.7797 9.79733C26.8766 9.72761 26.9733 9.6593 27.0703 9.59127C27.1722 9.51846 27.2745 9.44679 27.3764 9.37538C27.4775 9.30426 27.5786 9.23482 27.6811 9.16482C27.8622 9.04029 28.0422 8.91829 28.222 8.79713C28.3114 8.73669 28.3995 8.6774 28.4878 8.61808C28.5981 8.54584 28.7079 8.47445 28.8165 8.40192C28.9001 8.34851 28.9829 8.29451 29.0656 8.24138C29.1782 8.16885 29.2895 8.09716 29.4006 8.02632C29.4787 7.97656 29.5557 7.92906 29.6326 7.88071C29.7485 7.8079 29.8637 7.73512 29.979 7.66427C30.0096 7.64544 30.0393 7.62798 30.0688 7.60915C30.329 7.44948 30.5877 7.29458 30.8458 7.14334C30.9092 7.10567 30.9724 7.0686 31.0352 7.03177C31.1549 6.96149 31.2735 6.89373 31.3933 6.82626C31.4497 6.79393 31.5064 6.76133 31.5636 6.73012C28.5721 4.05309 25.596 1.79322 22.7467 0C19.8973 1.79322 16.9218 4.05309 13.9297 6.73012C13.9883 6.76161 14.0472 6.7956 14.1058 6.82934Z" fill="#35388A"/>
<path fill-rule="evenodd" clip-rule="evenodd" d="M38.7826 14.4306C38.6609 14.4978 38.5378 14.5661 38.4156 14.6355C38.3528 14.6707 38.2889 14.7061 38.2261 14.7418C38.1053 14.8113 37.9836 14.881 37.8628 14.9507C37.802 14.9858 37.742 15.0224 37.6817 15.0578C37.4117 15.2161 37.1402 15.3788 36.8679 15.5461C36.8488 15.5582 36.8291 15.5697 36.8091 15.5815C36.6927 15.6532 36.5751 15.7277 36.4576 15.8008C36.3824 15.8483 36.3063 15.8955 36.2307 15.9439C36.1177 16.0147 36.006 16.0869 35.8929 16.16C35.8115 16.2126 35.7301 16.266 35.6476 16.3194C35.5373 16.392 35.4263 16.464 35.316 16.5382C35.2296 16.5944 35.1434 16.6531 35.0571 16.7107C34.872 16.8361 34.685 16.9629 34.4978 17.0914C34.4008 17.158 34.3034 17.2249 34.2064 17.2924C34.1033 17.3644 33.9991 17.438 33.8961 17.5111C33.8005 17.5788 33.7053 17.646 33.6091 17.7149C33.5066 17.7877 33.4041 17.8624 33.3022 17.9364C33.2019 18.0086 33.1022 18.082 33.0019 18.1554C32.9033 18.2279 32.8052 18.3001 32.706 18.3741C32.5788 18.4682 32.4516 18.5638 32.3238 18.6602C32.1935 18.7589 32.0627 18.8579 31.9318 18.9583C31.8041 19.0552 31.6773 19.1536 31.5496 19.2523C31.4573 19.3237 31.3654 19.3965 31.2737 19.4682C31.1612 19.5564 31.0495 19.6447 30.9379 19.7341C30.8445 19.8078 30.7517 19.8823 30.6592 19.9562C30.5672 20.0301 30.4745 20.1052 30.3828 20.1805C30.5717 20.3821 30.7595 20.5853 30.9484 20.7905C31.007 20.8549 31.066 20.9195 31.1243 20.9839C31.271 21.1444 31.4187 21.3066 31.5649 21.4688C31.6351 21.5464 31.7043 21.6246 31.7741 21.7016C31.9171 21.8616 32.0604 22.0235 32.204 22.1851C32.2662 22.256 32.3285 22.326 32.3908 22.3971C32.5938 22.6282 32.7961 22.8595 32.9975 23.094C33.1991 23.3276 33.3989 23.5617 33.5978 23.7965C33.6594 23.8693 33.7206 23.9424 33.7822 24.016C33.9208 24.1805 34.0594 24.3458 34.1966 24.5113C34.2647 24.5929 34.3317 24.675 34.3989 24.7568C34.5381 24.9251 34.6767 25.0946 34.8145 25.2639C34.8712 25.333 34.9284 25.4027 34.9842 25.4724C35.1751 25.7072 35.364 25.943 35.5512 26.1792C35.5782 26.2132 35.6051 26.2472 35.6317 26.2804C35.7931 26.4845 35.9521 26.688 36.1113 26.8918C36.1738 26.9708 36.2343 27.0504 36.296 27.1299C36.4218 27.2921 36.5468 27.4546 36.6704 27.6174C36.7352 27.7008 36.799 27.7852 36.8629 27.8693C36.9429 27.9738 37.0227 28.0792 37.1019 28.1846C37.1063 28.1807 37.1102 28.1776 37.1152 28.174C37.2414 28.0714 37.3677 27.9696 37.4935 27.8678C37.5805 27.7976 37.6683 27.7284 37.7558 27.6587C37.875 27.5634 37.9936 27.47 38.113 27.3762C38.1986 27.3087 38.2842 27.2418 38.3694 27.1751C38.5117 27.065 38.6531 26.9553 38.7954 26.8474C38.8973 26.7695 38.9989 26.6919 39.1006 26.6149C39.2478 26.5044 39.3939 26.3943 39.5398 26.2857C39.6309 26.2186 39.7206 26.1519 39.812 26.0856C39.9209 26.0049 40.0299 25.9259 40.1382 25.8475C40.2349 25.7778 40.331 25.7083 40.4265 25.64C40.5318 25.5644 40.6357 25.491 40.7396 25.4168C40.8354 25.3494 40.9304 25.2813 41.026 25.2144C41.1476 25.1303 41.2685 25.0477 41.3894 24.9642C41.5416 24.8599 41.6935 24.7567 41.8449 24.655C41.9466 24.5864 42.0486 24.5175 42.1503 24.4506C42.2536 24.3815 42.3566 24.3145 42.46 24.2471C42.5503 24.1875 42.6408 24.1293 42.7308 24.0714C42.8367 24.0022 42.9423 23.9345 43.0481 23.8676C43.1345 23.813 43.2195 23.7593 43.3056 23.7059C43.4131 23.6373 43.5212 23.5702 43.6287 23.5038C43.6959 23.4625 43.7623 23.4223 43.8295 23.3816C44.0459 23.25 44.2615 23.1201 44.4765 22.9942C44.5507 22.9498 44.624 22.9065 44.6977 22.8635C44.8115 22.7977 44.9246 22.7336 45.038 22.6689C45.1102 22.6271 45.1827 22.5857 45.2557 22.545C45.3349 22.4997 45.4155 22.4544 45.4952 22.4106C43.7693 19.9795 41.8744 17.5538 39.8248 15.1764C39.5668 14.8759 39.3071 14.5802 39.0479 14.2861C39.0109 14.3061 38.9747 14.3255 38.9381 14.3455C38.8858 14.3733 38.8342 14.4017 38.7826 14.4306Z" fill="#00A0E3"/>
<path fill-rule="evenodd" clip-rule="evenodd" d="M22.8559 13.0155C22.9126 13.0633 22.9698 13.1124 23.027 13.1608C23.1751 13.2853 23.3235 13.4113 23.471 13.5381C23.551 13.6066 23.6301 13.6746 23.7093 13.7432C23.8395 13.8548 23.9682 13.9675 24.0982 14.0811C24.1776 14.1508 24.2574 14.2206 24.3366 14.2914C24.4794 14.4162 24.6215 14.5422 24.7635 14.6704C24.8274 14.7269 24.8902 14.7828 24.9544 14.8407C25.1555 15.0218 25.3568 15.2042 25.5577 15.3897C25.613 15.4398 25.6685 15.4917 25.7238 15.5429C25.8752 15.6826 26.0263 15.8238 26.1777 15.9654C26.2527 16.0357 26.3261 16.1057 26.4011 16.1757C26.5383 16.3045 26.6756 16.4346 26.812 16.5664C26.8856 16.6362 26.9584 16.7059 27.0312 16.777C27.1912 16.9299 27.35 17.0851 27.5097 17.2403C27.5556 17.2858 27.6023 17.3313 27.649 17.3772C27.8534 17.5776 28.0571 17.78 28.2621 17.9844C28.3174 18.0406 28.3729 18.0968 28.429 18.1534C28.5801 18.3057 28.7316 18.4589 28.8835 18.6141C28.9538 18.6855 29.0244 18.758 29.0944 18.8305C29.2372 18.977 29.3799 19.1246 29.5221 19.273C29.5885 19.3427 29.6549 19.4113 29.7216 19.4807C29.8997 19.6674 30.0786 19.8563 30.2567 20.0466C30.2836 20.0753 30.3103 20.1026 30.3366 20.1312C30.3522 20.1475 30.3677 20.1638 30.3833 20.1813C30.4753 20.1056 30.5677 20.0312 30.6597 19.957C30.7525 19.883 30.8447 19.8085 30.9384 19.7349C31.05 19.6449 31.1617 19.5572 31.2742 19.4689C31.3662 19.3972 31.4578 19.3247 31.55 19.253C31.6778 19.1541 31.8046 19.0566 31.9323 18.959C32.0632 18.8587 32.194 18.7597 32.3243 18.661C32.4521 18.5646 32.5793 18.469 32.7065 18.3748C32.8057 18.3006 32.9038 18.2287 33.0024 18.1562C33.1027 18.0828 33.2024 18.0099 33.3027 17.9371C33.4046 17.8626 33.5069 17.7887 33.6096 17.7157C33.7058 17.6465 33.801 17.5799 33.8966 17.5118C33.9999 17.4388 34.1038 17.3651 34.2069 17.2932C34.3039 17.2251 34.4013 17.1588 34.4983 17.0922C34.6855 16.9631 34.8725 16.8369 35.0575 16.7115C35.1439 16.6536 35.2301 16.5952 35.3165 16.5389C35.4267 16.4644 35.5375 16.3927 35.6481 16.3202C35.7309 16.2668 35.812 16.2139 35.8934 16.1608C36.0065 16.0871 36.1182 16.0158 36.2312 15.9446C36.3071 15.8957 36.3826 15.8491 36.4581 15.8016C36.5756 15.7279 36.6932 15.654 36.8096 15.5823C36.8296 15.5702 36.8493 15.5589 36.8684 15.5469C37.1415 15.3793 37.4122 15.2171 37.6822 15.0586C37.7425 15.0229 37.8024 14.9869 37.8633 14.9515C37.9841 14.8815 38.1057 14.812 38.2266 14.7426C38.2896 14.7066 38.3533 14.672 38.4161 14.6363C38.5386 14.5669 38.6614 14.4989 38.783 14.4314C38.8347 14.4022 38.8863 14.3741 38.9385 14.3463C38.9755 14.326 39.0114 14.306 39.0475 14.2869C36.5857 11.4985 34.07 8.97023 31.5662 6.73145C31.5098 6.76265 31.4522 6.79469 31.3958 6.82758C31.2764 6.89477 31.1575 6.96281 31.0378 7.03309C30.975 7.06964 30.9115 7.10699 30.8484 7.14466C30.5906 7.2959 30.3316 7.4508 30.0713 7.61047C30.0419 7.62903 30.0121 7.64732 29.9816 7.6656C29.8666 7.73644 29.7511 7.8095 29.6352 7.88203C29.5583 7.9301 29.481 7.97816 29.4032 8.02764C29.2924 8.09848 29.1805 8.17017 29.0682 8.2427C28.9854 8.29583 28.9027 8.34983 28.8191 8.40324C28.7105 8.47577 28.6007 8.54744 28.4904 8.6194C28.402 8.67872 28.3137 8.73829 28.2245 8.79845C28.0451 8.91933 27.8648 9.04189 27.6837 9.16614C27.5812 9.23586 27.4801 9.30558 27.379 9.3767C27.277 9.44811 27.1748 9.52034 27.0729 9.59259C26.9762 9.66062 26.8792 9.72921 26.7823 9.79865C26.6806 9.87146 26.5786 9.94487 26.4769 10.0194C26.3758 10.0922 26.2747 10.1658 26.1733 10.24C26.0761 10.3114 25.9783 10.3834 25.88 10.4565C25.753 10.5501 25.6249 10.6471 25.4966 10.7438C25.3666 10.8419 25.2357 10.9411 25.1043 11.0415C24.9779 11.1393 24.8504 11.2363 24.7232 11.3355C24.6313 11.4058 24.5388 11.4795 24.4477 11.5514C24.3355 11.6397 24.2235 11.7282 24.111 11.8171C24.0185 11.8907 23.9265 11.9644 23.8337 12.0389C23.7143 12.1339 23.5962 12.2308 23.4767 12.3281C23.3925 12.3959 23.3084 12.4639 23.2251 12.5333C23.0667 12.6627 22.9083 12.7953 22.75 12.9277C22.7844 12.957 22.8206 12.9857 22.8559 13.0155Z" fill="#3769B0"/>
<path fill-rule="evenodd" clip-rule="evenodd" d="M0.457495 22.6689C0.570558 22.733 0.683091 22.798 0.796709 22.8635C0.871437 22.9065 0.945317 22.9509 1.01949 22.9942C1.23256 23.1201 1.44587 23.2474 1.66005 23.3779C1.72894 23.4203 1.79738 23.4617 1.86655 23.5038C1.9735 23.5702 2.08095 23.6379 2.18818 23.7059C2.27458 23.7593 2.36098 23.813 2.4471 23.8676C2.55266 23.9342 2.65851 24.0025 2.76407 24.0706C2.8538 24.1293 2.94489 24.1878 3.036 24.2471C3.13879 24.3145 3.24106 24.382 3.3444 24.4501C3.44607 24.5175 3.54884 24.5864 3.65052 24.655C3.80247 24.757 3.95389 24.8605 4.10584 24.9642C4.22696 25.0477 4.34776 25.1303 4.4686 25.2144C4.56417 25.2813 4.65941 25.3494 4.75497 25.4168C4.85887 25.4908 4.96425 25.5644 5.06814 25.64C5.16454 25.7083 5.26029 25.7778 5.35668 25.8475C5.46558 25.9259 5.57449 26.0052 5.68255 26.0856C5.77395 26.1519 5.86425 26.2186 5.95481 26.2857C6.10204 26.3943 6.24897 26.5056 6.39592 26.6169C6.49732 26.6919 6.5968 26.7684 6.69792 26.846C6.84015 26.9548 6.98296 27.0641 7.12492 27.1751C7.21076 27.2415 7.29599 27.3087 7.38155 27.3762C7.50101 27.47 7.62054 27.5637 7.73943 27.6587C7.82638 27.7284 7.91411 27.7976 8.00106 27.8678C8.12718 27.9693 8.25332 28.0717 8.37999 28.174C8.38416 28.1774 8.38835 28.181 8.3928 28.1846C8.47113 28.0803 8.55105 27.976 8.63022 27.8712C8.69467 27.786 8.75977 27.7005 8.82533 27.6159C8.9484 27.4529 9.0722 27.2933 9.19721 27.1316C9.25971 27.0512 9.32118 26.9714 9.38396 26.891C9.54119 26.6894 9.69949 26.4884 9.85838 26.2866C9.88728 26.2509 9.91567 26.2141 9.944 26.1784C10.1315 25.9419 10.3202 25.7075 10.5104 25.4724C10.5671 25.4027 10.6242 25.3328 10.6815 25.2628C10.8187 25.0935 10.9565 24.9254 11.0951 24.7573C11.1629 24.6749 11.2302 24.5929 11.2988 24.5113C11.436 24.3458 11.5738 24.1816 11.7121 24.0171C11.7732 23.9426 11.8352 23.8696 11.8977 23.7965C12.0958 23.5615 12.2958 23.327 12.4972 23.094C12.6989 22.8598 12.9012 22.6282 13.1034 22.3977C13.167 22.326 13.2297 22.2546 13.2925 22.1829C13.4348 22.0218 13.5768 21.8627 13.719 21.7036C13.7898 21.6246 13.8608 21.5465 13.9317 21.4675C14.077 21.3061 14.2215 21.1461 14.3674 20.9876C14.4274 20.9215 14.4876 20.8549 14.5476 20.7891C14.7359 20.5847 14.9245 20.3818 15.1123 20.1805C15.0187 20.1046 14.9254 20.0287 14.8323 19.9537C14.7423 19.8806 14.6515 19.8091 14.5618 19.7377C14.446 19.6447 14.3312 19.5548 14.2159 19.4643C14.127 19.3937 14.0373 19.324 13.9482 19.2548C13.8145 19.1499 13.6809 19.0479 13.5479 18.9462C13.4292 18.8554 13.3103 18.7651 13.1914 18.6752C13.0564 18.5734 12.9214 18.4716 12.7872 18.3715C12.6902 18.2999 12.5947 18.2302 12.4994 18.1599C12.3961 18.084 12.293 18.0092 12.1894 17.9338C12.0894 17.8613 11.9894 17.7894 11.8891 17.718C11.7902 17.6457 11.6913 17.5769 11.5921 17.5066C11.4918 17.4349 11.3907 17.3643 11.291 17.294C11.1854 17.2201 11.0804 17.1484 10.9749 17.0759C10.7999 16.9556 10.6248 16.8361 10.4501 16.7189C10.3593 16.6576 10.2679 16.5963 10.1768 16.5367C10.0679 16.4636 9.9595 16.3934 9.85144 16.3228C9.76727 16.2669 9.68307 16.212 9.59806 16.1578C9.48777 16.0864 9.37694 16.0153 9.26666 15.9453C9.18832 15.895 9.1098 15.8466 9.03118 15.7974C8.91673 15.7257 8.80219 15.6532 8.68774 15.5832C8.65523 15.5624 8.62332 15.5441 8.59138 15.5239C8.3333 15.3656 8.07693 15.2121 7.82136 15.0626C7.75802 15.0241 7.6941 14.9864 7.63048 14.9504C7.51131 14.8807 7.39161 14.8124 7.27271 14.7438C7.20799 14.7064 7.14213 14.6696 7.07685 14.633C6.95628 14.565 6.8352 14.4981 6.71408 14.4312C6.65991 14.4014 6.60514 14.3722 6.55153 14.3424C6.51708 14.3238 6.48213 14.3052 6.44768 14.2861C6.18822 14.5802 5.92875 14.8762 5.6704 15.1764C3.62026 17.5538 1.72594 19.9795 0 22.4106C0.0791718 22.4541 0.158943 22.5003 0.238948 22.545C0.312008 22.5857 0.384712 22.6276 0.457495 22.6689Z" fill="#00A0E3"/>
<path fill-rule="evenodd" clip-rule="evenodd" d="M29.4705 35.0499C29.4077 34.9687 29.3453 34.8883 29.2817 34.8068C29.1256 34.6061 28.9683 34.4059 28.81 34.2061C28.7802 34.169 28.7521 34.1318 28.7229 34.0947C28.5349 33.8589 28.3463 33.6247 28.1566 33.3903C28.0997 33.3194 28.0413 33.2491 27.9849 33.1788C27.8477 33.0105 27.7098 32.8427 27.572 32.6745C27.504 32.5919 27.4354 32.5101 27.3685 32.4286C27.2312 32.263 27.0926 32.0986 26.9545 31.9333C26.8925 31.8602 26.831 31.7865 26.7696 31.7134C26.571 31.4787 26.3706 31.244 26.1697 31.0104C25.9678 30.7759 25.7652 30.5451 25.563 30.3152C25.5002 30.2435 25.4375 30.1724 25.3744 30.1015C25.2325 29.9399 25.0895 29.7796 24.9461 29.6197C24.8761 29.5407 24.8057 29.4634 24.7366 29.3853C24.5905 29.2236 24.4439 29.0625 24.2977 28.9026C24.2377 28.8368 24.1788 28.7718 24.1188 28.7069C23.9157 28.4859 23.7121 28.2656 23.5085 28.048C23.4805 28.0185 23.4526 27.9895 23.4243 27.9592C23.2485 27.7708 23.0718 27.5847 22.894 27.3984C22.8454 27.3475 22.7965 27.2966 22.7471 27.2451C22.6982 27.2974 22.6481 27.3486 22.5984 27.3997C22.4253 27.583 22.2506 27.7669 22.0767 27.9521C22.0464 27.9845 22.0159 28.0168 21.9848 28.0494C21.782 28.2667 21.5789 28.4854 21.3761 28.7066C21.3158 28.7718 21.2552 28.839 21.1941 28.9054C21.0488 29.0639 20.9039 29.2242 20.7589 29.3853C20.6883 29.4634 20.6175 29.5415 20.548 29.62C20.4047 29.7796 20.2624 29.9399 20.1196 30.1015C20.0566 30.1724 19.9938 30.2435 19.9316 30.3152C19.7288 30.5451 19.5263 30.7762 19.3249 31.0104C19.1235 31.244 18.924 31.4787 18.7246 31.7134C18.6635 31.7862 18.6024 31.8604 18.541 31.9324C18.4015 32.0985 18.2628 32.2636 18.125 32.43C18.0578 32.5104 17.9912 32.5916 17.925 32.6715C17.7842 32.8415 17.6451 33.0122 17.5062 33.1828C17.4506 33.2511 17.3947 33.3197 17.3386 33.3889C17.1478 33.6247 16.9583 33.86 16.7711 34.0967C16.7442 34.1296 16.7189 34.1636 16.6917 34.1965C16.5306 34.4006 16.37 34.6046 16.2111 34.8096C16.1488 34.8883 16.0885 34.9667 16.0271 35.0454C15.9949 35.0876 15.9627 35.1309 15.9297 35.1722C15.9755 35.22 16.0211 35.2675 16.0661 35.3153C16.2444 35.5022 16.4225 35.6906 16.6014 35.8798C16.6275 35.9085 16.6542 35.9363 16.6811 35.9661C16.885 36.1834 17.0892 36.4035 17.2928 36.6247C17.3515 36.6888 17.4109 36.7546 17.4695 36.8195C17.6167 36.98 17.7639 37.1423 17.9101 37.3039C17.9803 37.3809 18.0487 37.4591 18.1187 37.5361C18.2624 37.6966 18.4051 37.8586 18.5485 38.0199C18.6115 38.0908 18.6737 38.161 18.736 38.2325C18.939 38.4627 19.1413 38.6949 19.3427 38.9285C19.5441 39.1618 19.7435 39.3957 19.9421 39.6304C20.0043 39.7043 20.0666 39.778 20.128 39.8525C20.2669 40.0169 20.4047 40.1814 20.5416 40.3469C20.6089 40.4273 20.677 40.5089 20.7439 40.5915C20.8834 40.7594 21.0219 40.9286 21.1589 41.0984C21.2164 41.1672 21.2728 41.2378 21.3295 41.3072C21.5195 41.5422 21.7084 41.7776 21.8959 42.0134C21.9248 42.0494 21.9523 42.0854 21.9806 42.1211C22.1407 42.3224 22.2987 42.5239 22.4556 42.7258C22.5178 42.8056 22.5809 42.8868 22.6431 42.9669C22.6778 43.0114 22.7124 43.056 22.7471 43.1021C22.7818 43.056 22.8171 43.0113 22.8523 42.9661C22.9148 42.8857 22.9759 42.8056 23.0384 42.7258C23.1968 42.5231 23.3551 42.3215 23.5157 42.1191C23.5432 42.0837 23.5707 42.0491 23.5985 42.0137C23.7849 41.7776 23.9751 41.5425 24.1646 41.3072C24.2213 41.2375 24.2785 41.1672 24.3352 41.0984C24.473 40.9286 24.6116 40.7594 24.7508 40.5915C24.8183 40.5089 24.885 40.4273 24.9531 40.3469C25.0903 40.1814 25.2275 40.0169 25.3658 39.8525C25.4283 39.778 25.4897 39.7046 25.5525 39.6304C25.7508 39.3957 25.9508 39.1621 26.1522 38.9285C26.3536 38.6949 26.556 38.4627 26.7582 38.2325C26.8204 38.1608 26.8834 38.0908 26.9454 38.0199C27.0893 37.858 27.2318 37.6969 27.3754 37.5361C27.4454 37.4588 27.5146 37.3809 27.5846 37.3039C27.7305 37.1417 27.8774 36.98 28.0247 36.8195C28.0833 36.7537 28.1427 36.6888 28.2019 36.6247C28.4058 36.4032 28.6091 36.1834 28.8135 35.9661C28.8399 35.936 28.8666 35.9085 28.8933 35.8798C29.0717 35.6903 29.2497 35.5022 29.4281 35.3153C29.4739 35.2675 29.5192 35.22 29.5645 35.1722C29.5336 35.132 29.5022 35.0907 29.4705 35.0499Z" fill="#80CFF4"/>
<path fill-rule="evenodd" clip-rule="evenodd" d="M6.71584 14.432C6.83668 14.4986 6.95754 14.566 7.07838 14.6338C7.14366 14.6703 7.20925 14.7078 7.27425 14.7446C7.39315 14.8123 7.51257 14.8818 7.63202 14.9512C7.69591 14.9872 7.75956 15.0251 7.8229 15.0634C8.07847 15.2126 8.33484 15.3664 8.59291 15.5247C8.62486 15.5449 8.65649 15.5634 8.68927 15.584C8.80372 15.654 8.91827 15.7265 9.03272 15.7982C9.11134 15.8473 9.18958 15.8963 9.26819 15.9461C9.37848 16.0161 9.48931 16.0877 9.5996 16.1585C9.6846 16.2128 9.7688 16.2679 9.85298 16.3236C9.96132 16.3942 10.0694 16.4647 10.1783 16.5375C10.2694 16.5971 10.3605 16.6587 10.4516 16.7197C10.6264 16.8372 10.8011 16.9564 10.9764 17.0767C11.082 17.1486 11.187 17.2212 11.2925 17.2948C11.3923 17.3651 11.4934 17.4357 11.5936 17.5073C11.6928 17.5776 11.7918 17.6468 11.8907 17.7187C11.9912 17.7901 12.0909 17.8621 12.1909 17.9346C12.2945 18.0094 12.3976 18.0848 12.5009 18.1607C12.5962 18.2307 12.6918 18.3009 12.7887 18.3723C12.9229 18.4718 13.0579 18.5745 13.1929 18.6759C13.3121 18.7659 13.4308 18.8561 13.5494 18.9469C13.6825 19.0487 13.8158 19.1507 13.9497 19.2556C14.0389 19.3244 14.1285 19.395 14.2174 19.465C14.333 19.5555 14.4475 19.646 14.5634 19.7385C14.6534 19.8096 14.7436 19.8814 14.8339 19.9544C14.9275 20.0292 15.0208 20.1045 15.1138 20.1813C15.1291 20.1644 15.1439 20.149 15.1587 20.1327C15.1892 20.1009 15.2195 20.0689 15.25 20.0365C15.4248 19.8507 15.5983 19.6669 15.7731 19.4839C15.8417 19.4108 15.9109 19.3396 15.9803 19.2676C16.1198 19.122 16.2582 18.9784 16.3973 18.8356C16.4712 18.7597 16.5437 18.6849 16.6173 18.6102C16.7651 18.4598 16.9124 18.3102 17.0591 18.1618C17.1193 18.1016 17.1788 18.042 17.2382 17.9816C17.4396 17.7789 17.6427 17.5787 17.8455 17.3791C17.8971 17.3283 17.948 17.2791 18.0002 17.2293C18.1538 17.0781 18.3077 16.9285 18.4613 16.7795C18.5385 16.7062 18.6142 16.6339 18.6911 16.5597C18.8233 16.4335 18.9561 16.3064 19.0897 16.1813C19.1677 16.1077 19.2453 16.0349 19.3231 15.9618C19.4689 15.8254 19.6144 15.6894 19.7608 15.555C19.8208 15.4988 19.8817 15.4425 19.9425 15.386C20.1406 15.2033 20.3398 15.0231 20.5387 14.8443C20.6078 14.7811 20.6778 14.7198 20.747 14.6574C20.8831 14.5354 21.0187 14.4148 21.1543 14.2954C21.2387 14.2209 21.3226 14.148 21.4054 14.0755C21.5298 13.9656 21.6552 13.8576 21.7788 13.7505C21.8629 13.678 21.9462 13.6055 22.0304 13.5341C22.1704 13.4129 22.3113 13.2946 22.451 13.1765C22.5163 13.1217 22.5799 13.0671 22.6441 13.0129C22.6791 12.9839 22.7136 12.9558 22.7475 12.9277C22.5877 12.7939 22.428 12.6604 22.268 12.5294C22.1891 12.4645 22.1104 12.4009 22.0304 12.3366C21.9068 12.2348 21.7823 12.1342 21.6579 12.0344C21.5695 11.9638 21.4809 11.893 21.392 11.8218C21.2745 11.7288 21.1579 11.6366 21.0412 11.545C20.9537 11.4755 20.8659 11.4066 20.7782 11.3389C20.6412 11.2321 20.5045 11.1275 20.3675 11.0226C20.255 10.9366 20.1434 10.852 20.0317 10.7677C19.8917 10.6617 19.7526 10.5566 19.6123 10.4528C19.5192 10.3831 19.4258 10.3154 19.3322 10.2468C19.2264 10.1692 19.1203 10.0913 19.015 10.0146C18.9167 9.94375 18.8183 9.87317 18.72 9.80205C18.6183 9.72896 18.5172 9.65757 18.4155 9.58617C18.3177 9.51645 18.2194 9.44727 18.1213 9.37868C18.0074 9.29885 17.8935 9.221 17.7805 9.14341C17.6171 9.03153 17.4543 8.92074 17.2924 8.81195C17.1957 8.74617 17.0988 8.68124 17.0026 8.61743C16.8965 8.54715 16.7907 8.4777 16.6846 8.40939C16.5976 8.35176 16.5106 8.29558 16.4228 8.23908C16.3156 8.16852 16.2056 8.09965 16.0975 8.03049C16.0164 7.97793 15.9342 7.92788 15.8523 7.87616C15.7406 7.80616 15.6289 7.73584 15.5184 7.66697C15.4684 7.63717 15.4189 7.60713 15.3695 7.57649C15.132 7.43199 14.8955 7.29028 14.6599 7.15141C14.5924 7.11065 14.5239 7.07047 14.4558 7.03112C14.3394 6.96281 14.2225 6.89644 14.1066 6.83066C14.048 6.79692 13.9891 6.76405 13.9305 6.73145C11.4267 8.97023 8.91188 11.4985 6.44922 14.2869C6.48394 14.3055 6.51834 14.3248 6.55307 14.3431C6.60668 14.3724 6.66139 14.4024 6.71584 14.432Z" fill="#3769B0"/>
</svg>
