<svg width="201" height="45" viewBox="0 0 201 45" fill="none" xmlns="http://www.w3.org/2000/svg">
<path fill-rule="evenodd" clip-rule="evenodd" d="M84.434 31.7829C83.4834 31.7829 82.3811 31.5907 81.1641 31.1676L81.6966 26.145C81.8714 26.1849 82.0358 26.2048 82.1908 26.2048C84.9277 26.2048 85.3083 20.2818 85.6502 12.8953L101.236 12.895V31.3599H94.7736V17.896H91.5422C91.0864 25.5895 89.6035 31.7829 84.434 31.7829Z" fill="#2A2929"/>
<path fill-rule="evenodd" clip-rule="evenodd" d="M133.673 26.9347C136.524 26.9347 136.904 24.3968 136.904 23.0882C136.904 21.7808 136.524 19.242 133.673 19.242C130.822 19.242 130.441 21.781 130.441 23.0882C130.441 24.3968 130.822 26.935 133.673 26.9347ZM133.673 31.9362C128.389 31.9362 123.789 29.0515 123.789 20.5886C123.789 13.7797 126.108 10.202 129.378 8.12544C134.011 5.20215 138.349 6.00331 141.002 4.55811L141.96 9.62489C139.603 11.7791 136.41 10.6636 133.254 12.2409C131.392 13.1644 130.441 15.3188 130.441 16.8186C131.506 15.4718 133.216 14.2413 135.953 14.2413C140.287 14.2411 143.556 17.3189 143.556 23.0882C143.556 29.0512 139.147 31.9362 133.673 31.9362Z" fill="#2A2929"/>
<path fill-rule="evenodd" clip-rule="evenodd" d="M157.465 12.895H164.117L156.477 33.2835C154.386 38.8226 151.23 40.3234 148.114 40.3234C146.973 40.3226 145.833 40.0924 144.768 39.8234L145.99 34.663C146.403 34.7155 146.821 34.7456 147.24 34.7456C148.835 34.7453 150.166 33.8213 151.041 31.8218L142.449 12.895H149.292L153.74 23.8966L157.465 12.895Z" fill="#2A2929"/>
<path fill-rule="evenodd" clip-rule="evenodd" d="M165.645 31.3599V12.895H179.861V18.2809H172.107V31.3599H165.645Z" fill="#2A2929"/>
<path fill-rule="evenodd" clip-rule="evenodd" d="M189.056 27.5128C190.121 27.5128 191.071 27.2822 192.059 26.5511L192.059 24.0506C191.489 23.8583 190.615 23.7048 189.74 23.7048C188.22 23.7048 186.851 24.2429 186.851 25.7052C186.851 26.6663 187.688 27.5128 189.056 27.5128ZM199.776 27.2435L200.498 31.1672C199.624 31.513 198.445 31.7443 197.229 31.7443C195.214 31.7438 193.732 31.0137 192.896 29.706C191.147 31.0902 189.132 31.9366 186.547 31.9366C183.05 31.9366 180.199 29.8207 180.199 26.2435C180.199 21.5889 184.57 20.1659 188.106 20.1659C189.475 20.1659 190.843 20.3188 192.059 20.5889L192.059 19.9348C192.059 18.6271 190.843 17.6263 188.258 17.6263C186.332 17.6263 184.53 18.0747 182.968 18.6302L181.872 13.5491C183.393 13.0492 186.281 12.3184 188.98 12.3184C194.796 12.3184 198.521 14.3567 198.521 20.9353L198.521 26.0892C198.521 26.9739 199.13 27.2435 199.776 27.2435Z" fill="#2A2929"/>
<path fill-rule="evenodd" clip-rule="evenodd" d="M112.02 27.5128C113.085 27.5128 114.036 27.2822 115.024 26.5511V24.0506C114.453 23.8583 113.579 23.7048 112.705 23.7048C111.185 23.7048 109.817 24.2429 109.817 25.7052C109.817 26.6663 110.653 27.5128 112.02 27.5128ZM122.741 27.2435L123.464 31.1672C122.589 31.513 121.41 31.7443 120.194 31.7443C118.179 31.7438 116.697 31.0137 115.86 29.706C114.112 31.0902 112.097 31.9366 109.512 31.9366C106.015 31.9366 103.164 29.8207 103.164 26.2435C103.164 21.5889 107.535 20.1659 111.071 20.1659C112.439 20.1659 113.808 20.3188 115.024 20.5889V19.9348C115.024 18.6271 113.808 17.6263 111.223 17.6263C109.298 17.6263 107.495 18.0747 105.933 18.6302L104.836 13.5491C106.358 13.0492 109.247 12.3184 111.945 12.3184C117.761 12.3184 121.487 14.3567 121.487 20.9353V26.0892C121.487 26.9739 122.094 27.2435 122.741 27.2435Z" fill="#2A2929"/>
<path fill-rule="evenodd" clip-rule="evenodd" d="M68.5598 27.5128C69.6249 27.5128 70.5746 27.2822 71.5633 26.5511V24.0506C70.9927 23.8583 70.1185 23.7048 69.244 23.7048C67.7242 23.7048 66.3558 24.2429 66.3558 25.7052C66.3558 26.6663 67.1922 27.5128 68.5598 27.5128ZM79.2802 27.2435L80.0027 31.1672C79.1282 31.513 77.9493 31.7443 76.7331 31.7443C74.7182 31.7438 73.236 31.0137 72.3998 29.706C70.6514 31.0902 68.6362 31.9366 66.0518 31.9366C62.5541 31.9366 59.7031 29.8207 59.7031 26.2435C59.7034 21.5889 64.0748 20.1659 67.61 20.1659C68.9784 20.1659 70.3471 20.3188 71.5633 20.5889V19.9348C71.5633 18.6271 70.3471 17.6263 67.7619 17.6263C65.8362 17.6263 64.0337 18.0747 62.4727 18.6302L61.3754 13.5491C62.8961 13.0492 65.7852 12.3184 68.484 12.3184C74.3002 12.3184 78.0248 14.3567 78.0248 20.9353V26.0892C78.0248 26.9739 78.6338 27.2435 79.2802 27.2435Z" fill="#2A2929"/>
<path fill-rule="evenodd" clip-rule="evenodd" d="M14.6058 7.77807C14.7216 7.84385 14.8383 7.91021 14.955 7.97853C15.0231 8.0176 15.0913 8.05834 15.1591 8.09882C15.395 8.23713 15.6312 8.3794 15.8687 8.52389C15.9181 8.55425 15.9676 8.58486 16.0176 8.61438C16.1281 8.68325 16.2398 8.75357 16.3515 8.82357C16.4334 8.87473 16.5156 8.92562 16.5967 8.9779C16.7051 9.04706 16.8145 9.11621 16.922 9.18649C17.0098 9.24299 17.0968 9.29917 17.1838 9.3568C17.2899 9.42511 17.3957 9.49484 17.5018 9.56484C17.5979 9.62837 17.6949 9.69415 17.7916 9.75936C17.9538 9.86759 18.1163 9.97922 18.2797 10.0908C18.393 10.1684 18.5066 10.2465 18.6205 10.3261C18.7188 10.3944 18.8169 10.4641 18.9147 10.5336C19.0164 10.605 19.1175 10.6767 19.2192 10.7495C19.3178 10.8206 19.4159 10.8912 19.5142 10.962C19.6198 11.0385 19.7256 11.1166 19.8314 11.1942C19.925 11.2625 20.0181 11.3308 20.1115 11.4002C20.2518 11.5031 20.3909 11.6091 20.5309 11.7151C20.6426 11.7994 20.7542 11.884 20.8667 11.9701C21.0037 12.0743 21.1404 12.1798 21.2774 12.2863C21.3651 12.3532 21.4526 12.4229 21.5404 12.4924C21.6573 12.584 21.7737 12.6768 21.8912 12.7692C21.9804 12.8401 22.0687 12.9112 22.1571 12.9818C22.2815 13.0813 22.406 13.1822 22.5296 13.284C22.6096 13.3478 22.688 13.4119 22.7671 13.4768C22.9272 13.6078 23.0878 13.7414 23.2467 13.874C23.4058 13.7416 23.5642 13.6104 23.7225 13.4808C23.8058 13.4113 23.89 13.3436 23.9741 13.2755C24.0936 13.1774 24.2117 13.0816 24.3312 12.9863C24.4239 12.9118 24.5159 12.8384 24.6084 12.7645C24.7209 12.6756 24.8326 12.5871 24.9451 12.4988C25.0365 12.4269 25.1287 12.354 25.2206 12.2829C25.3482 12.1831 25.4753 12.087 25.6017 11.9889C25.7334 11.8885 25.864 11.7893 25.994 11.6912C26.1224 11.5945 26.2502 11.498 26.3774 11.4039C26.4757 11.3305 26.5732 11.2591 26.6707 11.1874C26.7721 11.1132 26.8729 11.0396 26.9743 10.9668C27.076 10.892 27.178 10.8191 27.2797 10.7461C27.3766 10.6763 27.4733 10.608 27.5703 10.54C27.6722 10.4672 27.7745 10.3955 27.8764 10.3241C27.9775 10.253 28.0786 10.1836 28.1811 10.1136C28.3622 9.98902 28.5422 9.86702 28.722 9.74586C28.8114 9.68542 28.8995 9.62613 28.9878 9.56681C29.0981 9.49457 29.2079 9.42318 29.3165 9.35065C29.4001 9.29724 29.4829 9.24324 29.5656 9.19011C29.6782 9.11758 29.7895 9.04589 29.9006 8.97505C29.9787 8.92529 30.0557 8.87779 30.1326 8.82944C30.2485 8.75663 30.3637 8.68385 30.479 8.61301C30.5096 8.59417 30.5393 8.57671 30.5688 8.55788C30.829 8.39821 31.0877 8.24331 31.3458 8.09207C31.4092 8.0544 31.4724 8.01733 31.5352 7.9805C31.6549 7.91022 31.7735 7.84246 31.8933 7.77499C31.9497 7.74266 32.0064 7.71006 32.0636 7.67885C29.0721 5.00182 26.096 2.74195 23.2467 0.94873C20.3973 2.74195 17.4218 5.00182 14.4297 7.67885C14.4883 7.71034 14.5472 7.74433 14.6058 7.77807Z" fill="#2A2929"/>
<path fill-rule="evenodd" clip-rule="evenodd" d="M39.2826 15.3794C39.1609 15.4466 39.0378 15.5148 38.9156 15.5843C38.8528 15.6194 38.7889 15.6549 38.7261 15.6906C38.6053 15.76 38.4836 15.8297 38.3628 15.8994C38.302 15.9346 38.242 15.9711 38.1817 16.0066C37.9117 16.1648 37.6402 16.3276 37.3679 16.4948C37.3488 16.5069 37.3291 16.5184 37.3091 16.5302C37.1927 16.6019 37.0751 16.6764 36.9576 16.7495C36.8824 16.797 36.8063 16.8443 36.7307 16.8926C36.6177 16.9634 36.506 17.0357 36.3929 17.1088C36.3115 17.1613 36.2301 17.2147 36.1476 17.2682C36.0373 17.3407 35.9263 17.4127 35.816 17.4869C35.7296 17.5431 35.6434 17.6018 35.5571 17.6595C35.372 17.7848 35.185 17.9116 34.9978 18.0401C34.9008 18.1067 34.8034 18.1737 34.7064 18.2411C34.6033 18.3131 34.4991 18.3867 34.3961 18.4598C34.3005 18.5276 34.2053 18.5947 34.1091 18.6636C34.0066 18.7364 33.9041 18.8112 33.8022 18.8851C33.7019 18.9573 33.6022 19.0307 33.5019 19.1041C33.4033 19.1766 33.3052 19.2489 33.206 19.3228C33.0788 19.417 32.9516 19.5125 32.8238 19.609C32.6935 19.7076 32.5627 19.8066 32.4318 19.907C32.3041 20.004 32.1773 20.1023 32.0496 20.201C31.9573 20.2724 31.8654 20.3452 31.7737 20.4169C31.6612 20.5052 31.5495 20.5935 31.4379 20.6828C31.3445 20.7565 31.2517 20.831 31.1592 20.9049C31.0672 20.9789 30.9745 21.0539 30.8828 21.1292C31.0717 21.3308 31.2595 21.5341 31.4484 21.7393C31.507 21.8036 31.566 21.8683 31.6243 21.9326C31.771 22.0932 31.9187 22.2554 32.0649 22.4176C32.1351 22.4952 32.2043 22.5733 32.2741 22.6504C32.4171 22.8103 32.5604 22.9722 32.704 23.1339C32.7662 23.2047 32.8285 23.2747 32.8908 23.3458C33.0938 23.5769 33.2961 23.8082 33.4975 24.0427C33.6991 24.2763 33.8989 24.5105 34.0978 24.7452C34.1594 24.818 34.2206 24.8911 34.2822 24.9648C34.4208 25.1292 34.5594 25.2945 34.6966 25.4601C34.7647 25.5416 34.8317 25.6237 34.8989 25.7055C35.0381 25.8739 35.1767 26.0434 35.3145 26.2126C35.3712 26.2817 35.4284 26.3515 35.4842 26.4212C35.6751 26.6559 35.864 26.8918 36.0512 27.1279C36.0782 27.1619 36.1051 27.1959 36.1317 27.2291C36.2931 27.4332 36.4521 27.6367 36.6113 27.8405C36.6738 27.9195 36.7343 27.9991 36.796 28.0786C36.9218 28.2408 37.0468 28.4033 37.1704 28.5661C37.2352 28.6496 37.299 28.7339 37.3629 28.818C37.4429 28.9226 37.5227 29.0279 37.6019 29.1334C37.6063 29.1294 37.6102 29.1264 37.6152 29.1227C37.7414 29.0201 37.8677 28.9183 37.9935 28.8166C38.0805 28.7463 38.1683 28.6771 38.2558 28.6074C38.375 28.5121 38.4936 28.4188 38.613 28.3249C38.6986 28.2574 38.7842 28.1905 38.8694 28.1239C39.0117 28.0137 39.1531 27.904 39.2954 27.7961C39.3973 27.7182 39.4989 27.6407 39.6006 27.5636C39.7478 27.4532 39.8939 27.343 40.0398 27.2345C40.1309 27.1673 40.2206 27.1006 40.312 27.0343C40.4209 26.9536 40.5299 26.8747 40.6382 26.7962C40.7349 26.7265 40.831 26.6571 40.9265 26.5887C41.0318 26.5131 41.1357 26.4398 41.2396 26.3656C41.3354 26.2981 41.4304 26.23 41.526 26.1631C41.6476 26.0791 41.7685 25.9964 41.8894 25.9129C42.0416 25.8086 42.1935 25.7055 42.3449 25.6037C42.4466 25.5351 42.5486 25.4662 42.6503 25.3993C42.7536 25.3302 42.8566 25.2633 42.96 25.1958C43.0503 25.1362 43.1408 25.078 43.2308 25.0201C43.3367 24.951 43.4423 24.8832 43.5481 24.8163C43.6345 24.7618 43.7195 24.7081 43.8056 24.6547C43.9131 24.5861 44.0212 24.5189 44.1287 24.4526C44.1959 24.4112 44.2623 24.371 44.3295 24.3303C44.5459 24.1987 44.7615 24.0689 44.9765 23.9429C45.0507 23.8985 45.124 23.8552 45.1976 23.8122C45.3115 23.7464 45.4246 23.6823 45.538 23.6177C45.6102 23.5758 45.6827 23.5345 45.7557 23.4937C45.8349 23.4484 45.9155 23.4031 45.9952 23.3593C44.2693 20.9282 42.3744 18.5025 40.3248 16.1251C40.0668 15.8246 39.8071 15.5289 39.5479 15.2349C39.5109 15.2548 39.4747 15.2743 39.4381 15.2942C39.3858 15.322 39.3342 15.3504 39.2826 15.3794Z" fill="#2A2929"/>
<path fill-rule="evenodd" clip-rule="evenodd" d="M23.3559 13.9642C23.4126 14.012 23.4698 14.0612 23.527 14.1095C23.6751 14.2341 23.8235 14.36 23.971 14.4868C24.051 14.5554 24.1301 14.6234 24.2093 14.692C24.3395 14.8036 24.4682 14.9163 24.5982 15.0298C24.6776 15.0996 24.7574 15.1693 24.8366 15.2401C24.9794 15.3649 25.1215 15.4909 25.2635 15.6191C25.3274 15.6756 25.3902 15.7315 25.4544 15.7895C25.6555 15.9705 25.8568 16.1529 26.0577 16.3384C26.113 16.3885 26.1685 16.4405 26.2238 16.4916C26.3752 16.6313 26.5263 16.7725 26.6777 16.9142C26.7527 16.9845 26.8261 17.0545 26.9011 17.1245C27.0383 17.2532 27.1756 17.3833 27.312 17.5152C27.3856 17.5849 27.4584 17.6546 27.5312 17.7257C27.6912 17.8787 27.85 18.0338 28.0097 18.189C28.0556 18.2346 28.1023 18.2801 28.149 18.3259C28.3534 18.5263 28.5571 18.7288 28.7621 18.9331C28.8174 18.9894 28.8729 19.0456 28.929 19.1021C29.0801 19.2544 29.2316 19.4076 29.3835 19.5628C29.4538 19.6342 29.5244 19.7068 29.5944 19.7793C29.7372 19.9257 29.8799 20.0733 30.0221 20.2218C30.0885 20.2915 30.1549 20.36 30.2216 20.4295C30.3997 20.6161 30.5786 20.8051 30.7567 20.9954C30.7836 21.024 30.8103 21.0513 30.8366 21.08C30.8522 21.0963 30.8677 21.1126 30.8833 21.13C30.9753 21.0544 31.0677 20.9799 31.1597 20.9057C31.2525 20.8318 31.3447 20.7573 31.4384 20.6836C31.55 20.5937 31.6617 20.5059 31.7742 20.4177C31.8662 20.346 31.9578 20.2735 32.05 20.2018C32.1778 20.1028 32.3046 20.0053 32.4323 19.9078C32.5632 19.8074 32.694 19.7084 32.8243 19.6097C32.9521 19.5133 33.0793 19.4177 33.2065 19.3236C33.3057 19.2494 33.4038 19.1774 33.5024 19.1049C33.6027 19.0315 33.7024 18.9587 33.8027 18.8859C33.9046 18.8114 34.0069 18.7375 34.1096 18.6644C34.2058 18.5952 34.301 18.5286 34.3966 18.4606C34.4999 18.3875 34.6038 18.3139 34.7069 18.2419C34.8039 18.1739 34.9013 18.1075 34.9983 18.0409C35.1855 17.9119 35.3725 17.7856 35.5575 17.6602C35.6439 17.6023 35.7301 17.5439 35.8165 17.4877C35.9267 17.4132 36.0375 17.3414 36.1481 17.2689C36.2309 17.2155 36.312 17.1627 36.3934 17.1095C36.5065 17.0359 36.6182 16.9645 36.7312 16.8934C36.8071 16.8445 36.8826 16.7978 36.9581 16.7503C37.0756 16.6766 37.1932 16.6027 37.3096 16.531C37.3296 16.5189 37.3493 16.5077 37.3684 16.4956C37.6415 16.328 37.9122 16.1659 38.1822 16.0073C38.2425 15.9716 38.3024 15.9356 38.3633 15.9002C38.4841 15.8302 38.6057 15.7608 38.7266 15.6913C38.7896 15.6554 38.8533 15.6207 38.9161 15.585C39.0386 15.5156 39.1614 15.4476 39.283 15.3801C39.3347 15.3509 39.3863 15.3228 39.4385 15.295C39.4755 15.2747 39.5114 15.2547 39.5475 15.2356C37.0857 12.4473 34.57 9.91896 32.0662 7.68018C32.0098 7.71138 31.9522 7.74342 31.8959 7.77631C31.7764 7.8435 31.6575 7.91154 31.5378 7.98182C31.475 8.01837 31.4115 8.05572 31.3484 8.09339C31.0906 8.24463 30.8316 8.39953 30.5713 8.5592C30.5419 8.57776 30.5121 8.59605 30.4816 8.61433C30.3666 8.68517 30.2511 8.75823 30.1352 8.83076C30.0583 8.87883 29.981 8.92689 29.9032 8.97637C29.7924 9.04721 29.6805 9.1189 29.5682 9.19143C29.4854 9.24456 29.4027 9.29856 29.3191 9.35197C29.2105 9.4245 29.1007 9.49617 28.9904 9.56813C28.902 9.62745 28.8137 9.68702 28.7245 9.74718C28.5451 9.86806 28.3648 9.99062 28.1837 10.1149C28.0812 10.1846 27.9801 10.2543 27.879 10.3254C27.777 10.3968 27.6748 10.4691 27.5729 10.5413C27.4762 10.6094 27.3792 10.6779 27.2823 10.7474C27.1806 10.8202 27.0786 10.8936 26.9769 10.9681C26.8758 11.0409 26.7747 11.1145 26.6733 11.1888C26.5761 11.2602 26.4783 11.3321 26.38 11.4052C26.253 11.4988 26.1249 11.5958 25.9966 11.6925C25.8666 11.7906 25.7357 11.8898 25.6043 11.9902C25.4779 12.088 25.3504 12.185 25.2232 12.2842C25.1313 12.3545 25.0388 12.4282 24.9477 12.5002C24.8355 12.5884 24.7235 12.677 24.611 12.7658C24.5185 12.8394 24.4265 12.9131 24.3337 12.9876C24.2143 13.0826 24.0962 13.1796 23.9767 13.2768C23.8925 13.3446 23.8084 13.4126 23.7251 13.4821C23.5667 13.6114 23.4083 13.7441 23.25 13.8765C23.2844 13.9057 23.3206 13.9344 23.3559 13.9642Z" fill="#2A2929"/>
<path fill-rule="evenodd" clip-rule="evenodd" d="M0.957495 23.6177C1.07056 23.6818 1.18309 23.7467 1.29671 23.8122C1.37144 23.8552 1.44532 23.8996 1.51949 23.9429C1.73256 24.0689 1.94587 24.1962 2.16005 24.3266C2.22894 24.3691 2.29738 24.4104 2.36655 24.4526C2.4735 24.5189 2.58095 24.5866 2.68818 24.6547C2.77458 24.7081 2.86098 24.7618 2.9471 24.8163C3.05266 24.8829 3.15851 24.9513 3.26407 25.0193C3.3538 25.078 3.44489 25.1365 3.536 25.1958C3.63879 25.2633 3.74106 25.3308 3.8444 25.3988C3.94607 25.4663 4.04884 25.5351 4.15052 25.6037C4.30247 25.7057 4.45389 25.8092 4.60584 25.9129C4.72696 25.9964 4.84776 26.0791 4.96861 26.1631C5.06417 26.23 5.15941 26.2981 5.25497 26.3656C5.35887 26.4395 5.46425 26.5131 5.56814 26.5887C5.66454 26.6571 5.76029 26.7265 5.85668 26.7962C5.96558 26.8747 6.07449 26.9539 6.18255 27.0343C6.27395 27.1006 6.36425 27.1673 6.45481 27.2345C6.60204 27.343 6.74897 27.4543 6.89592 27.5656C6.99732 27.6407 7.0968 27.7171 7.19792 27.7947C7.34015 27.9035 7.48296 28.0128 7.62492 28.1239C7.71076 28.1902 7.79599 28.2574 7.88155 28.3249C8.00101 28.4188 8.12054 28.5124 8.23943 28.6074C8.32638 28.6771 8.41411 28.7463 8.50106 28.8166C8.62718 28.918 8.75332 29.0204 8.87999 29.1227C8.88416 29.1261 8.88835 29.1297 8.8928 29.1334C8.97113 29.0291 9.05105 28.9248 9.13022 28.8199C9.19467 28.7347 9.25977 28.6493 9.32533 28.5647C9.4484 28.4016 9.5722 28.242 9.69721 28.0803C9.75971 27.9999 9.82118 27.9201 9.88396 27.8397C10.0412 27.6381 10.1995 27.4371 10.3584 27.2353C10.3873 27.1996 10.4157 27.1628 10.444 27.1271C10.6315 26.8907 10.8202 26.6562 11.0104 26.4212C11.0671 26.3515 11.1242 26.2815 11.1815 26.2115C11.3187 26.0423 11.4565 25.8741 11.5951 25.706C11.6629 25.6237 11.7302 25.5416 11.7988 25.4601C11.936 25.2945 12.0738 25.1303 12.2121 24.9659C12.2732 24.8914 12.3352 24.8183 12.3977 24.7452C12.5958 24.5102 12.7958 24.2757 12.9972 24.0427C13.1989 23.8085 13.4012 23.5769 13.6034 23.3464C13.667 23.2747 13.7297 23.2033 13.7925 23.1316C13.9348 22.9705 14.0768 22.8115 14.219 22.6523C14.2898 22.5733 14.3608 22.4952 14.4317 22.4162C14.577 22.2548 14.7215 22.0949 14.8674 21.9363C14.9274 21.8703 14.9876 21.8036 15.0476 21.7378C15.2359 21.5335 15.4245 21.3305 15.6123 21.1292C15.5187 21.0533 15.4254 20.9775 15.3323 20.9024C15.2423 20.8293 15.1515 20.7579 15.0618 20.6865C14.946 20.5934 14.8312 20.5035 14.7159 20.413C14.627 20.3424 14.5373 20.2727 14.4482 20.2035C14.3145 20.0987 14.1809 19.9967 14.0479 19.8949C13.9292 19.8041 13.8103 19.7139 13.6914 19.6239C13.5564 19.5221 13.4214 19.4204 13.2872 19.3203C13.1902 19.2486 13.0947 19.1789 12.9994 19.1086C12.8961 19.0327 12.793 18.9579 12.6894 18.8826C12.5894 18.81 12.4894 18.7381 12.3891 18.6667C12.2902 18.5944 12.1913 18.5256 12.0921 18.4553C11.9918 18.3836 11.8907 18.313 11.791 18.2428C11.6854 18.1688 11.5804 18.0972 11.4749 18.0246C11.2999 17.9043 11.1248 17.7849 10.9501 17.6676C10.8593 17.6064 10.7679 17.5451 10.6768 17.4855C10.5679 17.4124 10.4595 17.3421 10.3514 17.2716C10.2673 17.2156 10.1831 17.1608 10.0981 17.1065C9.98777 17.0351 9.87694 16.964 9.76666 16.894C9.68832 16.8437 9.6098 16.7953 9.53118 16.7461C9.41673 16.6744 9.30219 16.6019 9.18774 16.5319C9.15523 16.5111 9.12332 16.4929 9.09138 16.4726C8.8333 16.3144 8.57693 16.1609 8.32136 16.0113C8.25802 15.9728 8.1941 15.9351 8.13048 15.8992C8.01131 15.8294 7.89161 15.7611 7.77271 15.6925C7.70799 15.6552 7.64213 15.6183 7.57685 15.5818C7.45628 15.5137 7.3352 15.4468 7.21408 15.3799C7.15991 15.3501 7.10514 15.3209 7.05153 15.2911C7.01708 15.2725 6.98213 15.254 6.94768 15.2349C6.68822 15.5289 6.42875 15.8249 6.1704 16.1251C4.12026 18.5025 2.22594 20.9282 0.5 23.3593C0.579172 23.4029 0.658943 23.449 0.738948 23.4937C0.812008 23.5345 0.884712 23.5764 0.957495 23.6177Z" fill="#2A2929"/>
<path fill-rule="evenodd" clip-rule="evenodd" d="M29.9705 35.9987C29.9077 35.9174 29.8453 35.837 29.7817 35.7555C29.6256 35.5548 29.4683 35.3547 29.31 35.1548C29.2802 35.1177 29.2521 35.0806 29.2229 35.0434C29.0349 34.8076 28.8463 34.5735 28.6566 34.339C28.5997 34.2682 28.5413 34.1979 28.4849 34.1276C28.3477 33.9592 28.2098 33.7914 28.072 33.6233C28.004 33.5406 27.9354 33.4588 27.8685 33.3773C27.7312 33.2117 27.5926 33.0473 27.4545 32.882C27.3925 32.8089 27.331 32.7353 27.2696 32.6622C27.071 32.4274 26.8706 32.1927 26.6697 31.9591C26.4678 31.7247 26.2652 31.4939 26.063 31.2639C26.0002 31.1922 25.9375 31.1211 25.8744 31.0503C25.7325 30.8886 25.5895 30.7284 25.4461 30.5684C25.3761 30.4894 25.3057 30.4121 25.2366 30.334C25.0905 30.1723 24.9439 30.0113 24.7977 29.8513C24.7377 29.7855 24.6788 29.7206 24.6188 29.6556C24.4157 29.4347 24.2121 29.2143 24.0085 28.9967C23.9805 28.9672 23.9526 28.9382 23.9243 28.9079C23.7485 28.7195 23.5718 28.5335 23.394 28.3471C23.3454 28.2962 23.2965 28.2453 23.2471 28.1938C23.1982 28.2461 23.1481 28.2973 23.0984 28.3485C22.9253 28.5317 22.7506 28.7156 22.5767 28.9009C22.5464 28.9332 22.5159 28.9655 22.4848 28.9981C22.282 29.2154 22.0789 29.4341 21.8761 29.6554C21.8158 29.7206 21.7552 29.7878 21.6941 29.8541C21.5488 30.0127 21.4039 30.1729 21.2589 30.334C21.1883 30.4121 21.1175 30.4903 21.048 30.5687C20.9047 30.7284 20.7624 30.8886 20.6196 31.0503C20.5566 31.1211 20.4938 31.1922 20.4316 31.2639C20.2288 31.4939 20.0263 31.7249 19.8249 31.9591C19.6235 32.1927 19.424 32.4274 19.2246 32.6622C19.1635 32.735 19.1024 32.8092 19.041 32.8811C18.9015 33.0473 18.7628 33.2123 18.625 33.3787C18.5578 33.4591 18.4912 33.5404 18.425 33.6202C18.2842 33.7903 18.1451 33.9609 18.0062 34.1315C17.9506 34.1998 17.8947 34.2684 17.8386 34.3376C17.6478 34.5734 17.4583 34.8087 17.2711 35.0454C17.2442 35.0783 17.2189 35.1123 17.1917 35.1452C17.0306 35.3493 16.87 35.5534 16.7111 35.7583C16.6488 35.837 16.5885 35.9155 16.5271 35.9942C16.4949 36.0363 16.4627 36.0796 16.4297 36.121C16.4755 36.1687 16.5211 36.2162 16.5661 36.264C16.7444 36.451 16.9225 36.6393 17.1014 36.8285C17.1275 36.8572 17.1542 36.885 17.1811 36.9148C17.385 37.1321 17.5892 37.3522 17.7928 37.5735C17.8515 37.6376 17.9109 37.7033 17.9695 37.7683C18.1167 37.9288 18.2639 38.091 18.4101 38.2526C18.4803 38.3297 18.5487 38.4078 18.6187 38.4848C18.7624 38.6453 18.9051 38.8073 19.0485 38.9686C19.1115 39.0395 19.1737 39.1098 19.236 39.1812C19.439 39.4114 19.6413 39.6436 19.8427 39.8772C20.0441 40.1105 20.2435 40.3444 20.4421 40.5791C20.5043 40.653 20.5666 40.7267 20.628 40.8012C20.7669 40.9657 20.9047 41.1301 21.0416 41.2957C21.1089 41.3761 21.177 41.4576 21.2439 41.5403C21.3834 41.7081 21.5219 41.8773 21.6589 42.0471C21.7164 42.116 21.7728 42.1865 21.8295 42.256C22.0195 42.491 22.2084 42.7263 22.3959 42.9621C22.4248 42.9981 22.4523 43.0341 22.4806 43.0698C22.6407 43.2711 22.7987 43.4726 22.9556 43.6745C23.0178 43.7543 23.0809 43.8356 23.1431 43.9157C23.1778 43.9601 23.2124 44.0048 23.2471 44.0509C23.2818 44.0048 23.3171 43.9601 23.3523 43.9148C23.4148 43.8344 23.4759 43.7543 23.5384 43.6745C23.6968 43.4718 23.8551 43.2702 24.0157 43.0678C24.0432 43.0324 24.0707 42.9978 24.0985 42.9624C24.2849 42.7263 24.4751 42.4913 24.6646 42.256C24.7213 42.1862 24.7785 42.116 24.8352 42.0471C24.973 41.8773 25.1116 41.7081 25.2508 41.5403C25.3183 41.4576 25.385 41.3761 25.4531 41.2957C25.5903 41.1301 25.7275 40.9657 25.8658 40.8012C25.9283 40.7267 25.9897 40.6533 26.0525 40.5791C26.2508 40.3444 26.4508 40.1108 26.6522 39.8772C26.8536 39.6436 27.056 39.4114 27.2582 39.1812C27.3204 39.1095 27.3834 39.0395 27.4454 38.9686C27.5893 38.8067 27.7318 38.6456 27.8754 38.4848C27.9454 38.4075 28.0146 38.3297 28.0846 38.2526C28.2305 38.0904 28.3774 37.9288 28.5247 37.7683C28.5833 37.7025 28.6427 37.6376 28.7019 37.5735C28.9058 37.3519 29.1091 37.1321 29.3135 36.9148C29.3399 36.8847 29.3666 36.8572 29.3933 36.8285C29.5717 36.639 29.7497 36.451 29.9281 36.264C29.9739 36.2162 30.0192 36.1687 30.0645 36.121C30.0336 36.0808 30.0022 36.0394 29.9705 35.9987Z" fill="#2A2929"/>
<path fill-rule="evenodd" clip-rule="evenodd" d="M7.21584 15.3807C7.33668 15.4473 7.45754 15.5148 7.57838 15.5825C7.64366 15.6191 7.70925 15.6565 7.77425 15.6933C7.89315 15.7611 8.01257 15.8305 8.13202 15.8999C8.19591 15.9359 8.25956 15.9739 8.3229 16.0121C8.57847 16.1614 8.83484 16.3151 9.09291 16.4734C9.12486 16.4936 9.15649 16.5122 9.18927 16.5327C9.30372 16.6027 9.41827 16.6752 9.53272 16.7469C9.61134 16.7961 9.68958 16.845 9.76819 16.8948C9.87848 16.9648 9.98931 17.0364 10.0996 17.1073C10.1846 17.1615 10.2688 17.2167 10.353 17.2723C10.4613 17.3429 10.5694 17.4134 10.6783 17.4862C10.7694 17.5458 10.8605 17.6074 10.9516 17.6684C11.1264 17.7859 11.3011 17.9051 11.4764 18.0254C11.582 18.0974 11.687 18.1699 11.7925 18.2435C11.8923 18.3138 11.9934 18.3844 12.0936 18.4561C12.1928 18.5264 12.2918 18.5955 12.3907 18.6675C12.4912 18.7389 12.5909 18.8108 12.6909 18.8833C12.7945 18.9581 12.8976 19.0335 13.0009 19.1094C13.0962 19.1794 13.1918 19.2496 13.2887 19.321C13.4229 19.4206 13.5579 19.5232 13.6929 19.6247C13.8121 19.7146 13.9308 19.8049 14.0494 19.8957C14.1825 19.9974 14.3158 20.0994 14.4497 20.2043C14.5389 20.2732 14.6285 20.3438 14.7174 20.4138C14.833 20.5043 14.9475 20.5948 15.0634 20.6872C15.1534 20.7584 15.2436 20.8301 15.3339 20.9032C15.4275 20.978 15.5208 21.0532 15.6138 21.13C15.6291 21.1131 15.6439 21.0977 15.6587 21.0814C15.6892 21.0496 15.7195 21.0176 15.75 20.9853C15.9248 20.7994 16.0983 20.6156 16.2731 20.4326C16.3417 20.3595 16.4109 20.2883 16.4803 20.2164C16.6198 20.0708 16.7582 19.9271 16.8973 19.7843C16.9712 19.7084 17.0437 19.6337 17.1173 19.5589C17.2651 19.4085 17.4124 19.2589 17.5591 19.1105C17.6193 19.0503 17.6788 18.9907 17.7382 18.9303C17.9396 18.7276 18.1427 18.5275 18.3455 18.3279C18.3971 18.277 18.448 18.2278 18.5002 18.178C18.6538 18.0268 18.8077 17.8772 18.9613 17.7283C19.0385 17.6549 19.1142 17.5826 19.1911 17.5084C19.3233 17.3822 19.4561 17.2552 19.5897 17.1301C19.6677 17.0564 19.7453 16.9836 19.8231 16.9105C19.9689 16.7742 20.1144 16.6381 20.2608 16.5038C20.3208 16.4475 20.3817 16.3913 20.4425 16.3348C20.6406 16.152 20.8398 15.9719 21.0387 15.7931C21.1078 15.7298 21.1778 15.6685 21.247 15.6061C21.3831 15.4841 21.5187 15.3636 21.6543 15.2441C21.7387 15.1696 21.8226 15.0968 21.9054 15.0242C22.0298 14.9143 22.1552 14.8064 22.2788 14.6993C22.3629 14.6267 22.4462 14.5542 22.5304 14.4828C22.6704 14.3617 22.8113 14.2433 22.951 14.1252C23.0163 14.0704 23.0799 14.0159 23.1441 13.9616C23.1791 13.9327 23.2136 13.9046 23.2475 13.8765C23.0877 13.7427 22.928 13.6091 22.768 13.4781C22.6891 13.4132 22.6104 13.3497 22.5304 13.2853C22.4068 13.1835 22.2823 13.0829 22.1579 12.9831C22.0695 12.9125 21.9809 12.8417 21.892 12.7706C21.7745 12.6775 21.6579 12.5853 21.5412 12.4937C21.4537 12.4242 21.3659 12.3554 21.2782 12.2876C21.1412 12.1808 21.0045 12.0762 20.8675 11.9714C20.755 11.8854 20.6434 11.8007 20.5317 11.7164C20.3917 11.6104 20.2526 11.5053 20.1123 11.4016C20.0192 11.3319 19.9258 11.2641 19.8322 11.1955C19.7264 11.1179 19.6203 11.0401 19.515 10.9633C19.4167 10.8925 19.3183 10.8219 19.22 10.7508C19.1183 10.6777 19.0172 10.6063 18.9155 10.5349C18.8177 10.4652 18.7194 10.396 18.6213 10.3274C18.5074 10.2476 18.3935 10.1697 18.2805 10.0921C18.1171 9.98026 17.9543 9.86948 17.7924 9.76068C17.6957 9.6949 17.5988 9.62997 17.5026 9.56616C17.3965 9.49588 17.2907 9.42643 17.1846 9.35812C17.0976 9.30049 17.0106 9.24431 16.9228 9.18781C16.8156 9.11725 16.7056 9.04838 16.5975 8.97922C16.5164 8.92666 16.4342 8.87661 16.3523 8.82489C16.2406 8.75489 16.1289 8.68457 16.0184 8.6157C15.9684 8.5859 15.9189 8.55586 15.8695 8.52522C15.632 8.38072 15.3955 8.23901 15.1599 8.10014C15.0924 8.05938 15.0239 8.0192 14.9558 7.97985C14.8394 7.91154 14.7225 7.84517 14.6066 7.77939C14.548 7.74566 14.4891 7.71278 14.4305 7.68018C11.9267 9.91896 9.41188 12.4473 6.94922 15.2356C6.98394 15.2542 7.01834 15.2736 7.05307 15.2919C7.10668 15.3211 7.16139 15.3512 7.21584 15.3807Z" fill="#2A2929"/>
</svg>
