<svg width="30" height="30" viewBox="0 0 30 30" fill="none" xmlns="http://www.w3.org/2000/svg">
<path d="M4.5 15L4.10652 14.6915L3.86465 15L4.10652 15.3085L4.5 15ZM13.95 15.5C14.2261 15.5 14.45 15.2761 14.45 15C14.45 14.7239 14.2261 14.5 13.95 14.5V15V15.5ZM16.4095 5.83186L16.3257 5.33894V5.33894L16.4095 5.83186ZM18.1643 5.53344L18.2481 6.02636V6.02636L18.1643 5.53344ZM18.1643 24.4666L18.2481 23.9736L18.1643 24.4666ZM16.4095 24.1681L16.3257 24.6611L16.4095 24.1681ZM13.3977 23.1411L13.7824 22.8217L13.7824 22.8217L13.3977 23.1411ZM24.3861 24.3724L24.7131 24.7506L24.3861 24.3724ZM24.3861 5.62764L24.7131 5.24937V5.24937L24.3861 5.62764ZM13.3977 6.85888L13.013 6.5395L13.3977 6.85888ZM8.7 9.64294L8.30652 9.33445L4.10652 14.6915L4.5 15L4.89348 15.3085L9.09348 9.95144L8.7 9.64294ZM4.5 15L4.10652 15.3085L8.30652 20.6656L8.7 20.3571L9.09348 20.0486L4.89348 14.6915L4.5 15ZM4.5 15V15.5H13.95V15V14.5H4.5V15ZM16.4095 5.83186L16.4934 6.32478L18.2481 6.02636L18.1643 5.53344L18.0805 5.04051L16.3257 5.33894L16.4095 5.83186ZM25.5 11.8744H25V18.1256H25.5H26V11.8744H25.5ZM18.1643 24.4666L18.2481 23.9736L16.4934 23.6752L16.4095 24.1681L16.3257 24.6611L18.0805 24.9595L18.1643 24.4666ZM12.9 10.8557H13.4V10.0592H12.9H12.4V10.8557H12.9ZM12.9 19.9408H13.4V19.3563H12.9H12.4V19.9408H12.9ZM16.4095 24.1681L16.4934 23.6752C15.6424 23.5305 15.0508 23.4289 14.607 23.2941C14.1774 23.1636 13.9456 23.0183 13.7824 22.8217L13.3977 23.1411L13.013 23.4605C13.3474 23.8634 13.7835 24.0891 14.3163 24.2509C14.835 24.4085 15.5005 24.5207 16.3257 24.6611L16.4095 24.1681ZM12.9 19.9408H12.4C12.4 20.7952 12.3991 21.4813 12.4659 22.0271C12.5343 22.586 12.6794 23.0587 13.013 23.4605L13.3977 23.1411L13.7824 22.8217C13.6183 22.6241 13.5145 22.3636 13.4585 21.9057C13.4009 21.4346 13.4 20.8203 13.4 19.9408H12.9ZM25.5 18.1256H25C25 19.9019 24.9989 21.1815 24.8655 22.14C24.7339 23.0859 24.4845 23.6264 24.0591 23.9941L24.3861 24.3724L24.7131 24.7506C25.4016 24.1555 25.7091 23.3338 25.856 22.2778C26.0011 21.2342 26 19.8719 26 18.1256H25.5ZM18.1643 24.4666L18.0805 24.9595C19.7677 25.2464 21.0869 25.472 22.1221 25.4976C23.1724 25.5234 24.0226 25.3475 24.7131 24.7506L24.3861 24.3724L24.0591 23.9941C23.6357 24.3601 23.0775 24.5208 22.1468 24.4979C21.2009 24.4745 19.9661 24.2658 18.2481 23.9736L18.1643 24.4666ZM18.1643 5.53344L18.2481 6.02636C19.9661 5.73419 21.2009 5.52546 22.1468 5.50214C23.0775 5.47919 23.6357 5.63989 24.0591 6.00591L24.3861 5.62764L24.7131 5.24937C24.0226 4.65251 23.1724 4.47655 22.1221 4.50244C21.0869 4.52796 19.7677 4.75357 18.0805 5.04051L18.1643 5.53344ZM25.5 11.8744H26C26 10.1281 26.0011 8.76578 25.856 7.72225C25.7091 6.66618 25.4016 5.84452 24.7131 5.24937L24.3861 5.62764L24.0591 6.00591C24.4845 6.37363 24.7339 6.91406 24.8655 7.86002C24.9989 8.81851 25 10.0981 25 11.8744H25.5ZM16.4095 5.83186L16.3257 5.33894C15.5005 5.47928 14.835 5.5915 14.3163 5.74906C13.7835 5.91094 13.3474 6.13663 13.013 6.5395L13.3977 6.85888L13.7824 7.17826C13.9456 6.98169 14.1774 6.8364 14.607 6.70589C15.0508 6.57107 15.6424 6.4695 16.4934 6.32478L16.4095 5.83186ZM12.9 10.0592H13.4C13.4 9.17965 13.4009 8.56536 13.4585 8.09434C13.5145 7.63639 13.6183 7.37593 13.7824 7.17826L13.3977 6.85888L13.013 6.5395C12.6794 6.94128 12.5343 7.41402 12.4659 7.97289C12.3991 8.51869 12.4 9.20483 12.4 10.0592H12.9Z" fill="#4A6484"/>
</svg>
