<svg width="30" height="30" viewBox="0 0 30 30" fill="none" xmlns="http://www.w3.org/2000/svg">
<path d="M4.5 15L3.71303 14.383L3.2293 15L3.71303 15.617L4.5 15ZM13.95 16C14.5023 16 14.95 15.5523 14.95 15C14.95 14.4477 14.5023 14 13.95 14V15V16ZM16.4095 5.83186L16.2419 4.84601V4.84601L16.4095 5.83186ZM18.1643 5.53344L18.3319 6.51928L18.1643 5.53344ZM18.1643 24.4666L18.3319 23.4807L18.1643 24.4666ZM16.4095 24.1681L16.2419 25.154L16.4095 24.1681ZM13.3977 23.1411L14.1671 22.5024L14.1671 22.5024L13.3977 23.1411ZM24.3861 24.3724L25.04 25.1289L24.3861 24.3724ZM24.3861 5.62764L25.04 4.8711V4.8711L24.3861 5.62764ZM13.3977 6.85888L12.6283 6.22012V6.22012L13.3977 6.85888ZM8.7 9.64294L7.91303 9.02595L3.71303 14.383L4.5 15L5.28697 15.617L9.48697 10.2599L8.7 9.64294ZM4.5 15L3.71303 15.617L7.91303 20.974L8.7 20.3571L9.48697 19.7401L5.28697 14.383L4.5 15ZM4.5 15V16H13.95V15V14H4.5V15ZM16.4095 5.83186L16.5772 6.81771L18.3319 6.51928L18.1643 5.53344L17.9966 4.54759L16.2419 4.84601L16.4095 5.83186ZM25.5 11.8744H24.5V18.1256H25.5H26.5V11.8744H25.5ZM18.1643 24.4666L18.3319 23.4807L16.5772 23.1823L16.4095 24.1681L16.2419 25.154L17.9966 25.4524L18.1643 24.4666ZM12.9 10.8557H13.9V10.0592H12.9H11.9V10.8557H12.9ZM12.9 19.9408H13.9V19.3563H12.9H11.9V19.9408H12.9ZM16.4095 24.1681L16.5772 23.1823C15.7134 23.0354 15.1587 22.9391 14.7523 22.8157C14.3744 22.7009 14.2446 22.5958 14.1671 22.5024L13.3977 23.1411L12.6283 23.7799C13.0484 24.2859 13.5865 24.5518 14.171 24.7293C14.7271 24.8983 15.4295 25.0158 16.2419 25.154L16.4095 24.1681ZM12.9 19.9408H11.9C11.9 20.7826 11.8983 21.5046 11.9696 22.0878C12.0442 22.6972 12.21 23.276 12.6283 23.7799L13.3977 23.1411L14.1671 22.5024C14.0877 22.4067 14.0047 22.2524 13.9548 21.8449C13.9017 21.4113 13.9 20.8329 13.9 19.9408H12.9ZM25.5 18.1256H24.5C24.5 19.9168 24.4977 21.1551 24.3703 22.0711C24.2464 22.962 24.026 23.3618 23.7321 23.6158L24.3861 24.3724L25.04 25.1289C25.8601 24.42 26.1967 23.4578 26.3512 22.3466C26.5023 21.2606 26.5 19.8569 26.5 18.1256H25.5ZM18.1643 24.4666L17.9966 25.4524C19.6685 25.7367 21.0299 25.9708 22.1098 25.9974C23.2199 26.0248 24.216 25.8412 25.04 25.1289L24.3861 24.3724L23.7321 23.6158C23.4422 23.8664 23.0301 24.0195 22.1591 23.998C21.2579 23.9758 20.0653 23.7755 18.3319 23.4807L18.1643 24.4666ZM18.1643 5.53344L18.3319 6.51928C20.0653 6.22449 21.2579 6.0242 22.1591 6.00199C23.0301 5.98051 23.4422 6.13358 23.7321 6.38417L24.3861 5.62764L25.04 4.8711C24.216 4.15882 23.2199 3.97523 22.1098 4.00259C21.0299 4.02922 19.6685 4.26326 17.9966 4.54759L18.1643 5.53344ZM25.5 11.8744H26.5C26.5 10.1431 26.5023 8.73942 26.3512 7.65336C26.1967 6.54224 25.8601 5.57997 25.04 4.8711L24.3861 5.62764L23.7321 6.38417C24.026 6.63818 24.2464 7.038 24.3703 7.92891C24.4977 8.84487 24.5 10.0832 24.5 11.8744H25.5ZM16.4095 5.83186L16.2419 4.84601C15.4295 4.98416 14.7271 5.10171 14.171 5.27065C13.5865 5.44822 13.0484 5.7141 12.6283 6.22012L13.3977 6.85888L14.1671 7.49764C14.2446 7.40422 14.3744 7.29912 14.7523 7.1843C15.1587 7.06085 15.7134 6.96461 16.5772 6.81771L16.4095 5.83186ZM12.9 10.0592H13.9C13.9 9.16706 13.9017 8.58869 13.9548 8.15507C14.0047 7.74758 14.0877 7.59326 14.1671 7.49764L13.3977 6.85888L12.6283 6.22012C12.21 6.72395 12.0442 7.30284 11.9696 7.91216C11.8983 8.49535 11.9 9.21742 11.9 10.0592H12.9Z" fill="#FF6363"/>
</svg>
