<svg width="20" height="20" viewBox="0 0 20 20" fill="none" xmlns="http://www.w3.org/2000/svg">
<path d="M7.42857 6.41176C7.15243 6.41176 6.92857 6.63562 6.92857 6.91176C6.92857 7.18791 7.15243 7.41176 7.42857 7.41176V6.91176V6.41176ZM12.5714 7.41176C12.8476 7.41176 13.0714 7.18791 13.0714 6.91176C13.0714 6.63562 12.8476 6.41176 12.5714 6.41176V6.91176V7.41176ZM7.42857 9.94118C7.15243 9.94118 6.92857 10.165 6.92857 10.4412C6.92857 10.7173 7.15243 10.9412 7.42857 10.9412V10.4412V9.94118ZM12.5714 10.9412C12.8476 10.9412 13.0714 10.7173 13.0714 10.4412C13.0714 10.165 12.8476 9.94118 12.5714 9.94118V10.4412V10.9412ZM7.42857 13.4706C7.15243 13.4706 6.92857 13.6944 6.92857 13.9706C6.92857 14.2467 7.15243 14.4706 7.42857 14.4706V13.9706V13.4706ZM10.8571 14.4706C11.1333 14.4706 11.3571 14.2467 11.3571 13.9706C11.3571 13.6944 11.1333 13.4706 10.8571 13.4706V13.9706V14.4706ZM7.42857 2.5V3H12.5714V2.5V2H7.42857V2.5ZM16 6.02941H15.5V13.9706H16H16.5V6.02941H16ZM12.5714 17.5V17H7.42857V17.5V18H12.5714V17.5ZM4 13.9706H4.5V6.02941H4H3.5V13.9706H4ZM7.42857 17.5V17C6.60591 17 6.04067 16.9989 5.61608 16.9401C5.2074 16.8835 5.00405 16.7823 4.86074 16.6347L4.5021 16.9831L4.14346 17.3315C4.50226 17.7009 4.95403 17.858 5.47899 17.9307C5.98804 18.0011 6.63499 18 7.42857 18V17.5ZM4 13.9706H3.5C3.5 14.7887 3.499 15.4512 3.56697 15.9717C3.63664 16.5051 3.78663 16.9642 4.14346 17.3315L4.5021 16.9831L4.86074 16.6347C4.71547 16.4852 4.61441 16.2699 4.55855 15.8422C4.501 15.4016 4.5 14.8162 4.5 13.9706H4ZM16 13.9706H15.5C15.5 14.8162 15.499 15.4016 15.4414 15.8422C15.3856 16.2699 15.2845 16.4852 15.1393 16.6347L15.4979 16.9831L15.8565 17.3315C16.2134 16.9642 16.3634 16.5051 16.433 15.9717C16.501 15.4512 16.5 14.7887 16.5 13.9706H16ZM12.5714 17.5V18C13.365 18 14.012 18.0011 14.521 17.9307C15.046 17.858 15.4977 17.7009 15.8565 17.3315L15.4979 16.9831L15.1393 16.6347C14.996 16.7823 14.7926 16.8835 14.3839 16.9401C13.9593 16.9989 13.3941 17 12.5714 17V17.5ZM12.5714 2.5V3C13.3941 3 13.9593 3.00112 14.3839 3.05989C14.7926 3.11645 14.996 3.21774 15.1393 3.36526L15.4979 3.01687L15.8565 2.66848C15.4977 2.29913 15.046 2.14198 14.521 2.06933C14.012 1.99888 13.365 2 12.5714 2V2.5ZM16 6.02941H16.5C16.5 5.21126 16.501 4.54877 16.433 4.0283C16.3634 3.49489 16.2134 3.0358 15.8565 2.66848L15.4979 3.01687L15.1393 3.36526C15.2845 3.51481 15.3856 3.7301 15.4414 4.1578C15.499 4.59844 15.5 5.18378 15.5 6.02941H16ZM7.42857 2.5V2C6.63499 2 5.98804 1.99888 5.47899 2.06933C4.95403 2.14198 4.50226 2.29913 4.14346 2.66848L4.5021 3.01687L4.86074 3.36526C5.00405 3.21774 5.2074 3.11645 5.61608 3.05989C6.04067 3.00112 6.60591 3 7.42857 3V2.5ZM4 6.02941H4.5C4.5 5.18378 4.501 4.59844 4.55855 4.1578C4.61441 3.7301 4.71547 3.51481 4.86074 3.36526L4.5021 3.01687L4.14346 2.66848C3.78663 3.0358 3.63664 3.49489 3.56697 4.0283C3.499 4.54877 3.5 5.21126 3.5 6.02941H4ZM7.42857 6.91176V7.41176H12.5714V6.91176V6.41176H7.42857V6.91176ZM7.42857 10.4412V10.9412H12.5714V10.4412V9.94118H7.42857V10.4412ZM7.42857 13.9706V14.4706H10.8571V13.9706V13.4706H7.42857V13.9706Z" fill="#4A6484"/>
</svg>
