<svg width="30" height="30" viewBox="0 0 30 30" fill="none" xmlns="http://www.w3.org/2000/svg">
<path d="M11.9969 5.38482C12.3401 5.18681 12.5117 5.08781 12.7034 5.0406C13.5418 4.83411 14.3376 5.44055 14.3361 6.28483C14.3358 6.47784 14.2183 6.86457 13.9834 7.63802C13.1746 10.3009 13.4139 13.2413 14.8911 15.7981C16.3682 18.3547 18.7965 20.0314 21.5083 20.6626C22.2975 20.8464 22.6922 20.9382 22.8597 21.0346C23.5918 21.4554 23.7194 22.447 23.1216 23.0692C22.9848 23.2117 22.8128 23.3109 22.4687 23.5094C17.2956 26.494 10.7577 24.8561 7.86601 19.8511C4.97429 14.8462 6.82375 8.36937 11.9969 5.38482Z" stroke="#4A6484"/>
</svg>
