<svg width="12" height="18" viewBox="0 0 12 18" fill="none" xmlns="http://www.w3.org/2000/svg">
<path d="M9.43839 14.7483L8.74326 15.4672L9.43839 14.7483ZM10.1664 15.5108L11.0386 15.0216L10.1664 15.5108ZM9.58116 16.958L9.86808 17.9159L9.58116 16.958ZM9.43858 3.25062L8.74341 2.53177L9.43858 3.25062ZM10.1653 2.48943L9.2933 2L10.1653 2.48943ZM9.43858 3.25062L8.74341 2.53177C7.05308 4.16643 6 6.46081 6 9H7H8C8 7.02501 8.81684 5.243 10.1338 3.96946L9.43858 3.25062ZM7 9H6C6 11.539 7.05309 13.8328 8.74326 15.4672L9.43839 14.7483L10.1335 14.0295C8.81677 12.7562 8 10.9747 8 9H7ZM9 17V16C5.13401 16 2 12.866 2 9H1H0C0 13.9706 4.02944 18 9 18V17ZM1 9H2C2 5.13401 5.13401 2 9 2V1V0C4.02944 0 0 4.02944 0 9H1ZM9.43839 14.7483L8.74326 15.4672C8.96703 15.6836 9.11763 15.8294 9.22255 15.9373C9.27409 15.9903 9.30351 16.023 9.31925 16.0416C9.33817 16.0641 9.32036 16.0466 9.29425 16L10.1664 15.5108L11.0386 15.0216C10.9302 14.8284 10.7678 14.6576 10.6567 14.5433C10.5249 14.4077 10.3473 14.2362 10.1335 14.0295L9.43839 14.7483ZM9 17V18C9.2374 18 9.55534 18.0096 9.86808 17.9159L9.58116 16.958L9.29425 16C9.32261 15.9915 9.3335 15.9939 9.29049 15.9964C9.23484 15.9996 9.15785 16 9 16V17ZM10.1664 15.5108L9.29425 16L9.58116 16.958L9.86808 17.9159C11.0947 17.5485 11.665 16.1384 11.0386 15.0216L10.1664 15.5108ZM9 1V2C9.15748 2 9.23419 2.00038 9.28963 2.00358C9.33241 2.00605 9.32154 2.00845 9.2933 2L9.57993 1.04196L9.86656 0.0839189C9.55415 -0.00954986 9.23687 0 9 0V1ZM9.43858 3.25062L10.1338 3.96946C10.3471 3.76311 10.5244 3.59186 10.656 3.4565C10.7669 3.34235 10.9291 3.17176 11.0374 2.97885L10.1653 2.48943L9.2933 2C9.31937 1.95354 9.33715 1.93604 9.31828 1.95843C9.30259 1.97706 9.27323 2.0096 9.22179 2.06252C9.11708 2.17025 8.96678 2.31576 8.74341 2.53177L9.43858 3.25062ZM9.57993 1.04196L9.2933 2L10.1653 2.48943L11.0374 2.97885C11.6643 1.86181 11.0938 0.451081 9.86656 0.0839189L9.57993 1.04196Z" fill="white"/>
</svg>
