<svg width="20" height="20" viewBox="0 0 20 20" fill="none" xmlns="http://www.w3.org/2000/svg">
<path d="M10.293 14V12.5811C10.293 11.6369 10.8972 10.7986 11.793 10.5C12.6888 10.2014 13.293 9.3631 13.293 8.41886V7.90569C13.293 6.30092 11.992 5 10.3873 5H10.293C8.63611 5 7.29297 6.34315 7.29297 8M19.293 10C19.293 14.9706 15.2635 19 10.293 19C5.32241 19 1.29297 14.9706 1.29297 10C1.29297 5.02944 5.32241 1 10.293 1C15.2635 1 19.293 5.02944 19.293 10ZM10.793 16C10.793 16.2761 10.5691 16.5 10.293 16.5C10.0168 16.5 9.79297 16.2761 9.79297 16C9.79297 15.7239 10.0168 15.5 10.293 15.5C10.5691 15.5 10.793 15.7239 10.793 16Z" stroke="white"/>
</svg>
