<svg width="30" height="30" viewBox="0 0 30 30" fill="none" xmlns="http://www.w3.org/2000/svg">
<path d="M15.5556 21.6667C15.5556 21.9735 15.3068 22.2222 15 22.2222C14.6932 22.2222 14.4444 21.9735 14.4444 21.6667C14.4444 21.3598 14.6932 21.1111 15 21.1111C15.3068 21.1111 15.5556 21.3598 15.5556 21.6667Z" fill="#283E95"/>
<path d="M15 19.4444V17.8679C15 16.8188 15.6713 15.8873 16.6667 15.5556C17.662 15.2238 18.3333 14.2923 18.3333 13.2432V12.673C18.3333 10.8899 16.8879 9.44444 15.1048 9.44444H15C13.1591 9.44444 11.6667 10.9368 11.6667 12.7778M25 15C25 20.5228 20.5228 25 15 25C9.47715 25 5 20.5228 5 15C5 9.47715 9.47715 5 15 5C20.5228 5 25 9.47715 25 15ZM15.5556 21.6667C15.5556 21.9735 15.3068 22.2222 15 22.2222C14.6932 22.2222 14.4444 21.9735 14.4444 21.6667C14.4444 21.3598 14.6932 21.1111 15 21.1111C15.3068 21.1111 15.5556 21.3598 15.5556 21.6667Z" stroke="#283E95" stroke-width="2"/>
</svg>
