<svg width="30" height="30" viewBox="0 0 30 30" fill="none" xmlns="http://www.w3.org/2000/svg">
<path d="M15.6318 5V4V5ZM16.4629 5.07031L16.8309 4.14051L16.8306 4.14035L16.4629 5.07031ZM16.9834 5.54199L17.8723 5.08384L17.8722 5.08374L16.9834 5.54199ZM17.1357 6.36133L18.1308 6.26196L17.1357 6.36133ZM17.4307 7.81836L16.6355 8.42472L16.6357 8.42497L17.4307 7.81836ZM18.3594 8.20312L18.4927 9.1942L18.493 9.19415L18.3594 8.20312ZM19.5977 7.38086L18.9645 6.60684L19.5977 7.38086ZM20.2861 6.90918L19.9822 5.95649L19.9821 5.95651L20.2861 6.90918ZM20.9873 6.94434L21.3848 6.02674L21.3847 6.02669L20.9873 6.94434ZM21.625 7.48242L20.9179 8.18953L21.625 7.48242ZM22.5176 8.375L23.2247 7.66789L22.5176 8.375ZM23.0557 9.0127L23.9734 8.61548L23.9732 8.61514L23.0557 9.0127ZM23.0908 9.71387L24.0433 10.0184L24.0435 10.0179L23.0908 9.71387ZM22.6182 10.4014L23.392 11.0348L22.6182 10.4014ZM21.7969 11.6396L20.8059 11.5053L20.8058 11.5061L21.7969 11.6396ZM22.1816 12.5684L21.5751 13.3634L21.5752 13.3635L22.1816 12.5684ZM23.6387 12.8633L23.7382 11.8683L23.6387 12.8633ZM24.459 13.0166L24.918 12.1282L24.9176 12.128L24.459 13.0166ZM24.9297 13.5371L25.8596 13.1693L25.8596 13.1692L24.9297 13.5371ZM25 14.3682H26H25ZM25 15.6318H26H25ZM24.9297 16.4629L25.8595 16.8309L25.8597 16.8304L24.9297 16.4629ZM24.458 16.9834L24.9161 17.8723L24.9162 17.8723L24.458 16.9834ZM23.6387 17.1357L23.738 18.1308L23.6387 17.1357ZM22.1826 17.4307L21.5764 16.6354L21.5764 16.6354L22.1826 17.4307ZM21.7979 18.3594L20.8068 18.493L20.8068 18.493L21.7979 18.3594ZM22.6191 19.5977L23.3931 18.9644L22.6191 19.5977ZM23.0908 20.2842L24.0433 19.9797L24.0432 19.9791L23.0908 20.2842ZM23.0557 20.9863L23.9732 21.384L23.9733 21.3837L23.0557 20.9863ZM20.9873 23.0547L21.3847 23.9723L21.3848 23.9723L20.9873 23.0547ZM20.2861 23.0898L19.9821 24.0425L19.9822 24.0425L20.2861 23.0898ZM19.5977 22.6182L20.2308 21.8441L19.5977 22.6182ZM18.3584 21.7959L18.4913 20.8048L18.4909 20.8047L18.3584 21.7959ZM17.4307 22.1807L16.6357 21.574L16.6357 21.5741L17.4307 22.1807ZM17.1357 23.6377L16.1407 23.5384L17.1357 23.6377ZM16.9834 24.458L17.8721 24.9164L17.8723 24.9161L16.9834 24.458ZM16.4629 24.9297L16.8308 25.8596L16.831 25.8595L16.4629 24.9297ZM14.3682 25V26V25ZM13.5371 24.9297L13.1692 25.8596L13.1693 25.8596L13.5371 24.9297ZM13.0166 24.459L12.128 24.9176L12.1282 24.918L13.0166 24.459ZM12.8633 23.6387L11.8683 23.7382L12.8633 23.6387ZM12.5684 22.1816L13.3635 21.5752L13.3634 21.5751L12.5684 22.1816ZM11.6396 21.7969L11.5061 20.8058L11.5053 20.8059L11.6396 21.7969ZM10.4014 22.6182L11.0348 23.392L10.4014 22.6182ZM9.71387 23.0908L10.0179 24.0435L10.0184 24.0433L9.71387 23.0908ZM9.0127 23.0557L8.61514 23.9732L8.61548 23.9734L9.0127 23.0557ZM7.48242 21.625L6.77532 22.3321L7.48242 21.625ZM6.94434 20.9873L6.02669 21.3847L6.02674 21.3848L6.94434 20.9873ZM6.90918 20.2861L5.95651 19.9821L5.95649 19.9822L6.90918 20.2861ZM7.38086 19.5977L6.60684 18.9645L7.38086 19.5977ZM8.20312 18.3594L9.19415 18.493L9.1942 18.4927L8.20312 18.3594ZM7.81836 17.4307L8.42497 16.6357L8.42472 16.6355L7.81836 17.4307ZM6.36133 17.1357L6.26196 18.1308L6.36133 17.1357ZM5.54199 16.9834L5.08374 17.8722L5.08384 17.8723L5.54199 16.9834ZM5.07031 16.4629L4.14035 16.8306L4.14051 16.8309L5.07031 16.4629ZM5 15.6318H4H5ZM5 14.3682H4H5ZM5.07031 13.5371L4.14043 13.1692L4.1404 13.1693L5.07031 13.5371ZM5.54102 13.0166L5.08244 12.1279L5.08197 12.1282L5.54102 13.0166ZM6.36133 12.8633L6.26173 11.8683L6.36133 12.8633ZM7.81836 12.5684L8.42502 13.3633L8.42518 13.3632L7.81836 12.5684ZM8.20312 11.6406L9.19425 11.5077L9.1942 11.5073L8.20312 11.6406ZM7.38086 10.4014L6.60693 11.0346L7.38086 10.4014ZM6.90918 9.71387L5.9565 10.0179L5.9566 10.0182L6.90918 9.71387ZM6.94434 9.0127L6.02674 8.61518L6.02667 8.61534L6.94434 9.0127ZM9.0127 6.94434L8.61521 6.02673L8.61519 6.02673L9.0127 6.94434ZM9.71387 6.90918L10.0179 5.95653L10.0178 5.95648L9.71387 6.90918ZM10.4023 7.38086L9.76921 8.1549L10.4023 7.38086ZM11.6406 8.20215L11.5075 9.19324L11.5076 9.19326L11.6406 8.20215ZM12.5684 7.81738L13.3633 8.42403L13.3635 8.42385L12.5684 7.81738ZM12.8633 6.36133L13.8583 6.46095L12.8633 6.36133ZM13.0166 5.54102L12.1282 5.08196L12.1279 5.08249L13.0166 5.54102ZM13.5371 5.07031L13.1694 4.14037L13.1693 4.14043L13.5371 5.07031ZM15.6318 5V6C15.8626 6 15.9873 6.00059 16.0772 6.00664C16.1573 6.01203 16.1415 6.01857 16.0952 6.00027L16.4629 5.07031L16.8306 4.14035C16.6071 4.05202 16.3936 4.02341 16.2115 4.01115C16.0391 3.99955 15.8368 4 15.6318 4V5ZM16.4629 5.07031L16.0948 6.00012L16.0946 6.00024L16.9834 5.54199L17.8722 5.08374C17.6509 4.65446 17.2815 4.31885 16.8309 4.14051L16.4629 5.07031ZM16.9834 5.54199L16.0945 6.00015C16.0717 5.95592 16.0766 5.93941 16.0899 6.01838C16.1048 6.10719 16.1178 6.23097 16.1407 6.46069L17.1357 6.36133L18.1308 6.26196C18.1105 6.05825 18.0908 5.857 18.0622 5.68682C18.032 5.5068 17.9823 5.29735 17.8723 5.08384L16.9834 5.54199ZM17.1357 6.36133L16.1407 6.46069C16.18 6.85445 16.2147 7.20889 16.2654 7.4903C16.3142 7.76198 16.4005 8.11661 16.6355 8.42472L17.4307 7.81836L18.2259 7.21199C18.2891 7.29491 18.2689 7.33143 18.2337 7.13609C18.2003 6.95049 18.1734 6.68901 18.1308 6.26196L17.1357 6.36133ZM17.4307 7.81836L16.6357 8.42497C17.0713 8.99593 17.7804 9.29 18.4927 9.1942L18.3594 8.20312L18.2261 7.21205L18.2257 7.21175L17.4307 7.81836ZM18.3594 8.20312L18.493 9.19415C18.8777 9.14228 19.1896 8.95177 19.4157 8.79436C19.6499 8.63129 19.925 8.40508 20.2308 8.15488L19.5977 7.38086L18.9645 6.60684C18.6318 6.87901 18.428 7.04501 18.2729 7.15301C18.1096 7.26669 18.1217 7.22613 18.2257 7.2121L18.3594 8.20312ZM19.5977 7.38086L20.2308 8.15488C20.4093 8.00891 20.5062 7.93048 20.5795 7.87846C20.6447 7.83215 20.6369 7.84693 20.5901 7.86185L20.2861 6.90918L19.9821 5.95651C19.5744 6.08663 19.2337 6.38666 18.9645 6.60684L19.5977 7.38086ZM20.2861 6.90918L20.5901 7.86187L20.5899 7.86199L20.9873 6.94434L21.3847 6.02669C20.9413 5.83468 20.4432 5.80942 19.9822 5.95649L20.2861 6.90918ZM20.9873 6.94434L20.5898 7.86193C20.5443 7.84222 20.5378 7.82647 20.5982 7.87926C20.6661 7.93854 20.7546 8.02628 20.9179 8.18953L21.625 7.48242L22.3321 6.77532C22.1871 6.63026 22.0442 6.48684 21.9141 6.3731C21.7764 6.25286 21.6052 6.12222 21.3848 6.02674L20.9873 6.94434ZM21.625 7.48242L20.9179 8.18953L21.8105 9.08211L22.5176 8.375L23.2247 7.66789L22.3321 6.77532L21.625 7.48242ZM22.5176 8.375L21.8105 9.08211C21.9736 9.24528 22.0614 9.33391 22.1207 9.40179C22.1736 9.46229 22.1578 9.45581 22.1381 9.41025L23.0557 9.0127L23.9732 8.61514C23.8778 8.39476 23.7471 8.22354 23.6269 8.08596C23.5131 7.95575 23.3697 7.81295 23.2247 7.66789L22.5176 8.375ZM23.0557 9.0127L22.1379 9.40991L22.1382 9.40981L23.0908 9.71387L24.0435 10.0179C24.1907 9.55667 24.1652 9.05854 23.9734 8.61548L23.0557 9.0127ZM23.0908 9.71387L22.1383 9.40937C22.1538 9.36106 22.1693 9.35245 22.1224 9.4182C22.0697 9.49201 21.991 9.58874 21.8444 9.76795L22.6182 10.4014L23.392 11.0348C23.5214 10.8767 23.6501 10.7204 23.7502 10.5802C23.856 10.4319 23.9699 10.2482 24.0433 10.0184L23.0908 9.71387ZM22.6182 10.4014L21.8444 9.76795C21.5936 10.0742 21.3677 10.3492 21.2046 10.584C21.0471 10.8109 20.8579 11.1221 20.8059 11.5053L21.7969 11.6396L22.7878 11.774C22.7739 11.8766 22.7342 11.8877 22.8472 11.7251C22.9546 11.5704 23.1204 11.3666 23.392 11.0348L22.6182 10.4014ZM21.7969 11.6396L20.8058 11.5061C20.7098 12.2188 21.0041 12.9278 21.5751 13.3634L22.1816 12.5684L22.7882 11.7733L22.7879 11.7732L21.7969 11.6396ZM22.1816 12.5684L21.5752 13.3635C21.8834 13.5986 22.2381 13.6848 22.5097 13.7336C22.7909 13.7842 23.1454 13.8189 23.5391 13.8583L23.6387 12.8633L23.7382 11.8683C23.3109 11.8255 23.0494 11.7986 22.8637 11.7652C22.6684 11.7301 22.705 11.7099 22.788 11.7732L22.1816 12.5684ZM23.6387 12.8633L23.5391 13.8583C23.7682 13.8812 23.8923 13.8944 23.9809 13.9094C24.0599 13.9228 24.044 13.9278 24.0004 13.9052L24.459 13.0166L24.9176 12.128C24.5374 11.9317 24.0842 11.9029 23.7382 11.8683L23.6387 12.8633ZM24.459 13.0166L24 13.905L23.9998 13.905L24.9297 13.5371L25.8596 13.1692C25.6818 12.72 25.3476 12.3501 24.918 12.1282L24.459 13.0166ZM24.9297 13.5371L23.9998 13.905C23.9815 13.8587 23.988 13.8427 23.9934 13.9227C23.9994 14.0126 24 14.1372 24 14.3682H25H26C26 14.1633 26.0005 13.9609 25.9889 13.7886C25.9766 13.6063 25.948 13.3928 25.8596 13.1693L24.9297 13.5371ZM25 14.3682H24V15.6318H25H26V14.3682H25ZM25 15.6318H24C24 15.8625 23.9994 15.9872 23.9933 16.0772C23.988 16.1574 23.9814 16.1416 23.9997 16.0953L24.9297 16.4629L25.8597 16.8304C25.948 16.6071 25.9766 16.3936 25.9888 16.2115C26.0004 16.0391 26 15.8368 26 15.6318H25ZM24.9297 16.4629L23.9999 16.0948L23.9998 16.0945L24.458 16.9834L24.9162 17.8723C25.3456 17.6509 25.6812 17.2815 25.8595 16.8309L24.9297 16.4629ZM24.458 16.9834L23.9999 16.0945C24.0441 16.0717 24.0606 16.0766 23.9816 16.0899C23.8928 16.1048 23.769 16.1178 23.5393 16.1407L23.6387 17.1357L23.738 18.1308C23.9418 18.1104 24.143 18.0908 24.3132 18.0622C24.4932 18.032 24.7027 17.9823 24.9161 17.8723L24.458 16.9834ZM23.6387 17.1357L23.5393 16.1407C23.1455 16.18 22.7913 16.2147 22.51 16.2654C22.2383 16.3144 21.8842 16.4007 21.5764 16.6354L22.1826 17.4307L22.7888 18.226C22.7062 18.289 22.6698 18.2688 22.8647 18.2337C23.05 18.2003 23.3112 18.1734 23.738 18.1308L23.6387 17.1357ZM22.1826 17.4307L21.5764 16.6354C21.0046 17.0712 20.7108 17.7803 20.8068 18.493L21.7979 18.3594L22.7889 18.2258L22.7889 18.2259L22.1826 17.4307ZM21.7979 18.3594L20.8068 18.493C20.8586 18.8768 21.0481 19.1884 21.2056 19.415C21.3687 19.6497 21.5947 19.9248 21.8452 20.2309L22.6191 19.5977L23.3931 18.9644C23.1213 18.6323 22.9556 18.4285 22.848 18.2737C22.7349 18.1109 22.775 18.1225 22.7889 18.2257L21.7979 18.3594ZM22.6191 19.5977L21.8452 20.2309C21.9915 20.4097 22.0699 20.5063 22.1224 20.5799C22.1691 20.6453 22.1538 20.637 22.1385 20.5892L23.0908 20.2842L24.0432 19.9791C23.9698 19.7502 23.8565 19.5669 23.7508 19.4187C23.6508 19.2785 23.5224 19.1224 23.3931 18.9644L22.6191 19.5977ZM23.0908 20.2842L22.1383 20.5887L22.138 20.589L23.0557 20.9863L23.9733 21.3837C24.1653 20.9404 24.1909 20.4414 24.0433 19.9797L23.0908 20.2842ZM23.0557 20.9863L22.1382 20.5886C22.1579 20.5431 22.1736 20.5367 22.1206 20.5973C22.0613 20.6652 21.9735 20.7539 21.8105 20.9169L22.5176 21.624L23.2247 22.3311C23.3697 22.1861 23.5131 22.0433 23.6269 21.9131C23.747 21.7755 23.8777 21.6043 23.9732 21.384L23.0557 20.9863ZM22.5176 21.624L21.8105 20.9169L20.9179 21.8095L21.625 22.5166L22.3321 23.2237L23.2247 22.3311L22.5176 21.624ZM21.625 22.5166L20.9179 21.8095C20.7546 21.9727 20.6661 22.0605 20.5982 22.1198C20.5378 22.1726 20.5443 22.1568 20.5898 22.1371L20.9873 23.0547L21.3848 23.9723C21.6052 23.8768 21.7764 23.7462 21.9141 23.6259C22.0442 23.5122 22.1871 23.3688 22.3321 23.2237L21.625 22.5166ZM20.9873 23.0547L20.5899 22.137L20.5901 22.1371L20.2861 23.0898L19.9822 24.0425C20.4432 24.1896 20.9413 24.1644 21.3847 23.9723L20.9873 23.0547ZM20.2861 23.0898L20.5902 22.1372C20.6369 22.1521 20.6447 22.1669 20.5794 22.1205C20.5062 22.0685 20.4092 21.9901 20.2308 21.8441L19.5977 22.6182L18.9645 23.3922C19.2336 23.6123 19.5744 23.9124 19.9821 24.0425L20.2861 23.0898ZM19.5977 22.6182L20.2308 21.8441C19.9247 21.5937 19.6494 21.3674 19.4148 21.2043C19.1884 21.0467 18.8762 20.8564 18.4913 20.8048L18.3584 21.7959L18.2255 22.787C18.1215 22.7731 18.1095 22.7326 18.2728 22.8461C18.4279 22.954 18.6318 23.12 18.9645 23.3922L19.5977 22.6182ZM18.3584 21.7959L18.4909 20.8047C17.7792 20.7096 17.071 21.0035 16.6357 21.574L17.4307 22.1807L18.2257 22.7873L18.2259 22.7871L18.3584 21.7959ZM17.4307 22.1807L16.6357 21.5741C16.4005 21.8823 16.3142 22.2369 16.2653 22.5087C16.2147 22.7901 16.18 23.1446 16.1407 23.5384L17.1357 23.6377L18.1308 23.737C18.1735 23.3098 18.2003 23.0484 18.2337 22.8628C18.2688 22.6677 18.289 22.7043 18.2257 22.7873L17.4307 22.1807ZM17.1357 23.6377L16.1407 23.5384C16.1177 23.7683 16.1048 23.8924 16.0899 23.9815C16.0765 24.0609 16.0716 24.0444 16.0945 24L16.9834 24.458L17.8723 24.9161C17.9825 24.7023 18.0321 24.4924 18.0623 24.3125C18.0908 24.1422 18.1105 23.9408 18.1308 23.737L17.1357 23.6377ZM16.9834 24.458L16.0947 23.9996L16.0948 23.9999L16.4629 24.9297L16.831 25.8595C17.2816 25.6811 17.6509 25.3454 17.8721 24.9164L16.9834 24.458ZM16.4629 24.9297L16.095 23.9998C16.1415 23.9814 16.1575 23.988 16.077 23.9934C15.9868 23.9994 15.8619 24 15.6309 24V25V26C15.8359 26 16.0384 26.0005 16.2109 25.9889C16.3931 25.9767 16.607 25.9481 16.8308 25.8596L16.4629 24.9297ZM15.6309 25V24H14.3682V25V26H15.6309V25ZM14.3682 25V24C14.1372 24 14.0126 23.9994 13.9227 23.9934C13.8427 23.988 13.8587 23.9815 13.905 23.9998L13.5371 24.9297L13.1693 25.8596C13.3928 25.948 13.6063 25.9766 13.7886 25.9889C13.9609 26.0005 14.1633 26 14.3682 26V25ZM13.5371 24.9297L13.905 23.9998L13.905 24L13.0166 24.459L12.1282 24.918C12.3501 25.3476 12.72 25.6818 13.1692 25.8596L13.5371 24.9297ZM13.0166 24.459L13.9052 24.0004C13.9278 24.044 13.9228 24.0599 13.9094 23.9809C13.8944 23.8923 13.8812 23.7682 13.8583 23.5391L12.8633 23.6387L11.8683 23.7382C11.9029 24.0842 11.9317 24.5374 12.128 24.9176L13.0166 24.459ZM12.8633 23.6387L13.8583 23.5391C13.8189 23.1454 13.7842 22.7909 13.7336 22.5097C13.6848 22.2381 13.5986 21.8834 13.3635 21.5752L12.5684 22.1816L11.7732 22.788C11.7099 22.705 11.7301 22.6684 11.7652 22.8637C11.7986 23.0494 11.8255 23.3109 11.8683 23.7382L12.8633 23.6387ZM12.5684 22.1816L13.3634 21.5751C12.9278 21.0041 12.2188 20.7098 11.5061 20.8058L11.6396 21.7969L11.7732 22.7879L11.7733 22.7882L12.5684 22.1816ZM11.6396 21.7969L11.5053 20.8059C11.1221 20.8579 10.8109 21.0471 10.584 21.2046C10.3492 21.3677 10.0742 21.5936 9.76795 21.8444L10.4014 22.6182L11.0348 23.392C11.3666 23.1204 11.5704 22.9546 11.7251 22.8472C11.8877 22.7342 11.8766 22.7739 11.774 22.7878L11.6396 21.7969ZM10.4014 22.6182L9.76795 21.8444C9.58874 21.991 9.49201 22.0697 9.4182 22.1224C9.35245 22.1693 9.36106 22.1538 9.40937 22.1383L9.71387 23.0908L10.0184 24.0433C10.2482 23.9699 10.4319 23.856 10.5802 23.7502C10.7204 23.6501 10.8767 23.5214 11.0348 23.392L10.4014 22.6182ZM9.71387 23.0908L9.40981 22.1382L9.40991 22.1379L9.0127 23.0557L8.61548 23.9734C9.05854 24.1652 9.55667 24.1907 10.0179 24.0435L9.71387 23.0908ZM9.0127 23.0557L9.41025 22.1381C9.45581 22.1578 9.46229 22.1736 9.40179 22.1207C9.33391 22.0614 9.24528 21.9736 9.08211 21.8105L8.375 22.5176L7.66789 23.2247C7.81295 23.3697 7.95575 23.5131 8.08596 23.6269C8.22354 23.7471 8.39476 23.8778 8.61514 23.9732L9.0127 23.0557ZM8.375 22.5176L9.08211 21.8105L8.18953 20.9179L7.48242 21.625L6.77532 22.3321L7.66789 23.2247L8.375 22.5176ZM7.48242 21.625L8.18953 20.9179C8.02628 20.7546 7.93854 20.6661 7.87926 20.5982C7.82647 20.5378 7.84222 20.5443 7.86193 20.5898L6.94434 20.9873L6.02674 21.3848C6.12222 21.6052 6.25286 21.7764 6.3731 21.9141C6.48684 22.0442 6.63026 22.1871 6.77532 22.3321L7.48242 21.625ZM6.94434 20.9873L7.86199 20.5899L7.86187 20.5901L6.90918 20.2861L5.95649 19.9822C5.80942 20.4432 5.83468 20.9413 6.02669 21.3847L6.94434 20.9873ZM6.90918 20.2861L7.86185 20.5901C7.84693 20.6369 7.83215 20.6447 7.87846 20.5795C7.93048 20.5062 8.00891 20.4093 8.15488 20.2308L7.38086 19.5977L6.60684 18.9645C6.38666 19.2337 6.08663 19.5744 5.95651 19.9821L6.90918 20.2861ZM7.38086 19.5977L8.15488 20.2308C8.40508 19.925 8.63129 19.6499 8.79436 19.4157C8.95177 19.1896 9.14228 18.8777 9.19415 18.493L8.20312 18.3594L7.2121 18.2257C7.22613 18.1217 7.26669 18.1096 7.15301 18.2729C7.04501 18.428 6.87901 18.6318 6.60684 18.9645L7.38086 19.5977ZM8.20312 18.3594L9.1942 18.4927C9.29 17.7804 8.99593 17.0713 8.42497 16.6357L7.81836 17.4307L7.21175 18.2257L7.21205 18.2261L8.20312 18.3594ZM7.81836 17.4307L8.42472 16.6355C8.11661 16.4005 7.76198 16.3142 7.4903 16.2654C7.20889 16.2147 6.85445 16.18 6.46069 16.1407L6.36133 17.1357L6.26196 18.1308C6.68901 18.1734 6.95049 18.2003 7.13609 18.2337C7.33143 18.2689 7.29491 18.2891 7.21199 18.2259L7.81836 17.4307ZM6.36133 17.1357L6.46069 16.1407C6.23097 16.1178 6.10719 16.1048 6.01838 16.0899C5.93941 16.0766 5.95592 16.0717 6.00015 16.0945L5.54199 16.9834L5.08384 17.8723C5.29735 17.9823 5.5068 18.032 5.68682 18.0622C5.857 18.0908 6.05825 18.1105 6.26196 18.1308L6.36133 17.1357ZM5.54199 16.9834L6.00024 16.0946L6.00012 16.0948L5.07031 16.4629L4.14051 16.8309C4.31885 17.2815 4.65446 17.6509 5.08374 17.8722L5.54199 16.9834ZM5.07031 16.4629L6.00027 16.0952C6.01857 16.1415 6.01203 16.1573 6.00664 16.0772C6.00059 15.9873 6 15.8626 6 15.6318H5H4C4 15.8368 3.99955 16.0391 4.01115 16.2115C4.02341 16.3936 4.05202 16.6071 4.14035 16.8306L5.07031 16.4629ZM5 15.6318H6V14.3682H5H4V15.6318H5ZM5 14.3682H6C6 14.1372 6.00058 14.0126 6.00662 13.9227C6.012 13.8427 6.01852 13.8586 6.00022 13.9049L5.07031 13.5371L4.1404 13.1693C4.05202 13.3928 4.02338 13.6063 4.01113 13.7885C3.99954 13.9609 4 14.1632 4 14.3682H5ZM5.07031 13.5371L6.00019 13.905L6.00006 13.905L5.54102 13.0166L5.08197 12.1282C4.65242 12.3501 4.31815 12.72 4.14043 13.1692L5.07031 13.5371ZM5.54102 13.0166L5.99959 13.9053C5.95597 13.9278 5.94012 13.9228 6.01912 13.9094C6.10771 13.8944 6.23179 13.8812 6.46092 13.8583L6.36133 12.8633L6.26173 11.8683C5.91578 11.9029 5.46263 11.9318 5.08244 12.1279L5.54102 13.0166ZM6.36133 12.8633L6.46092 13.8583C6.85452 13.8189 7.20901 13.7842 7.49024 13.7337C7.76181 13.6848 8.11669 13.5986 8.42502 13.3633L7.81836 12.5684L7.2117 11.7734C7.29483 11.71 7.33172 11.7301 7.13634 11.7652C6.95061 11.7986 6.68918 11.8255 6.26173 11.8683L6.36133 12.8633ZM7.81836 12.5684L8.42518 13.3632C8.9951 12.9281 9.28985 12.2203 9.19425 11.5077L8.20312 11.6406L7.212 11.7736L7.21154 11.7735L7.81836 12.5684ZM8.20312 11.6406L9.1942 11.5073C9.14249 11.1228 8.95228 10.8107 8.79477 10.5842C8.63154 10.3495 8.40531 10.0743 8.15479 9.76809L7.38086 10.4014L6.60693 11.0346C6.8789 11.367 7.04493 11.571 7.15276 11.7261C7.26633 11.8894 7.226 11.8777 7.21205 11.7739L8.20312 11.6406ZM7.38086 10.4014L8.15479 9.76809C8.00868 9.58954 7.93026 9.49277 7.87804 9.41939C7.83153 9.35404 7.84662 9.36218 7.86176 9.40958L6.90918 9.71387L5.9566 10.0182C6.0297 10.247 6.14271 10.4303 6.2486 10.5791C6.34876 10.7198 6.4772 10.8761 6.60693 11.0346L7.38086 10.4014ZM6.90918 9.71387L7.86186 9.40988L7.862 9.41005L6.94434 9.0127L6.02667 8.61534C5.83472 9.05865 5.80938 9.55677 5.9565 10.0179L6.90918 9.71387ZM6.94434 9.0127L7.86193 9.41021C7.84219 9.45578 7.82644 9.46227 7.87928 9.40179C7.93858 9.33392 8.02633 9.2453 8.18953 9.08211L7.48242 8.375L6.77532 7.66789C6.63027 7.81294 6.48685 7.95575 6.37311 8.08595C6.2529 8.22355 6.12223 8.39477 6.02674 8.61518L6.94434 9.0127ZM7.48242 8.375L8.18953 9.08211L9.08211 8.18953L8.375 7.48242L7.66789 6.77532L6.77532 7.66789L7.48242 8.375ZM8.375 7.48242L9.08211 8.18953C9.24532 8.02632 9.33393 7.93857 9.4018 7.87927C9.46226 7.82645 9.45576 7.8422 9.4102 7.86194L9.0127 6.94434L8.61519 6.02673C8.39477 6.12222 8.22355 6.25289 8.08594 6.37311C7.95575 6.48685 7.81294 6.63027 7.66789 6.77532L8.375 7.48242ZM9.0127 6.94434L9.41018 7.86195L9.40995 7.86188L9.71387 6.90918L10.0178 5.95648C9.55686 5.80944 9.05874 5.8346 8.61521 6.02673L9.0127 6.94434ZM9.71387 6.90918L9.40979 7.86183C9.36297 7.84688 9.35524 7.83211 9.42056 7.87851C9.49384 7.93056 9.59086 8.00902 9.76921 8.1549L10.4023 7.38086L11.0355 6.60682C10.7665 6.38679 10.4256 6.08665 10.0179 5.95653L9.71387 6.90918ZM10.4023 7.38086L9.76921 8.1549C10.0752 8.40523 10.3503 8.63126 10.5848 8.79429C10.8114 8.95175 11.1232 9.14161 11.5075 9.19324L11.6406 8.20215L11.7738 7.21105C11.8774 7.22497 11.8893 7.26529 11.7264 7.15209C11.5716 7.04446 11.3679 6.8787 11.0355 6.60682L10.4023 7.38086ZM11.6406 8.20215L11.5076 9.19326C12.2203 9.28891 12.9281 8.99435 13.3633 8.42403L12.5684 7.81738L11.7734 7.21073L11.7736 7.21103L11.6406 8.20215ZM12.5684 7.81738L13.3635 8.42385C13.5984 8.11579 13.6847 7.76142 13.7336 7.4898C13.7842 7.20869 13.8189 6.85444 13.8583 6.46095L12.8633 6.36133L11.8683 6.26171C11.8255 6.68888 11.7986 6.95005 11.7652 7.13551C11.7302 7.33045 11.71 7.29378 11.7733 7.21091L12.5684 7.81738ZM12.8633 6.36133L13.8583 6.46095C13.8812 6.23184 13.8944 6.10773 13.9094 6.01913C13.9228 5.94009 13.9278 5.95592 13.9053 5.99954L13.0166 5.54102L12.1279 5.08249C11.9318 5.46264 11.9029 5.91578 11.8683 6.26171L12.8633 6.36133ZM13.0166 5.54102L13.905 6.00007L13.905 6.0002L13.5371 5.07031L13.1693 4.14043C12.72 4.31815 12.3501 4.65243 12.1282 5.08196L13.0166 5.54102ZM13.5371 5.07031L13.9048 6.00025C13.8586 6.01854 13.8427 6.01201 13.9227 6.00663C14.0127 6.00058 14.1373 6 14.3682 6V5V4C14.1632 4 13.9609 3.99954 13.7885 4.01114C13.6063 4.0234 13.3928 4.05203 13.1694 4.14037L13.5371 5.07031ZM14.3682 5V6H15.6318V5V4H14.3682V5ZM15 11V10C12.2386 10 10 12.2386 10 15H11H12C12 13.3431 13.3431 12 15 12V11ZM11 15H10C10 17.7614 12.2386 20 15 20V19V18C13.3431 18 12 16.6569 12 15H11ZM15 19V20C17.7614 20 20 17.7614 20 15H19H18C18 16.6569 16.6569 18 15 18V19ZM19 15H20C20 12.2386 17.7614 10 15 10V11V12C16.6569 12 18 13.3431 18 15H19Z" fill="#283E95"/>
</svg>
