<svg width="30" height="30" viewBox="0 0 30 30" fill="none" xmlns="http://www.w3.org/2000/svg">
<path d="M15.6318 5V4.5V5ZM16.4629 5.07031L16.6469 4.60541L16.6467 4.60533L16.4629 5.07031ZM16.9834 5.54199L17.4278 5.31292L17.4278 5.31287L16.9834 5.54199ZM17.1357 6.36133L17.6333 6.31165L17.1357 6.36133ZM17.4307 7.81836L17.0331 8.12154L17.0332 8.12167L17.4307 7.81836ZM18.3594 8.20312L18.426 8.69866L18.4262 8.69864L18.3594 8.20312ZM19.5977 7.38086L19.2811 6.99385L19.5977 7.38086ZM20.2861 6.90918L20.1342 6.43283L20.1341 6.43285L20.2861 6.90918ZM20.9873 6.94434L21.1861 6.48554L21.186 6.48551L20.9873 6.94434ZM21.625 7.48242L21.2714 7.83598L21.625 7.48242ZM22.5176 8.375L22.8711 8.02145L22.5176 8.375ZM23.0557 9.0127L23.5145 8.81409L23.5145 8.81392L23.0557 9.0127ZM23.0908 9.71387L23.5671 9.86612L23.5671 9.8659L23.0908 9.71387ZM22.6182 10.4014L23.0051 10.7181L22.6182 10.4014ZM21.7969 11.6396L21.3014 11.5725L21.3014 11.5729L21.7969 11.6396ZM22.1816 12.5684L21.8783 12.9659L21.8784 12.9659L22.1816 12.5684ZM23.6387 12.8633L23.6885 12.3658L23.6387 12.8633ZM24.459 13.0166L24.6885 12.5724L24.6883 12.5723L24.459 13.0166ZM24.9297 13.5371L25.3946 13.3532L25.3946 13.3532L24.9297 13.5371ZM25 14.3682H25.5H25ZM25 15.6318H25.5H25ZM24.9297 16.4629L25.3946 16.6469L25.3947 16.6467L24.9297 16.4629ZM24.458 16.9834L24.6871 17.4278L24.6871 17.4278L24.458 16.9834ZM23.6387 17.1357L23.6884 17.6333L23.6387 17.1357ZM22.1826 17.4307L21.8795 17.033L21.8795 17.033L22.1826 17.4307ZM21.7979 18.3594L21.3023 18.4262L21.3023 18.4262L21.7979 18.3594ZM22.6191 19.5977L23.0061 19.281L22.6191 19.5977ZM23.0908 20.2842L23.5671 20.1319L23.567 20.1317L23.0908 20.2842ZM23.0557 20.9863L23.5144 21.1852L23.5145 21.185L23.0557 20.9863ZM20.9873 23.0547L21.186 23.5135L21.1861 23.5135L20.9873 23.0547ZM20.2861 23.0898L20.1341 23.5662L20.1342 23.5662L20.2861 23.0898ZM19.5977 22.6182L19.9142 22.2312L19.5977 22.6182ZM18.3584 21.7959L18.4249 21.3003L18.4246 21.3003L18.3584 21.7959ZM17.4307 22.1807L17.0332 21.8774L17.0332 21.8774L17.4307 22.1807ZM17.1357 23.6377L16.6382 23.588L17.1357 23.6377ZM16.9834 24.458L17.4278 24.6872L17.4279 24.687L16.9834 24.458ZM16.4629 24.9297L16.6468 25.3946L16.6469 25.3946L16.4629 24.9297ZM14.3682 25V25.5V25ZM13.5371 24.9297L13.3532 25.3946L13.3532 25.3946L13.5371 24.9297ZM13.0166 24.459L12.5723 24.6883L12.5724 24.6885L13.0166 24.459ZM12.8633 23.6387L12.3658 23.6885L12.8633 23.6387ZM12.5684 22.1816L12.9659 21.8784L12.9659 21.8783L12.5684 22.1816ZM11.6396 21.7969L11.5729 21.3014L11.5725 21.3014L11.6396 21.7969ZM10.4014 22.6182L10.7181 23.0051L10.4014 22.6182ZM9.71387 23.0908L9.8659 23.5671L9.86612 23.5671L9.71387 23.0908ZM9.0127 23.0557L8.81392 23.5145L8.81409 23.5145L9.0127 23.0557ZM7.48242 21.625L7.12887 21.9786L7.48242 21.625ZM6.94434 20.9873L6.48551 21.186L6.48554 21.1861L6.94434 20.9873ZM6.90918 20.2861L6.43285 20.1341L6.43283 20.1342L6.90918 20.2861ZM7.38086 19.5977L6.99385 19.2811L7.38086 19.5977ZM8.20312 18.3594L8.69864 18.4262L8.69866 18.426L8.20312 18.3594ZM7.81836 17.4307L8.12167 17.0332L8.12154 17.0331L7.81836 17.4307ZM6.36133 17.1357L6.31165 17.6333L6.36133 17.1357ZM5.54199 16.9834L5.31287 17.4278L5.31292 17.4278L5.54199 16.9834ZM5.07031 16.4629L4.60533 16.6467L4.60541 16.6469L5.07031 16.4629ZM5 15.6318H4.5H5ZM5 14.3682H4.5H5ZM5.07031 13.5371L4.60537 13.3532L4.60536 13.3532L5.07031 13.5371ZM5.54102 13.0166L5.31173 12.5723L5.31149 12.5724L5.54102 13.0166ZM6.36133 12.8633L6.31153 12.3658L6.36133 12.8633ZM7.81836 12.5684L8.12169 12.9658L8.12177 12.9658L7.81836 12.5684ZM8.20312 11.6406L8.69869 11.5741L8.69866 11.574L8.20312 11.6406ZM7.38086 10.4014L6.9939 10.718L7.38086 10.4014ZM6.90918 9.71387L6.43284 9.86586L6.43289 9.86601L6.90918 9.71387ZM6.94434 9.0127L6.48554 8.81394L6.4855 8.81402L6.94434 9.0127ZM9.0127 6.94434L8.81395 6.48553L8.81394 6.48554L9.0127 6.94434ZM9.71387 6.90918L9.86591 6.43286L9.86583 6.43283L9.71387 6.90918ZM10.4023 7.38086L10.0858 7.76788L10.4023 7.38086ZM11.6406 8.20215L11.5741 8.6977L11.5741 8.69771L11.6406 8.20215ZM12.5684 7.81738L12.9658 8.12071L12.9659 8.12062L12.5684 7.81738ZM12.8633 6.36133L13.3608 6.41114L12.8633 6.36133ZM13.0166 5.54102L12.5724 5.31149L12.5723 5.31175L13.0166 5.54102ZM13.5371 5.07031L13.3533 4.60534L13.3532 4.60537L13.5371 5.07031ZM15.6318 5V5.5C15.8562 5.5 16.0002 5.50033 16.1108 5.50777C16.2164 5.51487 16.2579 5.52693 16.2791 5.53529L16.4629 5.07031L16.6467 4.60533C16.4907 4.54366 16.3346 4.52056 16.1779 4.51002C16.0261 4.49981 15.8432 4.5 15.6318 4.5V5ZM16.4629 5.07031L16.2789 5.53522C16.3909 5.57958 16.4834 5.66326 16.539 5.77112L16.9834 5.54199L17.4278 5.31287C17.2617 4.99073 16.9846 4.7391 16.6469 4.60541L16.4629 5.07031ZM16.9834 5.54199L16.539 5.77107C16.5494 5.79127 16.5655 5.83126 16.583 5.93549C16.6013 6.04465 16.6159 6.18779 16.6382 6.41101L17.1357 6.36133L17.6333 6.31165C17.6123 6.10143 17.5943 5.91955 17.5691 5.76971C17.5431 5.61495 17.5047 5.46199 17.4278 5.31292L16.9834 5.54199ZM17.1357 6.36133L16.6382 6.41101C16.6784 6.81309 16.7111 7.14429 16.7574 7.40175C16.8029 7.65434 16.8727 7.91118 17.0331 8.12154L17.4307 7.81836L17.8283 7.51518C17.8169 7.50034 17.7802 7.43907 17.7416 7.22464C17.7039 7.01509 17.6751 6.73037 17.6333 6.31165L17.1357 6.36133ZM17.4307 7.81836L17.0332 8.12167C17.3599 8.54993 17.8918 8.7705 18.426 8.69866L18.3594 8.20312L18.2927 7.70759C18.1148 7.73151 17.9372 7.65794 17.8282 7.51505L17.4307 7.81836ZM18.3594 8.20312L18.4262 8.69864C18.6887 8.66324 18.9196 8.5305 19.13 8.38402C19.3444 8.23472 19.6017 8.02356 19.9142 7.76787L19.5977 7.38086L19.2811 6.99385C18.9551 7.26053 18.7335 7.44158 18.5586 7.56335C18.3796 7.68796 18.3107 7.70516 18.2925 7.70761L18.3594 8.20312ZM19.5977 7.38086L19.9142 7.76787C20.2861 7.46368 20.3696 7.40738 20.4381 7.38551L20.2861 6.90918L20.1341 6.43285C19.8395 6.52688 19.5845 6.74567 19.2811 6.99385L19.5977 7.38086ZM20.2861 6.90918L20.4381 7.38553C20.5531 7.34884 20.6775 7.35505 20.7886 7.40316L20.9873 6.94434L21.186 6.48551C20.8534 6.34147 20.4798 6.32256 20.1342 6.43283L20.2861 6.90918ZM20.9873 6.94434L20.7886 7.40314C20.8095 7.41222 20.8474 7.43307 20.9272 7.50272C21.0106 7.57562 21.1127 7.67728 21.2714 7.83598L21.625 7.48242L21.9786 7.12887C21.829 6.97927 21.6997 6.84976 21.5851 6.74964C21.4668 6.64626 21.34 6.55222 21.1861 6.48554L20.9873 6.94434ZM21.625 7.48242L21.2714 7.83598L22.164 8.72855L22.5176 8.375L22.8711 8.02145L21.9786 7.12887L21.625 7.48242ZM22.5176 8.375L22.164 8.72855C22.3227 8.8872 22.4243 8.98937 22.4973 9.07283C22.5669 9.1526 22.5878 9.19054 22.5969 9.21147L23.0557 9.0127L23.5145 8.81392C23.4478 8.66002 23.3537 8.53323 23.2503 8.41491C23.1502 8.30029 23.0207 8.17103 22.8711 8.02145L22.5176 8.375ZM23.0557 9.0127L22.5968 9.2113C22.645 9.32255 22.6511 9.44702 22.6145 9.56184L23.0908 9.71387L23.5671 9.8659C23.6775 9.52012 23.6584 9.14655 23.5145 8.81409L23.0557 9.0127ZM23.0908 9.71387L22.6146 9.56162C22.6078 9.58283 22.591 9.6223 22.5293 9.7087C22.4648 9.79912 22.3736 9.91074 22.2313 10.0847L22.6182 10.4014L23.0051 10.7181C23.1388 10.5547 23.255 10.4133 23.3432 10.2897C23.4344 10.162 23.5158 10.0264 23.5671 9.86612L23.0908 9.71387ZM22.6182 10.4014L22.2313 10.0847C21.9753 10.3973 21.7645 10.6545 21.6153 10.8693C21.4688 11.0801 21.3369 11.3107 21.3014 11.5725L21.7969 11.6396L22.2923 11.7068C22.2949 11.688 22.3124 11.6185 22.4366 11.4398C22.5579 11.2651 22.7387 11.0435 23.0051 10.7181L22.6182 10.4014ZM21.7969 11.6396L21.3014 11.5729C21.2293 12.1073 21.45 12.6391 21.8783 12.9659L22.1816 12.5684L22.4849 12.1709C22.3419 12.0617 22.2684 11.8842 22.2924 11.7064L21.7969 11.6396ZM22.1816 12.5684L21.8784 12.9659C22.0888 13.1264 22.3457 13.1961 22.5982 13.2415C22.8556 13.2878 23.1868 13.3206 23.5889 13.3608L23.6387 12.8633L23.6885 12.3658C23.2695 12.3238 22.9848 12.295 22.7752 12.2573C22.5608 12.2187 22.4996 12.1821 22.4848 12.1708L22.1816 12.5684ZM23.6387 12.8633L23.5889 13.3608C24.0665 13.4086 24.1658 13.4279 24.2297 13.4609L24.459 13.0166L24.6883 12.5723C24.4135 12.4305 24.0783 12.4048 23.6885 12.3658L23.6387 12.8633ZM24.459 13.0166L24.2295 13.4608C24.3367 13.5162 24.4203 13.6086 24.4648 13.7211L24.9297 13.5371L25.3946 13.3532C25.2613 13.0162 25.0106 12.7388 24.6885 12.5724L24.459 13.0166ZM24.9297 13.5371L24.4647 13.721C24.4731 13.7422 24.4852 13.7836 24.4923 13.8892C24.4997 13.9997 24.5 14.1437 24.5 14.3682H25H25.5C25.5 14.1567 25.5002 13.9738 25.49 13.8221C25.4795 13.6654 25.4564 13.5092 25.3946 13.3532L24.9297 13.5371ZM25 14.3682H24.5V15.6318H25H25.5V14.3682H25ZM25 15.6318H24.5C24.5 15.8561 24.4997 16.0002 24.4922 16.1107C24.4851 16.2164 24.473 16.258 24.4647 16.2791L24.9297 16.4629L25.3947 16.6467C25.4563 16.4907 25.4794 16.3346 25.49 16.1779C25.5002 16.0261 25.5 15.8432 25.5 15.6318H25ZM24.9297 16.4629L24.4648 16.2789C24.4204 16.391 24.3368 16.4834 24.2289 16.539L24.458 16.9834L24.6871 17.4278C25.0093 17.2617 25.2609 16.9846 25.3946 16.6469L24.9297 16.4629ZM24.458 16.9834L24.2289 16.539C24.2087 16.5494 24.1688 16.5654 24.0645 16.583C23.9554 16.6013 23.8122 16.6159 23.589 16.6382L23.6387 17.1357L23.6884 17.6333C23.8986 17.6123 24.0805 17.5943 24.2303 17.5691C24.3851 17.5431 24.538 17.5047 24.6871 17.4278L24.458 16.9834ZM23.6387 17.1357L23.589 16.6382C23.187 16.6784 22.856 16.7111 22.5987 16.7575C22.3462 16.803 22.0897 16.8728 21.8795 17.033L22.1826 17.4307L22.4857 17.8283C22.5007 17.8169 22.562 17.7802 22.776 17.7416C22.9853 17.7039 23.2698 17.6751 23.6884 17.6333L23.6387 17.1357ZM22.1826 17.4307L21.8795 17.033C21.4507 17.3599 21.2303 17.8917 21.3023 18.4262L21.7979 18.3594L22.2934 18.2926C22.2694 18.1145 22.3428 17.9373 22.4857 17.8283L22.1826 17.4307ZM21.7979 18.3594L21.3023 18.4262C21.3377 18.6882 21.4698 18.919 21.6162 19.1297C21.7654 19.3444 21.9763 19.6016 22.2322 19.9143L22.6191 19.5977L23.0061 19.281C22.7397 18.9554 22.5588 18.7338 22.4374 18.559C22.3132 18.3803 22.2959 18.3111 22.2934 18.2926L21.7979 18.3594ZM22.6191 19.5977L22.2322 19.9143C22.3742 20.0879 22.4651 20.1993 22.5295 20.2896C22.5909 20.3757 22.6078 20.4153 22.6147 20.4367L23.0908 20.2842L23.567 20.1317C23.5158 19.9719 23.4346 19.8365 23.3437 19.709C23.2556 19.5854 23.1397 19.4442 23.0061 19.281L22.6191 19.5977ZM23.0908 20.2842L22.6146 20.4364C22.6513 20.5512 22.6451 20.6762 22.5968 20.7877L23.0557 20.9863L23.5145 21.185C23.6585 20.8524 23.6777 20.478 23.5671 20.1319L23.0908 20.2842ZM23.0557 20.9863L22.5969 20.7875C22.5878 20.8084 22.5669 20.8464 22.4972 20.9262C22.4243 21.0097 22.3226 21.1119 22.164 21.2705L22.5176 21.624L22.8711 21.9776C23.0207 21.828 23.1501 21.6988 23.2503 21.5841C23.3536 21.4658 23.4477 21.339 23.5144 21.1852L23.0557 20.9863ZM22.5176 21.624L22.164 21.2705L21.2714 22.163L21.625 22.5166L21.9786 22.8702L22.8711 21.9776L22.5176 21.624ZM21.625 22.5166L21.2714 22.163C21.1127 22.3217 21.0106 22.4234 20.9272 22.4963C20.8474 22.566 20.8095 22.5868 20.7886 22.5959L20.9873 23.0547L21.1861 23.5135C21.34 23.4468 21.4668 23.3528 21.5851 23.2494C21.6997 23.1493 21.829 23.0198 21.9786 22.8702L21.625 22.5166ZM20.9873 23.0547L20.7886 22.5959C20.6775 22.644 20.5531 22.6502 20.4381 22.6135L20.2861 23.0898L20.1342 23.5662C20.4798 23.6765 20.8534 23.6576 21.186 23.5135L20.9873 23.0547ZM20.2861 23.0898L20.4381 22.6135C20.3696 22.5916 20.286 22.5353 19.9142 22.2312L19.5977 22.6182L19.2811 23.0052C19.5844 23.2533 19.8395 23.4721 20.1341 23.5662L20.2861 23.0898ZM19.5977 22.6182L19.9142 22.2312C19.6015 21.9753 19.344 21.7641 19.1293 21.6147C18.9186 21.4682 18.6875 21.3356 18.4249 21.3003L18.3584 21.7959L18.2919 22.2915C18.3102 22.2939 18.3792 22.3111 18.5583 22.4357C18.7333 22.5574 18.955 22.7385 19.2811 23.0052L19.5977 22.6182ZM18.3584 21.7959L18.4246 21.3003C17.8909 21.229 17.3597 21.4494 17.0332 21.8774L17.4307 22.1807L17.8282 22.484C17.9371 22.3412 18.1144 22.2677 18.2922 22.2915L18.3584 21.7959ZM17.4307 22.1807L17.0332 21.8774C16.8726 22.0878 16.8028 22.3446 16.7574 22.5972C16.7111 22.8546 16.6784 23.1859 16.6382 23.588L17.1357 23.6377L17.6333 23.6874C17.6751 23.2685 17.7039 22.9838 17.7416 22.7743C17.7801 22.56 17.8168 22.4988 17.8282 22.484L17.4307 22.1807ZM17.1357 23.6377L16.6382 23.588C16.6159 23.8114 16.6013 23.9548 16.583 24.0642C16.5654 24.1688 16.5493 24.2088 16.5389 24.229L16.9834 24.458L17.4279 24.687C17.5048 24.5378 17.5432 24.3846 17.5692 24.2297C17.5943 24.0798 17.6123 23.8977 17.6333 23.6874L17.1357 23.6377ZM16.9834 24.458L16.539 24.2288C16.4834 24.3367 16.3908 24.4205 16.2789 24.4648L16.4629 24.9297L16.6469 25.3946C16.9846 25.2609 17.2617 25.0091 17.4278 24.6872L16.9834 24.458ZM16.4629 24.9297L16.2789 24.4648C16.2579 24.4731 16.2164 24.4852 16.1105 24.4923C15.9997 24.4997 15.8554 24.5 15.6309 24.5V25V25.5C15.8424 25.5 16.0255 25.5002 16.1774 25.49C16.3342 25.4795 16.4906 25.4564 16.6468 25.3946L16.4629 24.9297ZM15.6309 25V24.5H14.3682V25V25.5H15.6309V25ZM14.3682 25V24.5C14.1437 24.5 13.9997 24.4997 13.8892 24.4923C13.7836 24.4852 13.7422 24.4731 13.721 24.4647L13.5371 24.9297L13.3532 25.3946C13.5092 25.4564 13.6654 25.4795 13.8221 25.49C13.9738 25.5002 14.1567 25.5 14.3682 25.5V25ZM13.5371 24.9297L13.7211 24.4648C13.6086 24.4203 13.5162 24.3367 13.4608 24.2295L13.0166 24.459L12.5724 24.6885C12.7388 25.0106 13.0162 25.2613 13.3532 25.3946L13.5371 24.9297ZM13.0166 24.459L13.4609 24.2297C13.4279 24.1658 13.4086 24.0665 13.3608 23.5889L12.8633 23.6387L12.3658 23.6885C12.4048 24.0783 12.4305 24.4135 12.5723 24.6883L13.0166 24.459ZM12.8633 23.6387L13.3608 23.5889C13.3206 23.1868 13.2878 22.8556 13.2415 22.5982C13.1961 22.3457 13.1264 22.0888 12.9659 21.8784L12.5684 22.1816L12.1708 22.4848C12.1821 22.4996 12.2187 22.5608 12.2573 22.7752C12.295 22.9848 12.3238 23.2695 12.3658 23.6885L12.8633 23.6387ZM12.5684 22.1816L12.9659 21.8783C12.6391 21.45 12.1073 21.2293 11.5729 21.3014L11.6396 21.7969L11.7064 22.2924C11.8842 22.2684 12.0617 22.3419 12.1709 22.4849L12.5684 22.1816ZM11.6396 21.7969L11.5725 21.3014C11.3107 21.3369 11.0801 21.4688 10.8693 21.6153C10.6545 21.7645 10.3973 21.9753 10.0847 22.2313L10.4014 22.6182L10.7181 23.0051C11.0435 22.7387 11.2651 22.5579 11.4398 22.4366C11.6185 22.3124 11.688 22.2949 11.7068 22.2923L11.6396 21.7969ZM10.4014 22.6182L10.0847 22.2313C9.91074 22.3736 9.79912 22.4648 9.7087 22.5293C9.6223 22.591 9.58283 22.6078 9.56162 22.6146L9.71387 23.0908L9.86612 23.5671C10.0264 23.5158 10.162 23.4344 10.2897 23.3432C10.4133 23.255 10.5547 23.1388 10.7181 23.0051L10.4014 22.6182ZM9.71387 23.0908L9.56184 22.6145C9.44702 22.6511 9.32255 22.645 9.2113 22.5968L9.0127 23.0557L8.81409 23.5145C9.14655 23.6584 9.52012 23.6775 9.8659 23.5671L9.71387 23.0908ZM9.0127 23.0557L9.21147 22.5969C9.19054 22.5878 9.1526 22.5669 9.07283 22.4973C8.98937 22.4243 8.8872 22.3227 8.72855 22.164L8.375 22.5176L8.02145 22.8711C8.17103 23.0207 8.30029 23.1502 8.41491 23.2503C8.53323 23.3537 8.66002 23.4478 8.81392 23.5145L9.0127 23.0557ZM8.375 22.5176L8.72855 22.164L7.83598 21.2714L7.48242 21.625L7.12887 21.9786L8.02145 22.8711L8.375 22.5176ZM7.48242 21.625L7.83598 21.2714C7.67728 21.1127 7.57562 21.0106 7.50272 20.9272C7.43307 20.8474 7.41222 20.8095 7.40314 20.7886L6.94434 20.9873L6.48554 21.1861C6.55222 21.34 6.64626 21.4668 6.74964 21.5851C6.84976 21.6997 6.97927 21.829 7.12887 21.9786L7.48242 21.625ZM6.94434 20.9873L7.40316 20.7886C7.35505 20.6775 7.34884 20.5531 7.38553 20.4381L6.90918 20.2861L6.43283 20.1342C6.32256 20.4798 6.34147 20.8534 6.48551 21.186L6.94434 20.9873ZM6.90918 20.2861L7.38551 20.4381C7.40738 20.3696 7.46368 20.2861 7.76787 19.9142L7.38086 19.5977L6.99385 19.2811C6.74567 19.5845 6.52688 19.8395 6.43285 20.1341L6.90918 20.2861ZM7.38086 19.5977L7.76787 19.9142C8.02356 19.6017 8.23472 19.3444 8.38402 19.13C8.5305 18.9196 8.66324 18.6887 8.69864 18.4262L8.20312 18.3594L7.70761 18.2925C7.70516 18.3107 7.68796 18.3796 7.56335 18.5586C7.44158 18.7335 7.26053 18.9551 6.99385 19.2811L7.38086 19.5977ZM8.20312 18.3594L8.69866 18.426C8.7705 17.8918 8.54993 17.3599 8.12167 17.0332L7.81836 17.4307L7.51505 17.8282C7.65794 17.9372 7.73151 18.1148 7.70759 18.2927L8.20312 18.3594ZM7.81836 17.4307L8.12154 17.0331C7.91118 16.8727 7.65434 16.8029 7.40175 16.7574C7.14429 16.7111 6.81309 16.6784 6.41101 16.6382L6.36133 17.1357L6.31165 17.6333C6.73037 17.6751 7.01509 17.7039 7.22464 17.7416C7.43907 17.7802 7.50034 17.8169 7.51518 17.8283L7.81836 17.4307ZM6.36133 17.1357L6.41101 16.6382C6.18779 16.6159 6.04465 16.6013 5.93549 16.583C5.83126 16.5655 5.79127 16.5494 5.77107 16.539L5.54199 16.9834L5.31292 17.4278C5.46199 17.5047 5.61495 17.5431 5.76971 17.5691C5.91955 17.5943 6.10143 17.6123 6.31165 17.6333L6.36133 17.1357ZM5.54199 16.9834L5.77112 16.539C5.66326 16.4834 5.57958 16.3909 5.53522 16.2789L5.07031 16.4629L4.60541 16.6469C4.7391 16.9846 4.99073 17.2617 5.31287 17.4278L5.54199 16.9834ZM5.07031 16.4629L5.53529 16.2791C5.52693 16.2579 5.51487 16.2164 5.50777 16.1108C5.50033 16.0002 5.5 15.8562 5.5 15.6318H5H4.5C4.5 15.8432 4.49981 16.0261 4.51002 16.1779C4.52056 16.3346 4.54366 16.4907 4.60533 16.6467L5.07031 16.4629ZM5 15.6318H5.5V14.3682H5H4.5V15.6318H5ZM5 14.3682H5.5C5.5 14.1437 5.50032 13.9997 5.50775 13.8892C5.51485 13.7836 5.5269 13.7422 5.53527 13.721L5.07031 13.5371L4.60536 13.3532C4.54364 13.5093 4.52054 13.6654 4.51 13.8221C4.4998 13.9738 4.5 14.1567 4.5 14.3682H5ZM5.07031 13.5371L5.53525 13.721C5.57974 13.6086 5.66329 13.5162 5.77054 13.4608L5.54102 13.0166L5.31149 12.5724C4.98938 12.7388 4.73868 13.0162 4.60537 13.3532L5.07031 13.5371ZM5.54102 13.0166L5.7703 13.4609C5.83421 13.428 5.93351 13.4086 6.41113 13.3608L6.36133 12.8633L6.31153 12.3658C5.92169 12.4048 5.58649 12.4305 5.31173 12.5723L5.54102 13.0166ZM6.36133 12.8633L6.41113 13.3608C6.81319 13.3206 7.14441 13.2878 7.40176 13.2416C7.65429 13.1962 7.91123 13.1265 8.12169 12.9658L7.81836 12.5684L7.51503 12.1709C7.5003 12.1821 7.43924 12.2188 7.22481 12.2573C7.01521 12.295 6.73051 12.3238 6.31153 12.3658L6.36133 12.8633ZM7.81836 12.5684L8.12177 12.9658C8.54941 12.6393 8.77035 12.1084 8.69869 11.5741L8.20312 11.6406L7.70756 11.7071C7.73136 11.8845 7.65803 12.0617 7.51495 12.1709L7.81836 12.5684ZM8.20312 11.6406L8.69866 11.574C8.66337 11.3115 8.53079 11.0804 8.38427 10.8697C8.23489 10.6549 8.02371 10.3974 7.76782 10.0847L7.38086 10.4014L6.9939 10.718C7.2605 11.0438 7.44158 11.2656 7.56327 11.4406C7.68781 11.6197 7.70512 11.689 7.70759 11.7073L8.20312 11.6406ZM7.38086 10.4014L7.76782 10.0847C7.62581 9.91118 7.53489 9.79954 7.47068 9.70932C7.40932 9.62312 7.39239 9.58338 7.38547 9.56172L6.90918 9.71387L6.43289 9.86601C6.48393 10.0258 6.56492 10.1613 6.65596 10.2892C6.74414 10.4131 6.86007 10.5545 6.9939 10.718L7.38086 10.4014ZM6.90918 9.71387L7.38552 9.56187C7.34884 9.44693 7.35504 9.32252 7.40317 9.21137L6.94434 9.0127L6.4855 8.81402C6.34149 9.1466 6.32253 9.52015 6.43284 9.86586L6.90918 9.71387ZM6.94434 9.0127L7.40313 9.21145C7.4122 9.19052 7.43306 9.15259 7.50274 9.07283C7.57565 8.98938 7.67731 8.88721 7.83598 8.72855L7.48242 8.375L7.12887 8.02145C6.97928 8.17103 6.84978 8.30029 6.74965 8.41491C6.64628 8.53323 6.55222 8.66002 6.48554 8.81394L6.94434 9.0127ZM7.48242 8.375L7.83598 8.72855L8.72855 7.83598L8.375 7.48242L8.02145 7.12887L7.12887 8.02145L7.48242 8.375ZM8.375 7.48242L8.72855 7.83598C8.88722 7.6773 8.98938 7.57564 9.07283 7.50273C9.15258 7.43306 9.19051 7.41221 9.21145 7.40314L9.0127 6.94434L8.81394 6.48554C8.66002 6.55222 8.53323 6.64628 8.41491 6.74965C8.30029 6.84978 8.17103 6.97928 8.02145 7.12887L8.375 7.48242ZM9.0127 6.94434L9.21144 7.40314C9.32248 7.35504 9.44685 7.34882 9.56191 7.38553L9.71387 6.90918L9.86583 6.43283C9.52019 6.32257 9.14665 6.34142 8.81395 6.48553L9.0127 6.94434ZM9.71387 6.90918L9.56183 7.3855C9.63033 7.40737 9.71406 7.46383 10.0858 7.76788L10.4023 7.38086L10.7189 6.99384C10.4157 6.7458 10.1605 6.52689 9.86591 6.43286L9.71387 6.90918ZM10.4023 7.38086L10.0858 7.76788C10.3984 8.0236 10.6556 8.23456 10.8702 8.38374C11.0808 8.53014 11.3117 8.66245 11.5741 8.6977L11.6406 8.20215L11.7072 7.7066C11.6888 7.70413 11.6198 7.68691 11.441 7.56264C11.2663 7.44116 11.0447 7.26033 10.7189 6.99384L10.4023 7.38086ZM11.6406 8.20215L11.5741 8.69771C12.1084 8.76941 12.6393 8.54861 12.9658 8.12071L12.5684 7.81738L12.1709 7.51406C12.0617 7.65713 11.8847 7.73042 11.7071 7.70659L11.6406 8.20215ZM12.5684 7.81738L12.9659 8.12062C13.1263 7.91028 13.1961 7.65368 13.2415 7.40123C13.2878 7.14403 13.3206 6.81305 13.3608 6.41114L12.8633 6.36133L12.3658 6.31152C12.3238 6.73027 12.295 7.01471 12.2573 7.22408C12.2188 7.43819 12.1821 7.49928 12.1708 7.51415L12.5684 7.81738ZM12.8633 6.36133L13.3608 6.41114C13.4086 5.93355 13.428 5.83419 13.4609 5.77028L13.0166 5.54102L12.5723 5.31175C12.4305 5.58649 12.4048 5.92171 12.3658 6.31152L12.8633 6.36133ZM13.0166 5.54102L13.4608 5.77054C13.5162 5.66328 13.6086 5.57974 13.721 5.53525L13.5371 5.07031L13.3532 4.60537C13.0162 4.73868 12.7388 4.98938 12.5724 5.31149L13.0166 5.54102ZM13.5371 5.07031L13.721 5.53528C13.7421 5.52691 13.7836 5.51486 13.8892 5.50776C13.9997 5.50032 14.1437 5.5 14.3682 5.5V5V4.5C14.1567 4.5 13.9738 4.4998 13.8221 4.51001C13.6654 4.52055 13.5093 4.54365 13.3533 4.60534L13.5371 5.07031ZM14.3682 5V5.5H15.6318V5V4.5H14.3682V5ZM15 11V10.5C12.5147 10.5 10.5 12.5147 10.5 15H11H11.5C11.5 13.067 13.067 11.5 15 11.5V11ZM11 15H10.5C10.5 17.4853 12.5147 19.5 15 19.5V19V18.5C13.067 18.5 11.5 16.933 11.5 15H11ZM15 19V19.5C17.4853 19.5 19.5 17.4853 19.5 15H19H18.5C18.5 16.933 16.933 18.5 15 18.5V19ZM19 15H19.5C19.5 12.5147 17.4853 10.5 15 10.5V11V11.5C16.933 11.5 18.5 13.067 18.5 15H19Z" fill="#4A6484"/>
</svg>
