<svg width="20" height="20" viewBox="0 0 20 20" fill="none" xmlns="http://www.w3.org/2000/svg">
<path d="M6.75 6.66667L6.75 5.83333C6.75 3.99238 8.20507 2.5 10 2.5C11.7949 2.5 13.25 3.99238 13.25 5.83333V6.66666M6.75 6.66667L13.25 6.66666M6.75 6.66667C5.21794 6.66667 4.4519 6.66667 3.97595 7.15482C3.5 7.64298 3.5 8.42865 3.5 10V10.8333C3.5 13.976 3.5 15.5474 4.4519 16.5237C5.40381 17.5 6.93587 17.5 10 17.5C13.0641 17.5 14.5962 17.5 15.5481 16.5237C16.5 15.5474 16.5 13.976 16.5 10.8333V10C16.5 8.42865 16.5 7.64298 16.024 7.15482C15.5481 6.66667 14.7821 6.66666 13.25 6.66666M12.4375 11.6667V10M7.5625 11.6667V10" stroke="black" stroke-linecap="round"/>
</svg>
