<svg width="30" height="30" viewBox="0 0 30 30" fill="none" xmlns="http://www.w3.org/2000/svg">
<g clip-path="url(#clip0_692_3538)">
<path d="M20.4754 9.61538C20.4754 12.1644 18.4074 14.2308 15.8564 14.2308C13.3054 14.2308 11.2374 12.1644 11.2374 9.61538C11.2374 7.06638 13.3054 5 15.8564 5C18.4074 5 20.4754 7.06638 20.4754 9.61538ZM4.76909 10.5566C5.07535 10.0265 5.57979 9.63976 6.17144 9.48136C6.76309 9.32295 7.39348 9.40588 7.92394 9.7119C8.4544 10.0179 8.84147 10.522 9 11.1131C9.15853 11.7043 9.07554 12.3342 8.76928 12.8643C8.46302 13.3943 7.95858 13.7811 7.36693 13.9395C6.77528 14.0979 6.14489 14.015 5.61443 13.7089C5.08397 13.4029 4.6969 12.8989 4.53836 12.3077C4.37983 11.7165 4.46283 11.0866 4.76909 10.5566ZM22.8451 10.5566C23.1514 10.0265 23.6558 9.63976 24.2475 9.48136C24.8391 9.32295 25.4695 9.40588 26 9.7119C26.5305 10.0179 26.9175 10.522 27.0761 11.1131C27.2346 11.7043 27.1516 12.3342 26.8453 12.8643C26.5391 13.3943 26.0346 13.7811 25.443 13.9395C24.8513 14.0979 24.2209 14.015 23.6905 13.7089C23.16 13.4029 22.773 12.8989 22.6144 12.3077C22.4559 11.7165 22.5389 11.0866 22.8451 10.5566ZM23.1969 17.3077C26.7306 17.3077 28.2789 19.9539 28.9256 21.7758C29.235 22.6479 28.5375 23.4615 27.6115 23.4615H23.015C22.7132 21.9646 21.9115 19.7288 19.7838 18.4044C20.6391 17.7553 21.7501 17.3078 23.1969 17.3077ZM7.80168 17.3077C9.24837 17.3077 10.3594 17.7556 11.2148 18.4044C9.08775 19.7288 8.28682 21.9648 7.98511 23.4615H3.38714C2.46134 23.4612 1.7651 22.6478 2.07451 21.7758C2.72121 19.954 4.26846 17.308 7.80168 17.3077ZM15.5016 17.3077C10.0025 17.3077 8.43152 21.2326 7.98269 23.4752C7.81594 24.3084 8.49252 25 9.34285 25H21.6603C22.5106 25 23.1872 24.3084 23.0204 23.4752C22.5716 21.2326 21.0006 17.3077 15.5016 17.3077Z" stroke="#283E95" stroke-width="2" stroke-miterlimit="16" stroke-linecap="round"/>
</g>
<defs>
<clipPath id="clip0_692_3538">
<rect width="30" height="30" fill="white"/>
</clipPath>
</defs>
</svg>
