<svg width="20" height="16" viewBox="0 0 20 16" fill="none" xmlns="http://www.w3.org/2000/svg">
<circle cx="10.0625" cy="4" r="3" stroke="white" stroke-width="2" stroke-linecap="round"/>
<path d="M13.3304 4C13.5957 3.54063 14.0325 3.20543 14.5449 3.06815C15.0572 2.93086 15.6031 3.00273 16.0625 3.26795C16.5219 3.53317 16.8571 3.97 16.9944 4.48236C17.1316 4.99472 17.0598 5.54063 16.7946 6C16.5293 6.45937 16.0925 6.79457 15.5801 6.93185C15.0678 7.06914 14.5219 6.99727 14.0625 6.73205C13.6031 6.46683 13.2679 6.03 13.1306 5.51764C12.9934 5.00528 13.0652 4.45937 13.3304 4L13.3304 4Z" stroke="white" stroke-width="2"/>
<path d="M3.33045 4C3.59567 3.54063 4.0325 3.20543 4.54486 3.06815C5.05722 2.93086 5.60313 3.00273 6.0625 3.26795C6.52187 3.53317 6.85707 3.97 6.99435 4.48236C7.13164 4.99472 7.05977 5.54063 6.79455 6C6.52933 6.45937 6.0925 6.79457 5.58014 6.93185C5.06778 7.06914 4.52187 6.99727 4.0625 6.73205C3.60313 6.46683 3.26793 6.03 3.13065 5.51764C2.99336 5.00528 3.06523 4.45937 3.33045 4L3.33045 4Z" stroke="white" stroke-width="2"/>
<path d="M15.0615 10V9H15.0615L15.0615 10ZM18.7812 12.9043L19.7237 12.57L19.7237 12.57L18.7812 12.9043ZM14.9434 14L13.963 14.1974L14.1247 15H14.9434V14ZM12.8438 10.7129L12.2388 9.91661L11.0832 10.7945L12.3151 11.5617L12.8438 10.7129ZM15.0615 10V11C16.7029 11 17.4636 12.181 17.8388 13.2386L18.7812 12.9043L19.7237 12.57C19.2588 11.2591 18.0102 9 15.0615 9V10ZM18.7812 12.9043L17.8388 13.2386C17.8318 13.2189 17.8253 13.1814 17.8336 13.1358C17.8414 13.0926 17.8593 13.0597 17.8763 13.0386C17.9087 12.9982 17.9355 13 17.9287 13V14V15C19.0753 15 20.2022 13.9191 19.7237 12.57L18.7812 12.9043ZM17.9287 14V13H14.9434V14V15H17.9287V14ZM14.9434 14L15.9237 13.8026C15.7057 12.72 15.0985 10.939 13.3724 9.86404L12.8438 10.7129L12.3151 11.5617C13.3536 12.2085 13.7891 13.3337 13.963 14.1974L14.9434 14ZM12.8438 10.7129L13.4487 11.5092C13.8351 11.2156 14.3457 11 15.0615 11L15.0615 10L15.0615 9C13.8971 9 12.9638 9.36586 12.2388 9.91661L12.8438 10.7129Z" fill="white"/>
<path d="M5.06152 10L5.0616 9H5.06152V10ZM7.27734 10.7129L7.80625 11.5616L9.03799 10.7939L7.88198 9.91639L7.27734 10.7129ZM5.17969 14V15H5.99836L6.16 14.1974L5.17969 14ZM1.34082 12.9043L0.398351 12.57L0.398284 12.5702L1.34082 12.9043ZM5.06152 10L5.06144 11C5.77586 11.0001 6.28581 11.2157 6.6727 11.5094L7.27734 10.7129L7.88198 9.91639C7.15795 9.36676 6.22589 9.00009 5.0616 9L5.06152 10ZM7.27734 10.7129L6.74844 9.86421C5.02311 10.9394 4.4172 12.721 4.19937 13.8026L5.17969 14L6.16 14.1974C6.33405 13.3333 6.7688 12.2081 7.80625 11.5616L7.27734 10.7129ZM5.17969 14V13H2.19434V14V15H5.17969V14ZM2.19434 14V13C2.18751 13 2.21389 12.9981 2.24595 13.038C2.26279 13.0589 2.28067 13.0917 2.28857 13.135C2.29692 13.1807 2.29045 13.2184 2.28336 13.2384L1.34082 12.9043L0.398284 12.5702C-0.0803103 13.9204 1.04925 15 2.19434 15V14ZM1.34082 12.9043L2.28329 13.2386C2.65829 12.1814 3.41984 11 5.06152 11V10V9C2.1131 9 0.86345 11.2588 0.398351 12.57L1.34082 12.9043Z" fill="white"/>
<path d="M10.0625 10C13.634 10 14.6544 12.5512 14.9459 14.0089C15.0542 14.5504 14.6148 15 14.0625 15H6.0625C5.51022 15 5.07079 14.5504 5.17909 14.0089C5.4706 12.5512 6.49096 10 10.0625 10Z" stroke="white" stroke-width="2" stroke-linecap="round"/>
</svg>
