<svg width="19" height="14" viewBox="0 0 19 14" fill="none" xmlns="http://www.w3.org/2000/svg">
<circle cx="9.82812" cy="3" r="2.5" stroke="white" stroke-linecap="round"/>
<path d="M3.52909 3.25C3.728 2.90547 4.05563 2.65408 4.4399 2.55111C4.82417 2.44815 5.2336 2.50205 5.57812 2.70096C5.92265 2.89987 6.17405 3.2275 6.27701 3.61177C6.37998 3.99604 6.32608 4.40547 6.12716 4.75C5.92825 5.09453 5.60062 5.34592 5.21635 5.44889C4.83208 5.55185 4.42265 5.49795 4.07813 5.29904C3.7336 5.10013 3.4822 4.7725 3.37924 4.38823C3.27627 4.00396 3.33017 3.59453 3.52909 3.25L3.52909 3.25Z" stroke="white"/>
<path d="M13.5291 3.25C13.728 2.90547 14.0556 2.65408 14.4399 2.55111C14.8242 2.44815 15.2336 2.50205 15.5781 2.70096C15.9227 2.89987 16.174 3.2275 16.277 3.61177C16.38 3.99604 16.3261 4.40547 16.1272 4.75C15.9283 5.09453 15.6006 5.34592 15.2164 5.44889C14.8321 5.55185 14.4227 5.49795 14.0781 5.29904C13.7336 5.10013 13.4822 4.7725 13.3792 4.38823C13.2763 4.00396 13.3302 3.59453 13.5291 3.25L13.5291 3.25Z" stroke="white"/>
<path d="M14.5967 8V7.5H14.5967L14.5967 8ZM18.3164 10.9043L18.7876 10.7372L18.7876 10.7372L18.3164 10.9043ZM14.4785 12L13.9884 12.0987L14.0692 12.5H14.4785V12ZM12.3789 8.71289L12.0764 8.31475L11.4986 8.75372L12.1146 9.13732L12.3789 8.71289ZM14.5967 8V8.5C16.5649 8.5 17.4476 9.95052 17.8452 11.0714L18.3164 10.9043L18.7876 10.7372C18.3451 9.4896 17.2185 7.5 14.5967 7.5V8ZM18.3164 10.9043L17.8452 11.0714C17.8847 11.183 17.8616 11.2765 17.8013 11.3516C17.7359 11.433 17.6176 11.5 17.4639 11.5V12V12.5C18.3379 12.5 19.1274 11.6951 18.7876 10.7372L18.3164 10.9043ZM17.4639 12V11.5H14.4785V12V12.5H17.4639V12ZM14.4785 12L14.9687 11.9013C14.7617 10.8735 14.1974 9.25634 12.6432 8.28846L12.3789 8.71289L12.1146 9.13732C13.325 9.89108 13.8034 11.1803 13.9884 12.0987L14.4785 12ZM12.3789 8.71289L12.6814 9.11103C13.1524 8.7532 13.7687 8.5 14.5967 8.5L14.5967 8L14.5967 7.5C13.5444 7.5 12.7168 7.82831 12.0764 8.31475L12.3789 8.71289Z" fill="white"/>
<path d="M4.59668 8L4.59672 7.5H4.59668V8ZM6.8125 8.71289L7.07695 9.13723L7.69282 8.75342L7.11482 8.31464L6.8125 8.71289ZM4.71484 12V12.5H5.12418L5.205 12.0987L4.71484 12ZM0.875977 10.9043L0.404742 10.7371L0.404708 10.7372L0.875977 10.9043ZM4.59668 8L4.59664 8.5C5.42352 8.50007 6.039 8.75346 6.51018 9.11114L6.8125 8.71289L7.11482 8.31464C6.47507 7.82899 5.64854 7.50008 4.59672 7.5L4.59668 8ZM6.8125 8.71289L6.54805 8.28855C4.99469 9.25661 4.43157 10.8741 4.22469 11.9013L4.71484 12L5.205 12.0987C5.39 11.1802 5.86753 9.89095 7.07695 9.13723L6.8125 8.71289ZM4.71484 12V11.5H1.72949V12V12.5H4.71484V12ZM1.72949 12V11.5C1.57572 11.5 1.4571 11.433 1.39148 11.3514C1.3309 11.276 1.30783 11.1826 1.34724 11.0713L0.875977 10.9043L0.404708 10.7372C0.0649489 11.6957 0.856231 12.5 1.72949 12.5V12ZM0.875977 10.9043L1.34721 11.0714C1.74474 9.95071 2.62832 8.5 4.59668 8.5V8V7.5C1.97494 7.5 0.847316 9.48941 0.404742 10.7371L0.875977 10.9043Z" fill="white"/>
<path d="M9.59766 8C13.1692 8 14.1896 10.5512 14.4811 12.0089C14.5894 12.5504 14.1499 13 13.5977 13H5.59766C5.04537 13 4.60595 12.5504 4.71425 12.0089C5.00576 10.5512 6.02612 8 9.59766 8Z" stroke="white" stroke-linecap="round"/>
</svg>
